<?xml version="1.0" encoding="utf-8"?>
<!-- Generator: Adobe Illustrator 15.1.0, SVG Export Plug-In  -->
<!DOCTYPE svg PUBLIC "-//W3C//DTD SVG 1.1//EN" "http://www.w3.org/Graphics/SVG/1.1/DTD/svg11.dtd" [
	<!ENTITY ns_flows "http://ns.adobe.com/Flows/1.0/">
]>
<svg version="1.1"
	 xmlns="http://www.w3.org/2000/svg" xmlns:xlink="http://www.w3.org/1999/xlink" xmlns:a="http://ns.adobe.com/AdobeSVGViewerExtensions/3.0/"
	 x="0px" y="0px" width="229px" height="480px" viewBox="-2.95 -1.688 229 480" enable-background="new -2.95 -1.688 229 480"
	 xml:space="preserve">
<defs>
</defs>
<path fill="#C42126" d="M220.962,148.236c-1.623,0.137-3.239,0.323-4.854,0.543c0.476-1.626-0.491-3.426-2.821-3.596
	c-1.244-0.092-2.508-0.142-3.776-0.194c0.747-0.279,1.492-0.555,2.235-0.833c2.737-1.029,2.408-5.108-0.219-5.579
	c-3.537-0.634-7.116-0.933-10.713-1.018c-0.595-0.27-1.348-0.368-2.248-0.203c-0.31,0.055-0.615,0.12-0.923,0.178
	c-1.181,0.01-2.356,0.037-3.538,0.08c-0.266-0.327-0.562-0.642-0.876-0.949c4.211-2.134,8.441-4.242,12.646-6.382
	c3.689-1.879,1.597-6.051-1.986-5.579c-3.071,0.403-6.16,0.83-9.184,1.64c-0.847,0.229-1.681,0.513-2.512,0.815
	c-0.866,0.316-2.169,0.818-2.65,0.996c-0.629-0.847-1.806-1.353-3.335-1.116c-0.786,0.12-1.564,0.257-2.345,0.394
	c0.365-0.277,0.726-0.56,1.084-0.851c1.929-1.582,1.423-4.547-0.944-5.103c-1.109-0.261-2.226-0.455-3.347-0.598
	c2.531-1.57,2.318-5.998-1.208-5.615c-0.972,0.104-1.936,0.231-2.897,0.376c-0.112-0.757-0.519-1.433-1.209-1.835
	c2.796-1.242,5.573-2.526,8.329-3.843c3.988-1.906,1.178-7.011-2.816-5.272c-1.267,0.551-2.54,1.089-3.817,1.617
	c0.943-0.742,1.877-1.492,2.796-2.257c1.843-1.535,1.413-3.633-0.121-4.639c-0.263-0.769-0.864-1.393-1.737-1.673
	c6.418-2.743,12.844-5.408,18.812-8.534c3.301-1.729,1.752-6.902-1.988-5.58c-4.932,1.742-9.913,3.499-15.021,4.311
	c0.379-0.601,0.812-1.163,1.343-1.651c1.731-1.587,1.422-4.551-0.763-5.123c1.175-0.902,2.33-1.818,3.458-2.757
	c2.507-2.084,0.62-6.093-2.712-5.102c-0.807,0.238-1.609,0.481-2.413,0.726c2.764-2.225,5.391-4.567,7.629-7.289
	c1.71-2.075-0.056-4.458-2.332-4.573c2.865-3.525,6.266-6.782,8.251-10.809c1.154-2.343-1.372-4.195-3.708-3.755
	c-3.72,0.701-7.381,1.824-11.072,2.48c0.466-0.331,0.93-0.661,1.396-0.988c2.482-1.761,0.903-5.226-1.817-5.211
	c-0.338,0-0.677,0.011-1.015,0.018c0.444-0.863,0.896-1.709,1.305-2.531c1.983-4.011,3.414-8.189,2.578-12.395
	c-0.286-1.457-2.126-2.767-3.875-2.133c-1.089,0.396-2.184,0.833-3.278,1.311c0.321-2.418-2.844-4.596-5.403-2.356
	c-1.977,1.725-4.042,3.368-6.167,4.969c-0.694-1.336-2.371-2.16-4.328-1.124c-0.365,0.194-0.733,0.386-1.103,0.579
	c-0.579-0.576-1.422-0.984-2.508-1.044c-5.715-0.331-11.407-0.296-17.098-0.202c5.051-1.753,10.383-3.08,15.117-5.101
	c2.896-1.237,1.18-5.968-2.033-5.689c-3.304,0.285-6.511,0.893-9.688,1.607c0.403-0.734,0.471-1.673,0.198-2.421
	c-0.512-1.412-1.843-2.095-3.347-2.239c-0.826-0.08-1.647-0.117-2.469-0.129c1.957-1.637,0.663-5.304-2.535-5.366
	c-0.475-0.01-0.945-0.034-1.42-0.062c-0.467-0.604-1.147-1.052-1.969-1.179c-1.091-1.034-3.017-1.447-4.408-0.784
	c-1.672,0.793-3.149,1.713-4.49,2.92c-1.675,1.513-0.647,4.263,1.445,5.013c0.01,0.037,0.024,0.077,0.036,0.115
	c-0.584,0.371-1.167,0.74-1.748,1.11c-2.366,1.504-1.503,6.118,2.031,5.689c1.231-0.149,2.459-0.325,3.684-0.496
	c-0.678,0.637-1.335,1.295-1.947,2c-1.298,1.492-0.891,3.263,0.372,4.291c-0.91,0.559-1.798,1.159-2.657,1.816
	c-2.259,1.728,0.013,5.215,2.679,5.21c4.896-0.009,9.786-0.142,14.679-0.216c-0.994,0.414-1.986,0.83-2.979,1.244
	c-1.311,0.548-1.752,2.239-1.314,3.448c0.113,0.305,0.258,0.575,0.439,0.814c-12.337,5.688-24.368,11.784-34.233,21.302
	c-2.402,2.316-0.724,5.801,2.712,5.103c8.321-1.685,16.598-4.152,24.88-6.687c-0.943,1.772-0.239,3.518,1.694,4.189
	c0.35,0.123,0.709,0.229,1.062,0.334c-4.714,4.292-9.004,8.916-12.53,14.107c-1.718,2.524,1.017,6.021,4.123,4.177
	c2.4-1.427,4.824-2.824,7.265-4.18c-1.441,1.701-2.692,3.545-3.65,5.617c-0.898,1.948,0.746,3.802,2.813,3.864
	c1.124,0.034,2.252,0.039,3.377,0.019c0.491,0.37,1.127,0.598,1.887,0.591c1.895-0.016,3.782-0.146,5.653-0.364
	c0.59,1.119,2.023,1.834,3.645,1.537c1.128-0.208,2.247-0.435,3.373-0.669c-0.655,1.917,1.092,4.006,3.761,3.662
	c1.492-0.193,2.979-0.454,4.455-0.754c-6.953,4.069-14.125,8.339-18.963,14.586c-1.177,1.517-0.594,4.217,1.524,4.484
	c1.765,0.224,3.522,0.318,5.275,0.305c-1.598,1.514-3.149,3.059-4.64,4.645c-4.812,1.058-9.611,2.255-14.445,3.204
	c-4.289,0.84-3.103,6.684,1.16,5.886c2.261-0.422,4.524-0.827,6.787-1.22c-1.369,1.929-2.623,3.926-3.733,6.013
	c-0.732,1.375,0.138,2.983,1.457,3.586c0.02,1.466,1.53,2.648,3.101,2.721c1.482,0.068,2.946,0.021,4.399-0.119
	c-0.753,0.944-1.501,1.893-2.23,2.852c-0.229,0.299-0.393,0.65-0.492,1.021c-0.396,0.268-0.783,0.532-1.172,0.803
	c-1.618,1.136-1.493,3.021-0.462,4.19c-3.779,1.26-7.608,2.357-11.49,3.277c-1.369,0.17-2.733,0.462-4.087,0.905
	c-1.872,0.612-2.695,2.06-2.634,3.377c-3.48,0.829-6.924,1.929-10.322,3.038c-1.457,0.476-2.598,1.499-2.748,2.944
	c-0.154,1.495,1.188,3.274,3.012,3.053c4.313-0.525,8.873-0.526,13.142-1.53c2.325-0.548,4.59-1.616,6.783-2.81
	c0.929-0.029,1.856-0.039,2.782-0.038c-1.879,0.833-3.68,1.822-5.316,3.13c-2.417,1.927-0.946,5.072,1.813,5.211
	c7.004,0.353,14.303-0.64,21.381-0.554c-7.573,2.888-15.625,4.494-23.509,6.157c-3.676,0.776-3.541,6.412,0.265,5.996
	c5.963-0.649,11.916-1.585,17.885-2.081c0.662-0.056,1.325-0.104,1.991-0.148c-0.858,0.616-1.71,1.25-2.541,1.902
	c-0.287,0.226-0.515,0.463-0.698,0.708c-3.353,1.03-6.741,1.942-10.147,2.72c-7.574,0.188-15.302,1.486-22.662,3.114
	c-3.708,0.822-3.525,6.157,0.266,5.997c7.503-0.316,15.136-1.382,22.688-3.063c0.479-0.006,0.954-0.009,1.426-0.006
	c0.049,0.374,0.17,0.731,0.36,1.054c-3.359,1.714-6.716,3.427-9.868,5.484c-3.103,2.026-1.998,6.429,1.988,5.581
	c5.994-1.277,11.998-3.376,18.051-4.326c-0.979,0.772-1.991,1.513-3.015,2.237c-9.072,2.766-17.961,6.141-25.574,11.639
	c-3.352,2.422,0.326,6.408,3.708,4.655l-0.713,4.935c0,0-6.171,18.575-5.142,23.903c0.39,2.045-1.302-1.179,5.873-4.005
	l-0.811,2.946c-0.841-0.056-1.88-0.193-2.285-0.096c-0.199,0.443-0.575,0.974-0.899,1.345c0.039-0.011,0.083-0.021,0.125-0.029
	l-2.535,5.256c-5.313,6.089-13.762,16.056-22.161,27.126c-0.286,0.115-0.575,0.229-0.866,0.337c-2.264,0.831-3.002,2.716-2.48,4.143
	c-2.558,3.474-5.066,7.017-7.438,10.545c-3.421,1.318-6.843,2.638-10.263,3.949c-3.736,1.433-1.606,6.334,1.991,5.58
	c0.845-0.18,1.692-0.36,2.542-0.542c-4.971,8.295-8.699,16.131-9.897,22.397c-0.108,2.423,0.768,4.079,2.31,5.163l0,0l10.496,12.552
	c-1.18,0.586-2.346,1.196-3.492,1.848c-2.816,1.596-2.384,5.774,1.092,5.688c0.732-0.019,1.461-0.045,2.19-0.065
	c-1.187,1.835,0.083,4.693,2.561,4.437c2.299-0.238,4.599-0.528,6.896-0.854l5.11,6.11c-0.96,0.32-1.921,0.64-2.881,0.958
	c-4.125,1.369-3.172,6.735,1.164,5.887c2.104-0.412,4.199-0.879,6.289-1.378l1.762,2.109c-1.794,1.184-3.51,2.483-5.117,3.938
	c-3.195,2.894,1.053,7.223,4.262,4.316c1.491-1.35,3.072-2.547,4.712-3.639l5.248,6.273c-2.202,0.727-4.358,1.646-6.446,2.85
	c-3.186,1.829-1.872,6.776,1.988,5.579c3.032-0.941,6.084-1.876,9.138-2.832l2.615,3.127c-5.61,21.83-12.188,42.196-19.302,54.222
	l-5.053-0.306l0.128,0.875c0.338,3.146-0.891,6.021-2.533,8.37c-1.266,0.148-2.483,0.467-3.602,0.978
	c-0.96,0.441-0.852,1.392-0.268,1.988c-0.957,0.095-1.907,0.271-2.834,0.514c-1.061,0.278-1.191,1.29-0.757,1.988
	c-1.913-0.109-3.862,0.096-5.795,0.676c-0.793,0.239-1.059,0.885-0.956,1.486c-2.439,0.509-4.88,1.067-7.236,1.683
	c-1.795,0.464-8.322,2.146-12.667,3.238c-6.289,1.581-6.035,6.092-5.56,8.149H42.98l0.044,0.97h0.221
	c0.003,0.027,0.004,0.053,0.008,0.078c-0.927,0.273-1.576,1.241-1.524,2.401l0.248,5.584c0.063,1.369,1.081,2.48,2.273,2.48h77.674
	c1.193,0,2.114-1.111,2.051-2.48l-0.251-5.584c-0.063-1.369-1.079-2.478-2.271-2.478h-0.166l-0.044-0.97h-0.092l0.599-1.485
	c0.191,0.057,0.381,0.111,0.574,0.164c0.177-0.322,0.326-1.296,0.436-2.66l0.055-0.13l-0.037-0.034
	c0.406-5.112,0.379-15.35-0.198-17.984c2.596-6.456,5.155-12.85,7.574-19.161c2.596,0.52,5.055,2.572,7.202,5.119
	c-0.04,0.936,0.067,1.872,0.363,2.771c0.25,0.759,1.062,0.855,1.628,0.552c-0.039,0.689-0.019,1.385,0.071,2.079
	c0.102,0.798,0.932,1.076,1.569,0.897c-0.327,1.318-0.401,2.717-0.159,4.176c0.228,1.352,2.528,1.217,2.301-0.147
	c-0.092-0.547-0.133-1.086-0.124-1.61c0.12,0.23,0.234,0.456,0.344,0.675c-0.313,1.277-0.349,2.604-0.019,3.881
	c0.197,0.769,1.002,0.909,1.589,0.643c-0.084,0.684-0.114,1.375-0.07,2.074c0.039,0.668,0.612,1.004,1.183,1.016
	c0.045,0.188,0.097,0.377,0.146,0.567c-0.287,1.119-0.388,2.305-0.263,3.548c0.076,0.79,0.887,1.115,1.526,0.986
	c1.783,6.034,3.964,11.936,6.506,16.09c0.364,0.86,0.724,1.672,1.046,2.342c1.844,3.855,6.647,3.781,8.761,3.546
	c0.068,0.373,0.131,0.747,0.199,1.122c0.325-0.041,0.485-0.061,0.811-0.102c-0.011-0.042-0.016-0.084-0.022-0.128
	c0.378,0.857,1.268,1.417,2.181,1.297c1.744-0.229,2.618-0.345,4.362-0.573c0.449-0.062,0.827-0.274,1.102-0.58
	c0.287,0.211,0.567,0.324,0.838,0.324c1.358,0,1.655-1.279-2.119-37.433c-0.927-20.665,0.124-37.405-1.236-37.405
	c-0.52,0-1.323-0.628-1.959-0.254c0,0-0.002,0-0.003,0c-1.766-0.231-2.649-0.347-4.412-0.574c-1.021-0.134-1.94,0.564-2.139,1.58
	c-0.296-0.038-0.464-0.059-0.775-0.096c-0.04,0.419-0.067,0.841-0.108,1.261l-6.415-2.099l-2.46-3.983
	c0.204-0.233,0.414-0.44,0.63-0.61c-2.959-2.251-6.01-6.176-9.187-11.097c2.576-11.312,3.807-22.132,2.968-32.297
	c2.108-5.067,4.17-10.039,6.162-14.884c0.386-0.456,0.589-0.99,0.636-1.536c2.878-6.99,5.618-13.7,8.186-20.013
	c3.712-1.282,7.402-2.631,11.06-4.085c3.146-1.251,2.131-5.884-1.094-5.688c-2.083,0.125-4.158,0.32-6.231,0.561
	c1.385-3.422,2.699-6.69,3.944-9.787c0.734-0.563,1.446-1.178,2.134-1.862c1.076-1.067,1.581-2.429,0.902-3.697
	c-0.135-0.25-0.318-0.478-0.535-0.676c1.795-4.489,3.396-8.505,4.771-11.969c2.296-1.235,4.571-2.514,6.815-3.848
	c2.609-1.558,2.531-6.014-1.095-5.69c-0.676,0.06-1.349,0.129-2.024,0.19c1.25-3.175,1.93-4.911,1.93-4.911l8.054-10.539
	l0.063-22.353c0.183-1.572,0.235-2.708,0.235-2.708s2.479,9.005,3.334,12.119c0.857,3.111,4.166,1.593,3.948-0.859l-0.025-24.373
	c2.524-1.168,5.048-2.334,7.577-3.494c2.482-1.139,2.646-5.21-0.221-5.58c-3.424-0.441-6.818-0.72-10.236-0.759
	c-0.082-0.084-0.179-0.163-0.273-0.234c2.299-1.742,4.641-3.454,6.675-5.43c4.178-1.168,8.292-2.612,12.282-4.229
	c2.888-1.172,2.239-4.872-0.218-5.58c-4.506-1.303-9.167-1.769-13.894-1.682c1.536-2.15,0.02-4.839-3.226-4.425
	c-1.852,0.237-3.733,0.457-5.602,0.552c0.865-0.592,1.398-1.383,1.585-2.191c5.479-3.491,11.81-5.935,17.634-8.654
	c3.117-1.459,2.141-5.688-1.093-5.688c-0.672-0.001-1.384,0.016-2.111,0.024c0.008-0.195-0.004-0.389-0.035-0.579
	c2.044-1.175,4.179-2.199,6.383-3.04c2.731-0.252,5.432-1.028,8.037-2.318c3.62-1.789,1.661-6.22-1.988-5.581
	c-0.398,0.07-0.796,0.153-1.198,0.236c1.843-1.44,3.748-2.822,5.524-4.291C224.892,151.699,223.97,147.979,220.962,148.236z
	 M137.909,427.824c-2.635-0.519-4.665-3.436-7.392-3.336c0.598-1.563,1.187-3.122,1.761-4.673l-0.007,0.271
	c-0.162-0.07,2.991,2.639,2.991,2.639l2.646,5.094C137.91,427.82,137.91,427.823,137.909,427.824z M123.54,208.352
	c-0.642,0.611-0.997,1.271-1.121,1.909h-3.512c1.824-1.051,3.725-1.992,5.667-2.845C124.228,207.72,123.88,208.029,123.54,208.352z
	 M168.592,428.81c0.04,2.835,0.097,5.807,0.314,8.877c0.186,2.631,0.367,5.417,0.374,8.242
	C168.865,440.222,168.631,434.519,168.592,428.81z M167.518,37.88c1.763-1.328,3.717-2.482,5.678-3.442
	c-0.588,2.597-2.041,5.158-3.256,7.582c-0.382,0.764-2.238,6.974-2.576,7.74c-0.896,0.084-6.99-3.272-7.887-3.163
	c0.715-0.553,5.063-1.787,5.764-2.346C167.342,42.577,169.446,38.622,167.518,37.88z M156.037,41.745
	c-0.229,0.419-0.445,0.843-0.645,1.278c-0.353,0.77-0.307,1.52-0.004,2.152c-0.797,0.583-1.593,1.164-2.395,1.747
	c-2.053,0.464-4.1,0.968-6.144,1.498C149.81,46.11,152.917,43.919,156.037,41.745z M155.553,52.433
	c3.672-0.775,7.354-1.402,11.059-1.829c-3.188,2.437-6.264,4.981-9.112,7.726c-0.537,0.093-1.074,0.185-1.61,0.273
	c-3.458,0.57-7.065,1.126-10.651,1.379C148.629,57.413,152.102,54.919,155.553,52.433z M160.559,63.872
	c3.461-0.63,18.495-7.102,21.963-7.654c-1.365,0.875-14.739,10.049-16.173,10.835c-0.618-0.863-1.358-3.912-2.878-3.516
	c-1.022,0.266-2.034,0.395-3.044,0.472C160.471,63.964,160.514,63.919,160.559,63.872z M114.097,57.953
	c9.943-6.75,21.172-11.513,32.251-16.569c-4.579,3.337-8.974,6.831-12.801,10.813C127.063,54.145,120.591,56.167,114.097,57.953z
	 M140.147,56.377c-1.437,1.101-2.856,2.213-4.256,3.346c-0.218-0.034-0.435-0.069-0.649-0.11c0.637-0.814,1.3-1.605,1.987-2.378
	C138.201,56.945,139.172,56.66,140.147,56.377z M137.58,66.112c1.105,0.066,2.222,0.093,3.344,0.081
	c-2.446,1.069-4.861,2.207-7.248,3.397C134.946,68.405,136.249,67.248,137.58,66.112z M134.731,81.259
	c4.283-4.716,10.614-8.249,15.307-12.417c0.589,1.446,2.674,2.229,4.642,1.496c0.127-0.047,0.262-0.083,0.398-0.115
	C148.07,73.493,140.998,76.804,134.731,81.259z M157.469,97.345c0.313-0.181,3.456,0.303,3.77,0.123
	c-2.08,2.062-8.982,6.609-11.185,8.57c-0.619,0.164,0.67-2.906,0.056-2.752C152.453,101.206,154.925,99.242,157.469,97.345z
	 M170.345,105.638c-2.193,1.255-12.205,7.102-14.447,8.303c-1.003,0.029-3.406-2.076-4.409-2.028
	c0.744-0.573,0.819-2.705,1.592-3.242C154.092,108.424,168.892,106.095,170.345,105.638z M143.139,125.552
	c1.803-0.497,3.602-1.023,5.395-1.573c0.008,0.013,0.012,0.026,0.018,0.04c-0.25,0.229-0.497,0.458-0.739,0.691
	c-0.873,0.84-1.229,2.154-1.012,3.259c-0.774,0.257-1.553,0.501-2.332,0.734c-0.013,0-0.028-0.003-0.041-0.003
	c-1.702,0.014-3.421,0.095-5.128,0.13C140.476,127.663,141.772,126.575,143.139,125.552z M141.365,151.9
	c-3.194-0.006-6.384-0.157-9.576-0.268c4.313-1.385,8.572-2.969,12.759-4.729c2.284-0.27,4.563-0.693,6.757-1.154
	c0.071-0.015,0.137-0.032,0.209-0.046c-2.549,2.16-4.757,4.625-6.154,7.435c-0.389,0.232-0.773,0.463-1.16,0.696
	C143.864,152.755,142.885,151.902,141.365,151.9z M149.757,210.261c0.259-0.14,0.517-0.275,0.778-0.409
	c0.011,0.138,0.03,0.274,0.063,0.409H149.757z M149.405,188.504c-0.491-0.33-1.096-0.546-1.776-0.584
	c-0.082-0.004-0.162-0.006-0.245-0.01c2.61-0.921,5.234-1.81,7.861-2.69C153.268,186.262,151.32,187.353,149.405,188.504z
	 M161.625,210.261h-0.387c0.187-0.056,0.377-0.111,0.565-0.166C161.745,210.15,161.684,210.204,161.625,210.261z M166.003,159.689
	c-3.93,0.491-7.854,0.712-11.712,0.507c-0.145-0.027-0.284-0.054-0.426-0.079c0.024-0.02,0.056-0.037,0.083-0.056
	c4.605,0.051,9.265-0.674,13.927-1.309C167.251,159.06,166.627,159.372,166.003,159.689z M171.136,165.049
	c0.033-0.021,0.064-0.044,0.099-0.065c0.057-0.011,0.115-0.021,0.173-0.031C171.319,164.984,171.225,165.017,171.136,165.049z
	 M158.958,78.164c-1.709,0.393-3.425,0.779-5.135,1.149c1.677-1.447,3.393-2.859,5.106-4.279c5.233-2.408,14.368-6.962,19.149-9.987
	c0.146,0.761,2.461-0.294,3.162,0.132c-2.955,2.508-11.884,8.619-14.865,11.067C163.897,76.83,161.425,77.492,158.958,78.164z
	 M172.003,93.891c-1.438,0.627-2.868,1.262-4.292,1.909c0.635-0.721,1.257-1.449,1.853-2.192c0.988-1.224,0.756-2.717-0.164-3.664
	c0.802-0.577,1.585-1.168,2.349-1.781c0.354-0.071,0.709-0.139,1.06-0.205c-0.385,0.667-0.801,1.326-1.287,1.959
	C170.464,91.288,170.836,92.993,172.003,93.891z M181.403,150.429c-0.635-0.166-1.275-0.31-1.919-0.428
	c1.312-0.404,2.623-0.816,3.932-1.239C182.751,149.325,182.08,149.88,181.403,150.429z M187.634,203.943
	c-0.071-0.157-0.158-0.303-0.255-0.442c0.327-0.036,0.654-0.074,0.982-0.113C188.121,203.571,187.875,203.757,187.634,203.943z
	 M185.472,155.715c0.133-0.379,0.178-0.767,0.141-1.144c2.299-1.842,4.531-3.755,6.67-5.771c-0.104,1.28,0.732,2.526,2.13,2.991
	c1.038,0.345,7.48,0.304,8.572,0.5C198.929,153.314,189.515,154.697,185.472,155.715z M205.482,160.739
	c-0.337,0.443-1.912,5.452-1.97,5.982c-0.118,0.061-0.804-2.355-0.923-2.292c0.082-1.527,0.808-5.098-1.054-5.202
	c-2.158-0.121-4.333-0.082-6.516,0.086c5.069-1.327,10.144-2.594,15.222-3.552C208.498,157.277,206.868,158.897,205.482,160.739z"/>
<circle fill="#CACBD0" cx="85.806" cy="247.531" r="6.013"/>
<polygon fill="#CACBD0" points="45.617,438.109 57.457,438.799 47.265,453.134 "/>
<path fill="#333332" d="M79.573,469.686l3.068-6.523l-4.464-3.857l-0.019-0.178l-0.312-0.105l-16.41-14.173l-3.376-1.07
	c0.077-0.147,0.123-0.236,0.123-0.236l-0.319,0.173l-4.51-1.429l-5.508,7.07c0.731-3.081,0.844-7.351-2.229-11.248
	c1.341,8.325-9.512,14.924-9.512,14.924c-15.215,2.435-34.779,6.915-34.513,13.821c0.433,11.283,2.982,10.607,2.982,10.607h75.325
	l-0.747-7.894L79.573,469.686z"/>
<path fill="#F2F2F2" d="M21.06,455.986c0,0,15.891,1.026,19.789,4.377c3.896,3.349,3.93,7.726,3.93,7.726l-42.948,0.074
	c0,0-2.732-6.907,5.735-8.918C12.781,458.006,21.06,455.986,21.06,455.986z"/>
<path fill="#F2F2F2" d="M83.22,475.906c0,1.326-0.981,2.406-2.194,2.406H2.192c-1.211,0-2.192-1.08-2.192-2.406v-5.412
	c0-1.33,0.981-2.405,2.192-2.405h78.834c1.213,0,2.194,1.075,2.194,2.405V475.906z"/>
<rect x="27.948" y="471.233" fill="#CACBD0" width="52.308" height="0.939"/>
<rect x="1.43" y="467.149" fill="#333332" width="79.431" height="0.939"/>
<rect x="27.948" y="474.642" fill="#CACBD0" width="52.308" height="0.939"/>
<path fill="#CACBD0" d="M29.827,455.583c5.858-1.654,11.441,0.374,15.565,4.128c1.349,1.229,3.48-0.643,2.133-1.868
	c-4.842-4.407-11.664-6.742-18.501-4.809C27.181,453.558,27.967,456.11,29.827,455.583L29.827,455.583z"/>
<path fill="#CACBD0" d="M36.599,452.999c2.733-0.678,5.182-0.554,7.887,0.144c2.276,0.587,3.911,2.045,5.771,3.251
	c1.566,1.013,3.07-1.284,1.521-2.285c-2.165-1.4-3.92-2.706-6.491-3.517c-3.078-0.969-6.383-0.913-9.492-0.143
	C33.927,450.912,34.723,453.464,36.599,452.999L36.599,452.999z"/>
<path fill="#CACBD0" d="M40.583,450.309c3.84-1.646,10.002-0.311,12.621,2.671c1.168,1.332,3.792,0.017,2.605-1.333
	c-3.688-4.2-11.277-5.967-16.753-3.62C37.31,448.774,38.841,451.054,40.583,450.309L40.583,450.309z"/>
<path fill="#333332" d="M117.145,403.392l-2.774-4.629l-8.059,4.441l-11.186,7.335l-0.957,11.381
	c-0.162-0.069,2.918,2.557,2.918,2.557l2.459,4.949c-3.382-0.639-5.587-5.069-9.861-2.392c9.13-1.169,16.364,17.62,16.364,17.62
	c2.673,13.266,7.587,30.33,15.162,30.099c12.374-0.38,8.36-2.6,8.36-2.6V406.46l-5.84-0.982L117.145,403.392z"/>
<path fill="#F2F2F2" d="M111.516,462.477c0,0,1.201-6.869,4.875-9.103c3.675-2.237,8.218-3.333,8.218-3.333l0.08,24.63
	c0,0-7.576,1.566-9.781-3.29C113.549,468.393,111.516,462.477,111.516,462.477z"/>
<path fill="#CACBD0" d="M108.925,452.541c-0.238-4.188,2.632-7.449,6.679-9.404c1.326-0.641,0.151-2.42-1.174-1.781
	c-4.749,2.297-8.128,6.309-7.848,11.198C106.653,453.873,109.001,453.869,108.925,452.541L108.925,452.541z"/>
<path fill="#CACBD0" d="M108.079,447.563c-0.026-1.936,0.573-3.518,1.714-5.157c0.962-1.379,2.543-2.16,3.946-3.141
	c1.187-0.826-0.473-2.277-1.646-1.462c-1.636,1.142-3.111,2.034-4.324,3.561c-1.449,1.828-2.07,4.014-2.036,6.214
	C105.751,448.9,108.098,448.893,108.079,447.563L108.079,447.563z"/>
<path fill="#CACBD0" d="M106.578,444.402c-0.633-2.86,1.752-6.643,4.833-7.763c1.378-0.5,0.781-2.491-0.618-1.985
	c-4.336,1.578-7.385,6.215-6.48,10.288C104.605,446.243,106.864,445.697,106.578,444.402L106.578,444.402z"/>
<path fill="#CACBD0" d="M104.246,442.088c-0.538-4.166,2.085-7.579,5.985-9.755c1.278-0.712-0.023-2.424-1.298-1.711
	c-4.572,2.554-7.655,6.745-7.03,11.61C102.075,443.542,104.416,443.408,104.246,442.088L104.246,442.088z"/>
<path fill="#CACBD0" d="M103.042,437.168c-0.166-1.93,0.318-3.544,1.342-5.241c0.858-1.431,2.378-2.297,3.713-3.353
	c1.122-0.89-0.644-2.246-1.749-1.368c-1.557,1.228-2.962,2.202-4.059,3.793c-1.315,1.903-1.779,4.12-1.588,6.312
	C100.814,438.63,103.157,438.493,103.042,437.168L103.042,437.168z"/>
<path fill="#CACBD0" d="M101.317,434.097c-0.84-2.821,1.271-6.728,4.269-8.016c1.335-0.576,0.595-2.527-0.761-1.946
	c-4.214,1.814-6.925,6.608-5.73,10.625C99.479,436.045,101.698,435.374,101.317,434.097L101.317,434.097z"/>
<path fill="#F2F2F2" d="M131.208,403.319c1.094,0.137,1.839,1.098,1.678,2.148c-3.259,22.989-3.257,45.781,0,68.771
	c0.161,1.052-0.584,2.013-1.678,2.149c-1.782,0.222-2.672,0.334-4.455,0.557c-1.091,0.137-2.118-0.63-2.285-1.712
	c-3.367-23.644-3.366-47.113,0-70.757c0.167-1.082,1.194-1.849,2.285-1.712C128.537,402.985,129.426,403.095,131.208,403.319z"/>
<path fill="#CACBD0" d="M127.726,405.555c-2.165,15.47-2.91,30.867-2.251,46.444c-0.314,0.013-0.468,0.019-0.782,0.03
	c-0.657-15.618,0.09-31.053,2.257-46.564C127.26,405.499,127.415,405.518,127.726,405.555z"/>
<path fill="#CACBD0" d="M130.534,405.877c-2.145,15.325-2.882,30.576-2.23,46.006c-0.313,0.012-0.471,0.018-0.78,0.032
	c-0.653-15.469,0.084-30.762,2.234-46.128C130.071,405.823,130.223,405.842,130.534,405.877z"/>
<path fill="#333332" d="M124.555,404.3c-3.42,23.898-3.396,47.618,0.063,71.513c-0.33,0.039-0.494,0.059-0.827,0.097
	c-3.472-23.96-3.492-47.743-0.063-71.706C124.058,404.242,124.225,404.26,124.555,404.3z"/>
<path fill="#9A857A" d="M132.743,439.839c2.187,35.06,1.826,36.303,0.443,36.303c-2.663,0-5.976-10.145-3.502-21.791
	c1.096-5.17,0.989-10.532,0.864-15.362c-0.19-7.302,0.556-14.019,0.021-19.627c-1.903-19.969,1.235-15.795,2.617-15.795
	C134.569,403.566,132.743,419.798,132.743,439.839z"/>
<path fill="#FFFFFF" d="M113.77,406.028c1.862,1.632,2.084,4.084,0.499,5.473c-1.59,1.393-4.387,1.199-6.249-0.436
	c-1.862-1.631-2.085-4.084-0.498-5.474C109.109,404.201,111.91,404.396,113.77,406.028z"/>
<path fill="#231F20" d="M27.08,330.641l68.271,82.428c0,0,6.303,2.254,10.362-0.568c4.388-3.051,6.663-11.275,9.785-13.563
	c-14.289-10.754-29.049-60.854-51.29-72.151C56.644,324.691,27.08,330.641,27.08,330.641z"/>
<path fill="#231F20" d="M90.058,228.708l-6.566,19.601c0,0-52.252,51.945-58.521,77.324c-1.191,12.821,28.253,3.583,35.832,2.043
	c0.26-0.029,0.538-0.094,0.839-0.188c6.025-13.891,25.134-23.309,34.283-32.231c-0.527,2.54-23.877,117.172-47.97,146.957
	c9.792,0,18.337,19.555,34.06,23.653c0.914-1.467,1.801-16.897,1.205-20.181c15.041-32.137,28.974-62.709,27.94-88.832
	c22.559-46.745,40.088-85.233,40.088-85.233l8.652-10.222l1.777-35.588L90.058,228.708z"/>
<polygon fill="#231F20" points="80.581,248.936 77.473,254.579 92.532,248.718 "/>
<path fill="#C2B59B" d="M137.538,260.033c1.979,1.422,3.797,2.611,5.176,4.104c0.016-0.013,0.029-0.024,0.046-0.037
	c1.084-0.907,2.174-1.813,3.259-2.718c1.307-1.091,1.292-2.479,0.06-3.613c-1.644-1.515-3.287-3.029-4.927-4.541
	c-1.272-1.17-2.494-2.406-3.834-3.516c-0.954-0.789-2.513-0.686-3.428,0.079c-0.253,0.213-0.508,0.422-0.761,0.633
	c-0.776,0.648-1.553,1.294-2.33,1.941C132.359,255.333,134.48,257.834,137.538,260.033z"/>
<path fill="#FFFFFF" d="M137.538,260.033c1.847,1.327,3.551,2.454,4.894,3.813l3.548-2.959c0.837-0.696,0.867-1.857,0.072-2.59
	l-8.885-8.184c-0.797-0.733-2.121-0.762-2.955-0.065l-3.218,2.682C132.537,255.539,134.603,257.926,137.538,260.033z"/>
<path fill="#231F20" d="M136.26,251.293c-0.251,0.206-0.646,0.198-0.88-0.021c-0.239-0.219-0.231-0.564,0.02-0.772
	c0.248-0.209,0.646-0.2,0.884,0.019C136.52,250.737,136.509,251.082,136.26,251.293z"/>
<path fill="#FAAF42" d="M137.019,252.767c-0.157,0.128-0.408,0.123-0.554-0.014l0,0c-0.149-0.138-0.143-0.354,0.012-0.484
	l0.886-0.738c0.157-0.131,0.403-0.124,0.553,0.011l0,0c0.151,0.139,0.143,0.354-0.016,0.485L137.019,252.767z"/>
<path fill="#C2B59B" d="M137.538,260.033c1.979,1.422,3.797,2.611,5.176,4.104l2.87-2.394l-12.367-11.393l-2.416,2.015
	C132.359,255.333,134.48,257.834,137.538,260.033z"/>
<path fill="#9A857A" d="M136.588,259.313c0.331-0.264,0.543-0.638,0.543-1.062c0-0.794-0.74-1.438-1.644-1.438
	c-0.465,0-0.884,0.169-1.182,0.44C134.998,257.969,135.755,258.653,136.588,259.313z"/>
<path fill="#333332" d="M128.061,249.824c1.354,3.546,3.154,6.691,6.18,9.37c3.598,3.188,8.279,4.879,9.347,9.641
	c0.187,0.827,1.626,0.475,1.44-0.35c-0.921-4.108-3.95-5.911-7.489-8.452c-4.005-2.882-6.4-6.272-8.035-10.558
	C129.196,248.682,127.757,249.02,128.061,249.824L128.061,249.824z"/>
<ellipse fill="#B8802B" cx="144.401" cy="268.985" rx="1.195" ry="1.046"/>
<ellipse fill="#B8802B" cx="128.63" cy="249.543" rx="1.194" ry="1.046"/>
<path fill="#FFFFFF" d="M141.009,261.957c-1.755-1.617-4.965,0.715-6.368,1.703c-3.147,2.214-5.329,5.278-5.6,8.856
	c-0.03,0.423,0.716,0.42,0.745,0c0.226-2.984,1.892-5.599,4.357-7.613c1.101-0.902,4.781-3.885,6.371-2.442
	c-3.844,4.335-4.388,10.735-4.425,16.003c-0.007,0.422,0.741,0.42,0.745,0c0.04-5.215,0.329-11.57,4.369-15.733
	C141.481,262.445,141.242,262.235,141.009,261.957z"/>
<path fill="#333332" d="M93.446,243.276c-2.536,2.357-5.257,3.937-8.851,4.752c-0.672,0.155-2.709-0.22-3.331-0.075
	c-0.225,0.431-0.63,0.944-0.974,1.305c1.657-0.482,4.619,0.226,6.741-0.907c2.631-1.401,5.135-2.518,7.234-4.471
	C94.741,243.44,93.917,242.839,93.446,243.276z"/>
<path fill="#B8802B" d="M92.61,243.407c-0.199,0.376-0.01,0.822,0.417,0.997c0.431,0.171,0.941,0.011,1.139-0.367
	c0.197-0.376,0.01-0.822-0.42-0.995C93.319,242.867,92.809,243.031,92.61,243.407z"/>
<ellipse fill="#FFFFFF" cx="136.46" cy="279.25" rx="1.41" ry="1.236"/>
<ellipse fill="#FFFFFF" cx="129.416" cy="272.927" rx="1.408" ry="1.235"/>
<polygon fill="#FCD09E" points="117.302,98.024 110.558,111.506 108.843,120.232 122.326,157.327 169.008,121.099 154.692,112.082 
	127.892,77.158 "/>
<polygon fill="#EEB180" points="112.805,126.594 112.564,128.452 114.991,130.226 113.091,128.008 "/>
<polygon fill="#EEB180" points="113.515,123.379 113.645,125.634 116.174,127.047 "/>
<polygon fill="#EEB180" points="111.348,130.456 111.348,132.313 113.777,134.087 111.878,131.869 "/>
<path id="XMLID_6_" fill="#FFFFFF" d="M95.433,167.399L107.6,130.77l12.476-6.477l6.545,16.279l35.445-23.322l23.022,11.375
	c0,0-1.04,19.288-0.428,26.138c-12.874,46.723-20.623,63.526-20.623,63.526s1.117,25.646,1.219,28.228
	c0.103,2.579-3.156,4.176-3.849,0.9c-0.69-3.273-2.693-12.748-2.693-12.748s-0.523,6.313-2.125,10.002
	c-1.93,5.09-10.186-4.722-43.528-4.852c-37.114-0.146-32.725,11.385-33.206,7.836c-0.762-5.604,5.995-25.147,5.995-25.147
	L95.433,167.399z"/>
<g>
	<defs>
		<path id="SVGID_3_" d="M95.433,167.399L107.6,130.77l12.476-6.477l6.545,16.279l35.445-23.322l23.022,11.375
			c0,0-1.04,19.288-0.428,26.138c-12.874,46.723-20.623,63.526-20.623,63.526s1.117,25.646,1.219,28.228
			c0.103,2.579-3.156,4.176-3.849,0.9c-0.69-3.273-2.693-12.748-2.693-12.748s-0.523,6.313-2.125,10.002
			c-1.93,5.09-10.186-4.722-43.528-4.852c-37.114-0.146-32.725,11.385-33.206,7.836c-0.762-5.604,5.995-25.147,5.995-25.147
			L95.433,167.399z"/>
	</defs>
	<clipPath id="SVGID_4_">
		<use xlink:href="#SVGID_3_"  overflow="visible"/>
	</clipPath>
	<path clip-path="url(#SVGID_4_)" fill="#D1D2D3" d="M138.532,189.308c0,0,28.931-18.021,33.255-17.406
		c4.321,0.615-11.875,45.867-11.875,45.867l1.122,2.867l4.223,25.883l1.13-28.135l20.179-61.222l-9.241-4.917L138.532,189.308z"/>
</g>
<path fill="#00A79C" d="M186.743,169.053l-62.235,40.596l8.123,8.831l62.233-40.597L186.743,169.053z M132.903,216.675l-1.699-1.845
	l0.491-0.321l1.304,1.418l1.413-0.923l-1.305-1.42l0.493-0.317l1.305,1.416l1.415-0.925l-1.304-1.416l0.491-0.323l1.304,1.42
	l1.413-0.922l-1.303-1.42l0.491-0.323l1.308,1.42l1.411-0.919l-1.304-1.42l0.491-0.323l1.304,1.42l1.419-0.921l-1.306-1.421
	l0.492-0.322l1.303,1.421l1.415-0.922l-1.305-1.421l0.494-0.321l1.306,1.421l1.415-0.925l-1.307-1.418l0.489-0.32l1.304,1.418
	l1.42-0.921l-1.309-1.42l0.492-0.322l1.307,1.417l1.411-0.919l-1.303-1.42l0.493-0.322l1.302,1.419l1.415-0.921l-1.302-1.419
	l0.489-0.323l1.307,1.421l1.415-0.923l-1.303-1.42l0.49-0.321l1.306,1.418l1.415-0.922l-1.308-1.415l0.494-0.324l1.305,1.42
	l1.412-0.926l-1.303-1.416l0.489-0.32l1.305,1.417l1.418-0.923l-1.308-1.417l0.494-0.324l1.303,1.419l1.417-0.923l-1.304-1.417
	l0.493-0.322l1.302,1.419l1.637-1.071l-1.304-1.419l0.491-0.317l1.305,1.417l1.418-0.923l-1.306-1.418l0.493-0.323l1.302,1.42
	l1.416-0.922l-1.307-1.419l0.491-0.321l1.306,1.418l1.416-0.923l-1.307-1.417l0.493-0.324l1.305,1.421l1.414-0.923l-1.304-1.418
	l0.49-0.321l1.305,1.419l1.413-0.924l-1.303-1.417l0.493-0.323l1.304,1.417l1.415-0.924l-1.307-1.416l0.493-0.324l1.308,1.42
	l1.41-0.923l-1.301-1.418l0.49-0.322l1.305,1.418l1.417-0.923l-1.309-1.418l0.493-0.32l1.308,1.417l1.411-0.923l-1.306-1.416
	l0.492-0.324l1.306,1.418l1.414-0.924l-1.302-1.415l0.492-0.322l1.304,1.418l1.413-0.922l-1.305-1.419l0.491-0.32l1.306,1.415
	l1.414-0.922l-1.305-1.416l0.493-0.324l1.306,1.421l1.411-0.923l-1.302-1.422l0.49-0.32l1.305,1.418l1.414-0.922l-1.306-1.418
	l0.495-0.32l1.303,1.417l1.418-0.923l-1.306-1.417l0.492-0.321l1.697,1.848L132.903,216.675z"/>
<path fill="#FCD09E" d="M166.887,186.678l-1.883-2.561c0.348-0.98,0.34-1.773-0.238-2.222c-0.357,0.13-0.735,0.25-1.125,0.366
	l-0.17-0.232l-5.818-1.807l-12.573,7.086l-46.813-2.24l-4.883,3.464l1.603-4.026c0,0,0,0-1.784-4.285
	c-1.781-4.287,0.181-16.397,0.181-16.397l2.784-0.577c-1.871-1.976-5.961-2.83-5.961-2.83l-11.133,6.303l-2.129,16.51l2.852,8.934
	l9.544,8.796l50.81-4.382l5.837,2.55l5.535,4.979h2.562h4.803l4.2-2.029l2.881-1.375l1.246-3.414l4.575-4.113L166.887,186.678z"/>
<path fill="#EEB180" d="M93.203,180.222c1.784,4.284,1.784,4.284,1.784,4.284l-1.603,4.026l4.883-3.465l13.032,0.625l4.04,1.352
	l15.716,6.828l10.989-6.711l3.035,0.147l12.572-7.087l-11.669,3.615l-0.336,0.136c-18.1-0.044-40.81-2.848-47.465-0.743
	c-2.16-1.172-4.009-9.4-1.247-18.801l-0.734-1.143c-0.01-0.012-0.022-0.022-0.033-0.038l-2.783,0.577
	C93.383,163.824,91.422,175.936,93.203,180.222z"/>
<path fill="#FFFFFF" d="M107.6,130.771c0,0-23.509,4.021-23.509,19.126c0,9.361-5.019,16.824-5.019,16.824s1.376-2.071,12.067-3.021
	c3.187-0.284,15.511,3.021,15.511,3.021L107.6,130.771z"/>
<path fill="#D1D2D3" d="M94.173,163.936c0,0,0-2.115,4.009-7.917c-1.524,6.227-1.247,8.409-1.247,8.409L94.173,163.936z"/>
<path fill="#D1D2D3" d="M96.935,159.96c0,0,0-1.123-2.129-4.208c0.81,3.312,0.663,4.472,0.663,4.472L96.935,159.96z"/>
<path fill="#FCD09E" d="M96.199,163.285l0.734,1.143C96.782,164.01,96.522,163.632,96.199,163.285z"/>
<path fill="#EEB180" d="M96.177,163.246l-0.011,0.001c0.011,0.015,0.023,0.025,0.033,0.038L96.177,163.246z"/>
<rect x="129.584" y="191.683" transform="matrix(-0.9774 0.2112 -0.2112 -0.9774 359.8059 352.4302)" fill="#8CC541" width="62.995" height="7.494"/>
<polygon fill="#C3996B" points="192.708,192.46 192.955,192.407 200.533,186.936 191.373,185.079 191.125,185.136 "/>
<polygon fill="#231F20" points="198.235,188.557 198.308,188.542 200.533,186.936 197.843,186.392 197.774,186.406 "/>
<rect x="129.191" y="191.725" transform="matrix(-0.9774 0.2112 -0.2112 -0.9774 358.6418 348.892)" fill="#059347" width="62.995" height="3.747"/>
<polygon fill="#FCD09E" points="145.105,183.418 160.132,177.889 167.629,180.654 172.031,187.765 178.342,197.706 172.452,203.998 
	170.842,209.22 167.131,211.324 161.723,214.426 155.536,214.426 152.237,214.426 145.105,206.811 136.919,198.242 122.208,194.313 
	"/>
<path id="XMLID_5_" fill="#FCD09E" d="M168.535,128.775l-35.775,35.02l-2.571-18.467c-0.053,0.055-0.11,0.106-0.165,0.16
	c-0.84-5.266,0.557-2.759-0.84-5.266c-2.438-4.382,14.539-14.447,9.742-16.842c-4.792-2.398-15.536,6.079-20.559,7.392
	c-5.021,1.317-14.378-8.112-19.642-11.863c-5.262-3.75-8.644-4.553-9.677-0.287c-1.035,4.269,11.571,15.091,11.571,15.091
	s-3.932,10.054-6.229,13.772c-2.296,3.72,4.795,5.412,12.532,12.183c3.798,3.324,6.892,4.145,8.88,3.052l-2.601,26.139l15.715,6.826
	l53.197-42.49l0.409-17.184L168.535,128.775z"/>
<g>
	<defs>
		<path id="SVGID_2_" d="M168.535,128.775l-35.775,35.02l-2.571-18.467c-0.053,0.055-0.11,0.106-0.165,0.16
			c-0.84-5.266,0.557-2.759-0.84-5.266c-2.438-4.382,14.539-14.447,9.742-16.842c-4.792-2.398-15.536,6.079-20.559,7.392
			c-5.021,1.317-14.378-8.112-19.642-11.863c-5.262-3.75-8.644-4.553-9.677-0.287c-1.035,4.269,11.571,15.091,11.571,15.091
			s-3.932,10.054-6.229,13.772c-2.296,3.72,4.795,5.412,12.532,12.183c3.798,3.324,6.892,4.145,8.88,3.052l-2.601,26.139
			l15.715,6.826l53.197-42.49l0.409-17.184L168.535,128.775z"/>
	</defs>
	<clipPath id="SVGID_5_">
		<use xlink:href="#SVGID_2_"  overflow="visible"/>
	</clipPath>
	<path clip-path="url(#SVGID_5_)" fill="#EEB180" d="M150.274,152.835l-25.221,19.914l4.495-8.321l-9.27-27.01
		c0,0-26.94-9.007-28.381-21.675c-1.229-8.699,21.879-8.089,21.879-8.089l29.414,10.421L150.274,152.835z"/>
</g>
<path fill="#FFFFFF" d="M141.741,151.021l25.939,19.413c0,0,7.063-5.16,16.531-11.522c19.532-13.129,5.316-33.482-12.379-33.482
	C162.095,125.431,141.741,151.021,141.741,151.021z"/>
<path fill="#231F20" d="M170.345,86.827c0,4.584-3.713,8.297-8.298,8.297h-1.613c-4.581,0-8.297-3.713-8.297-8.297V75.765
	c0-4.583,3.716-8.299,8.297-8.299h1.613c4.585,0,8.298,3.715,8.298,8.299V86.827z"/>
<path fill="#FCD09E" d="M167.364,83.539c0,4.584-3.716,8.297-8.299,8.297h-1.613c-4.58,0-8.299-3.713-8.299-8.297V72.476
	c0-4.583,3.719-8.298,8.299-8.298h1.613c4.583,0,8.299,3.714,8.299,8.298V83.539z"/>
<path fill="#231F20" d="M66.388,86.827c0,4.584,3.714,8.297,8.299,8.297H76.3c4.583,0,8.295-3.713,8.295-8.297V75.765
	c0-4.583-3.712-8.299-8.295-8.299h-1.613c-4.584,0-8.299,3.715-8.299,8.299V86.827z"/>
<path fill="#FCD09E" d="M69.371,83.539c0,4.584,3.717,8.297,8.295,8.297h1.614c4.585,0,8.297-3.713,8.297-8.297V72.476
	c0-4.583-3.712-8.298-8.297-8.298h-1.614c-4.579,0-8.295,3.714-8.295,8.298V83.539z"/>
<path id="XMLID_4_" fill="#FCD09E" d="M158.76,61.681h-40.396H77.971c0,0-9.454,47.155,40.394,73.381
	C168.22,108.836,158.76,61.681,158.76,61.681z"/>
<g>
	<defs>
		<path id="SVGID_1_" d="M158.76,61.681h-40.396H77.971c0,0-9.454,47.155,40.394,73.381C168.22,108.836,158.76,61.681,158.76,61.681
			z"/>
	</defs>
	<clipPath id="SVGID_6_">
		<use xlink:href="#SVGID_1_"  overflow="visible"/>
	</clipPath>
	<ellipse clip-path="url(#SVGID_6_)" fill="#C2B59B" cx="118.576" cy="132.848" rx="10.973" ry="5.801"/>
</g>
<path fill="#231F20" d="M118.365,55.002c17.15,0,33.186,3.94,46.876,10.777V42.72c0-23.592-19.126-42.72-42.72-42.72h-8.305
	C90.625,0,71.495,19.127,71.495,42.72v23.059C85.185,58.941,101.221,55.002,118.365,55.002z"/>
<path fill="#231F20" d="M164.636,46.859c-13.844-9.089-30.691-14.19-48.333-13.96c-18.438,0.24-35.407,7.474-49.118,17.338
	c-0.044,0.031-0.086,0.062-0.129,0.093c-0.004,0.002-0.009,0.003-0.012,0.006c-1.028,0.747-1.244,1.651-0.962,2.459
	c0,11.444,0,19.64,0,31.085c0,2.527,3.509,3.461,5.615,1.941c13.244-9.56,29.002-15.625,46.669-15.857
	c17.45-0.227,33.731,6.517,46.674,15.857c2.104,1.519,5.613,0.586,5.613-1.941c0-6.893,0-10.533,0-17.426c0-3.866,0-7.729,0-11.594
	C170.65,50.685,168.893,49.652,164.636,46.859z"/>
<path fill="#231F20" d="M107.97,85.639H86.997c-3.396,0-6.159-1.877-6.159-4.185V71.237c0-2.307,2.763-4.185,6.159-4.185h20.973
	c3.395,0,6.161,1.878,6.161,4.185v10.217C114.132,83.762,111.365,85.639,107.97,85.639z M86.997,69.465
	c-1.61,0-2.917,0.798-2.917,1.772v10.217c0,0.977,1.307,1.769,2.917,1.769h20.975c1.608,0,2.915-0.792,2.915-1.769V71.237
	c0-0.975-1.307-1.772-2.915-1.772H86.997z"/>
<path fill="#231F20" d="M149.74,85.639h-20.975c-3.396,0-6.158-1.877-6.158-4.185V71.237c0-2.307,2.763-4.185,6.158-4.185h20.975
	c3.393,0,6.158,1.878,6.158,4.185v10.217C155.898,83.762,153.132,85.639,149.74,85.639z M128.764,69.465
	c-1.609,0-2.915,0.798-2.915,1.772v10.217c0,0.977,1.307,1.769,2.915,1.769h20.975c1.606,0,2.915-0.792,2.915-1.769V71.237
	c0-0.975-1.31-1.772-2.915-1.772H128.764z"/>
<path fill="#231F20" d="M107.208,72.32c0,0.896-0.723,1.621-1.617,1.621h-19.44c-0.895,0-1.621-0.725-1.621-1.621l0,0
	c0-0.895,0.726-1.62,1.621-1.62h19.44C106.486,70.701,107.208,71.426,107.208,72.32L107.208,72.32z"/>
<path fill="#231F20" d="M92.909,73.941L92.909,73.941c0,2.685,2.174,4.86,4.861,4.86c2.682,0,4.858-2.176,4.858-4.86l0,0H92.909z"/>
<path fill="#231F20" d="M130.4,72.32c0,0.896,0.724,1.621,1.622,1.621h19.439c0.893,0,1.617-0.725,1.617-1.621l0,0
	c0-0.895-0.725-1.62-1.617-1.62h-19.439C131.125,70.701,130.4,71.426,130.4,72.32L130.4,72.32z"/>
<path fill="#231F20" d="M144.703,73.941L144.703,73.941c0,2.685-2.176,4.86-4.858,4.86c-2.686,0-4.86-2.176-4.86-4.86l0,0H144.703z"
	/>
</svg>
