<?xml version="1.0" encoding="utf-8"?>
<!-- Generator: Adobe Illustrator 15.1.0, SVG Export Plug-In  -->
<!DOCTYPE svg PUBLIC "-//W3C//DTD SVG 1.1//EN" "http://www.w3.org/Graphics/SVG/1.1/DTD/svg11.dtd" [
	<!ENTITY ns_flows "http://ns.adobe.com/Flows/1.0/">
]>
<svg version="1.1"
	 xmlns="http://www.w3.org/2000/svg" xmlns:xlink="http://www.w3.org/1999/xlink" xmlns:a="http://ns.adobe.com/AdobeSVGViewerExtensions/3.0/"
	 x="0px" y="0px" width="300px" height="405px" viewBox="-0.128 -0.21 300 405" enable-background="new -0.128 -0.21 300 405"
	 xml:space="preserve">
<defs>
</defs>
<path id="XMLID_3_" fill="#E53840" d="M299.557,255.208c0-82.721-67.057-149.781-149.777-149.781
	C67.058,105.427,0,172.486,0,255.208c0,58.262,33.268,108.752,81.843,133.518c1.782-5.727,3.196-9.818,3.196-9.818l16.321-93.848
	l20.722-62.373l21.239-11.029l11.149,27.723l60.354-39.715l39.201,19.372c0,0-1.766,32.846-0.727,44.508
	c-0.189,0.689-0.377,1.367-0.566,2.053l3.814,2.029l-34.367,104.25l-0.592,14.801C268.049,361.247,299.557,311.909,299.557,255.208z
	"/>
<circle fill="#C42126" cx="149.779" cy="255.207" r="106.692"/>
<polygon fill="#FCD09E" points="138.596,166.923 127.117,189.88 124.199,204.741 147.156,267.907 226.649,206.213 202.271,190.858 
	156.635,131.389 "/>
<polygon fill="#EEB180" points="130.944,215.573 130.529,218.735 134.662,221.758 131.432,217.981 "/>
<polygon fill="#EEB180" points="132.153,210.094 132.375,213.936 136.682,216.342 "/>
<polygon fill="#EEB180" points="128.461,222.147 128.461,225.311 132.596,228.334 129.365,224.553 "/>
<path fill="#FFFFFF" d="M215.383,389.885l-2.312-14.174l-1.909-4.883c0,0,27.581-77.057,20.219-78.104
	c-7.361-1.047-56.627,29.641-56.627,29.641l66.059-63.115l11.922,6.344c0.189-0.684,0.377-1.361,0.566-2.053
	c-1.039-11.662,4.631-30.746,1.43-42.484c-3.201-11.74-39.904-21.394-39.904-21.394l-60.354,39.714l-11.149-27.723l-21.239,11.031
	l-20.722,62.373l-16.321,93.846c0,0-1.415,4.094-3.196,9.82c20.391,10.396,43.479,16.262,67.936,16.262
	C173.309,404.987,195.571,399.553,215.383,389.885z"/>
<path fill="#D1D2D3" d="M252.732,265.594l-11.92-6.344l-66.061,63.115c0,0,49.266-30.688,56.629-29.641
	c7.361,1.047-20.22,78.104-20.22,78.104l1.909,4.883l2.313,14.174c1.181-0.578,2.352-1.17,3.516-1.777
	c0.9-0.469,1.799-0.943,2.689-1.432l0.592-14.801l34.367-104.252L252.732,265.594z"/>
<path fill="#00A79C" d="M256.85,287.875l-105.98,69.129l13.833,15.037l105.981-69.133L256.85,287.875z M165.166,368.969
	l-2.896-3.143l0.842-0.547l2.223,2.412l2.407-1.568l-2.224-2.418l0.839-0.541l2.223,2.412l2.406-1.574l-2.22-2.41l0.839-0.549
	l2.219,2.414l2.408-1.57l-2.222-2.418l0.838-0.547l2.226,2.416l2.406-1.566l-2.22-2.418l0.838-0.547l2.22,2.416l2.409-1.568
	l-2.219-2.418l0.838-0.551l2.22,2.42l2.407-1.57l-2.221-2.416l0.84-0.547l2.224,2.418l2.407-1.574L185.002,351l0.836-0.545
	l2.217,2.414l2.414-1.568l-2.224-2.416l0.837-0.549l2.225,2.412l2.406-1.566l-2.22-2.418l0.837-0.547l2.225,2.416l2.404-1.568
	l-2.221-2.418l0.84-0.547l2.223,2.418l2.404-1.572l-2.219-2.414l0.838-0.547l2.221,2.414l2.41-1.57l-2.223-2.412l0.839-0.551
	l2.224,2.418l2.406-1.576l-2.222-2.412l0.839-0.543l2.223,2.41l2.406-1.57l-2.223-2.412l0.844-0.553l2.219,2.418l2.409-1.57
	l-2.224-2.412l0.84-0.551l2.22,2.42l2.791-1.824l-2.222-2.416l0.838-0.545l2.221,2.414l2.41-1.57l-2.225-2.414l0.84-0.547
	l2.22,2.416l2.411-1.568l-2.221-2.418l0.836-0.549l2.223,2.418l2.41-1.574l-2.223-2.412l0.84-0.551l2.221,2.418l2.408-1.572
	l-2.223-2.414l0.838-0.545l2.222,2.416l2.407-1.57l-2.217-2.416l0.836-0.549l2.223,2.414l2.406-1.572l-2.223-2.408l0.842-0.553
	l2.221,2.418l2.406-1.572l-2.219-2.414l0.838-0.549l2.221,2.416l2.41-1.57l-2.223-2.418l0.838-0.543l2.223,2.414l2.406-1.574
	l-2.225-2.41l0.842-0.551l2.223,2.416l2.408-1.574l-2.224-2.408l0.843-0.549l2.221,2.416l2.406-1.57l-2.221-2.418l0.838-0.543
	l2.221,2.41l2.41-1.57l-2.223-2.41l0.842-0.553l2.219,2.42l2.406-1.57l-2.219-2.422l0.836-0.545l2.223,2.414l2.408-1.564
	l-2.225-2.42l0.842-0.545l2.225,2.412l2.406-1.572l-2.223-2.41l0.838-0.549l2.895,3.146L165.166,368.969z"/>
<path fill="#FCD09E" d="M223.037,317.887l-3.203-4.359c0.592-1.672,0.576-3.021-0.408-3.785c-0.607,0.225-1.254,0.428-1.914,0.623
	l-0.291-0.395l-9.91-3.08l-21.41,12.07l-79.711-3.813l-8.318,5.898l2.728-6.854c0,0,0,0-3.034-7.303
	c-3.034-7.297,0.306-27.92,0.306-27.92l4.742-0.979c-3.187-3.369-10.154-4.822-10.154-4.822l-18.958,10.734l-3.624,28.111
	l4.853,15.213l16.253,14.979l86.522-7.461l9.939,4.342l9.426,8.479h4.364h8.178l7.149-3.451l4.908-2.344l2.123-5.813l7.787-7.004
	L223.037,317.887z"/>
<path fill="#EEB180" d="M97.564,306.891c3.034,7.301,3.034,7.301,3.034,7.301l-2.728,6.855l8.318-5.898l22.19,1.061l6.876,2.305
	l26.763,11.625l18.717-11.424l5.165,0.248l21.409-12.07l-19.865,6.16l-0.575,0.23c-30.821-0.072-69.493-4.852-80.83-1.268
	c-3.673-1.998-6.823-16.006-2.123-32.018l-1.249-1.947c-0.018-0.02-0.038-0.039-0.056-0.061l-4.742,0.979
	C97.87,278.971,94.53,299.594,97.564,306.891z"/>
<path fill="#FFFFFF" d="M122.082,222.686c0,0-40.038,6.85-40.038,32.566c0,15.941-8.544,28.65-8.544,28.65s2.347-3.525,20.548-5.146
	c5.424-0.48,26.417,5.146,26.417,5.146L122.082,222.686z"/>
<path fill="#D1D2D3" d="M99.216,279.159c0,0,0-3.6,6.823-13.48c-2.592,10.605-2.123,14.32-2.123,14.32L99.216,279.159z"/>
<path fill="#D1D2D3" d="M103.917,272.393c0,0,0-1.914-3.626-7.168c1.377,5.641,1.127,7.615,1.127,7.615L103.917,272.393z"/>
<path fill="#FCD09E" d="M102.667,278.051l1.249,1.947C103.66,279.286,103.217,278.643,102.667,278.051z"/>
<path fill="#EEB180" d="M102.628,277.989l-0.016,0.002c0.018,0.021,0.038,0.041,0.056,0.061L102.628,277.989z"/>
<rect x="159.579" y="326.421" transform="matrix(-0.9774 0.2112 -0.2112 -0.9774 491.9101 613.064)" fill="#8CC541" width="107.273" height="12.761"/>
<polygon fill="#C3996B" points="267.006,327.731 267.428,327.641 280.33,318.325 264.73,315.167 264.313,315.26 "/>
<polygon fill="#231F20" points="276.42,321.086 276.543,321.061 280.33,318.325 275.752,317.399 275.629,317.424 "/>
<rect x="158.905" y="326.493" transform="matrix(-0.9774 0.2112 -0.2112 -0.9774 489.9191 607.0403)" fill="#059347" width="107.273" height="6.38"/>
<polygon fill="#FCD09E" points="185.946,312.338 211.535,302.918 224.303,307.629 231.797,319.739 242.543,336.665 232.51,347.383 
	229.774,356.274 223.453,359.858 214.244,365.139 203.709,365.139 198.088,365.139 185.946,352.17 172.002,337.581 146.953,330.891 
	"/>
<path id="XMLID_2_" fill="#FCD09E" d="M225.844,219.286l-60.922,59.635l-4.377-31.447c-0.092,0.094-0.188,0.182-0.281,0.271
	c-1.433-8.965,0.947-4.697-1.433-8.965c-4.153-7.461,24.759-24.605,16.593-28.686c-8.162-4.078-26.457,10.355-35.011,12.592
	c-8.552,2.238-24.483-13.816-33.447-20.204c-8.963-6.385-14.72-7.751-16.48-0.487c-1.761,7.265,19.704,25.699,19.704,25.699
	s-6.698,17.119-10.607,23.449c-3.912,6.334,8.168,9.217,21.339,20.746c6.467,5.662,11.739,7.061,15.125,5.197l-4.431,44.512
	l26.763,11.625l90.586-72.355l0.697-29.26L225.844,219.286z"/>
<g>
	<defs>
		<path id="SVGID_2_" d="M225.844,219.286l-60.922,59.635l-4.377-31.447c-0.092,0.094-0.188,0.182-0.281,0.271
			c-1.433-8.965,0.947-4.697-1.433-8.965c-4.153-7.461,24.759-24.605,16.593-28.686c-8.162-4.078-26.457,10.355-35.011,12.592
			c-8.552,2.238-24.483-13.816-33.447-20.204c-8.963-6.385-14.72-7.751-16.48-0.487c-1.761,7.265,19.704,25.699,19.704,25.699
			s-6.698,17.119-10.607,23.449c-3.912,6.334,8.168,9.217,21.339,20.746c6.467,5.662,11.739,7.061,15.125,5.197l-4.431,44.512
			l26.763,11.625l90.586-72.355l0.697-29.26L225.844,219.286z"/>
	</defs>
	<clipPath id="SVGID_3_">
		<use xlink:href="#SVGID_2_"  overflow="visible"/>
	</clipPath>
	<path clip-path="url(#SVGID_3_)" fill="#EEB180" d="M194.747,260.256l-42.946,33.912l7.652-14.17l-15.784-45.994
		c0,0-45.879-15.34-48.33-36.908c-2.095-14.813,37.256-13.773,37.256-13.773l50.088,17.743L194.747,260.256z"/>
</g>
<path fill="#FFFFFF" d="M180.217,257.17l44.17,33.057c0,0,12.027-8.785,28.15-19.621c33.264-22.354,9.053-57.014-21.076-57.014
	C214.877,213.592,180.217,257.17,180.217,257.17z"/>
<path fill="#231F20" d="M228.924,147.854c0,7.807-6.326,14.128-14.129,14.128h-2.748c-7.799,0-14.131-6.322-14.131-14.128v-18.84
	c0-7.803,6.332-14.13,14.131-14.13h2.748c7.803,0,14.129,6.327,14.129,14.13V147.854z"/>
<path fill="#FCD09E" d="M223.848,142.254c0,7.807-6.325,14.131-14.133,14.131h-2.746c-7.801,0-14.129-6.324-14.129-14.131v-18.837
	c0-7.806,6.328-14.131,14.129-14.131h2.746c7.808,0,14.133,6.326,14.133,14.131V142.254z"/>
<path fill="#231F20" d="M51.901,147.854c0,7.807,6.326,14.128,14.131,14.128h2.746c7.805,0,14.13-6.322,14.13-14.128v-18.84
	c0-7.803-6.326-14.13-14.13-14.13h-2.746c-7.805,0-14.131,6.327-14.131,14.13V147.854z"/>
<path fill="#FCD09E" d="M56.979,142.254c0,7.807,6.328,14.131,14.131,14.131h2.748c7.803,0,14.128-6.324,14.128-14.131v-18.837
	c0-7.806-6.325-14.131-14.128-14.131H71.11c-7.803,0-14.131,6.326-14.131,14.131L56.979,142.254L56.979,142.254z"/>
<path id="XMLID_1_" fill="#FCD09E" d="M209.204,105.034h-68.791H71.625c0,0-16.102,80.298,68.789,124.96
	C225.303,185.332,209.204,105.034,209.204,105.034z"/>
<g>
	<defs>
		<path id="SVGID_1_" d="M209.204,105.034h-68.791H71.625c0,0-16.102,80.298,68.789,124.96
			C225.303,185.332,209.204,105.034,209.204,105.034z"/>
	</defs>
	<clipPath id="SVGID_4_">
		<use xlink:href="#SVGID_1_"  overflow="visible"/>
	</clipPath>
	<ellipse clip-path="url(#SVGID_4_)" fill="#C2B59B" cx="140.768" cy="226.222" rx="18.686" ry="9.876"/>
</g>
<path fill="#231F20" d="M140.413,93.662c29.201,0,56.509,6.707,79.819,18.352V72.745C220.232,32.572,187.67,0,147.485,0h-14.141
	C93.168,0,60.593,32.572,60.593,72.745v39.269C83.904,100.369,111.212,93.662,140.413,93.662z"/>
<path fill="#231F20" d="M219.209,79.795c-23.58-15.48-52.266-24.167-82.309-23.775c-31.397,0.411-60.295,12.726-83.643,29.529
	c-0.076,0.051-0.149,0.103-0.22,0.157c-0.005,0.003-0.012,0.007-0.018,0.013c-1.757,1.268-2.125,2.81-1.64,4.187
	c0,19.488,0,33.444,0,52.936c0,4.303,5.977,5.895,9.558,3.307c22.553-16.277,49.392-26.608,79.476-27.004
	c29.71-0.388,57.438,11.096,79.474,27.004c3.584,2.588,9.56,0.996,9.56-3.307c0-11.738,0-17.937,0-29.674c0-6.582,0-13.162,0-19.744
	C229.446,86.31,226.453,84.55,219.209,79.795z"/>
<path fill="#231F20" d="M122.71,145.832H86.995c-5.784,0-10.491-3.197-10.491-7.127v-17.397c0-3.932,4.707-7.128,10.491-7.128
	h35.715c5.78,0,10.489,3.196,10.489,7.128v17.397C133.199,142.635,128.49,145.832,122.71,145.832z M86.995,118.29
	c-2.745,0-4.97,1.355-4.97,3.018v17.397c0,1.664,2.226,3.016,4.97,3.016h35.715c2.738,0,4.965-1.353,4.965-3.016v-17.397
	c0-1.662-2.227-3.018-4.965-3.018H86.995z"/>
<path fill="#231F20" d="M193.836,145.832h-35.719c-5.779,0-10.487-3.197-10.487-7.127v-17.397c0-3.932,4.708-7.128,10.487-7.128
	h35.719c5.777,0,10.485,3.196,10.485,7.128v17.397C204.322,142.635,199.614,145.832,193.836,145.832z M158.117,118.29
	c-2.738,0-4.966,1.355-4.966,3.018v17.397c0,1.664,2.228,3.016,4.966,3.016h35.719c2.738,0,4.965-1.353,4.965-3.016v-17.397
	c0-1.662-2.227-3.018-4.965-3.018H158.117z"/>
<path fill="#231F20" d="M121.413,123.151c0,1.523-1.235,2.758-2.759,2.758H85.551c-1.524,0-2.759-1.234-2.759-2.758l0,0
	c0-1.523,1.235-2.759,2.759-2.759h33.103C120.178,120.394,121.413,121.628,121.413,123.151L121.413,123.151z"/>
<path fill="#231F20" d="M97.062,125.91L97.062,125.91c0,4.57,3.705,8.275,8.275,8.275c4.571,0,8.277-3.705,8.277-8.274v-0.001
	H97.062z"/>
<path fill="#231F20" d="M160.906,123.151c0,1.523,1.234,2.758,2.76,2.758h33.102c1.525,0,2.761-1.234,2.761-2.758l0,0
	c0-1.523-1.235-2.759-2.761-2.759h-33.102C162.143,120.394,160.906,121.628,160.906,123.151L160.906,123.151z"/>
<path fill="#231F20" d="M185.258,125.91L185.258,125.91c0,4.57-3.703,8.275-8.273,8.275c-4.571,0-8.275-3.705-8.275-8.274v-0.001
	H185.258z"/>
</svg>
