<?xml version="1.0" encoding="utf-8"?>
<!-- Generator: Adobe Illustrator 15.1.0, SVG Export Plug-In  -->
<!DOCTYPE svg PUBLIC "-//W3C//DTD SVG 1.1//EN" "http://www.w3.org/Graphics/SVG/1.1/DTD/svg11.dtd" [
	<!ENTITY ns_flows "http://ns.adobe.com/Flows/1.0/">
]>
<svg version="1.1"
	 xmlns="http://www.w3.org/2000/svg" xmlns:xlink="http://www.w3.org/1999/xlink" xmlns:a="http://ns.adobe.com/AdobeSVGViewerExtensions/3.0/"
	 x="0px" y="0px" width="64px" height="64px" viewBox="2.88 3.88 64 64" enable-background="new 2.88 3.88 64 64"
	 xml:space="preserve">
<defs>
</defs>
<path display="none" fill="#444444" d="M34.88,11.88c-12,0-26,8-32,24c6,12,18,20,32,20s26-8,32-20
	C60.88,19.88,46.88,11.88,34.88,11.88z M34.88,51.88c-12,0-22-8-24-16c2-8,12-16,24-16s22,8,24,16
	C56.88,43.88,46.88,51.88,34.88,51.88z M34.88,23.88c-1.25,0-2.375,0.25-3.5,0.563c2.063,0.938,3.5,3,3.5,5.438c0,3.313-2.688,6-6,6
	c-2.438,0-4.5-1.438-5.438-3.5c-0.313,1.125-0.563,2.25-0.563,3.5c0,6.625,5.375,12,12,12s12-5.375,12-12S41.504,23.881,34.88,23.88
	L34.88,23.88z"/>
<path display="none" fill="#FFFFFF" d="M65.843,30.476c-0.49-0.644-12.23-15.759-30.963-15.759
	c-18.733,0-30.473,15.115-30.963,15.759c-0.636,0.833-0.762,1.949-0.33,2.904c0.4,0.885,10.054,21.664,31.293,21.664
	c20.724,0,30.849-20.73,31.27-21.612C66.609,32.467,66.492,31.326,65.843,30.476z M34.88,49.343c-14.44,0-22.75-12.317-25.273-16.75
	c2.504-2.725,8.926-8.838,17.925-11.208c-3.477,2.358-5.761,6.341-5.761,10.858c0,7.241,5.869,13.11,13.11,13.11
	c7.24,0,13.11-5.869,13.11-13.11c0-1.716-0.333-3.353-0.933-4.854c-0.807,2.167-2.89,3.714-5.338,3.714c-3.148,0-5.7-2.552-5.7-5.7
	c0-1.981,1.014-3.721,2.548-4.741c10.886,1.429,18.711,8.81,21.561,11.904C57.491,37.033,48.942,49.343,34.88,49.343z"/>
<rect display="none" fill="none" width="69.76" height="69.76"/>
<path fill="#FFFFFF" d="M65.962,29.948C64.591,28,52.269,10.9,34.883,10.9C17.497,10.9,5.177,28,3.804,29.948
	c-2.133,3.024-2.133,7.058,0,10.083C5.177,41.98,17.497,58.86,34.883,58.86c17.386,0,29.708-16.88,31.079-18.828
	C68.095,37.006,68.095,32.972,65.962,29.948z M34.883,48.569c-7.272,0-13.604-6.323-13.604-13.579
	c0-7.258,6.323-13.579,13.595-13.579c0.75,0,2.185,0.077,2.185,0.197V32.7h11.232c0.119,0,0.307,1.605,0.307,2.354
	C48.599,42.31,42.157,48.569,34.883,48.569z"/>
</svg>
