<?xml version="1.0" encoding="utf-8"?>
<!-- Generator: Adobe Illustrator 15.1.0, SVG Export Plug-In  -->
<!DOCTYPE svg PUBLIC "-//W3C//DTD SVG 1.1//EN" "http://www.w3.org/Graphics/SVG/1.1/DTD/svg11.dtd" [
	<!ENTITY ns_flows "http://ns.adobe.com/Flows/1.0/">
]>
<svg version="1.1"
	 xmlns="http://www.w3.org/2000/svg" xmlns:xlink="http://www.w3.org/1999/xlink" xmlns:a="http://ns.adobe.com/AdobeSVGViewerExtensions/3.0/"
	 x="0px" y="0px" width="21px" height="21px" viewBox="0 0 21 21" enable-background="new 0 0 21 21" xml:space="preserve">
<defs>
</defs>
<rect x="0" display="none" fill="#FFFFFF" width="20.809" height="20.809"/>
<path display="none" fill="#CCCCCC" d="M11.706,3.901c-1.796,0-3.252,1.456-3.252,3.251v1.951H5.853v2.602h2.601v9.104h2.602v-9.104
	h2.926l0.65-2.602h-3.576V7.152c0-0.358,0.291-0.65,0.65-0.65h3.25V3.901H11.706z"/>
<path fill="#CCCCCC" d="M11.36,3.228H5.916c-2.441,0-4.738,1.849-4.738,3.991c0,2.189,1.664,3.957,4.148,3.957
	c0.172,0,0.34-0.006,0.504-0.016c-0.161,0.309-0.276,0.654-0.276,1.016c0,0.609,0.327,1.102,0.741,1.504l-0.943,0.01
	C2.328,13.689,0,15.615,0,17.611c0,1.967,2.55,3.197,5.574,3.197c3.447,0,5.35-1.957,5.35-3.924c0-1.576-0.465-2.521-1.903-3.537
	c-0.492-0.35-1.433-1.195-1.433-1.695c0-0.582,0.167-0.871,1.044-1.556c0.901-0.704,1.539-1.692,1.539-2.843
	c0-1.369-0.609-2.705-1.755-3.146h1.727L11.36,3.228L11.36,3.228z M9.459,16.547c0.042,0.182,0.067,0.369,0.067,0.561
	c0,1.59-1.024,2.832-3.962,2.832c-2.09,0-3.599-1.324-3.599-2.914c0-1.557,1.872-2.852,3.961-2.83
	c0.488,0.006,0.942,0.084,1.355,0.219C8.416,15.201,9.23,15.646,9.459,16.547L9.459,16.547z M6.113,10.62
	C4.711,10.577,3.377,9.05,3.135,7.208c-0.242-1.842,0.699-3.252,2.102-3.21c1.402,0.042,2.735,1.52,2.978,3.362
	C8.457,9.203,7.515,10.662,6.113,10.62z M16.907,7.129V3.228h-1.301v3.902h-3.9v1.3h3.9v3.902h1.301V8.43h3.902v-1.3H16.907z"/>
<path display="none" fill="#CCCCCC" d="M7.803,9.104h3.6v1.844h0.051c0.502-0.897,1.727-1.844,3.553-1.844
	c3.799,0,4.502,2.365,4.502,5.441v6.264h-3.752v-5.555c0-1.324-0.027-3.027-1.951-3.027c-1.953,0-2.252,1.443-2.252,2.932v5.65
	h-3.75V9.104z M1.301,9.104h3.901v11.705H1.301V9.104z M5.202,5.852c0,1.078-0.873,1.951-1.951,1.951
	c-1.077,0-1.951-0.873-1.951-1.951c0-1.077,0.874-1.951,1.951-1.951C4.329,3.901,5.202,4.775,5.202,5.852z"/>
<path display="none" fill="#CCCCCC" d="M20.809,5.9c-0.766,0.339-1.59,0.568-2.453,0.672c0.881-0.529,1.559-1.365,1.879-2.361
	c-0.826,0.489-1.74,0.844-2.711,1.036c-0.779-0.83-1.891-1.348-3.117-1.348c-2.357,0-4.269,1.912-4.269,4.269
	c0,0.335,0.039,0.661,0.11,0.973C6.701,8.961,3.555,7.262,1.449,4.679C1.082,5.31,0.871,6.042,0.871,6.826
	c0,1.481,0.754,2.788,1.899,3.554c-0.699-0.022-1.357-0.214-1.934-0.534l0,0.054c0,2.069,1.471,3.794,3.424,4.187
	c-0.358,0.098-0.735,0.15-1.125,0.15c-0.275,0-0.542-0.027-0.803-0.078c0.543,1.695,2.121,2.93,3.988,2.965
	c-1.461,1.145-3.302,1.826-5.302,1.826c-0.344,0-0.684-0.02-1.018-0.059c1.889,1.211,4.133,1.918,6.544,1.918
	c7.853,0,12.146-6.506,12.146-12.147c0-0.186-0.004-0.37-0.014-0.552C19.512,7.507,20.235,6.755,20.809,5.9L20.809,5.9z"/>
</svg>
