<?xml version="1.0" encoding="utf-8"?>
<!-- Generator: Adobe Illustrator 15.1.0, SVG Export Plug-In  -->
<!DOCTYPE svg PUBLIC "-//W3C//DTD SVG 1.1//EN" "http://www.w3.org/Graphics/SVG/1.1/DTD/svg11.dtd" [
	<!ENTITY ns_flows "http://ns.adobe.com/Flows/1.0/">
]>
<svg version="1.1"
	 xmlns="http://www.w3.org/2000/svg" xmlns:xlink="http://www.w3.org/1999/xlink" xmlns:a="http://ns.adobe.com/AdobeSVGViewerExtensions/3.0/"
	 x="0px" y="0px" width="60px" height="70px" viewBox="-1.59 -0.685 60 70" enable-background="new -1.59 -0.685 60 70"
	 xml:space="preserve">
<defs>
</defs>
<path fill="#575E65" d="M37.096,46.766l-1.353-6.14h1.427c2.911,0,5.271-2.361,5.271-5.272V5.271C42.441,2.359,40.082,0,37.17,0
	H5.271C2.36,0,0,2.359,0,5.271v30.083c0,2.911,2.36,5.272,5.271,5.272h21.098c0,0,8.513,7.552,8.514,7.552
	C35.886,49.068,37.481,48.041,37.096,46.766z M12.863,26.344c1.253-0.574,4.746-1.03,5.187-2.676
	c0.262-0.982-0.818-1.836-1.301-2.563c-3.175-4.78-1.39-12.043,4.471-12.043c5.268,0,7.667,6.147,4.806,11.428
	c-0.458,0.846-1.914,2.148-1.639,3.178c0.45,1.688,3.462,1.93,4.807,2.511c4.523,1.95,4.111,4.256,4.111,5.746H9.135
	C9.135,30.531,8.738,28.232,12.863,26.344z"/>
<path fill="#575E65" d="M49.813,6.537h-4.102v8.508h6.386v39.901h-27.03v-11.05H20.15v17.951c0,3.974,3.223,7.197,7.201,7.197
	h22.462c3.976,0,7.197-3.224,7.197-7.197V13.737C57.01,9.759,53.789,6.537,49.813,6.537z M42.088,63.514
	c0,1.111-0.902,2.015-2.014,2.015h-2.988c-1.111,0-2.014-0.903-2.014-2.015v-2.987c0-1.111,0.902-2.012,2.014-2.012h2.988
	c1.111,0,2.014,0.9,2.014,2.012V63.514z"/>
</svg>
