<!DOCTYPE svg PUBLIC "-//W3C//DTD SVG 1.1//EN" "http://www.w3.org/Graphics/SVG/1.1/DTD/svg11.dtd" [
	<!ENTITY ns_flows "http://ns.adobe.com/Flows/1.0/">
]><svg xmlns="http://www.w3.org/2000/svg" width="200" height="200" viewBox="3.396 0.017 200 200" enable-background="new 3.396 0.017 200 200"><path fill="#58585C" d="M59.265 173.579c-2.449-3.083-18.07-22.774-30.799-38.819v38.902c0 5.161 4.186 9.346 9.348 9.346h28.934c-2.495-3.141-4.986-6.284-7.483-9.429zM170.369 31.757h-132.556c-5.162 0-9.348 4.186-9.348 9.348v61.84c7.701 9.709 42.531 53.608 46.29 58.344 2.495 3.141 4.985 6.286 7.477 9.422 1.521 1.923 2.973 3.141 2.995 5.664l-.001.013c.587.284 1.062.842 1.22 1.549l1.152 5.071h82.771c5.162 0 9.349-4.185 9.349-9.346v-132.557c0-5.162-4.187-9.348-9.349-9.348z"/><path fill="#808184" d="M41.385 151.046l-.533 15.679 13.333.453-12.8-16.132zM45.034 43.859l-2.609 76.682c12.974 16.352 29.784 37.539 32.331 40.748 1.793 2.258 3.583 4.516 5.373 6.772l83.588 2.845 4.183-122.864-122.866-4.183z"/><path fill="#D1D2D3" d="M74.755 161.289l6.928 8.73 85.541-1.944-2.794-122.904-122.903 2.793 1.671 73.552c12.859 16.207 29.061 36.628 31.557 39.773zM43.942 154.27l.377 16.6 12.567-.286c-2.811-3.544-7.547-9.514-12.944-16.314z"/><path fill="#fff" d="M40.284 149.657v17.26h13.694c-3.563-4.49-8.47-10.675-13.694-17.26zM40.284 43.98v73.863c13.186 16.62 31.782 40.058 34.472 43.446 1.49 1.875 2.977 3.751 4.465 5.628h62.552l21.449-21.45v-101.487h-122.938z"/><path fill="#A1A6AB" d="M141.772 145.467h21.45l-21.45 21.45zM141.791 26.303h-25.041v-7.609c0-6.991-5.668-12.659-12.659-12.659s-12.659 5.668-12.659 12.659v7.609h-25.04c-5.162 0-9.348 4.185-9.348 9.348v5.64c0 5.162 4.186 9.347 9.348 9.347h75.398c5.162 0 9.348-4.185 9.348-9.347v-5.64c.001-5.163-4.185-9.348-9.347-9.348zm-37.7-.306c-3.713 0-6.723-3.009-6.723-6.723s3.01-6.723 6.723-6.723 6.723 3.01 6.723 6.723-3.009 6.723-6.723 6.723z"/><path fill="#E7E7E7" d="M144.539 33.183c0 1.234-2.057 2.234-4.593 2.234h-71.71c-2.536 0-4.591-1-4.591-2.234s2.055-2.234 4.591-2.234h71.71c2.536-.001 4.593.999 4.593 2.234z"/><path fill="#58585C" d="M80.034 89.317c.006-8.076-6.563-14.654-14.638-14.657-8.074-.004-14.651 6.567-14.654 14.644-.004 8.074 6.562 14.647 14.639 14.652 8.077.003 14.649-6.564 14.653-14.639zm-14.648 6.838c-3.774-.002-6.85-3.072-6.844-6.848 0-3.778 3.073-6.85 6.85-6.849 3.778.004 6.849 3.077 6.847 6.855-.004 3.778-3.074 6.846-6.853 6.842zM138.471 112.086c-3.525-2.929-8.367-2.72-12.771-3.247-3.998-.47-.457-.055-4.436-.636-4.865-.71-6.977 6.713-2.068 7.43 4.233.619 5.349.756 7.373 1.013-15.709 14.581-35.393 16.289-49.083-3.065-2.927-4.141-10.274-.475-7.313 3.708 16.938 23.944 43.672 23.46 63.593 3.581.269 2.479-.139 5.895-.418 9.182-.499 5.952 7.117 4.891 7.715.017.807-6.621.21-15.653-2.592-17.983zM154.988 72.852c-1.846-1.846-4.832-1.849-6.676-.004l-15.288 14.249-4.082-4.087c-1.845-1.846-4.828-1.849-6.675-.004-1.843 1.839-1.843 4.825.002 6.666l7.959 7.964c2.934 2.938 6.25-1.127 6.25-1.127l18.499-16.988c1.847-1.843 1.847-4.829.011-6.669zM92.844 63.122c-1.101 1.1-1.104 2.884-.001 3.986l2.444 2.444-2.442 2.442c-1.106 1.101-1.106 2.887-.001 3.988 1.097 1.104 2.886 1.104 3.985 0l2.443-2.441 2.442 2.442c1.101 1.104 2.885 1.106 3.985.004 1.104-1.1 1.103-2.883.002-3.988l-2.442-2.444 2.444-2.44c1.103-1.102 1.103-2.885.005-3.986-1.102-1.105-2.883-1.106-3.988-.003l-2.447 2.441-2.436-2.443c-1.106-1.104-2.888-1.104-3.993-.002zM92.831 94.139c-1.105 1.099-1.106 2.882 0 3.986l2.44 2.442-2.444 2.442c-1.106 1.102-1.106 2.885-.004 3.987 1.103 1.104 2.887 1.104 3.986.001l2.445-2.441 2.445 2.444c1.1 1.104 2.883 1.104 3.983 0 1.103-1.098 1.105-2.88.001-3.984l-2.441-2.444 2.445-2.441c1.103-1.104 1.105-2.886.002-3.985-1.099-1.104-2.882-1.104-3.986-.003l-2.446 2.441-2.437-2.445c-1.105-1.101-2.889-1.102-3.989 0zM75.757 183.414l-2.884-1.24-56.912-71.73 2.76-2.187 57.502 72.478.378 2.116c-.281.198-.57.387-.844.563zM80.015 176.09l.618 3.448-.581.558-2.265-.832-57.392-72.337 2.912-2.31 56.708 71.473zM82.486 175.764l-57.502-72.479.711-.564 57.505 72.474c.163.206.155.53.01.936l-.773-.328.049-.039zM86.846 188.58l1.223 5.385-4.967-2.416c.606-.191 1.359-.607 2.098-1.197.744-.592 1.32-1.227 1.646-1.772zM86.314 186.516c.39.491-.433 1.796-1.841 2.917-1.411 1.117-2.869 1.622-3.259 1.132l-7.653-3.724 10.871-8.626 1.882 8.301zM14.288 111.773l57.371 72.309.193 1.094c-.454.059-.785-.006-.955-.221l-57.501-72.475.892-.707z"/></svg>