<!DOCTYPE svg PUBLIC "-//W3C//DTD SVG 1.1//EN" "http://www.w3.org/Graphics/SVG/1.1/DTD/svg11.dtd" [
	<!ENTITY ns_flows "http://ns.adobe.com/Flows/1.0/">
]><svg xmlns="http://www.w3.org/2000/svg" xmlns:xlink="http://www.w3.org/1999/xlink" width="410" height="372" viewBox="-1.514 -0.118 410 372" enable-background="new -1.514 -0.118 410 372"><defs><path id="a" d="M57.159 211.261l-15.315 1.668-12.953 8.539-4.449 9.763 47.295 1.813z"/></defs><use xlink:href="#a" overflow="visible" fill="#FED09E"/><clipPath id="b"><use xlink:href="#a" overflow="visible"/></clipPath><path clip-path="url(#b)" fill="#F9A870" d="M36.973 224.554s2.123 3.42 4.952 3.736c6.404.709 11.504-5.605 11.504-5.605s-1.335 2.047-1.157 2.67c.177.623.022 2.666 1.879 2.936 1.857.266 6.809 3.021 6.809 3.021l-32.605-1.287 3.062-3.025-.849-1.912s.891 1.154 2.58.979c1.69-.181 3.825-1.513 3.825-1.513z"/><path fill="#231F20" d="M119.078 130.756h26.091l55.98 22.396 37.004 35.517-6.639 109.652h-56.511l-27.936-62.047-34.588-91.897-.626-1.662z"/><path fill-rule="evenodd" clip-rule="evenodd" fill="#F9A870" d="M76.45 106.188l32.817 42.28 37.774 3.054-7.45-14.541-9.999-46.844z"/><path fill-rule="evenodd" clip-rule="evenodd" fill="#361913" d="M83.913 22.23c-7.052-33.796-51.27-20.706-51.813 41.662-.544 62.375 54.617 89.757 23.509 116.045 19.879 2.187 63.362 24.845 52.41-31.912-5.341-27.68-59.24-104.246-24.106-125.795z"/><path fill-rule="evenodd" clip-rule="evenodd" fill="#F9A870" d="M79.556 16.671c-22.892 6.591-34.803 35.071-26.589 63.596 8.213 28.521 27.771 48.535 54.804 50.079 20.262-14.179 36.334-45.433 28.128-73.957-8.215-28.522-33.446-46.308-56.343-39.718z"/><defs><path id="c" d="M79.556 16.671c-22.892 6.591-34.803 35.071-26.589 63.596 8.213 28.521 27.771 48.535 54.804 50.079 20.262-14.179 36.334-45.433 28.128-73.957-8.215-28.522-33.446-46.308-56.343-39.718z"/></defs><clipPath id="d"><use xlink:href="#c" overflow="visible"/></clipPath><g clip-path="url(#d)" fill-rule="evenodd" clip-rule="evenodd"><path fill="#FED09E" d="M91.248 13.306c-22.888 6.589-37.082 34.573-31.678 62.488 5.41 27.909 22.627 47.411 48.812 48.771 21.026-14.012 39.521-44.736 34.117-72.651-5.4-27.915-28.353-45.2-51.251-38.608z"/><path fill="#F9A870" d="M98.302 13.112s.143 23.883-12.17 42.89c-26.411 40.754-1.914 92.722.908 92.301 0 0-47.547-47.689-44.625-97.795 2.929-50.101 19.439-47.725 32.145-49.593 12.718-1.87 21.918 9.223 23.742 12.197z"/></g><path fill="#231F20" d="M127.546 165.753l-7.391-46.841s19.185 5.093 32.288 1.917c14.84-3.595 15.543-12.536 15.543-12.536s-3.019 34.283 7.255 45.732c-9.978 3.029-47.695 11.728-47.695 11.728z"/><path fill-rule="evenodd" clip-rule="evenodd" fill="#361913" d="M84.314 36.289c-10.474-32.803 33.02-59.147 64.002-5.857 30.998 53.293 12.961 98.543 24.042 112.083 11.089 13.54 20.238 5.547 20.238 5.547-6.145 18.252-27.224 26.91-45.556 3.46-24.269-31.032-6.325-124.965-62.726-115.233z"/><path fill-rule="evenodd" clip-rule="evenodd" fill="#F38366" d="M97.447 106.754c2.574-2.247 2.729-3.411 6.106-3.951.827-.137 1.6-.221 2.405-.395.792-.167 1.634-.459 2.56-1.076 1.986-1.324 1.055.461-1.061 3.003-2.055 2.479-5.372 5.467-7.976 6.768-.634.253-3.903.828-6.665-.202-3.54-1.323-6.383-3.797-6.08-4.597.076-.223 1.411.089 2.866.215 1.331.118 2.774.016 3.105-.106 2.836-1.038 3.434.44 4.74.341z"/><path fill-rule="evenodd" clip-rule="evenodd" fill="#5A5A5D" d="M48.132 78.081c1.063-1.017 8.036-2.552 17.306-3.312 9.283-.768 15.892 2.222 15.892 2.222s-2.03 11.813-6.894 13.96c-4.861 2.154-12.706 2.569-17.846-.607-5.14-3.179-8.458-12.263-8.458-12.263zM123.671 60.826c-1.432-.518-8.969 1.194-18.523 4.761-9.552 3.565-15.063 9.636-15.063 9.636s6.366 10.856 12.013 10.742c5.653-.118 13.647-3.357 17.628-8.931 3.964-5.578 3.945-16.208 3.945-16.208z"/><path fill-rule="evenodd" clip-rule="evenodd" fill="#221F1F" d="M124.677 60.82v-.783l-.677-.249-.003-.001c-.313-.118-.749-.162-1.297-.145-.455.017-1.028.078-1.709.181-3.098.476-8.462 1.935-14.822 4.241l-1.339.485c-9.773 3.649-15.433 9.882-15.45 9.902l-.001.002c-.01.002-1.979.412-3.708 1.006-1.131.384-2.487.729-3.293.917l.002-.013-.7-.309c-.01-.009-6.803-3.075-16.294-2.294l-1.38.118c-6.109.563-11.113 1.453-13.899 2.275-.619.181-1.124.358-1.515.525-.476.206-.826.421-1.061.646l-.504.479.243.67c.021.025 3.428 9.403 8.857 12.755 3.27 2.026 7.575 2.674 11.566 2.361.754-.057 1.485-.154 2.215-.278.889-.15 1.748-.349 2.556-.583.811-.234 1.584-.514 2.31-.842 3.306-1.461 5.372-6.73 6.475-10.546 1.205-.385 3.528-1.101 5.568-1.583 1.727-.41 3.494-.571 4.639-.636 2.47 3.346 6.645 8.021 10.645 7.941.85-.019 1.731-.101 2.627-.242.893-.141 1.82-.349 2.771-.611.878-.246 1.763-.537 2.648-.889 3.993-1.563 7.897-4.163 10.363-7.617 4.191-5.881 4.165-16.856 4.167-16.883zm-50.576 29.189l-.008.002c-.634.282-1.337.535-2.087.754-.76.223-1.547.404-2.363.542-.754.126-1.535.221-2.323.276-3.594.24-7.391-.349-10.267-2.127-3.943-2.438-6.781-8.649-7.718-10.921.333-.135.74-.28 1.234-.423 2.727-.806 7.704-1.682 13.81-2.235l1.123-.103c7.28-.596 12.851 1.16 14.751 1.872-.545 2.644-2.5 10.749-6.152 12.363zm44.829-13.65c-2.164 3.042-5.616 5.359-9.188 6.802-.904.364-1.822.668-2.729.924-.861.242-1.714.424-2.56.562-.829.133-1.623.202-2.359.221-4.255.084-9.181-7.104-10.702-9.489 1.652-1.605 6.565-5.955 14.068-8.754l1.11-.403c6.334-2.31 11.643-3.755 14.681-4.229.537-.078 1.005-.131 1.392-.148-.105 2.704-.664 10.241-3.713 14.514z"/><path fill-rule="evenodd" clip-rule="evenodd" fill="#010101" d="M78.863 75.114c-6.06-2.996-8.162-4.142-14.085-1.904-5.098 1.935-5.859 5.354-9.169 5.671 4.374 4.78 11.315 5.096 16.862 3.702-8.548-.644-10.089-.965-12.768-3.818 1.634-1.718 3.212-2.877 4.812-3.624-.449.958-.52 2.093-.097 3.154.816 2.019 3.113 3.003 5.138 2.188 2.028-.81 3.013-3.112 2.193-5.134-.209-.525-.512-.98-.898-1.348 2.378.077 4.978.561 8.012 1.113z"/><path fill-rule="evenodd" clip-rule="evenodd" fill="#361913" d="M95.054 20.655s-4.143 23.53-19.666 40.017c-33.291 35.363-18.077 83.943-15.238 84.039 0 0-38.642-48.508-26.778-97.275 11.854-48.77 27.672-43.474 40.515-43.034 12.837.446 19.902 12.996 21.167 16.253z"/><defs><path id="e" d="M95.054 20.655s-4.143 23.53-19.666 40.017c-33.291 35.363-15.513 88.331-12.675 88.426 0 0-41.205-52.896-29.342-101.663 11.855-48.769 27.673-43.473 40.516-43.033 12.837.446 19.902 12.996 21.167 16.253z"/></defs><clipPath id="f"><use xlink:href="#e" overflow="visible"/></clipPath><path fill-rule="evenodd" clip-rule="evenodd" fill="#673629" d="M99.62 28.552s-4.139 23.516-19.664 40.009c-33.289 35.361-18.496 90.875-15.651 90.972 0 0-38.23-55.444-26.373-104.213 11.862-48.764 27.673-43.465 40.51-43.025 12.841.44 19.906 12.997 21.178 16.257z" clip-path="url(#f)"/><path fill-rule="evenodd" clip-rule="evenodd" fill="#010101" d="M99.296 68.586c4.687-5.425 6.271-7.419 12.987-7.674 5.793-.209 7.945 2.826 11.325 1.764-2.313 6.484-8.982 9.659-14.983 10.586 8.106-4.163 9.478-5.111 10.918-9.011-2.303-1.005-4.325-1.491-6.203-1.56.838.749 1.367 1.832 1.393 3.041.038 2.32-1.806 4.226-4.119 4.27-2.313.04-4.22-1.805-4.27-4.115-.008-.604.112-1.177.329-1.697-2.292 1.058-4.639 2.608-7.377 4.396z"/><path fill-rule="evenodd" clip-rule="evenodd" fill="#F9A870" d="M81.518 81.615c-.587 5.399-3.698 13.288-3.698 13.288l10.478 1.162-7.463-3.435c-.001 0 3.234-6.008.683-11.015z"/><defs><path id="g" d="M84.314 36.289c-10.474-32.803 33.02-59.147 64.002-5.857 30.998 53.293 12.961 98.543 24.042 112.083 11.089 13.54 20.238 5.547 20.238 5.547-6.145 18.252-27.224 26.91-45.556 3.46-24.269-31.032-6.325-124.965-62.726-115.233z"/></defs><clipPath id="h"><use xlink:href="#g" overflow="visible"/></clipPath><path fill-rule="evenodd" clip-rule="evenodd" fill="#673629" d="M79.992 43.423c-10.476-32.802 33.011-59.147 64-5.856 30.986 53.296 12.96 98.545 24.041 112.082 11.091 13.532 20.241 5.542 20.241 5.542-6.146 18.254-27.226 26.917-45.561 3.468-24.268-31.034-6.329-124.967-62.721-115.236z" clip-path="url(#h)"/><path fill-rule="evenodd" clip-rule="evenodd" fill="#F48220" d="M92.052 16.704c32.29-12.132 44.65 17.08 51.947 49.173 6.34 27.934 19.169 98.404 63.939 79.969-73.331 46.262-46.895-138.296-111.535-125.516-2.696-3.217-.637-4.649-4.351-3.626z"/><path fill="#231F20" d="M73.973 192.462l55.044 31.705 1.529-28.17-58.977-35.239z"/><defs><path id="i" d="M70.078 184.537s.132 7.407 3.895 7.925l11.063-21.745-4.79 1.499-10.168 12.321z"/></defs><use xlink:href="#i" overflow="visible" fill="#010101"/><clipPath id="j"><use xlink:href="#i" overflow="visible"/></clipPath><path clip-path="url(#j)" fill="#F9A870" d="M68.452 182.503l9.105 6.201 8.466-18.773-12.05-1.702z"/><path fill="#FED09E" d="M49.982 184.07s2.153-1.385 7.303 2.739c5.492 4.4 12.229 2.5 16.882-.705 3.706-2.55 5.843-13.434 5.843-13.434l-14.861-13.01-13.386 1.659-1.781 22.751z"/><defs><path id="k" d="M76.964 157.292l-12.24-1.965-5.484-3.1s-5.308 3.317-.391 8.375c4.635 4.769 9.794 4.344 9.794 4.344s-1.731 5.448 3.117 8.836c4.853 3.39 8.91.686 9.878.686.975 0 3.397-2.713 3.397-6.103l-8.071-11.073z"/></defs><use xlink:href="#k" overflow="visible" fill="#FED09E"/><clipPath id="l"><use xlink:href="#k" overflow="visible"/></clipPath><path clip-path="url(#l)" fill="#F9A870" d="M55.602 155.533s3.997-.688 4.971.933c2.546 4.241 9.192 6.339 9.192 6.339s.921 3.587 2.859 5.966c1.979 2.426 9.014 5.696 9.014 5.696s-5.075 2.742-10.742-.686c-3.371-2.04-11.868-11.109-12.047-11.319-.177-.206-2.612-3.929-2.612-3.929l-.635-3z"/><path fill="#FED09E" d="M43.715 187.263l4.56-3.444 9.642 1.422s.997 2.003-.298 3.479c-1.293 1.479-5.15 1.014-5.15 1.014l-8.754-2.471z"/><path fill="#F9A870" d="M60.34 185.621l-6.909-1.084 4.073.982s1.479.812-.114 2.554c-1.584 1.744-4.08 1.137-4.08 1.137l-7.629-1.494 9.514 2.945s6.469-.752 7.575-3.035c1.106-2.282-2.43-2.005-2.43-2.005z"/><path fill="#FED09E" d="M45.052 183.036l4.407-4.029 10.165.546s1.233 1.988.032 3.649c-1.203 1.664-5.262 1.552-5.262 1.552l-9.342-1.718z"/><path fill="#F9A870" d="M62.187 179.711l-7.291-.457 4.332.627s1.615.705.13 2.67c-1.483 1.965-4.137 1.576-4.137 1.576l-8.083-.811 10.186 2.139s6.113 1.212 7.042-1.271c.927-2.483-2.179-4.473-2.179-4.473z"/><path fill="#FED09E" d="M47.583 176.91l4.648-3.744 10.109 1.175s1.106 2.063-.193 3.647c-1.305 1.584-5.348 1.219-5.348 1.219l-9.216-2.297z"/><path fill="#F9A870" d="M64.893 174.663l-7.251-.912 4.284.895s1.565.803-.036 2.674c-1.604 1.869-4.228 1.314-4.228 1.314l-8.017-1.313 10.033 2.769s6.023 1.592 7.105-.826c1.084-2.42-1.89-4.601-1.89-4.601z"/><path fill="#fff" d="M53.444 151.44c-2.095.23-5.382.428-9.463.565-1.456.518-2.408 1.019-2.408 1.019l-5.776 7.423s18.94-10.689 19.904 3.812c.962 14.5-19.904 11.129-19.904 11.129l-1.285 3.771s25.038 5.833 25.038-14.899c0-8.111-2.754-11.586-6.106-12.82z"/><path fill="#F9A870" d="M53.027 163.283s12.41 2.879 11.091 7.042c-1.421 4.478-12.554 1.472-12.554 1.472l1.463-8.514z"/><path fill="#FED09E" d="M51.41 162.805s12.106 2.851 10.818 6.977c-1.386 4.432-12.246 1.455-12.246 1.455l1.428-8.432z"/><path fill="#595A5C" d="M80.01 193.288s.792-.162 1.858-3.072c1.066-2.908 2.365-7.794 2.365-7.794l-.976 9.065 2.114-1.271 1.285 3.082 1.64.67 1.624 1.951 2.438.902 1.84 2.836 1.682-.607 1.028-.369 4.875 4.875.896-.975 6.228 6.986-6.228-5.523s.078 2.439-1.059 1.301l-4.226-4.227-3.197.814-3.001-3.9-3.875-.164.811-1.873-1.476-1.053-2.424.326-.162-1.98-1.463.01-.74-.934-1.857.924z"/><path fill="#231F20" d="M104.133 126.463c-12.612 5.995-18.028 13.791-13.284 26.123 4.743 12.338 27.515 63.354 27.515 63.354s-54.083-9.039-59.775-5.834c-5.694 3.207-2.125 13.557 0 17.439 2.125 3.881 107.715 34.746 107.715 34.746s17.532-7.23 18.481-11.973c.95-4.744-55.109-118.23-55.109-118.23s-12.933-11.619-25.543-5.625z"/><path fill="#595A5C" d="M117.669 138.963h-13.778l-5.756 10.504h13.718l-5.941 12.818 8.258 1.001s-2.778 10.386-2.316 11.631c.463 1.246 5.816 6.582 5.816 6.582l16.453 40.653-9.708-1.713 3.813 6.604-20.182-8.184.711 6.049-37.821-6.404 43.378 14.539.638-6.355 19.171 6.355v-8.135l8.52-.391-10.714-21.586 6.863-1.508-21.122-28.177 2.486-14.164-6.672-2.847 4.186-7.918-9.267-3.822 9.266-5.532zM141.525 168.158l4.592-9.786-2.295 8.908 10.362 5.968h-7.714l7.714 15.421-12.659-13.751z"/><path fill="#fff" d="M391.866 61.59c-13.207-2.717-65.469 13.701-116.705 13.701-30.379 0-100.523-19.481-121.452-17.078-29.415 3.376-6.521 45.202-6.521 45.202s48.27 178.011 43.526 182.519c-49.341-42.934-74.959-45.781-129.755-54.623-51.117-8.248-47.236 8.088-45.781 25.939 1.095 13.447 18.978 9.709 18.978 9.709l24.962 104.936h285.061c16.607-85.791 53.023-271.946 58.125-281.421 6.64-12.334 5.696-25.563-10.438-28.884zm-324.392 292.37l-20.793-83.572s60.108-1.824 145.916 52.613c-66.231-35.977-116.92-43.891-135.787-44.119-5.575-.069 10.664 75.078 10.664 75.078zM29.745 148.321c-16.43 0-29.745.873-29.745 1.948l12.271 38.611-.04.107c0 1.41 8.112 2.551 18.115 2.551 10.002 0 18.11-1.141 18.114-2.549l11.025-38.72c.001-1.076-13.315-1.948-29.74-1.948zm0 3.906c-14.489 0-26.231-.615-26.231-1.373s11.742-1.373 26.231-1.373c14.486 0 26.233.615 26.233 1.373.001.758-11.747 1.373-26.233 1.373zM35.947 128.918c-.853-.244-1.921-.478-3.239-.657-1.917-.202-3.707-.294-5.391-.322-.457-1.433-.815-2.453-.842-2.803-.036-.691-.024-1.373.16-1.973.181-.598.493-1.129.968-1.569 1.923-2.413 7.337-2.268 8.889-.398.44.544.651 1.183.686 1.775.023.596-.139 1.154-.429 1.645-.303.486-.738.899-1.264 1.227l-.398.225-.24.108-.12.055-.039.019-.056.021c-.301.124-.617.215-.935.292-.643.133-1.332.158-1.946.013-.615-.139-1.116-.445-1.411-.826-.299-.379-.413-.796-.419-1.167-.01-.372.059-.708.163-1 .212-.581.511-1.001.72-1.276l.347-.422s-1.394.859-1.716 1.451c-.157.295-.293.647-.339 1.07-.04.419.016.928.393 1.499.188.282.477.577.854.83.373.253.832.457 1.299.592.944.269 1.879.274 2.719.16.415-.064.823-.154 1.202-.274l.072-.021.083-.03.128-.046.259-.093.553-.244c.688-.345 1.297-.8 1.752-1.368.447-.567.738-1.247.786-2.019.034-.773-.137-1.639-.768-2.555-.319-.452-.76-.918-1.352-1.331-5.879-3.445-11.251-.149-12.003.449-.773.575-1.313 1.304-1.644 2.074-.569 1.563.425 3.472 1.7 5.917-1.476.035-2.849.121-4.104.249-3.323-4.373-6.667-7.66-7.145-8.468-.477-.859-.892-1.737-1.028-2.617-.145-.878-.078-1.748.253-2.609.942-4.281 7.943-7.486 11.093-6.065.898.417 1.571 1.099 1.982 1.834.405.744.547 1.562.483 2.369-.082.808-.379 1.607-.844 2.355l-.369.533-.236.29-.12.145-.04.051-.057.063c-.305.343-.649.659-1.012.954-.734.571-1.6 1.034-2.474 1.234-.87.206-1.704.131-2.315-.169-.62-.297-1.028-.762-1.267-1.229-.245-.468-.367-.94-.415-1.378-.097-.875.025-1.598.116-2.078.105-.492.178-.756.18-.756 0 0-1.242 1.965-1.28 2.923-.017.478.03 1.009.234 1.577.212.56.602 1.179 1.439 1.668.417.242.968.44 1.607.526.638.087 1.349.063 2.03-.059 1.373-.246 2.568-.825 3.568-1.495.489-.343.952-.71 1.359-1.103l.082-.072.088-.091.135-.139.272-.28c.181-.204.37-.434.549-.653.664-.87 1.154-1.833 1.383-2.841.215-1.005.161-2.055-.26-3.069-.439-1.007-1.203-2.005-2.58-2.778-.688-.381-1.542-.697-2.558-.859-9.652-.714-14.447 6.854-15.03 8.083-.627 1.221-.861 2.489-.802 3.677.373 3.487 5.484 6.062 10.542 10.84-4.166.65-6.671 1.644-7.208 1.917-1.043.493-1.574 1.055-1.71 1.609-.227 2.923 16.735 4.49 18.377 13.161.274-3.673-1.146-7.561-3.169-11.178l.056.009c.824.106 1.771.166 2.694.185l.221-.005c.928 3.048 1.331 6.651.198 10.99 1.79-3.053 1.614-7.244.9-11.021 1.329-.039 2.586-.131 3.67-.285.708-.106 1.386-.229 1.995-.364l.118-.028.134-.031.2-.047.415-.103.842-.246c1.033-.329 1.854-.724 2.33-1.166.467-.439.581-.927.206-1.438-.401-.51-1.23-1.047-2.91-1.55zm-8.756 12.966c-2.432-5.035-9.302-7.554-10.167-8.299-.485-.445-.87-.893-.9-1.314-.03-.417.209-.813.8-1.171.535-.498 1.634-.914 3.017-1.242.552.572 1.093 1.177 1.626 1.813-.143.099-.259.195-.301.278-.106.217-.137.468.03.749.181.28.585.602 1.607.918l.196.048c1.63 2.296 3.072 4.978 4.092 8.22zm.187-8.182c-1.091.006-2.085-.101-2.829-.273-.465-.797-.946-1.582-1.455-2.344l.016-.019c.223-.217.373-.329.373-.329l-.484.2c-.337-.5-.682-.985-1.028-1.466 1.19-.182 2.473-.309 3.754-.378.695 1.365 1.409 2.891 1.973 4.594l-.32.015zm7.817-2.055c-.255.362-.784.699-1.536.994l-.581.209-.368.108-.187.055-.059.015-.084.025c-.465.127-.98.236-1.508.337-.635.111-1.326.187-2.028.24-.343-1.682-.779-3.266-1.187-4.604 1.975-.016 3.792.12 5.023.427 1.118.288 1.882.67 2.295 1.047.401.391.445.777.22 1.147z"/></svg>