<!DOCTYPE svg PUBLIC "-//W3C//DTD SVG 1.1//EN" "http://www.w3.org/Graphics/SVG/1.1/DTD/svg11.dtd" [
	<!ENTITY ns_flows "http://ns.adobe.com/Flows/1.0/">
]><svg xmlns="http://www.w3.org/2000/svg" width="620" height="311" viewBox="-5.659 -0.678 620 311" enable-background="new -5.659 -0.678 620 311"><path fill="#fff" d="M36.478 198.139h46.301v112.168h10.089v-112.168h211.491v-35.562h-267.881v35.562zm125.181-22.268c-1.561 1.32-2.555 3.289-2.555 5.49 0 3.971 3.218 7.187 7.187 7.187 3.602 0 6.577-2.652 7.097-6.11-.057 4.176-3.455 7.545-7.645 7.545-4.224 0-7.65-3.426-7.65-7.651.001-2.721 1.427-5.103 3.566-6.461zm147.575 22.268h206.686v112.168h10.089v-112.168h47.449v-35.562h-264.224v35.562zm133.826-22.268c-1.561 1.32-2.555 3.289-2.555 5.49 0 3.971 3.218 7.187 7.187 7.187 3.603 0 6.577-2.652 7.097-6.11-.057 4.176-3.455 7.545-7.645 7.545-4.224 0-7.649-3.426-7.649-7.651 0-2.721 1.424-5.103 3.565-6.461zm-253.797-105.734l.134 7.44-.726-.021-.12-6.496-.017-.004-.954.665-.156-.773 1.195-.834.644.023zm-72.377-9.154c1.2.054 1.896-1.472 1.93-4.258.032-2.607-.595-4.157-1.735-4.22-1.098-.061-1.91 1.401-1.936 4.153-.025 2.716.683 4.278 1.741 4.325zm.147-7.629c.758.042 1.077 1.371 1.052 3.388-.025 2.091-.398 3.413-1.148 3.378-.664-.031-1.083-1.276-1.056-3.415.028-2.236.51-3.385 1.152-3.351zm4.862-7.204l-.7-.043c.033-2.746.052-4.102.086-6.73l-.016.002-.937.638-.132-.782 1.178-.794.614.042c-.038 2.983-.055 4.527-.093 7.667zm-5.202 30.037c1.201.029 1.903-1.472 1.938-4.256.032-2.611-.596-4.184-1.738-4.224-1.1-.038-1.915 1.48-1.94 4.229-.027 2.716.68 4.226 1.74 4.251zm.15-7.613c.759.025 1.078 1.369 1.053 3.386-.025 2.091-.399 3.399-1.15 3.38-.665-.016-1.087-1.225-1.061-3.363.029-2.24.515-3.424 1.158-3.403zm-.464 21.971c.036-2.618.055-3.965.091-6.709h-.016l-.951.72-.135-.81 1.2-.904.626.009c-.041 3.155-.063 4.704-.104 7.699l-.711-.005zm76.592-34.054c-1.158-.072-1.965 1.246-1.914 3.723.051 2.447.828 3.858 1.931 3.913 1.254.063 1.956-1.293 1.923-3.801-.03-2.346-.74-3.761-1.94-3.835zm.05 6.859c-.696-.036-1.164-1.158-1.194-3.085-.032-2.017.438-3.051 1.112-3.009.798.048 1.175 1.253 1.2 3.07.025 1.883-.335 3.064-1.118 3.024zm-3.512 20.441c.053 2.906.078 4.347.131 7.164l-.716-.01-.12-6.246h-.017l-.948.665-.153-.745 1.185-.836.638.008zm-72.368-51.824c.036-2.46.055-3.645.091-5.901l-.016-.004-.947.533-.133-.676 1.194-.655.621.05c-.041 2.546-.062 3.896-.103 6.71l-.707-.057zm71.873 24.404l.135 7.438-.731-.03c-.047-2.615-.072-3.929-.12-6.521l-.017.002-.963.644-.158-.777 1.206-.792.648.036zm-72.7 47.154c1.206 0 1.909-1.167 1.943-3.448.033-2.141-.602-3.483-1.747-3.485-1.104-.002-1.918 1.333-1.944 3.578-.025 2.214.686 3.355 1.748 3.355zm.146-6.202c.761.002 1.085 1.141 1.061 2.793-.026 1.716-.403 2.742-1.157 2.742-.667 0-1.085-.935-1.059-2.679.029-1.826.511-2.858 1.155-2.856zm4.023 6.092c.033-2.222.051-3.392.084-5.817h-.018l-.95.651-.134-.712 1.197-.819h.625c-.038 2.807-.055 4.153-.093 6.697h-.711zm68.286-60.418c.053 2.816.08 4.254.133 7.16l-.737-.048c-.047-2.542-.072-3.805-.12-6.278l-.019-.002-.971.59-.158-.735 1.217-.735.655.048zm-63.834 47.604c.029-2.599.043-3.936.072-6.655l-.017.002-.946.716-.13-.802 1.186-.899.62.01-.08 7.63-.705-.002zm-7.859-44.622c1.198.076 1.891-1.375 1.925-3.991.033-2.449-.591-3.885-1.729-3.967-1.096-.08-1.908 1.232-1.935 3.818-.025 2.548.684 4.072 1.739 4.14zm.147-7.179c.756.054 1.074 1.288 1.049 3.186-.026 1.967-.396 3.22-1.146 3.171-.662-.044-1.083-1.248-1.056-3.256.03-2.101.512-3.147 1.153-3.101zm7.679 64.725c1.204 0 1.905-1.167 1.931-3.445.025-2.136-.611-3.471-1.756-3.473-1.099-.002-1.906 1.323-1.927 3.563-.021 2.209.689 3.355 1.752 3.355zm.13-6.189c.757 0 1.088 1.131 1.068 2.78-.02 1.712-.396 2.744-1.148 2.744-.67 0-1.089-.94-1.066-2.681.023-1.822.502-2.843 1.146-2.843zm-4.249-6.632c1.199.007 1.899-1.373 1.931-3.98.03-2.441-.599-3.938-1.734-3.954-1.099-.015-1.913 1.451-1.937 4.022-.023 2.537.682 3.906 1.74 3.912zm.144-7.109c.757.01 1.079 1.28 1.056 3.171-.024 1.956-.397 3.161-1.147 3.155-.664-.004-1.083-1.108-1.058-3.108.026-2.091.505-3.226 1.149-3.218zm-13.199 19.93c1.204 0 1.909-1.167 1.943-3.456.032-2.148-.604-3.493-1.754-3.496-1.107-.004-1.919 1.334-1.942 3.587-.021 2.224.691 3.365 1.753 3.365zm.136-6.217c.764.002 1.093 1.145 1.068 2.803-.025 1.721-.404 2.748-1.156 2.748-.67 0-1.089-.937-1.065-2.687.025-1.834.508-2.866 1.153-2.864zm17.659-50.801c1.172.07 1.852-1.371 1.877-3.967.025-2.428-.592-3.849-1.706-3.925-1.07-.074-1.86 1.236-1.882 3.799-.021 2.525.676 4.03 1.711 4.093zm.125-7.119c.738.05 1.058 1.272 1.038 3.154-.02 1.95-.384 3.193-1.116 3.148-.653-.04-1.064-1.227-1.042-3.218.025-2.084.494-3.125 1.12-3.084zm-3.928 21.662l-.7-.03.084-7.138h-.017l-.94.716-.133-.848 1.184-.881.618.034c-.039 3.228-.058 4.866-.096 8.147zm-.881 15.095l.085-7.12h-.017l-.941.737-.135-.849 1.19-.923.619.019-.095 8.15-.706-.014zm71.726-45.374c-1.188-.103-2.013.998-1.961 3.203.051 2.176.843 3.506 1.975 3.601 1.287.108 2.011-1.11 1.979-3.348-.031-2.096-.761-3.349-1.993-3.456zm.048 6.104c-.714-.061-1.194-1.104-1.225-2.822-.032-1.798.45-2.672 1.143-2.611.819.07 1.208 1.135 1.232 2.759.026 1.682-.346 2.742-1.15 2.674zm-3.355 59.825c-1.108-.004-1.883 1.272-1.826 3.481.056 2.181.811 3.344 1.875 3.344 1.204 0 1.867-1.184 1.825-3.428-.04-2.106-.722-3.393-1.874-3.397zm.074 6.153c-.668 0-1.124-.943-1.161-2.661-.039-1.797.413-2.793 1.06-2.792.764.002 1.127 1.106 1.16 2.733.033 1.688-.305 2.72-1.059 2.72zm-64.12-26.478c1.188.025 1.88-1.46 1.906-4.214.025-2.58-.604-4.132-1.733-4.168-1.084-.034-1.885 1.466-1.906 4.184-.021 2.685.684 4.176 1.733 4.198zm.128-7.529c.748.022 1.073 1.354 1.053 3.35-.02 2.068-.391 3.359-1.133 3.342-.662-.015-1.077-1.213-1.054-3.327.024-2.215.499-3.384 1.134-3.365zm67.428-25.651c-1.173-.094-1.988 1.133-1.937 3.523.051 2.355.836 3.757 1.954 3.835 1.27.089 1.982-1.221 1.95-3.639-.031-2.264-.752-3.622-1.967-3.719zm.049 6.604c-.706-.05-1.179-1.158-1.209-3.015-.033-1.942.444-2.914 1.127-2.86.809.063 1.192 1.219 1.217 2.973.026 1.817-.342 2.959-1.135 2.902zm-67.263-17.195c.03-2.449.045-3.632.074-5.888l-.016-.002-.921.537-.128-.68 1.157-.661.604.046c-.033 2.546-.05 3.898-.082 6.699l-.688-.051zm-.185 28.741c1.181.05 1.863-1.46 1.889-4.214.024-2.579-.598-4.108-1.72-4.167-1.077-.057-1.872 1.39-1.894 4.111-.02 2.686.683 4.226 1.725 4.27zm.125-7.539c.743.038 1.065 1.352 1.045 3.346-.02 2.068-.386 3.369-1.124 3.338-.657-.028-1.069-1.251-1.046-3.367.025-2.213.494-3.35 1.125-3.317zm-13.218 22.133l.091-7.198h-.014l-.962.739-.132-.857 1.205-.931.633.023-.104 8.242-.717-.018zm.907-15.264l-.717-.035.091-7.225h-.014l-.968.722-.13-.859 1.208-.889.635.036-.105 8.25zm-1.288 42.742c.036-2.222.052-3.396.088-5.833h-.011l-.959.647-.131-.712 1.2-.823.629.002c-.042 2.82-.061 4.172-.103 6.716l-.713.003zm1.277-78.6c-1.113-.092-1.937 1-1.962 3.25-.025 2.222.693 3.605 1.762 3.69 1.215.097 1.918-1.202 1.954-3.485.033-2.138-.597-3.36-1.754-3.455zm-.143 6.213c-.675-.053-1.102-1.143-1.075-2.895.028-1.833.517-2.702 1.164-2.649.768.063 1.093 1.112 1.067 2.769-.027 1.715-.398 2.836-1.156 2.775zm.346 14.576l-.719-.049c.036-2.775.055-4.138.091-6.789l-.014-.004-.967.646-.135-.792 1.211-.804.635.05-.102 7.742zm-1.166 45.042c1.208.009 1.912-1.381 1.947-4.011.033-2.462-.596-3.978-1.746-3.997-1.107-.017-1.921 1.464-1.947 4.06-.025 2.562.683 3.941 1.746 3.948zm.147-7.173c.764.012 1.086 1.297 1.061 3.205-.027 1.975-.398 3.186-1.151 3.18-.671-.006-1.094-1.124-1.067-3.14.028-2.11.515-3.255 1.157-3.245zm9.331-57.978c-1.08-.084-1.88 1.009-1.904 3.252-.023 2.213.675 3.59 1.715 3.668 1.178.087 1.862-1.206 1.893-3.483.028-2.133-.588-3.352-1.704-3.437zm-.143 6.192c-.652-.05-1.063-1.127-1.038-2.874.027-1.828.498-2.702 1.13-2.653.744.057 1.059 1.11 1.036 2.761-.024 1.711-.39 2.822-1.128 2.766zm66.977-1.157c.053 2.565.08 3.888.133 6.604l-.745-.059c-.048-2.375-.072-3.535-.12-5.795l-.017-.004-.981.53-.158-.678 1.224-.651.664.053zm47.545 80.747h144.817v-83.261h-144.817v83.261zm69.088-5.929h-31.311v-41.014h31.311v41.014zm34.187 0h-31.311v-41.014h31.312v41.014zm33.892 0h-31.312v-41.014h31.312v41.014zm-129.516-71.79h129.516v26.658h-129.516v-26.658zm0 30.776h26.568v5.313h-26.568v-5.313zm0 8.719h26.568v5.311h-26.568v-5.311zm0 8.717h26.568v5.311h-26.568v-5.311zm-41.552-11.226c-1.171-.051-1.999 1.282-1.974 3.721.025 2.411.791 3.769 1.901 3.803 1.26.04 1.984-1.293 1.984-3.759.001-2.313-.695-3.711-1.911-3.765zm-.03 6.768c-.705-.023-1.161-1.11-1.17-3.009-.01-1.988.477-3.019 1.157-2.99.807.034 1.174 1.228 1.177 3.016.002 1.854-.378 3.008-1.164 2.983zm268.796-36.966l6.23-.427c-4.125 17.594-7.82 35.283-12.043 52.854h-6.223c4.245-17.424 7.964-34.966 12.036-52.427zm10.07 10.201c12.064 5.729 18.227 8.861 30.433 15.511v7.292c-12.107 7.15-17.927 10.481-29.624 16.653-.063-2.967-.098-4.492-.16-7.592 9.064-4.721 13.598-7.227 22.904-12.452v-.156c-9.375-4.757-14.088-7.057-23.39-11.384-.064-3.183-.098-4.766-.163-7.872zm-351.685 25.777l.061-7.041h-.018l-.93.728-.135-.84 1.173-.914.617.019-.065 8.057-.703-.009zm324.834 6.29c.054 2.998.081 4.487.136 7.414-11.926-6.155-17.849-9.306-29.515-15.356v-5.917c11.612-6.313 17.324-9.681 28.836-16.617l.134 7.554c-8.739 4.934-13.091 7.313-21.876 11.862v.137c8.832 4.288 13.301 6.488 22.285 10.923zm-346.369 7.87c.033-2.639.05-4.005.083-6.777h-.017l-.963.726-.131-.815 1.203-.912.637.005c-.039 3.19-.059 4.757-.098 7.777l-.714-.004zm392.347 56.697c-.192-7.791-3.316-14.842-8.32-20.104h47.719c2.228 0 4.033-2.247 4.033-5.016v-117.045c0-2.771-1.806-5.018-4.033-5.018l-135.598 10.036c-2.23 0-4.036 2.243-4.036 5.014v107.014c0 2.769 1.806 5.016 4.036 5.016h44.033c-5.005 5.261-8.129 12.313-8.32 20.104h-101.175c-.192-7.791-3.315-14.842-8.321-20.104h62.467c2.742 0 4.964-2.223 4.964-4.963v-105.9c0-2.742-2.222-4.964-4.964-4.964h-166.793c-2.742 0-4.963 2.222-4.963 4.964v105.9c0 2.74 2.221 4.963 4.963 4.963h60.479c-5.005 5.261-8.129 12.313-8.322 20.104h-99.146c-.192-7.791-3.316-14.842-8.322-20.104h44.034c2.231 0 4.036-2.247 4.036-5.016v-107.014c0-2.771-1.805-5.014-4.036-5.014l-135.594-10.036c-2.229 0-4.037 2.247-4.037 5.018v32.27l9.147 1.042c.474.015 1.09.241 1.721.6v-29.565l125.268 9.03v99.322h-115.65l.777 8.891c.013.154.002.313-.001.471h30.491c-5.005 5.261-8.128 12.313-8.321 20.104h-30.970000000000002c.37-.634.51-1.459.224-2.55-1.229-4.692-5.683-2.581-5.683-2.581l-2.017-3.976 8.529-1.794.875.668s5.287.56 4.79-4.603c-.036-.377-.074-.71-.116-1.024-.567.556-1.149.921-1.451.944l-39.57 3.214c-.732.063-4.148-1.401-4.335-3.557l-8.17-90.852c-.082-.961.383-1.875.978-2.613l-.051-.554s-4.917-.485-4.958 3.489c-.036 3.548 2.504 3.397 2.504 3.397l8.199 87.464c-.378.434-.782 1.083-.853 1.931-.137 1.655.673 3.751.673 3.751l-18.397 8.326s-.972.478-1.307.92h-27.238v11.667h18.483v151.456h13.599v-151.455h544.627v151.456h13.597v-151.456h18.483v-11.667h-108.661zm-450.731 0h-17.319c6.648-2.019 19.544-7.314 20.499-5.201.232.516.515 1.289.857 2.184-1.391.354-2.434 1.552-2.568 3.017h-1.469zm180.727-29.37v-97.294h158.185v97.294h-158.185zm177.302-.095v-99.322l125.268-9.03v108.353h-125.268zm-307.784-87.072c1.283.112 2.019-1.194 2.042-3.489.021-2.15-.658-3.382-1.885-3.493-1.187-.106-2.059.975-2.062 3.237-.004 2.235.772 3.646 1.905 3.745zm.104-6.307c.815.074 1.17 1.129 1.155 2.795-.016 1.725-.41 2.849-1.209 2.778-.715-.063-1.175-1.169-1.163-2.933.012-1.844.528-2.703 1.217-2.64zm-.204 20.44c1.267.093 1.997-1.382 2.02-4.05.021-2.497-.651-3.969-1.864-4.067-1.172-.097-2.032 1.232-2.035 3.869-.004 2.599.76 4.167 1.879 4.248zm.103-7.32c.805.064 1.155 1.323 1.14 3.258-.016 2.005-.402 3.283-1.192 3.224-.706-.053-1.16-1.295-1.147-3.344.011-2.143.519-3.193 1.199-3.138zm104.432 50.082c0-2.236-.68-3.595-1.868-3.622-1.146-.025-1.956 1.295-1.931 3.654.025 2.327.777 3.611 1.862 3.622 1.233.013 1.937-1.267 1.937-3.654zm-1.897 2.93c-.689-.008-1.135-1.043-1.145-2.877-.01-1.919.467-2.944 1.131-2.931.789.015 1.147 1.175 1.15 2.908.004 1.794-.366 2.909-1.136 2.9zm-107.462 12.947l.016-5.884h-.017l-.954.655-.13-.662-.005-.063 1.197-.823.629.002-.023 6.775h-.713zm-1.063-51.231l1.269-.895.664.044-.025 8.457-.748-.042.014-7.404-.017-.008-1.009.728-.148-.88zm-.011 15.752l1.246-.948.652.027c-.009 3.407-.014 5.113-.024 8.458l-.736-.021.015-7.389-.017-.003-.99.756-.146-.88zm.021-30.756l1.289-.796.677.059c-.01 3.062-.016 4.658-.025 7.903l-.759-.057c.005-2.837.009-4.235.015-6.938l-.019.002-1.027.64-.151-.813zm108.455 19.895c-1.197-.08-2.04 1.213-2.015 3.654.025 2.411.808 3.807 1.942 3.868 1.289.07 2.03-1.261 2.03-3.729 0-2.31-.715-3.71-1.957-3.793zm-.029 6.756c-.721-.04-1.188-1.145-1.198-3.043-.01-1.986.488-3.003 1.183-2.958.825.053 1.201 1.249 1.204 3.037.002 1.854-.384 3.009-1.189 2.964zm-107.213-33.727l.015-5.972-.019-.001-1.042.514-.153-.689 1.31-.625.687.061-.023 6.777-.775-.065zm107.154 1.514c-1.249-.116-2.126.977-2.101 3.171.025 2.167.838 3.492 2.022 3.599 1.345.12 2.124-1.082 2.124-3.308 0-2.085-.748-3.342-2.045-3.462zm-.031 6.072c-.752-.068-1.24-1.104-1.25-2.813-.01-1.788.51-2.658 1.234-2.592.859.08 1.252 1.146 1.255 2.761.004 1.673-.399 2.721-1.239 2.644zm-107.121 52.797c1.224.013 1.928-1.398 1.94-4.081.012-2.514-.648-4.067-1.828-4.092-1.133-.025-1.952 1.489-1.944 4.14.008 2.616.748 4.022 1.832 4.033zm.068-7.327c.782.015 1.127 1.337 1.12 3.283-.008 2.015-.375 3.247-1.144 3.237-.683-.007-1.127-1.141-1.125-3.201.002-2.156.491-3.333 1.149-3.319zm107.128-39.206c-1.223-.103-2.083 1.104-2.059 3.466.025 2.327.823 3.713 1.982 3.801 1.316.099 2.078-1.185 2.078-3.572 0-2.236-.732-3.589-2.001-3.695zm-.031 6.524c-.736-.057-1.211-1.152-1.22-2.988-.011-1.919.498-2.875 1.207-2.816.843.07 1.226 1.219 1.229 2.952.002 1.795-.394 2.915-1.216 2.852zm-4.26-19.142c.027 2.56.042 3.881.069 6.578l-.779-.069-.064-5.77-.019.002-1.024.512-.166-.678 1.293-.636.69.061zm4.333 65.519l.636.001.019 6.559h-.712l-.023-5.715h-.015l-.954.623-.148-.686 1.197-.782zm-98.809 6.559c.028-2.226.042-3.403.07-5.854h-.018l-.955.653-.135-.716 1.202-.827.628.002c-.033 2.837-.049 4.193-.082 6.741l-.71.001zm5.177-72.139c.033-2.474.05-3.666.083-5.926l-.018.001-.982.526-.137-.68 1.23-.644.648.05c-.039 2.546-.058 3.906-.097 6.735l-.727-.062zm-9.044 28.871c1.251.065 1.972-1.493 1.995-4.347.021-2.672-.645-4.268-1.843-4.344-1.158-.074-2.005 1.415-2.009 4.235-.003 2.784.753 4.399 1.857 4.456zm.101-7.821c.795.049 1.138 1.418 1.123 3.487-.016 2.142-.396 3.487-1.177 3.445-.697-.038-1.144-1.312-1.131-3.506.013-2.295.514-3.468 1.185-3.426zm4.035 38.248c1.214.012 1.925-1.386 1.955-4.041.027-2.487-.616-4.022-1.778-4.043-1.12-.021-1.941 1.474-1.956 4.094-.013 2.586.707 3.98 1.779 3.99zm.128-7.246c.774.013 1.102 1.316 1.081 3.241-.022 1.994-.397 3.22-1.156 3.212-.677-.006-1.104-1.131-1.085-3.169.019-2.13.509-3.295 1.16-3.284zm4.552-22.747c1.222.059 1.933-1.478 1.967-4.296.032-2.637-.608-4.21-1.775-4.281-1.124-.067-1.954 1.407-1.976 4.193-.021 2.75.706 4.333 1.784 4.384zm.138-7.722c.775.046 1.107 1.394 1.083 3.436-.024 2.115-.404 3.45-1.168 3.412-.681-.034-1.108-1.291-1.084-3.456.024-2.264.515-3.43 1.169-3.392zm.038-7.453c1.228.084 1.942-1.38 1.977-4.021.032-2.472-.612-3.923-1.784-4.013-1.129-.087-1.963 1.234-1.985 3.847-.023 2.572.708 4.112 1.792 4.187zm.14-7.246c.779.059 1.112 1.304 1.087 3.22-.025 1.984-.406 3.249-1.173 3.195-.684-.048-1.115-1.27-1.091-3.298.024-2.121.519-3.167 1.177-3.117zm89.71 45.798l.068 7.076-.726-.009-.064-6.178h-.017l-.959.651-.155-.733 1.209-.824.644.017zm-90.202-7.986c1.216.033 1.927-1.481 1.961-4.298.031-2.641-.608-4.237-1.769-4.281-1.119-.042-1.944 1.487-1.967 4.271-.022 2.75.701 4.279 1.775 4.308zm.138-7.703c.771.028 1.099 1.39 1.074 3.432-.025 2.115-.403 3.435-1.163 3.414-.677-.019-1.103-1.245-1.079-3.411.026-2.266.517-3.46 1.168-3.435zm89.941 2.226l.066 7.326-.737-.019-.065-6.402h-.019l-.975.647-.158-.764 1.231-.811.657.023zm-2.116 29.697c.039 2.169.786 3.331 1.849 3.331 1.204 0 1.881-1.186 1.863-3.418-.017-2.095-.689-3.369-1.847-3.375-1.117-.003-1.905 1.263-1.865 3.462zm1.831-2.763c.769.002 1.124 1.095 1.139 2.714.016 1.68-.334 2.71-1.085 2.71-.673 0-1.12-.941-1.142-2.651-.022-1.79.441-2.774 1.088-2.773zm-98.536-21.697c1.235.036 1.953-1.495 1.976-4.348.021-2.675-.639-4.292-1.821-4.342-1.144-.047-1.979 1.502-1.983 4.321-.005 2.784.738 4.337 1.828 4.369zm.103-7.806c.785.032 1.124 1.417 1.108 3.485-.016 2.142-.391 3.475-1.162 3.452-.688-.021-1.13-1.258-1.118-3.452.014-2.297.51-3.512 1.172-3.485zm-.327 22.475l.045-6.844h-.017l-.969.733-.141-.83 1.218-.918.639.014c-.024 3.226-.035 4.804-.059 7.851l-.716-.006zm98.919-33.468l.067 7.33-.75-.042-.065-6.417-.019-.002-.992.627-.158-.766 1.251-.773.666.043zm-95.494 11.366l1.225-.939.638.023-.081 8.347-.721-.019c.028-2.889.041-4.353.068-7.29l-.018-.004-.972.75-.139-.868zm95.37-24.576l.066 7.078-.764-.055-.066-6.202-.019-.002-1.007.577-.162-.733 1.272-.716.68.053zm-95.233 9.039l1.236-.893.646.042c-.034 3.304-.051 4.987-.084 8.348l-.727-.04.069-7.311-.02-.005-.982.724-.138-.865zm.135-14.826l1.246-.794.653.05c-.034 3.033-.051 4.612-.084 7.819l-.732-.051c.027-2.805.041-4.191.068-6.865h-.018l-.992.642-.141-.801zm1.228-7.029c.028-2.481.041-3.671.068-5.934l-.018-.005-1 .525-.143-.684 1.259-.642.657.055c-.034 2.548-.051 3.908-.084 6.745l-.739-.06zm-4.9 72.616c1.204 0 1.902-1.163 1.925-3.462.021-2.157-.624-3.521-1.777-3.525-1.114-.003-1.923 1.349-1.927 3.611-.004 2.232.716 3.376 1.779 3.376zm.099-6.248c.765.001 1.099 1.158 1.083 2.822-.016 1.728-.385 2.758-1.136 2.758-.671 0-1.098-.937-1.085-2.697.012-1.841.492-2.885 1.138-2.883zm84.294-67.267c-1.138-.093-1.921 1.022-1.859 3.237.061 2.186.832 3.513 1.921 3.599 1.237.097 1.919-1.143 1.87-3.39-.046-2.105-.754-3.351-1.932-3.446zm.089 6.13c-.688-.055-1.155-1.104-1.196-2.828-.043-1.806.415-2.682 1.078-2.628.782.063 1.161 1.124 1.198 2.753.038 1.688-.308 2.764-1.08 2.703zm-28.485 32.881l.084 7.804-.697-.014c-.029-2.708-.042-4.079-.07-6.821l-.016.002-.91.707-.148-.805 1.147-.895.61.022zm-1.618 15.166l1.16-.874.615.009.089 7.421-.705.002c-.029-2.539-.044-3.845-.072-6.48h-.017l-.922.699-.148-.777zm17.586-55.034c.063 2.565.095 3.9.158 6.644l-.697-.051c-.054-2.399-.083-3.569-.137-5.833l-.014-.004-.91.543-.154-.678 1.143-.67.611.049zm-12.858-1.044c-1.045-.074-1.781 1.042-1.74 3.27.041 2.2.748 3.54 1.759 3.61 1.147.08 1.783-1.198 1.744-3.46-.037-2.119-.679-3.343-1.763-3.42zm.05 6.166c-.638-.044-1.065-1.101-1.091-2.835-.027-1.817.402-2.7 1.013-2.657.722.052 1.063 1.104 1.091 2.746.028 1.699-.297 2.796-1.013 2.746zm-3.335 62.364c-1.098-.002-1.875 1.305-1.842 3.533.032 2.199.774 3.353 1.834 3.353 1.208 0 1.875-1.179 1.843-3.445-.028-2.127-.695-3.439-1.835-3.441zm.027 6.216c-.667 0-1.113-.939-1.133-2.672-.021-1.815.434-2.826 1.074-2.826.758 0 1.109 1.12 1.131 2.761.023 1.703-.318 2.737-1.072 2.737zm-.488-48.447c-1.063-.052-1.813 1.346-1.78 3.966.032 2.586.751 4.068 1.777 4.108 1.169.045 1.815-1.411 1.784-4.064-.03-2.483-.678-3.957-1.781-4.01zm.027 7.247c-.645-.025-1.077-1.202-1.097-3.237-.021-2.131.418-3.233 1.038-3.203.733.035 1.077 1.303 1.099 3.224.023 1.99-.311 3.245-1.04 3.216zm-.333-33.831c-1.04-.072-1.775 1.045-1.742 3.275.031 2.201.734 3.542 1.738 3.61 1.144.078 1.778-1.198 1.747-3.462-.03-2.121-.664-3.347-1.743-3.423zm.029 6.166c-.63-.044-1.056-1.097-1.076-2.833-.021-1.819.412-2.699 1.017-2.657.717.05 1.051 1.104 1.073 2.748.022 1.7-.301 2.791-1.014 2.742zm13.29 49.349c-1.092-.013-1.851 1.379-1.798 3.837.052 2.426.797 3.748 1.855 3.753 1.198.006 1.852-1.327 1.801-3.82-.047-2.334-.724-3.754-1.858-3.77zm.085 6.837c-.664-.003-1.122-1.074-1.158-2.986-.038-2 .408-3.075 1.045-3.068.754.01 1.116 1.217 1.152 3.024.039 1.872-.289 3.034-1.039 3.03zm3.797-48.438c.063 2.864.095 4.333.158 7.303l-.703-.04c-.054-2.598-.081-3.885-.135-6.402l-.016-.002-.912.615-.154-.752 1.146-.766.616.044zm-17.26-.222l-.89.63-.144-.76 1.12-.785.596.038c.035 2.904.054 4.403.088 7.431l-.682-.04-.073-6.515-.015.001zm6.727 45.518c-.037-2.354-.702-3.79-1.829-3.803-1.088-.013-1.855 1.4-1.813 3.877.041 2.445.78 3.769 1.832 3.774 1.194.006 1.849-1.335 1.81-3.848zm-1.78 3.091c-.664-.004-1.109-1.072-1.135-2.999-.027-2.017.42-3.11 1.056-3.102.75.007 1.104 1.228 1.132 3.05.029 1.887-.308 3.054-1.053 3.051zm8.165-20.87c-1.085-.034-1.84 1.386-1.786 3.961.052 2.542.793 3.955 1.844 3.976 1.19.025 1.84-1.382 1.79-3.989-.048-2.443-.72-3.911-1.848-3.948zm.084 7.145c-.66-.013-1.113-1.148-1.149-3.152-.038-2.097.403-3.207 1.037-3.188.75.023 1.11 1.283 1.146 3.172.039 1.959-.289 3.184-1.034 3.168zm4.356-20.995l.156 7.629-.705-.029-.135-6.686h-.017l-.914.67-.156-.796 1.152-.821.619.033zm-21.313-1.197c-1.059-.051-1.811 1.35-1.788 3.986.022 2.599.735 4.09 1.761 4.128 1.163.044 1.813-1.42 1.79-4.086-.022-2.497-.662-3.975-1.763-4.028zm.006 7.284c-.647-.025-1.074-1.209-1.087-3.256-.014-2.143.428-3.247 1.044-3.218.733.034 1.071 1.306 1.087 3.237.017 2.001-.317 3.265-1.044 3.237zm.101 7.262c-1.071-.03-1.835 1.419-1.812 4.051.023 2.599.74 4.042 1.779 4.062 1.177.023 1.837-1.413 1.815-4.079-.022-2.498-.668-4.001-1.782-4.034zm.004 7.302c-.655-.013-1.086-1.171-1.1-3.218-.014-2.144.433-3.279 1.057-3.262.742.021 1.084 1.309 1.101 3.239.017 2.001-.323 3.256-1.058 3.241zm16.494-21.028c-1.078-.055-1.824 1.324-1.771 3.9.052 2.544.786 4.003 1.83 4.045 1.183.047 1.831-1.377 1.78-3.986-.047-2.441-.718-3.902-1.839-3.959zm.088 7.134c-.656-.027-1.105-1.185-1.142-3.188-.038-2.095.398-3.18 1.027-3.148.745.038 1.104 1.286 1.141 3.175.038 1.957-.286 3.191-1.026 3.161zm-8.231 6.835c-1.078-.033-1.837 1.409-1.795 4.01.041 2.571.772 4.001 1.814 4.022 1.183.023 1.832-1.405 1.793-4.041-.037-2.472-.694-3.957-1.812-3.991zm.048 7.226c-.657-.013-1.096-1.16-1.122-3.184-.028-2.119.414-3.245 1.044-3.226.744.021 1.095 1.297 1.123 3.207.029 1.98-.308 3.218-1.045 3.203zm-.459-20.52l-.901.682-.15-.808 1.137-.841.608.03.108 7.762-.691-.03-.093-6.796-.018.001zm9.223 41.062h.625c.058 2.75.088 4.089.146 6.652h-.714c-.051-2.239-.075-3.405-.126-5.789l-.012.004-.931.638-.155-.699 1.167-.806zm-9.206-56.011c-1.056-.069-1.801 1.215-1.76 3.696.041 2.445.76 3.892 1.782 3.951 1.159.067 1.797-1.321 1.758-3.835-.037-2.352-.684-3.742-1.78-3.812zm.05 6.859c-.645-.038-1.077-1.185-1.103-3.114-.027-2.017.407-3.03 1.025-2.99.728.048 1.073 1.234 1.101 3.057.028 1.889-.3 3.089-1.023 3.047zm.608 49.144l.625-.002c.043 2.759.064 4.1.108 6.661h-.714c-.037-2.237-.054-3.399-.091-5.791h-.017l-.928.636-.154-.699 1.171-.805zm21.741-13.103c.064 2.94.096 4.391.161 7.232l-.711-.007c-.056-2.483-.085-3.75-.141-6.311h-.017l-.932.674-.159-.754 1.171-.844.628.01zm-1.189-53.846c.065 2.567.095 3.9.16 6.63l-.718-.061c-.056-2.388-.085-3.552-.141-5.814l-.017-.002-.937.537-.16-.678 1.179-.663.634.051zm.298 12.534c.064 2.841.095 4.296.16 7.236l-.716-.049c-.056-2.571-.083-3.845-.139-6.341h-.021l-.933.604-.16-.743 1.175-.75.634.043zm-1.116 57.835c.062 2.188.82 3.348 1.882 3.348 1.206 0 1.86-1.186 1.806-3.439-.051-2.114-.733-3.405-1.881-3.407-1.105-.002-1.869 1.282-1.807 3.498zm2.955-.055c.041 1.693-.296 2.731-1.046 2.731-.672 0-1.127-.943-1.169-2.666-.043-1.805.398-2.801 1.046-2.799.761.002 1.13 1.102 1.169 2.734zm-31.227-3.371l.621-.006c.024 2.769.037 4.117.061 6.673h-.711l-.048-5.798h-.018l-.932.64-.146-.699 1.173-.81zm29.981-26.926c.064 3.028.096 4.538.161 7.534l-.712-.016-.141-6.585h-.017l-.933.674-.16-.783 1.174-.85.628.026zm-.296-13.959l.16 7.541-.714-.034c-.056-2.651-.084-3.978-.141-6.604l-.018.002-.933.657-.162-.783 1.175-.815.633.036zm-4.499 13.667c-1.101-.036-1.863 1.362-1.8 3.904.062 2.512.817 3.919 1.876 3.942 1.203.027 1.857-1.369 1.802-3.943-.051-2.415-.737-3.865-1.878-3.903zm.101 7.058c-.667-.015-1.125-1.141-1.167-3.119-.043-2.072.399-3.165 1.043-3.144.759.024 1.128 1.27 1.168 3.136.042 1.934-.294 3.144-1.044 3.127zm.2 6.863c-1.103-.015-1.868 1.368-1.805 3.803.062 2.403.818 3.713 1.88 3.719 1.203.008 1.856-1.317 1.801-3.788-.051-2.313-.733-3.717-1.876-3.734zm.099 6.775c-.667-.004-1.127-1.064-1.169-2.959-.044-1.982.4-3.049 1.044-3.039.76.009 1.13 1.203 1.17 2.995.043 1.855-.293 3.009-1.045 3.003zm-.997-48.35c-1.098-.078-1.857 1.186-1.794 3.625.062 2.403.811 3.826 1.868 3.891 1.199.074 1.856-1.278 1.801-3.748-.051-2.311-.737-3.688-1.875-3.768zm.099 6.744c-.665-.042-1.121-1.169-1.163-3.066-.043-1.982.396-2.977 1.038-2.933.757.053 1.125 1.228 1.166 3.018.042 1.857-.292 3.028-1.041 2.981zm.967 48.155l.626.004c.064 2.736.095 4.067.16 6.632h-.707c-.057-2.241-.085-3.399-.141-5.774h-.021l-.926.634-.16-.695 1.169-.801zm7.598-54.27c-1.131-.084-1.913 1.162-1.851 3.578.061 2.38.826 3.79 1.912 3.862 1.231.082 1.909-1.251 1.859-3.696-.047-2.29-.748-3.657-1.92-3.744zm.09 6.674c-.685-.045-1.149-1.158-1.19-3.035-.042-1.963.412-2.952 1.07-2.904.778.057 1.157 1.225 1.194 2.998.038 1.837-.306 2.992-1.074 2.941zm.476 20.652c-1.12-.04-1.896 1.338-1.834 3.85.061 2.481.823 3.866 1.897 3.893 1.218.03 1.885-1.339 1.835-3.881-.046-2.384-.738-3.82-1.898-3.862zm.089 6.97c-.678-.017-1.137-1.131-1.178-3.085-.043-2.045.408-3.118 1.06-3.095.771.027 1.142 1.255 1.179 3.098.038 1.911-.3 3.101-1.061 3.082zm-12.495-7.271l.157 7.631-.707-.017-.135-6.662-.015-.001-.921.689-.156-.794 1.157-.865.62.019zm.291 13.997c.063 2.971.093 4.437.156 7.301l-.708-.006c-.054-2.504-.083-3.778-.137-6.366h-.016l-.922.678-.157-.758 1.162-.859.622.01zm12.545 13.265l.63.002c.061 2.721.091 4.05.152 6.615h-.712c-.054-2.241-.08-3.395-.133-5.758h-.017l-.933.632-.158-.693 1.171-.798zm-.714-40.837c-1.125-.064-1.903 1.28-1.841 3.793.061 2.481.824 3.902 1.904 3.952 1.224.057 1.897-1.32 1.847-3.864-.047-2.381-.743-3.815-1.91-3.881zm.091 6.958c-.681-.032-1.145-1.166-1.186-3.119-.042-2.043.41-3.095 1.065-3.059.774.044 1.149 1.265 1.187 3.106.039 1.91-.301 3.108-1.066 3.072zm-9.336-33.59c-1.097-.084-1.853 1.036-1.79 3.254.062 2.192.809 3.521 1.864 3.599 1.198.089 1.855-1.162 1.8-3.417-.052-2.111-.737-3.348-1.874-3.436zm.098 6.143c-.664-.049-1.119-1.099-1.161-2.828-.044-1.811.395-2.691 1.036-2.642.756.057 1.125 1.114 1.166 2.75.041 1.694-.294 2.775-1.041 2.72zm.5 20.009c-1.1-.059-1.86 1.302-1.798 3.847.062 2.512.813 3.951 1.872 3.997 1.201.051 1.857-1.352 1.801-3.929-.051-2.411-.736-3.854-1.875-3.915zm.1 7.042c-.666-.029-1.123-1.175-1.165-3.154-.044-2.07.397-3.136 1.04-3.102.758.04 1.127 1.276 1.167 3.142.042 1.935-.293 3.146-1.042 3.114zm11 24.763c-.046-2.291-.731-3.673-1.885-3.692-1.114-.019-1.888 1.341-1.826 3.753.061 2.382.821 3.683 1.889 3.69 1.211.01 1.871-1.305 1.822-3.751zm-1.796 3.011c-.674-.005-1.134-1.055-1.175-2.933-.043-1.963.407-3.018 1.055-3.009.765.012 1.136 1.196 1.173 2.969.038 1.836-.297 2.979-1.053 2.973zm-14.5 9.879c.057 2.194.812 3.352 1.876 3.352 1.204 0 1.86-1.184 1.805-3.443-.05-2.119-.732-3.418-1.875-3.42-1.102-.002-1.864 1.289-1.806 3.511zm2.947-.055c.04 1.699-.292 2.735-1.047 2.735-.665 0-1.125-.943-1.166-2.67-.042-1.809.403-2.811 1.045-2.811.762.001 1.129 1.11 1.168 2.746zm-20.812-13.151c-.022-2.373-.675-3.818-1.801-3.832-1.084-.013-1.855 1.407-1.832 3.908.023 2.466.749 3.799 1.799 3.803 1.19.006 1.857-1.346 1.834-3.879zm-1.798 3.116c-.663-.003-1.099-1.082-1.112-3.024-.014-2.032.439-3.134 1.07-3.127.75.008 1.096 1.24 1.112 3.078.016 1.902-.327 3.076-1.07 3.073zm-17.103 13.442c1.205 0 1.896-1.171 1.908-3.445.012-2.133-.632-3.46-1.77-3.462-1.099-.002-1.899 1.32-1.909 3.555-.01 2.206.708 3.352 1.771 3.352zm.092-6.181c.756 0 1.09 1.131 1.081 2.778-.011 1.708-.374 2.735-1.128 2.735-.667 0-1.095-.937-1.082-2.674.014-1.819.486-2.839 1.129-2.839zm4.888-35.613l-.685-.03.019-6.979-.02-.004-.912.707-.131-.83 1.146-.868.601.03c-.009 3.16-.01 4.766-.018 7.974zm-.728 14.759l.021-6.962h-.018l-.923.722-.133-.829 1.158-.908.608.019-.018 7.977-.695-.019zm25.061-47.948c.051 2.563.078 3.9.129 6.656l-.684-.046c-.043-2.409-.066-3.578-.11-5.842l-.015-.002-.891.542-.149-.678 1.12-.672.6.042zm-29.354 62.103l.04-6.599h-.015l-.938.708-.136-.792 1.178-.893.619.005c-.017 3.097-.023 4.624-.041 7.576l-.707-.005zm5.053-43.51l-.679-.038.021-6.618-.018-.002-.903.644-.129-.773 1.13-.796.595.04-.017 7.543zm1.274-17.017c.004-2.125-.607-3.338-1.683-3.414-1.039-.075-1.796 1.032-1.798 3.266-.002 2.205.684 3.557 1.689 3.628 1.14.077 1.789-1.21 1.792-3.48zm-1.75 2.759c-.632-.043-1.043-1.108-1.036-2.849.007-1.822.453-2.702 1.061-2.658.717.051 1.038 1.101 1.034 2.746-.003 1.705-.347 2.811-1.059 2.761zm25.255 22.098l.129 7.72-.695-.031-.11-6.762-.016.002-.906.678-.152-.8 1.139-.844.611.037zm-.238-13.802c.051 2.885.076 4.368.127 7.37l-.689-.038-.108-6.463-.015.002-.901.625-.148-.756 1.127-.773.607.033zm-29.385 35.374c1.182.023 1.858-1.447 1.871-4.17.012-2.554-.617-4.083-1.733-4.117-1.077-.032-1.866 1.449-1.875 4.138-.01 2.654.695 4.128 1.737 4.149zm.092-7.45c.742.021 1.066 1.339 1.057 3.312-.01 2.045-.365 3.327-1.104 3.312-.653-.014-1.075-1.2-1.062-3.291.014-2.19.48-3.352 1.109-3.333zm59.693 27.729l.634.002c.043 2.704.064 4.028.106 6.589h-.708c-.039-2.237-.06-3.392-.099-5.741h-.019l-.941.626-.154-.688 1.181-.788zm-61.794-67.281c.018-2.129-.589-3.35-1.682-3.43-1.051-.076-1.828 1.027-1.846 3.266-.017 2.211.671 3.57 1.69 3.643 1.156.082 1.818-1.207 1.838-3.479zm-1.788 2.754c-.642-.046-1.052-1.116-1.034-2.858.019-1.824.479-2.7 1.093-2.655.726.053 1.042 1.104 1.026 2.754-.015 1.706-.364 2.81-1.085 2.759zm-.541 58.452c1.196.006 1.883-1.363 1.903-3.947.018-2.42-.612-3.904-1.744-3.919-1.088-.013-1.889 1.438-1.906 3.988-.017 2.515.693 3.873 1.747 3.878zm.111-7.05c.75.01 1.078 1.271 1.063 3.144-.015 1.94-.38 3.133-1.125 3.129-.665-.004-1.084-1.099-1.066-3.081.017-2.074.491-3.199 1.128-3.192zm.823-37.044l-.688-.042c.023-2.719.035-4.064.059-6.673l-.016.002-.917.642-.131-.779 1.154-.798.604.04c-.026 2.964-.039 4.496-.065 7.608zm62.921 23.516c-1.143-.046-1.942 1.31-1.892 3.786.05 2.445.82 3.814 1.909 3.845 1.238.034 1.927-1.318 1.895-3.824-.031-2.35-.728-3.759-1.912-3.807zm.048 6.867c-.688-.019-1.149-1.12-1.18-3.047-.033-2.019.432-3.073 1.098-3.047.788.031 1.164 1.246 1.188 3.062.025 1.884-.333 3.055-1.106 3.032zm-59.48-15.354c1.17.045 1.839-1.447 1.851-4.172.011-2.55-.611-4.068-1.716-4.123-1.066-.053-1.846 1.384-1.855 4.075-.01 2.657.687 4.18 1.72 4.22zm.09-7.463c.734.037 1.06 1.337 1.05 3.31-.01 2.045-.365 3.334-1.097 3.304-.646-.026-1.063-1.236-1.05-3.327.014-2.188.473-3.318 1.097-3.287zm-4.764 49.194l.058-5.81h-.017l-.945.649-.136-.71 1.192-.817.625.004c-.026 2.793-.039 4.138-.065 6.684h-.712zm4.758-56.421c1.159.066 1.82-1.36 1.833-3.934.011-2.409-.603-3.82-1.697-3.893-1.056-.07-1.832 1.232-1.842 3.774-.009 2.505.684 3.994 1.706 4.053zm.09-7.056c.727.048 1.048 1.259 1.039 3.125-.011 1.935-.361 3.165-1.085 3.123-.64-.038-1.052-1.213-1.039-3.188.014-2.065.468-3.099 1.085-3.06zm61.345 47.461c-.031-2.264-.714-3.635-1.883-3.658-1.128-.021-1.919 1.318-1.868 3.704.05 2.355.81 3.65 1.885 3.66 1.222.012 1.898-1.287 1.866-3.706zm-1.834 2.969c-.678-.007-1.137-1.045-1.167-2.902-.032-1.942.427-2.982 1.083-2.971.777.013 1.146 1.186 1.171 2.94.027 1.817-.324 2.941-1.087 2.933zm-55.603.423c1.19.006 1.87-1.36 1.874-3.923.004-2.401-.636-3.87-1.761-3.883-1.086-.013-1.876 1.43-1.877 3.957-.002 2.495.712 3.843 1.764 3.849zm.068-6.997c.75.008 1.085 1.259 1.082 3.118-.003 1.925-.364 3.111-1.108 3.108-.661-.004-1.089-1.089-1.082-3.055.007-2.056.473-3.178 1.108-3.171zm-4.103-50.606c.016-2.439.025-3.62.042-5.876h-.016l-.9.546-.13-.678 1.13-.674.594.047c-.017 2.55-.025 3.895-.042 6.684l-.678-.049zm29.969 50.231c.051 3.001.076 4.481.127 7.366l-.705-.005-.11-6.423h-.014l-.925.691-.152-.771 1.158-.864.621.006zm-17.027-29.261l.034 7.888-.688-.025-.022-6.907-.02-.004-.909.697-.135-.821 1.137-.859.603.031zm-.065-14.046l.034 7.49-.676-.04-.026-6.56-.017-.006-.896.638-.136-.769 1.122-.789.595.036zm-.295 42.972c-1.083-.014-1.859 1.415-1.845 3.925.014 2.476.737 3.816 1.787 3.82 1.19.006 1.859-1.348 1.845-3.893-.013-2.381-.661-3.838-1.787-3.852zm-.019 6.977c-.664-.003-1.095-1.085-1.102-3.035-.007-2.04.45-3.15 1.081-3.142.749.007 1.094 1.243 1.104 3.089.009 1.91-.34 3.092-1.083 3.088zm-1.792 10.11c.014 2.202.749 3.352 1.811 3.352 1.204 0 1.879-1.177 1.865-3.445-.013-2.129-.669-3.447-1.808-3.449-1.096-.001-1.882 1.311-1.868 3.542zm2.945-.055c.01 1.707-.344 2.735-1.096 2.735-.672 0-1.106-.939-1.113-2.674-.006-1.816.454-2.83 1.091-2.83.757.001 1.109 1.126 1.118 2.769zm18.944-71.42c-1.064-.078-1.802 1.038-1.749 3.264.053 2.198.776 3.531 1.808 3.605 1.167.084 1.808-1.179 1.757-3.439-.047-2.118-.709-3.35-1.816-3.43zm.086 6.155c-.647-.046-1.091-1.099-1.127-2.832-.038-1.814.394-2.696 1.015-2.65.735.053 1.091 1.114 1.127 2.753.038 1.696-.285 2.78-1.015 2.729zm-28.876 68.564l.019-5.804h-.02l-.941.644-.137-.705 1.18-.813.625.002c-.007 2.784-.011 4.126-.019 6.676h-.707zm8.482-76.153c-1.032-.072-1.771 1.04-1.758 3.273.014 2.205.705 3.548 1.707 3.616 1.134.078 1.773-1.203 1.758-3.469-.014-2.123-.634-3.346-1.707-3.42zm-.017 6.17c-.633-.044-1.043-1.099-1.05-2.837-.007-1.82.43-2.704 1.03-2.662.713.049 1.042 1.101 1.052 2.746.01 1.701-.323 2.802-1.032 2.753zm4.118 14.499c1.149.064 1.792-1.335 1.769-3.87-.022-2.371-.655-3.765-1.743-3.835-1.046-.066-1.788 1.223-1.765 3.725.023 2.466.724 3.923 1.739 3.98zm-.01-6.943c.725.046 1.06 1.238 1.076 3.076.016 1.904-.315 3.117-1.033 3.075-.64-.036-1.062-1.192-1.075-3.136-.013-2.034.423-3.053 1.032-3.015zm-.281-12.542l-.883.546-.139-.678 1.108-.672.589.04.061 6.671-.671-.05-.05-5.855-.015-.002zm16.763 12.852c-1.071-.072-1.813 1.202-1.76 3.664.052 2.426.783 3.858 1.821 3.919 1.175.07 1.819-1.301 1.769-3.793-.048-2.333-.716-3.715-1.83-3.79zm.087 6.801c-.651-.04-1.099-1.177-1.135-3.089-.038-2 .397-3.001 1.022-2.959.74.049 1.097 1.228 1.133 3.035.039 1.872-.284 3.057-1.02 3.013zm-21.766 21.554l1.15-.893.607.015.033 7.886-.691-.009-.026-6.894-.018.001-.917.716-.138-.822zm-2.988-22.187c1.149.065 1.8-1.348 1.794-3.902-.005-2.39-.625-3.793-1.712-3.864-1.047-.068-1.804 1.234-1.799 3.755.006 2.486.702 3.954 1.717 4.011zm.044-6.996c.723.045 1.051 1.247 1.054 3.098.003 1.919-.342 3.14-1.058 3.098-.64-.036-1.056-1.2-1.055-3.159.001-2.049.448-3.075 1.059-3.037zm-.19-12.589l-.886.55-.133-.676 1.115-.67.586.038.008 6.675-.67-.042-.004-5.867-.016-.008zm21.619 41.389l.128 7.716-.699-.015-.11-6.741h-.015l-.915.697-.153-.8 1.15-.88.614.023zm-33.385-7.874l-.694-.027.057-7.059-.016-.002-.926.714-.13-.84 1.164-.876.61.033-.065 8.057zm11.927 15.313c1.176.022 1.843-1.438 1.837-4.132-.005-2.525-.639-4.039-1.752-4.072-1.072-.032-1.847 1.436-1.841 4.096.005 2.626.717 4.089 1.756 4.108zm.046-7.366c.74.021 1.075 1.316 1.078 3.268.003 2.024-.35 3.291-1.083 3.275-.655-.014-1.079-1.185-1.078-3.254.001-2.168.458-3.306 1.083-3.289zm-.053-7.339c1.163.043 1.82-1.436 1.814-4.13-.004-2.523-.634-4.022-1.735-4.075-1.06-.052-1.821 1.373-1.815 4.035.006 2.627.71 4.13 1.736 4.17zm.044-7.38c.731.034 1.062 1.314 1.064 3.266.003 2.022-.343 3.304-1.068 3.275-.647-.025-1.066-1.221-1.065-3.291 0-2.164.451-3.28 1.069-3.25zm-.174 29.506l-.928.707-.14-.785 1.166-.884.615.006.008 7.513-.702-.002-.003-6.553-.016-.002zm-1.075 13.423l1.182-.813.623-.002.008 6.68h-.712l-.001-5.806h-.019l-.937.646-.144-.705zm22.653-.908c-1.1-.002-1.868 1.297-1.82 3.523.047 2.197.798 3.355 1.86 3.355 1.204 0 1.866-1.182 1.821-3.445-.043-2.123-.719-3.431-1.861-3.433zm.067 6.208c-.67 0-1.118-.945-1.149-2.676-.033-1.811.414-2.814 1.054-2.814.759 0 1.122 1.114 1.154 2.753.033 1.701-.305 2.737-1.059 2.737zm-109.272 30.848l37.653-2.794c.697-.057 2.955-2.019 2.766-4.174l-7.282-83.31c-.189-2.157-2.772-3.69-3.468-3.633l-39.072-4.452c-.695.061-3.092 2.032-2.907 4.186l8.169 90.604c.188 2.156 3.446 3.634 4.141 3.573zm20.209-2.971c-.752.063-1.446-.838-1.546-2.017-.104-1.187.422-2.196 1.173-2.263.754-.066 1.447.838 1.549 2.021.105 1.181-.421 2.192-1.176 2.259zm10.811-84.498l6.761 77.32-38.834 2.893-7.572-83.833 39.645 3.62z"/></svg>