<!DOCTYPE svg PUBLIC "-//W3C//DTD SVG 1.1//EN" "http://www.w3.org/Graphics/SVG/1.1/DTD/svg11.dtd" [
	<!ENTITY ns_flows "http://ns.adobe.com/Flows/1.0/">
]><svg xmlns="http://www.w3.org/2000/svg" width="200" height="200" viewBox="3.396 0.017 200 200" enable-background="new 3.396 0.017 200 200"><path fill="#A1A6AB" d="M53.512 88.877v9.436h-11.066c.148-3.335.57-6.518 1.211-9.436h9.855zM56.51 98.313v-9.436h9.852c.64 2.918 1.063 6.101 1.212 9.436h-11.064zM56.51 85.636v-12.656c3.72 1.033 6.999 5.86 9.018 12.656h-9.018zM41.459 85.636h-10.338c3.983-6.962 10.472-12.044 18.101-13.782-3.327 2.647-6.055 7.522-7.763 13.782zM69.324 88.877h11.197c1.246 2.922 2.083 6.091 2.421 9.436h-12.506c-.139-3.334-.519-6.503-1.112-9.436zM53.512 72.98v12.656h-9.016c2.015-6.796 5.292-11.623 9.016-12.656zM40.693 88.877c-.593 2.932-.973 6.101-1.106 9.436h-12.505c.336-3.345 1.167-6.514 2.417-9.436h11.194zM68.556 85.636c-1.706-6.26-4.434-11.134-7.758-13.782 7.634 1.738 14.123 6.82 18.102 13.782h-10.344zM56.51 110.105v-9.435h11.064c-.148 3.334-.572 6.515-1.212 9.435h-9.852zM53.512 100.67v9.435h-9.854c-.642-2.92-1.063-6.101-1.211-9.435h11.065zM53.512 113.351v12.657c-3.724-1.043-7-5.866-9.016-12.657h9.016zM68.556 113.351h10.343c-3.979 6.954-10.468 12.043-18.102 13.777 3.326-2.65 6.053-7.522 7.759-13.777zM40.693 110.105h-11.193c-1.25-2.923-2.082-6.097-2.417-9.435h12.505c.132 3.335.513 6.503 1.105 9.435zM56.51 126.008v-12.657h9.018c-2.02 6.791-5.298 11.614-9.018 12.657zM69.324 110.105c.593-2.933.973-6.101 1.111-9.435h12.507c-.338 3.338-1.175 6.512-2.421 9.435h-11.197zM41.459 113.351c1.708 6.256 4.436 11.127 7.763 13.777-7.629-1.734-14.118-6.823-18.101-13.777h10.338z"/><path fill="#58585C" d="M55.037 48.238c-28.307 0-51.253 22.95-51.253 51.255 0 28.308 22.947 51.254 51.253 51.254 21.875 0 40.534-13.705 47.897-32.994l.402.137v1.789h1.702c2.84 2.84 5.678 5.677 8.518 8.514 1.229 1.232 3.277 1.232 4.504 0 2.842-2.837 5.68-5.674 8.52-8.514h3.412c2.84 2.84 5.678 5.677 8.518 8.514 1.229 1.232 3.277 1.232 4.504 0 2.844-2.837 5.68-5.674 8.52-8.514h3.416c2.838 2.84 5.674 5.677 8.514 8.514 1.229 1.232 3.277 1.232 4.506 0 2.842-2.837 5.678-5.674 8.52-8.514h7.135c1.293.02 2.588-.454 3.555-1.421 4.803-4.796 9.594-9.595 14.396-14.392 1.025-1.028 1.432-2.179 1.432-3.297l.006-.188-.006-.2c0-1.116-.406-2.269-1.432-3.296-4.803-4.796-9.594-9.593-14.396-14.393-.963-.96-2.254-1.434-3.539-1.418h-77.125c-.482-.154-.987-.262-1.516-.262-.526 0-1.019.11-1.492.262h-.169v.053l-.397.134c-7.351-19.302-26.022-33.023-47.905-33.023zm34.881 45.642h91.121v10.589h-91.021c-2.422 17.173-17.138 30.396-34.981 30.396-19.534 0-35.368-15.836-35.368-35.371 0-19.536 15.834-35.375 35.368-35.375 17.621 0 32.188 12.899 34.881 29.761z"/></svg>