<?xml version="1.0" encoding="utf-8"?>
<!-- Generator: Adobe Illustrator 15.1.0, SVG Export Plug-In  -->
<!DOCTYPE svg PUBLIC "-//W3C//DTD SVG 1.1//EN" "http://www.w3.org/Graphics/SVG/1.1/DTD/svg11.dtd" [
	<!ENTITY ns_flows "http://ns.adobe.com/Flows/1.0/">
]>
<svg version="1.1"
	 xmlns="http://www.w3.org/2000/svg" xmlns:xlink="http://www.w3.org/1999/xlink" xmlns:a="http://ns.adobe.com/AdobeSVGViewerExtensions/3.0/"
	 x="0px" y="0px" width="400px" height="516px" viewBox="-0.098 -0.31 400 516" enable-background="new -0.098 -0.31 400 516"
	 xml:space="preserve">
<defs>
</defs>
<path fill="#5B5C5E" d="M230.678,114.715l-1.049-0.149l-0.975-0.138v9.531v0.753l-1.682-0.235v1.202l-1.949-0.301l-5.346-0.818
	v-7.297l5.346,0.818l0.309,0.047v-8.169l4.297,1.475l1.049,0.363V114.715z M287.523,107.257l-0.643-0.092
	c-0.592-0.091-1.143-0.178-1.647-0.272c-3.224-0.592-4.951-1.333-5.869-2.601c-1.204-1.667-1.019-4.248-1.019-8.606
	c0-1.103,0.386-1.933,1.019-2.533c1.304-1.232,3.664-1.454,5.869-0.921c0.568,0.136,1.12,0.321,1.647,0.557
	c1.913,0.847,3.429,2.303,3.557,4.168l0.007,0.254c0,1.588,0.659,5.448-0.007,7.903C290.041,106.542,289.2,107.493,287.523,107.257z
	 M287.136,96.66l-0.256-0.039l-1.647-0.231l-3.583-0.508v6.942l3.583,0.502l1.647,0.232l0.256,0.035V96.66z M229.629,126.778
	l-1.813-0.277v7.295l1.813,0.277l4.266,0.657l1.218,0.188v-7.299l-1.218-0.187L229.629,126.778z M236.255,99.774l-1.825-0.458v6.503
	l1.825,0.459l4.007,1.007l0.676,0.171v-6.506l-0.676-0.17L236.255,99.774z M286.88,50.506l0.242,0.037v-7.296l-0.242-0.037
	l-1.647-0.252l-5.405-0.832v7.296l5.405,0.831L286.88,50.506z M236.255,95.475l0.044,0.013v-6.507l-0.044-0.013l-2.36-0.593
	l-4.098-1.029v6.507l4.098,1.027L236.255,95.475z M288.306,161.209v10.05c-0.434-0.355-0.918-0.661-1.426-0.937
	c-0.527-0.277-1.079-0.508-1.647-0.688c-2.205-0.699-4.559-0.592-5.869,0.729c-0.48,0.484-0.813,1.125-0.962,1.945l-2.387-0.555
	v15.15l3.349,0.775l5.869,1.356l1.647,0.38l3.557,0.82l0.699,0.16V178.47l3.53,0.891l1.909,0.478v6.022l0.72,0.099l2.602,0.378
	v-5.665l0.084,0.021l0.669,0.17l4.206,1.056v-16.549l-4.206-1.056l-0.669-0.165l-2.686-0.674l-2.629-0.663l-4.229-1.065
	L288.306,161.209z M265.11,88.23l0.376,0.061v-7.299l-0.376-0.057l-0.787-0.118l-4.592-0.706l-1.049-0.165l-0.491-0.076v7.299
	l0.491,0.075l1.049,0.163l4.592,0.705L265.11,88.23z M185.913,185.714l2.03,0.284v-3.104l0,0v-0.54l-2.676-0.924l-2.676-0.921
	v11.403h0.003v2.321h-0.003v1.303l2.676,0.383l0.646,0.094v-1.501l0,0v-5.31l0,0V185.714z M242.902,64.884l2.03,0.291v-2.919
	l-3.853-1.321l-0.817-0.279l-0.679-0.232v14.286l0.679,0.097l0.817,0.116l1.822,0.261V74.43V64.884z M294.667,92.425l2.629,0.405
	l0.417,0.063v-7.296l-0.417-0.064l-2.629-0.403l-4.229-0.652l-0.021-0.001v7.296l0.021,0.002L294.667,92.425z M300.65,47.27
	l1.278,0.182v-3.108c-0.377,0-0.814-0.086-1.278-0.224c-0.215-0.061-0.44-0.136-0.669-0.219c-0.904-0.328-1.862-0.775-2.686-1.111
	c-0.252-0.106-0.494-0.202-0.72-0.281v14.479l0.72,0.101l2.608,0.375v-0.948v-9.351l0.077,0.012L300.65,47.27z M290.437,59.198
	l3.591,0.551v-7.295l-3.591-0.551l-3.557-0.548l-0.147-0.022v7.297l0.147,0.022L290.437,59.198z M215.335,131.125l3.65,0.562v-7.299
	l-3.65-0.56l-3.647-0.56v7.295L215.335,131.125z M314.05,221.245v-7.137l0.101,0.012v-10.29l1.594,0.227l0.424,0.057v-2.917
	l-0.424-0.153l-4.297-1.471l-0.618-0.219v8.882l-3.536-0.815l-5.48-1.266v12.262l5.48,1.271l4.154,0.958L314.05,221.245z
	 M301.766,83.498c-0.383-0.054-0.76-0.104-1.116-0.163l-0.669-0.109c-1.031-0.178-1.916-0.368-2.686-0.578
	c-1.116-0.31-1.977-0.667-2.629-1.108c-2.36-1.595-2.078-4.271-2.078-9.618c0-1.63,0.841-2.669,2.078-3.227
	c0.767-0.341,1.671-0.5,2.629-0.494c0.881,0.003,1.809,0.149,2.686,0.41c0.229,0.067,0.447,0.145,0.669,0.227
	c2.219,0.842,4.038,2.478,4.038,4.617C304.688,75.971,306.352,84.133,301.766,83.498z M301.39,72.895l-0.74-0.103l-0.669-0.096
	l-2.686-0.378l-1.392-0.195v6.937l1.392,0.193l2.686,0.383l0.669,0.091l0.74,0.107V72.895z M318.511,167.273l3.493,0.809
	l6.508,1.501l1.695,0.39l2.171,0.508l0.407,0.087l0.508,0.118v15.153l-0.915-0.213l-2.171-0.496l-1.695-0.396l-0.117-0.027v5.653
	l-3.325-0.472v-5.947l-3.065-0.709l-2.797-0.648c0.121,3.51-0.391,7.203-0.696,10.902c-0.117,1.492-0.208,2.988-0.208,4.476
	l0.208,0.047l3.493,0.81l6.508,1.501l1.567,0.358v-14.027l0.128,0.029l2.171,0.504l2.992,0.691
	c-0.457-4.386-0.067-6.981,0.944-8.388c0.787-1.104,1.953-1.483,3.379-1.425c1.258,0.052,2.717,0.442,4.303,0.979
	c2.918,0.989,6.273,2.454,9.571,3.221v-2.639l0.552,0.19l2.128,0.731l2.457,0.844l0.209,0.072v2.915l-0.209-0.027l-1.812-0.254
	v10.284l-0.646-0.089l-1.402-0.195v0.054l-0.726-0.133l-0.552-0.094v-0.067c-3.009-0.698-5.46-1.491-8.374-1.199v12.64l-1.197-0.274
	l-4.303-0.997l-3.379-0.778l-3.937-0.911l-0.935-0.219v14.029l-1.236-0.284l-1.695-0.39l-0.117-0.03v0.686l-3.318-0.462v-0.987
	l-3.072-0.709l-3.493-0.807l-1.364-0.314l-0.824-0.19v-15.146l-0.578-0.131l-4.297-0.997l-4.154-0.958l-0.457-0.109v-11.505
	l0.04,0.008c-0.161-1.595-0.014-3.397,0.417-5.086c0.713-2.842,2.178-5.38,4.154-6.155c1.251-0.481,2.703-0.266,4.297,1.019
	c0.454,0.365,0.914,0.822,1.402,1.37c0.332,0.387,0.675,0.82,1.025,1.303v-9.071L318.511,167.273z M338.649,188.197l1.045,0.146
	l3.594,0.506v-6.934l-3.594-0.509l-1.045-0.146V188.197z M315.637,178.002l-4.189-0.585l-1.29-0.185v6.936l1.29,0.181l4.189,0.59
	V178.002z M242.905,90.664l2.027,0.279V88.03l-3.853-1.323l-0.817-0.279l-0.679-0.234l-0.003,14.296l0.682,0.092l0.817,0.113
	l1.825,0.254v-0.751V90.664z M257.149,127.988v-9.539l1.533,0.222l0.497,0.069v-2.92l-0.497-0.168l-2.784-0.958l-2.063-0.713v14.298
	l2.063,0.287l1.251,0.177V127.988z M255.898,88.04c0.962,0.148,1.923,0.445,2.784,0.867c0.376,0.183,0.726,0.387,1.049,0.614
	c1.311,0.906,2.212,2.156,2.212,3.666c0,2.365,1.479,9.791-2.212,10.073c-0.215,0.017-0.447,0.007-0.703-0.03l-0.346-0.047
	c-1.043-0.151-1.971-0.316-2.784-0.496c-6.629-1.478-6.051-4.071-6.051-11.023C249.847,88.578,252.873,87.578,255.898,88.04z
	 M253.155,98.799l2.743,0.385l2.747,0.383v-6.935l-2.747-0.39l-2.743-0.387V98.799z M272.556,43.209l0.807,0.116v-2.919
	l-0.807-0.279l-4.539-1.562v14.329l0.067,0.005v0.065l3.318,0.467v-4.019l-0.07-0.005v-6.374L272.556,43.209z M264.323,132.052
	l-4.592-0.704l-1.049-0.162l-1.412-0.218v7.298l1.412,0.215l1.049,0.163l4.592,0.704l0.249,0.037v-7.295L264.323,132.052z
	 M264.323,60.834l0.524,0.13v-6.509l-0.524-0.129l-4.592-1.155l-1.049-0.264l-0.35-0.086v6.503l0.35,0.089l1.049,0.266
	L264.323,60.834z M258.682,64.101l-2.784-0.959l-2.057-0.711v14.296l2.057,0.292l1.258,0.177v-0.753v-9.539l1.526,0.217l0.49,0.069
	v-2.919L258.682,64.101z M265.486,107.691l-0.376-0.057l-0.787-0.121l-4.592-0.706l-1.049-0.162l-0.491-0.074v7.297l0.491,0.075
	l1.049,0.162l4.592,0.706l0.787,0.121l0.376,0.057V107.691z M274.512,79.409c-0.35,0.104-0.756,0.129-1.237,0.063l-0.719-0.104
	c-1.934-0.292-3.433-0.607-4.582-1.001c-0.202-0.071-0.397-0.143-0.578-0.221c-1.076-0.435-1.799-0.971-2.286-1.655
	c-0.384-0.536-0.633-1.17-0.787-1.921c-0.315-1.588-0.225-3.722-0.225-6.668c0-0.509,0.077-0.957,0.225-1.355
	c0.182-0.464,0.444-0.852,0.787-1.173c0.578-0.555,1.381-0.908,2.286-1.079c0.185-0.034,0.376-0.065,0.578-0.083
	c1.472-0.149,3.14,0.135,4.582,0.762c0.729,0.314,1.398,0.718,1.956,1.193c1.016,0.861,1.685,1.968,1.685,3.261
	C276.197,71.944,277.504,78.52,274.512,79.409z M272.889,68.87l-0.333-0.047l-4.582-0.652l-0.559-0.079v6.942l0.559,0.079
	l4.582,0.649l0.333,0.045V68.87z M285.757,63.136c0,1.709,0.471,2.722,1.123,3.443c1.331,1.486,3.396,1.775,3.557,4.53l0.007,0.33
	c0,1.586,0.659,5.441-0.007,7.898c-0.396,1.43-1.23,2.385-2.914,2.145l-0.643-0.096c-0.585-0.101-1.13-0.215-1.647-0.35
	c-3.063-0.805-4.854-2.219-5.869-4.051c-2.104-3.786-0.901-9.356-0.901-14.97l0.901,0.14l5.869,0.901L285.757,63.136z
	 M281.657,77.042l3.576,0.507l1.647,0.234l0.256,0.037v-6.939l-0.256-0.035l-1.647-0.232l-3.576-0.508V77.042z M299.897,108.252
	v-9.537l0.084,0.01l0.669,0.094l1.278,0.185v-2.923l-1.278-0.438l-0.669-0.23l-2.686-0.923l-0.72-0.247v14.292l0.72,0.101
	l2.602,0.368V108.252z M240.262,76.733l-3.56-0.895v6.505l3.56,0.896l0.817,0.204l2.132,0.536v-6.507l-2.132-0.536L240.262,76.733z
	 M271.403,104.229v-9.538l1.153,0.167l0.874,0.123v-2.918l-0.874-0.297l-4.472-1.544v14.294l3.318,0.467V104.229z M245.557,127.018
	c-0.235,0.025-0.497,0.017-0.779-0.023c-1.493-0.207-2.71-0.479-3.698-0.809c-0.292-0.098-0.571-0.193-0.817-0.298
	c-4.165-1.704-3.61-4.482-4.007-6.636c-0.219-1.162-0.706-2.142-2.36-2.678c-0.35-0.114-0.756-0.212-1.22-0.282v-7.299l1.22,0.19
	l2.36,0.363l3.718,0.57v1.582l0.289-0.004c0.266,0,0.535,0.016,0.817,0.039c1.583,0.146,3.228,0.708,4.478,1.597
	c1.268,0.901,2.146,2.138,2.146,3.614C247.703,119.299,249.155,126.648,245.557,127.018z M244.394,116.388l-3.314-0.464
	l-0.817-0.114l-0.289-0.041v1.646l-1.062-0.167v5.31l1.351,0.188l0.817,0.114l3.314,0.467V116.388z M274.512,130.951
	c-0.35,0.108-0.756,0.135-1.237,0.064l-0.719-0.103c-1.934-0.291-3.433-0.606-4.582-1c-0.202-0.071-0.397-0.145-0.578-0.219
	c-1.076-0.437-1.799-0.966-2.286-1.65c-0.391-0.54-0.633-1.172-0.787-1.928c-0.315-1.586-0.225-3.721-0.225-6.667
	c0-0.507,0.077-0.953,0.225-1.354c0.182-0.46,0.444-0.849,0.787-1.172c0.578-0.555,1.381-0.907,2.286-1.077
	c0.185-0.035,0.376-0.067,0.578-0.087c1.472-0.15,3.14,0.134,4.582,0.761c0.726,0.314,1.398,0.713,1.956,1.188
	c1.012,0.862,1.685,1.968,1.685,3.261l0,0C276.197,123.216,277.525,130.019,274.512,130.951z M272.889,120.417l-0.333-0.044
	l-4.582-0.654l-0.559-0.078v6.94l0.559,0.081l4.582,0.647l0.333,0.047V120.417z M304.227,118.471l3.066,0.471l4.154,0.642
	l0.074,0.01v-7.298l-0.074-0.009l-4.154-0.64l-3.066-0.474V118.471z M315.745,212.656l-0.424-0.103v6.428l0.424,0.103l1.402,0.321
	l1.364,0.316l3.204,0.743v-6.429l-0.512-0.123l-2.692-0.619l-1.364-0.316L315.745,212.656z M368.363,142.689l0.972,0.245v-6.51
	l-0.972-0.242l-5.53-1.39v6.503L368.363,142.689z M372.189,162.313l-1.825-0.458v5.47l1.825,0.464l3.644,0.911v-5.471
	L372.189,162.313z M396.259,189.435l2.03,0.277V186.8l-5.345-1.842v11.173l-0.605,0.28c0.026,0.528,0.098,0.97,0.208,1.338h0.004
	c0.219,0.728,0.387,0.748,0.387,1.501c1.015,0.138,1.926,0.5,2.944,0.642l0.552-1.12l-0.175-0.168V189.435z M376.044,193.796
	c-0.319,1.831-1.159,3.123-3.035,2.861l-0.82-0.114c-1.536-0.232-2.797-0.467-3.826-0.736c-5.312-1.394-4.531-3.673-4.531-10.721
	l0,0c0-3.232,2.077-4.234,4.531-3.76c1.258,0.235,2.603,0.859,3.826,1.775c2.095,1.558,3.799,3.948,3.967,6.683l5.903,1.365v-7.359
	l5.345,1.835v2.92l-2.017-0.283v3.654l2.226,0.518v11.588l-11.568-2.673V193.796z M372.625,186.061l-0.437-0.063l-3.826-0.538
	l-1.217-0.175v6.934l1.217,0.175l3.826,0.543l0.437,0.057V186.061z M399.385,203.169l-11.047-2.558v11.591l11.564,2.671v-11.586
	L399.385,203.169z M356.893,116.301v-9.536l1.812,0.259l0.209,0.028v-2.911l-0.209-0.07l-2.457-0.851l-2.128-0.736l-0.552-0.187
	v14.287l0.552,0.078l2.128,0.304l0.646,0.091V116.301z M360.126,127.647l5.987,1.507v-6.508l-5.987-1.504l-0.511-0.129v6.505
	L360.126,127.647z M356.654,80.974l2.021,0.289v-2.923l-2.427-0.833l-2.128-0.729l-0.787-0.267v14.289l0.787,0.109l2.128,0.304
	l0.406,0.059v-0.756V80.974z M360.126,101.035l3.685,0.932v-6.51l-3.685-0.926l-1.422-0.356l-1.392-0.351v6.505l1.392,0.353
	L360.126,101.035z M360.126,260.696l1.741,0.394V249.5l-0.507-0.113l-1.234-0.283l-1.422-0.333l-2.457-0.57l-2.128-0.493l-3.81-0.88
	v11.591l3.81,0.881l2.128,0.491l2.457,0.571L360.126,260.696z M343.802,282.301l-4.108-0.954l-3.379-0.776l-3.563-0.827v11.595
	l3.563,0.82l3.379,0.783l4.303,0.995l0.313,0.07v-11.591l-0.313-0.067L343.802,282.301z M280.117,322.529l5.116,0.804l1.647,0.252
	l1.493,0.238v-8.273l-0.559-0.084l-0.935-0.151l-1.647-0.255l-5.116-0.801V322.529z M200.167,197.259v-9.534l2.017,0.284v-2.918
	l-3.416-1.168l-1.93-0.667v14.298l1.93,0.262l1.399,0.2V197.259z M307.293,330.98l-3.188-0.483v5.466l3.188,0.491l2.285,0.35v-5.467
	L307.293,330.98z M356.248,128.602c0.86,0.513,1.714,1.237,2.457,2.111c0.541,0.631,1.022,1.34,1.422,2.111
	c1.022,1.979,1.507,4.358,0.928,6.828c-0.271,1.161-0.585,2.31-0.924,3.451h-0.004c-0.497,0.039-0.968,0.069-1.422,0.092
	c-0.904,0.037-1.725,0.037-2.457-0.014c-0.801-0.048-1.507-0.149-2.128-0.306c-3.822-0.955-4.596-3.93-4.553-9.5
	c0.037-4.53,2.135-6.024,4.553-5.597C354.815,127.904,355.535,128.185,356.248,128.602z M352.906,131.725v6.937l1.214,0.171
	l2.128,0.297l2.131,0.304V132.5l-2.131-0.303l-2.128-0.299L352.906,131.725z M248.812,189.108l4.559,1.146v-9.119l-4.559-1.143
	l-3.255-0.818l-1.304-0.328v9.114l1.304,0.328L248.812,189.108z M358.705,247.082l-2.457-0.571l-0.915-0.205
	c0-0.657-0.504-0.958-1.213-1.271c-1.725-0.765-4.656-1.571-4.569-7.523c0.081-5.475,2.892-5.552,4.569-6.155
	c0.709-0.254,1.213-0.602,1.213-1.501l0.915,0.208l2.457,0.566l1.422,0.33l8.236,1.908l0.229,0.047
	c0.68,0.008,1.358,0.094,2.018,0.24v-11.059l-2.246-0.318l-0.544-0.079v-14.291l0.544,0.188l3.826,1.313l0.975,0.339v2.917
	l-0.975-0.143l-1.042-0.145v6.282l1.042,0.24l9.884,2.279v-2.839l-6.609-1.53v-11.593l11.561,2.672v3.737l0.387,0.133v2.916
	l-0.387-0.052v4.857l-1.637-0.378v2.847l1.637,0.38v16.446l-12.186-2.813c0.679,0.765,1.092,1.694,1.092,2.718h-0.01
	c0.014,3.851,1.748,10.364-3.731,9.898c-0.138-0.015-0.282-0.028-0.434-0.052v2.066l-3.393-0.784l-8.236-1.901L358.705,247.082z
	 M355.333,235.169l-1.213-0.175l-1.214-0.175v6.939l1.214,0.17l1.213,0.171V235.169z M371.755,244.419l0.434,0.063l0.437,0.062
	v-6.93l-0.437-0.065l-0.434-0.056V244.419z M198.768,478.844l16.567-5.15l9.688-3.005l4.605-1.433l4.266-1.327l2.36-0.729
	l4.007-1.248l0.817-0.252l4.478-1.392l3.255-1.015l7.086-2.199l2.784-0.867l1.049-0.322l4.592-1.43l0.787-0.238l2.286-0.713
	l0.578-0.182l4.582-1.425l1.956-0.605l4.852-1.506l5.869-1.822l1.647-0.511l3.557-1.103l4.229-1.318l2.629-0.816l2.686-0.837
	l0.669-0.202l6.644-2.067l4.154-1.291l0.996-0.313v-9.248l0.127,0.02v-12.993l-0.951-0.147v-20.204l-0.172-0.027l-3.152-0.491
	v-19.407l-1.002-0.154l-6.031-0.944v-12.06l6.031,0.938l0.772,0.124v-21.239l-0.772-0.118l-2.219-0.346v-5.463l1.149,0.175v-4.565
	l1.069,0.165l2.44,0.376v-4.656l0.168,0.037v-3.493l-2.608-0.41l-4.027-0.628v-8.271l4.027,0.629l2.608,0.403v-0.786l-2.608-0.404
	l-4.868-0.76v-6.633l-1.775-0.245l-0.669-0.094c-1.119-0.158-1.993-0.303-2.686-0.505c-2.421-0.686-2.468-2.037-2.468-6.985
	l-0.161-0.017l-4.229-0.659l-2.783-0.434v2.037l2.72,0.424v8.27l-3.493-0.541l-1.647-0.255l-3.119-0.488v-8.27l2.219,0.343v-2.041
	l-4.969-0.772h-0.014v3.613l-0.182-0.026V322.2l-2.102-0.326c0.703,0.77,1.127,1.697,1.127,2.756h0.007v0.027h-0.007l0.094,1.294
	l1.076,0.165l2.595,0.403v8.273l-2.595-0.407l-2.058-0.318c-0.599,0.511-1.271,0.658-2.074,0.668v0.435l-0.72-0.179l-1.956-0.49
	l-2.706-0.68v2.454l2.706,0.414l1.429,0.222v3.624l0.527,0.087l3.654,0.565l0.034,9.231h-0.007l-0.027,12.728l-3.654-0.568
	l-1.956-0.306l-4.582-0.713l-0.578-0.091l-0.464-0.077l-0.081,3.879l0.545,0.088l0.578,0.087l0.914,0.142v1.725l3.668,0.925
	l1.583,0.396c0,0.948,0.135,1.667,0.373,2.245c1.133,2.777,4.357,2.253,3.682,7.474c-0.256,7.453-0.457,14.822-0.457,22.312
	l-1.393-0.218l-0.41,23.388l0.881,0.31c-0.147,3.059-0.366,6.104-0.611,9.164l-0.438-0.023l-0.02,0.951l0.362,0.054l-0.396,2.528
	l-0.094,0.504c-0.34,0.124-0.71,0.222-1.106,0.313c-0.595,0.132-1.244,0.232-1.956,0.3c-0.212,0.023-0.44,0.04-0.666,0.054
	l-3.916,1.2l-0.578,0.178l-2.286,0.699l-0.787,0.235l-4.592,1.409l-1.049,0.318l-2.784,0.852l-7.086,2.168l-3.255,0.998
	l-4.478,1.368l-0.817,0.249l-4.007,1.23l-2.36,0.72l-4.266,1.304l-4.605,1.412l-9.688,2.965l-16.567,5.07l-13.5,4.128
	L40.116,508.892l19.347-25.913l125.805-35.617l13.5-3.822l16.567-4.693l9.688-2.743l4.605-1.305l4.266-1.203l2.36-0.673l0.925-0.259
	l-0.925-18.974l-1.032-20.994l1.032,0.087l4.007,0.323l0.521,0.044l0.04-1.796l-0.562-0.141l-2.336-0.589v-3.348l2.336,0.585
	l0.636,0.161l0.067-3.16c-0.148-1.103-0.403-2.03-0.703-2.864c-1.126-3.09-2.941-4.955-2.686-10.273l-1.321-0.33l-0.951-0.241
	v-12.89l0.951,0.242l4.007,1.002l0.817,0.208l0.443,0.108l0.027-1.093c-0.061-0.222-0.128-0.461-0.208-0.713v0.884l-0.263-0.073
	l-0.817-0.202l-2.269-0.571v-3.349l2.269,0.568l0.081,0.021l-0.081-0.212l-0.42-1.09l-3.587-0.9l-1.476-0.367v-9.894l1.476,0.37
	l1.422,0.356c0.088-0.286,0.216-0.552,0.37-0.787l-1.792-0.453l-0.897-0.222v-4.945l0.897,0.222l4.007,1.009l0.041,0.01v3.116
	c0.242-0.026,0.494-0.047,0.776-0.047c0.263,0,0.548,0.021,0.854,0.047l0.091-4.155l-0.944-0.147l-0.817-0.128l-3.671-0.568v-21.955
	c1.221,0.194,2.451,0.399,3.671,0.598l0.817,0.142l1.433,0.235l0.218-9.776l-1.65-0.255l-0.817-0.128l-2.884-0.451v-11.648
	l0.322,0.054c0.017-2.706,1.375-4.471,1.375-7.769l1.187,0.303l0.817,0.201l4.478,1.13l0.895,0.222v-0.03l-0.895-0.226l-3.375-0.847
	v-7.859l-0.595-0.081v-1.729l-0.508-0.08l-0.632-0.101v-19.193l-0.186-0.045l-4.007-0.924l-2.36-0.548l-3.21-0.736v-11.591
	l3.21,0.736l2.36,0.546l1.321,0.306l0.027-3.27l0,0c0-0.699,0.174-1.303,0.477-1.804l0.155-0.245h0.007
	c0.211-0.284,0.464-0.535,0.746-0.747v-2.34l-2.733-0.689l-2.36-0.595l-1.455-0.368v3.091l0.249,0.086v2.911l-0.249-0.034v0.573
	l-1.775-0.407v9.872l-1.035-0.139l-2.286-0.326v-10.179l-2.319-0.535l-1.671-0.387v-6.075l-8.018-1.853l-16.197-3.736v8.393
	l-0.37-0.084l-8.72-2.021v-9.124l7.497,1.731v-3.284l-0.706-0.104v-10.968l-6.293-1.456c0.104,0.36,0.161,0.738,0.161,1.109H190.7
	c0.006,2.508,1.661,10.682-2.915,10.04c-0.898-0.133-1.742-0.274-2.518-0.454c-6.233-1.41-8.68-4.597-6.522-12.171l0,0
	c0.767-2.657,4.091-2.941,6.364-2.498v-10.011l0.158,0.033l12.539,2.898v0.269l0.961,0.224l16.567,3.822l9.574,2.209v24.344
	l0.114,0.027l3.149,0.729v-3.725l-2.841-0.395v-14.297l4.297,1.472l1.056,0.363v2.913l-1.056-0.143l-0.403-0.055l0.403,0.103
	l4.266,1.069l1.678,0.423l0.021-0.699c0.255-0.128,0.464-0.316,0.662-0.566c1.755-2.247,1.342-9.082,1.342-11.285l-1.342-0.306
	l-2.329-0.538v-14.46l1.788,0.414c0.114-0.424,0.296-0.792,0.541-1.115c0.434-0.575,1.065-0.995,1.813-1.259l-1.813-0.42
	l-2.36-0.542l-4.266-0.987l-0.336-0.076V176.36l-0.175-0.023v3.977l-4.095-0.941l-8.196-1.895v8.973l0.121,0.076
	c1.883,1.888,5.036,1.681,8.075,1.407c1.634-0.146,3.24-0.311,4.605-0.171c2.239,0.231,3.819,1.274,3.819,4.531l0,0
	c0.054,5.779-1.694,9.77-1.694,15.303l-2.125-0.491l-4.605-1.065l-9.355-2.164c0-1.061-0.125-1.879-0.333-2.526
	c-1.567-4.856-8.24,0.31-8.24-12.639h0.011c0-0.617,0.141-1.188,0.423-1.726v-0.007l0.007-0.008l-3.402-0.783v-12.733l11.202,2.585
	l1.082,0.25v-5.026l-1.082-0.274l-0.935-0.237v3.503l-3.309-0.472v-3.863l-5.734-1.444v-8.618l-1.19-0.298
	c0.813,1.01,0.639,2.612,0.639,3.848l0.147,0.02c0,2.434,0.867,6.521-0.749,8.542c-1.476,0-3.5,0.282-5.437,0.292
	c-3.14,0.008-6.044-0.708-6.054-4.503h-0.003c0-8.505-1.042-10.88,6.058-9.714c0.397,0.067,0.814,0.138,1.258,0.224v-9.23
	l8.955,2.252v-19.797c1.271,0.319,3.607,0.692,6.354,1.185c3.032,0.539,6.549,1.225,9.688,2.141c1.697,0.5,3.281,1.066,4.605,1.718
	c2.296,1.127,3.819,2.494,3.819,4.192l0,0c0.01,2.861,1.731,10.465-3.087,10.018l-0.497-1.402v8.275l-0.235-0.061l-4.605-1.158
	l-9.688-2.436l-5.84-1.467v4.261l5.84,1.469l2.786,0.696v6.115l3.231,0.743l0.007-0.826h-0.007c0-2.259,1.61-3.392,3.671-3.661
	l0.356-0.039v-4.561l4.249,1.071l4.266,1.073l1.261,0.315v-10.397l1.1,0.275l3.325,0.835v-4.614l-1.144-0.177v-13.007l1.825,0.281
	l0.817,0.125l4.478,0.691l3.255,0.499l2.625,0.402v6.162c1.704-1.056,3.184-1.42,4.461-1.298c1.076,0.101,2.004,0.552,2.784,1.235
	c0.383,0.332,0.739,0.72,1.049,1.145c1.741,2.343,2.527,5.945,2.501,8.708l2.091,0.526l0.787,0.195l2.286,0.573l0.578,0.149
	l0.11,0.027v-9.726l1.987,0.683v-5.569l2.484,0.627l1.956,0.491l4.852,1.219l5.517,1.387v-7.852
	c-1.523-0.173-4.206-1.879-5.517-2.773c-0.471-0.319-0.767-0.541-0.767-0.541c-0.706-2.412-0.252-5.443-0.252-7.979l0,0
	c0-1.471,0.386-2.482,1.019-3.107c1.304-1.281,3.647-0.926,5.869,0.499c0.559,0.361,1.12,0.788,1.647,1.277
	c1.613,1.496,2.979,3.554,3.557,5.898c0.212,0.893,0.323,1.822,0.282,2.787l3.947,0.992l1.909,0.479v-10.266l0.72,0.247l2.686,0.923
	l0.669,0.23l1.278,0.438v2.908l-1.278-0.177l-0.669-0.092l-0.077-0.012v6.636l0.077,0.019l0.669,0.168l0.777,0.195v15.091
	c2.235,1.062,3.876,1.846,5.866,2.509c1.038,0.35,2.178,0.664,3.536,0.98v-2.277l0.618,0.215l4.297,1.476l0.424,0.143v1.677
	l0.979,0.225l1.364,0.319l0.266,0.059v15.15l-0.266-0.059l-1.364-0.323l-1.402-0.319l-4.297-0.992l-4.154-0.963l-3.638-0.838v-3.231
	c-0.995,0.853-2.011,1.305-3.006,1.446c-0.222,0.032-0.443,0.047-0.669,0.052c-0.935,0.005-1.839-0.259-2.686-0.727
	c-0.969-0.529-1.855-1.316-2.629-2.264c-3.134-3.843-4.313-10.297-0.564-12.641l-3.665-0.926l-3.261-0.815
	c1.529,0.745,2.649,2.747,3.261,5.026c0.673,2.516,0.72,5.38,0,7.263c-0.538,1.387-1.485,2.247-2.914,2.044l-0.643-0.098
	c-0.564-0.098-1.116-0.21-1.647-0.346c-2.063-0.511-3.953-1.264-5.869-2.022c-1.566-0.621-3.153-1.249-4.852-1.757
	c-0.406-0.124-0.816-0.242-1.237-0.346v15.094l0.155,0.051v2.918l-0.874-0.123l-1.153-0.166v1.639l1.153,0.267l1.66,0.385v13.657
	l0.296,0.072l4.852,1.118l5.869,1.361l1.647,0.376l3.557,0.822l4.229,0.981l2.629,0.604l2.686,0.624l0.151,0.029v4.614l0.518,0.175
	l1.278,0.439v2.918l-1.278-0.17l-0.518-0.076v18.285l0.518,0.113l6.644,1.54l4.154,0.958l4.297,0.99l1.402,0.321l1.364,0.316
	l3.493,0.812l4.048,0.931v1.478c0.823,0.066,1.646,0.184,2.46,0.303l0.209,0.019c-0.081,0.35-0.148,0.689-0.209,1.019
	c-0.134,0.793-0.205,1.566-0.208,2.417l-2.252-0.317v6.934l2.46,0.35l0.188,0.03v-2.656l1.507,0.38l2.171,0.548l0.077,0.013
	l0.31-0.158v-3.259l3.55,0.893l3.123,0.782v4.965l0.256,0.04l4.303,0.612l0.219,0.028l0.632-5.362l-0.851-0.217l-4.263-1.072v-6.67
	l4.263,1.078l2.407,0.604v2.007c5.144,4.814,1.88,10.633-2.407,12.649c-1.411,0.666-2.931,0.914-4.303,0.582
	c-1.365-0.339-2.585-1.262-3.379-2.942c-0.077-0.149-0.141-0.308-0.205-0.467l-3.345-0.842v-1.002l-0.124,0.325v1.415l-0.263-0.064
	l-0.423-0.111c-0.471,0.649-1.056,1.17-1.748,1.54c-0.505,0.277-1.083,0.467-1.695,0.553c-0.76,0.112-1.586,0.065-2.46-0.161v7.938
	c0.551-0.136,1.143-0.207,1.748-0.207v0.008c0.231,0,0.471,0.01,0.712,0.027c0.545,0.049,1.127,0.155,1.695,0.304
	c0.752,0.198,1.492,0.479,2.171,0.853c1.587,0.874,2.811,2.233,2.811,4.084h-0.003c0.017,8.229-2.29,13.736-2.29,22.646
	l-0.518-0.074l-0.161-0.027l0.161,0.055l0.041,0.013v2.911l-0.041-0.003l-1.97-0.279v10.291l-0.201-0.03l-1.695-0.235l-1.429-0.202
	v-13.326l-5.079-0.786l-3.493-0.542l-0.82-0.131v-12.317l-0.544-0.081l-1.402-0.194l-0.107-0.021v12.063l0.107,0.04l1.402,0.48
	l1.031,0.36v2.904l-1.031-0.142l-0.996-0.141v0.524l0.996,0.154l1.364,0.219l0.38,0.057v1.52l3.113,0.78l2.42,0.605v11.45
	l1.09,0.175v5.934l0.067,0.01v-8.458l2.931,0.457l1.695,0.269l2.171,0.337l2.724,0.427v9.527l-2.724-0.424h-0.023v0.655l0.023,0.007
	l2.303,0.666v0.238c0.528,0.145,1.079,0.256,1.634,0.34c1.113,0.188,2.26,0.303,3.379,0.443c0.377,0.044,0.746,0.091,1.116,0.148
	v9.526l-1.116-0.174l-3.379-0.525l-0.904-0.141l-0.107,0.763l1.012,0.186l3.379,0.632l1.634,0.299v-11.299l2.669,0.914l2.677,0.922
	v2.925l-2.021-0.286v7.342l1.506,0.239v15.215l-0.347-0.054l0.33,2.985l-2.146-0.303l-1.593-0.229v5.322l1.593,0.252l1.953,0.306
	v1.563l0.948,0.131l0.407,3.671l-1.355-0.198v10.052l-1.953-0.309l-4.303-0.67l-3.379-0.527l-2.31-0.356
	c0,1.533-0.269,2.286,0.505,3.442v-2.874l1.805,0.282l3.379,0.527l4.303,0.673l0.212,0.033v1.55l2.465,0.844v2.925l-2.031-0.289
	v2.377l4.962,1.247v3.523l4.516,1.045l2.128,0.495l1.392,0.315v11.592l-1.392-0.316l-2.128-0.494l-4.516-1.042v1.429l-1.404-0.354
	v0.014l5.92,1.489l2.128,0.531l0.948,0.242v12.916l1.509,0.35l0.837,0.195v11.584l-0.837-0.191l-2.457-0.564l-2.128-0.491
	l-2.908-0.669v4.929l-3.422-0.86v0.972l-1.116-0.176v1.268l7.446,1.722l0.965,0.222v13.38l1.163,0.269l2.457,0.572l1.422,0.322
	l0.519,0.124v16.544l-0.519-0.118l-1.422-0.333l-2.457-0.567l-2.128-0.491l-4.69-1.079l-0.007,7.087v0.581l-5.426,2.37l-4.303,1.887
	l-3.379,1.476l-3.937,1.728l-2.171,0.945l-1.695,0.746l-6.508,2.848l-3.493,1.525l-1.364,0.602l-1.402,0.615l-4.297,1.873
	l-4.154,1.818l-6.644,2.915l-0.669,0.289l-2.686,1.173l-2.629,1.153l-4.229,1.853l-3.557,1.553l-1.647,0.723l-5.869,2.568
	l-4.852,2.122l-1.956,0.856l-4.582,2.008l-0.578,0.255l-2.286,0.999l-0.787,0.339l-4.592,2.011l-1.049,0.464l-2.784,1.217
	l-7.086,3.104l-3.255,1.422l-4.478,1.963l-0.817,0.356l-4.007,1.758l-2.36,1.025l-4.266,1.869l-4.605,2.018l-9.688,4.235
	l-16.029,7.023l-0.538-0.175l-13.5-4.33l-43.905-14.069l43.905-13.642L198.768,478.844z M274.139,378.293l0.373,0.061l0.38,0.061
	v-2.783l-0.38-0.054l-0.373-0.058V378.293z M241.08,372.602l-0.168-0.037v5.197l0.168,0.024l0.021,0.003v-0.434l0.033,0.003
	l0.107-4.713L241.08,372.602z M187.396,211.437l-2.128-0.297l-3.349-0.471v6.934l3.349,0.47l2.128,0.303V211.437z M215.668,189.662
	l-0.333-0.047l-4.929-0.701v6.94l4.929,0.692l0.333,0.049V189.662z M201.511,161.992l-2.743-0.388l-2.743-0.385v6.828l2.743,0.388
	l0.901,0.128l0.003-0.003l1.839,0.259V161.992z M295.904,156.378l1.392,0.197l2.686,0.376l0.669,0.098l0.74,0.104v-6.934
	l-0.74-0.106l-0.669-0.092l-2.686-0.378l-1.392-0.195V156.378z M286.88,127.848l0.256,0.066v-5.483l-0.256-0.037l-1.647-0.229
	l-3.576-0.508v6.936l3.224,0.457v-1.701l0.353,0.089L286.88,127.848z M326.405,260.961l2.107,0.299l1.695,0.235l1.681,0.239v-6.934
	l-1.681-0.237l-1.695-0.242l-2.107-0.296V260.961z M320.935,253.35c0.007,2.54,0.646,5.069,0.037,7.604l1.032,0.161l1.224,0.188
	c-0.155-0.834-0.612-7.013-0.135-7.49c0-0.317,0.037-0.662,0.128-0.963l-1.217-0.277l-1.217-0.286
	C320.895,252.632,320.935,252.992,320.935,253.35L320.935,253.35z M338.053,421.332l0.518,0.08v-0.175l-0.48-0.077v-9.705
	l0.48,0.073v-2.084l1.123,0.256l1.634,0.38v-0.864l-1.634-0.256l-1.604-0.248v-1.903l-0.037-0.01V421.332z M330.092,397.59
	l0.115,0.021l2.171,0.336l2.283,0.356v-2.061l-2.283-0.36l-2.171-0.343l-0.115-0.014V397.59z M326.288,349.389l2.225,0.35
	l1.695,0.266l0.537,0.084v-7.584l-0.537-0.074v6.59l-1.695-0.266l-2.225-0.35V349.389z M310.688,317.375l0.76,0.191l0.767,0.191
	v-1.926l-0.767-0.118l-0.76-0.117V317.375z M307.293,312.067l0.658,0.101v-1.177l-0.658-0.104l-0.417-0.067
	c-0.04,0.387-0.104,0.773-0.242,1.143L307.293,312.067z M294.667,283.142l0.087,0.011c-0.026-0.146-0.063-0.283-0.087-0.438
	c-0.102-0.743-0.107-1.526-0.111-2.272l-1.825-0.282c0,0.881-0.054,1.771-0.279,2.632L294.667,283.142z M283.65,280.698l1.583,0.226
	l1.647,0.232l2.266,0.319v-1.873l-2.266-0.359l-1.647-0.256l-0.9-0.141v-4.982l-0.047-0.01v3.076l-0.636-0.102V280.698z
	 M278.516,280.621l0.848,0.135l1.103,0.175c-0.263-1.499-0.155-3.113-0.142-4.622l-0.961-0.145l-0.955-0.148
	c0.107,1.499,0.182,3.086-0.147,4.568L278.516,280.621z M278.194,247.317c0.014,2.257,0.484,4.453,0.194,6.734l0.976,0.153
	l4.922,0.767v14.91l0.047-0.007v-6.243l0.9,0.142l1.647,0.255l3.557,0.559l4.229,0.659l2.629,0.41l2.245,0.346v5.859l0.44,0.027
	l0.447,0.04v-11.033l-0.447-0.067c-0.924-0.168-1.812-0.39-2.686-0.646c-0.881-0.255-1.748-0.544-2.629-0.837
	c-1.365-0.461-2.747-0.943-4.229-1.33c-0.888-0.237-1.802-0.445-2.783-0.595v1.68l-0.773-0.108l-1.647-0.231l-0.9-0.128v-11.059
	l-0.396-0.099v0.856l-4.572-1.059l-1.181-0.272l0.018,0.319H278.194z M287.136,231.734v-6.202l-0.256-0.037l-1.647-0.237
	l-3.576-0.501v5.601l3.576,0.896l1.647,0.415L287.136,231.734z M277.498,289.183l0.266,0.037v-7.255
	c-0.578,1.009-1.872,1.237-3.251,1.163c-0.648-0.033-1.321-0.141-1.956-0.269c-0.932-0.182-1.762-0.417-2.296-0.527v5.725
	l2.296,0.356l1.956,0.31L277.498,289.183z M272.556,240.372l-3.097-0.718v2.301c0.834-0.215,1.85-0.188,3.097,0.153
	c0.595,0.16,1.25,0.395,1.956,0.712l0.333,0.145v-5.861l0.82,0.19v-4.148c-0.292,0.42-0.659,0.729-1.153,0.893
	c-0.158,0.045-0.336,0.084-0.527,0.103v6.561L272.556,240.372z M269.459,245.978v6.683l3.097,0.48l1.956,0.303l0.38,0.064v-6.752
	l-0.38-0.054l-1.956-0.281L269.459,245.978z M269.406,298.727l3.15,0.491l1.956,0.303l0.38,0.057v-1.271l-0.313-0.051l-0.067-0.006
	l-1.956-0.276l-3.15-0.447V298.727z M269.406,278.688l3.15,0.447l1.956,0.278l0.38,0.058v-4.004l-0.38-0.061l-1.956-0.306
	l-3.15-0.491V278.688z M267.974,339.6l0.548,0.087v-1.086l-0.548-0.084l-0.519-0.08l-0.026,1.082L267.974,339.6z M267.009,294.942
	c0.117-0.121,0.245-0.235,0.387-0.346c0.114-0.091,0.245-0.182,0.376-0.263l-0.376-0.063l-0.387-0.054V294.942z M264.323,278.745
	l0.787,0.121l1.123,0.175c-0.31-1.6-0.176-3.335-0.148-4.951l-0.975-0.151l-0.787-0.121l-0.175-0.027
	c0.114,1.607,0.209,3.321-0.168,4.898L264.323,278.745z M258.729,286.504l1.002,0.252l1.008,0.259v-5.94l-1.008-0.172l-1.002-0.168
	V286.504z M242.25,254.786l3.308,0.52l3.255,0.504l7.086,1.104l2.784,0.431l1.049,0.163l2.608,0.412v-4.285l-2.608-0.652
	l-0.578-0.151v2.239l-0.471-0.065l-0.363-0.049v1.457l-2.421-0.56l-7.086-1.634l-2.051-0.479v-0.407l-1.204-0.17
	c-1.109-0.158-2.212-0.317-3.308-0.531V254.786z M252.91,243.571v-7.739l-4.098-0.946l-2.186-0.501v-4.737
	c-0.272,0.215-0.632,0.368-1.069,0.457c-0.259,0.052-0.544,0.089-0.84,0.098v4.036l0.84,0.195l2.535,0.585v5.041l0.188,0.17
	c0.191,0.184,0.366,0.387,0.531,0.599c0.45,0.582,0.772,1.252,0.86,1.999L252.91,243.571z M240.912,245.779l0.168,0.039l0.659,0.15
	l0.511,0.123v2.983l3.308,0.473l0.841,0.114v-5.91l-0.841-0.193l-4.478-1.034l-0.168-0.037V245.779z M225.38,165.258l-0.356-0.052
	l-0.356-0.05v1.395l0.356,0.086l0.356,0.085V165.258z M230.147,170.659l-0.518-0.131l-0.518-0.129v2.321l0.518,0.072l0.518,0.076
	V170.659z M239.583,166.421l-1.442-0.36v6.608l-1.886-0.478l-2.36-0.588l-0.104-0.03c0.017,1.412-0.158,2.772-0.867,3.89
	l0.971,0.222l2.36,0.542l3.328,0.773V166.421z M240.262,218.916l-1.351-0.195v1.318l1.351,0.339l0.817,0.202l3.314,0.835v-1.917
	l-3.314-0.472L240.262,218.916z M258.645,144.18l-2.747-0.389l-2.743-0.388v6.937l2.743,0.388l0.831,0.116v-2.202l1.916,0.482
	V144.18z M268.084,168.043l-0.11-0.027l-0.578-0.148l-2.286-0.57l-0.787-0.198l-4.592-1.151l-1.049-0.269l-1.953-0.493v-10.776
	c-0.289-0.056-0.568-0.109-0.831-0.168c-5.335-1.182-6-3.098-6.064-7.411l-1.021-0.156l-3.255-0.503l-2.652-0.403v4.938l2.652,0.669
	l3.255,0.817l2.884,0.726v12.943c1.144-0.595,2.673-0.736,4.202-0.496c0.962,0.147,1.923,0.443,2.784,0.869
	c0.376,0.185,0.726,0.39,1.049,0.619c1.311,0.906,2.212,2.17,2.212,3.685l0,0l0.061,0.941l2.319,0.538l0.787,0.18l2.286,0.526
	l0.578,0.135l0.11,0.027V168.043z M253.155,169.181v6.934l2.743,0.388l2.747,0.392v-6.94l-2.747-0.385L253.155,169.181z
	 M272.774,197.728l-0.218-0.034l-4.582-0.649l-0.559-0.079v3.098l0.559,0.131l2.82,0.652l0.508,0.113v3.491l1.254,0.18l0.218,0.028
	V197.728z M272.774,208.275l-0.218-0.032l-1.254-0.182v2.027l-3.328-0.769l-0.578-0.138l-2.286-0.531l-0.787-0.178l-2.114-0.491
	v-5.856c-0.165,3.157-1.412,3.375-2.478,3.751c-0.394,0.142-0.764,0.306-1.049,0.65c-0.316,0.397-0.528,1.031-0.528,2.135
	l-2.256-0.519l-7.032-1.629v-9.317l0.961,0.222c0.061-4.72,3.069-6.532,6.071-6.401c0.962,0.039,1.923,0.284,2.784,0.691
	c0.376,0.175,0.726,0.381,1.049,0.612c1.311,0.935,2.212,2.313,2.212,3.984l0,0c0,1.279,0.215,2.577,0.266,3.861l-0.004-1.306
	c1.036,0.239,1.678,0.035,2.118-0.422c0.37-0.372,0.592-0.919,0.787-1.524c0.464-1.504,0.709-3.387,2.286-3.989
	c0.168-0.066,0.362-0.123,0.578-0.15c1.012-0.16,2.46,0.114,4.582,1.058l0.218,0.094v-4.804l-0.218-0.052l-4.582-1.062l-0.578-0.133
	l-2.286-0.53l-0.787-0.178l-4.592-1.062l-0.632-0.146v-5.389l-0.417-0.057c-0.787-0.094-1.769-0.172-2.784-0.306
	c-2.03-0.271-4.188-0.771-5.204-2.054l0,0c-1.641-2.083-0.847-6.49-0.847-9.152l-1.035-0.257l-3.255-0.824l-0.625-0.151v0.501
	l-2.03-0.283v10.297l-0.915-0.131v11.037c0.521,0.094,2.172,1.602,3.57,2.951c1.157,1.12,2.146,2.125,2.146,2.125v0.26l0.646,0.146
	v12.716l0.464,0.103l7.086,1.639l2.784,0.645l1.049,0.241l4.592,1.061l0.787,0.182l2.286,0.527l0.578,0.133l4.582,1.058l0.218,0.047
	V208.275z M258.645,202.669v-6.94l-2.747-0.387l-2.743-0.388v3.235l2.743,0.637l1.749,0.397l0.507,0.121v3.252L258.645,202.669z
	 M298.687,221.01l-1.392-0.324l-2.629-0.605l-4.229-0.977l-3.557-0.82l-1.647-0.383l-5.869-1.353l-4.852-1.125l-0.527-0.119
	c0,1.259,0.229,2.328,0.527,3.281c0.649,2.047,1.685,3.597,1.685,5.505l0,0c0,0.894,0.303,2.953,0.31,4.974l1.513,0.376
	c-0.182-2.54,0.164-5.475,1.345-7.108c0.366-0.509,0.813-0.896,1.352-1.103v0.008c1.398-0.54,3.021-0.504,4.518-0.136
	c0.572,0.14,1.13,0.331,1.647,0.555l0.306,0.14v-1.513l3.251,0.756l4.229,0.977l1.617,0.373v0.529
	c0.339-0.047,0.669-0.069,1.012-0.069c0.471,0,0.935,0.041,1.392,0.109V221.01z M298.687,227.166l-1.392-0.2l-1.012-0.141v3.861
	v0.827l-0.38-0.091v2.286l1.392,0.196l1.392,0.2V227.166z M298.687,237.7c-0.511-0.079-0.975-0.17-1.392-0.279
	c-1.237-0.316-2.064-0.75-2.629-1.249c-2.293-2.01-0.282-5.098-3.947-5.943c0.034,0.807,0.011,1.629-0.061,2.39l1.554,0.39v9.902
	l2.454,0.381l2.629,0.41l1.392,0.219V237.7z M303.387,250.773l-2.737-0.387l-0.669-0.092l-0.44-0.063v6.942l0.44,0.057l0.669,0.092
	l2.737,0.387V250.773z M303.387,276.549l-2.737-0.383l-0.669-0.098l-0.44-0.063v5.211l-1.634-0.249v1.748l2.074,0.292l0.669,0.095
	l2.737,0.39V276.549z M308.853,251.821L308.853,251.821v-0.009l0,0c0-0.767,0.219-1.514,0.686-2.118l-2.245-0.521l-1.52-0.355
	c0.578,0.728,0.918,1.592,0.918,2.532h-0.004c0.004,2.672,1.291,7.446-0.928,9.497l1.533,0.238l2.984,0.468
	C307.872,259.757,308.853,254.597,308.853,251.821z M307.293,276.308l-0.713-0.111c0.067,0.299,0.111,0.605,0.111,0.914h-0.004
	c0.004,2.737,0.941,6.042-0.329,8.627l0.935,0.147l0.585,0.088v-7.658l1.499,0.373v-0.608l2.07,0.322l1.379,0.219v-1.456
	l-1.379-0.208L307.293,276.308z M315.745,259.458l1.402,0.198l0.494,0.067v-6.942l-0.494-0.063l-1.402-0.198l-3.584-0.506v6.937
	L315.745,259.458z M316.151,310.436l0.996,0.158l0.984,0.148v-2.34l-0.76-0.114v-3.729l-0.225-0.037l-0.996-0.138V310.436z
	 M313.869,300.274l1.876,0.646l1.402,0.478l0.225,0.073v-2.716l1.14,0.182l1.035,0.161v-1.305l-1.035-0.262l-1.364-0.343
	l-1.402-0.354l-4.297-1.079l-1.392-0.35v0.444l-2.763-0.438l-6.644-1.035l-0.114-0.021v-7.685l-0.555-0.084l-0.278-0.047v7.943
	l0.278,0.04l0.669,0.108l6.644,1.035l4.154,0.648l2.421,0.377V300.274z M343.997,253.313l-2.669-0.916v14.293l2.669,0.376
	l0.656,0.095v-0.757v-9.541l2.021,0.292v-0.104l0,0v-2.822L343.997,253.313z M377.897,175.898l16.55,4.159v-16.55l-16.55-4.159
	v-9.455l-5.708-1.434l-3.826-0.961l-1.688-0.427v11.229l1.688,0.425l3.826,0.963l5.708,1.437V175.898z M328.395,86.502v-9.538
	l0.117,0.016l1.695,0.243l0.215,0.027v-2.92l-0.215-0.07l-1.695-0.582L325.07,72.5v14.29l3.325,0.465V86.502z M352.489,175.293
	l-7.295-1.123v-7.278c-0.41,0.027-0.813,0.047-1.197,0.047c-1.774,0.023-3.177-0.19-4.303-0.605
	c-1.701-0.63-2.746-1.736-3.379-3.199c-0.877-2.021-0.978-4.731-0.978-7.843c0-1.083,0.362-1.903,0.978-2.498
	c0.804-0.788,2.027-1.182,3.379-1.234c1.419-0.054,2.965,0.267,4.303,0.889c1.94,0.896,3.443,2.422,3.443,4.365
	c0,2.362,1.459,9.728-2.166,10.074l7.215,1.108V175.293z M344.128,156.259l-0.132-0.022l-4.303-0.606l-1.045-0.146v6.934
	l1.045,0.151l4.303,0.604l0.132,0.02V156.259z M330.208,100.035l-1.695-0.582l-3.442-1.178v14.289l3.325,0.464v-0.751v-9.536
	l0.117,0.019l1.695,0.242l0.215,0.03v-2.926L330.208,100.035z M332.378,122.534l-2.171-0.332l-1.695-0.262l-1.741-0.267v2.952
	l-1.701-0.585v14.292l3.325,0.479v-0.756v-8.833l0.117,0.015l1.695,0.262l2.171,0.333l1.688,0.261v-7.297L332.378,122.534z
	 M336.315,141.003l-3.937-0.604l-1.452-0.225v7.297l1.452,0.224l3.937,0.606l1.906,0.291v-7.297L336.315,141.003z M336.315,227.885
	l-1.973-0.494v3.932l1.973,0.496l1.967,0.496v-3.937L336.315,227.885z M344.518,141.083l-0.521-0.072
	c-1.765-0.262-3.177-0.543-4.303-0.879c-1.701-0.513-2.746-1.16-3.379-2.074c-1.163-1.667-0.978-4.239-0.978-8.547
	c0-1.078,0.362-1.899,0.978-2.493c0.804-0.785,2.027-1.175,3.379-1.227c1.419-0.056,2.965,0.266,4.303,0.884
	c1.94,0.897,3.443,2.418,3.443,4.356C347.44,133.545,349.1,141.729,344.518,141.083z M344.128,130.486l-0.132-0.019l-4.303-0.607
	l-1.045-0.149v6.934l1.045,0.148l4.303,0.612l0.132,0.019V130.486z M364.286,216.621l-4.159-0.963l-1.422-0.326l-2.457-0.572
	l-2.128-0.484l-0.885-0.205v11.591l0.885,0.2l2.128,0.491l2.457,0.577l1.422,0.319l4.667,1.086v-11.592L364.286,216.621z
	 M356.893,167.855v-1.564l0,0v-10.195l1.812,0.259l0.209,0.032v-2.923l-0.209-0.069l-2.457-0.851l-2.128-0.733l-0.552-0.188v16.517
	l0.552,0.079l2.128,0.303l0.646,0.089V167.855z M360.126,165.887l-1.422-0.326l-0.205-0.046v11.592l0.205,0.045l1.422,0.333
	l8.236,1.896l1.698,0.395v-11.591l-0.512-0.123l-1.187-0.272L360.126,165.887z M322.004,150.839
	c1.389-1.427,4.102-1.605,6.508-0.877c0.592,0.178,1.164,0.413,1.695,0.697c0.88,0.469,1.644,1.081,2.171,1.799
	c0.505,0.686,0.808,1.469,0.808,2.334h-0.004c0,1.983,1.035,7.539-0.804,9.447c-0.478,0.501-1.163,0.745-2.104,0.613l-0.066-0.01
	c-0.603-0.084-1.17-0.168-1.695-0.264c-3.704-0.632-5.566-1.416-6.508-2.853c-1.083-1.67-0.914-4.224-0.914-8.45
	C321.09,152.231,321.429,151.43,322.004,150.839z M324.401,160.404l4.111,0.58l1.375,0.196v-6.934l-1.375-0.195l-4.111-0.58V160.404
	z M343.997,76.123l-4.303-1.484l-0.377-0.131V88.8l0.377,0.052l2.945,0.417v-0.753v-9.538l1.357,0.188l0.673,0.094v-2.91
	L343.997,76.123z M343.997,70.421l2.791,0.701v-6.508l-2.791-0.696l-3.718-0.939v6.508L343.997,70.421z M317.147,142.45
	l-1.402-0.215l-4.297-0.655l-2.208-0.34c0-4.511-1.251-7.316-1.946-10.991c-0.27-1.407-0.451-2.951-0.451-4.764h-0.003
	c0-0.721,0.165-1.319,0.454-1.818c0.756-1.308,2.366-1.893,4.154-1.905c1.439-0.012,2.979,0.346,4.297,1.003
	c0.504,0.254,0.979,0.552,1.402,0.886c0.574,0.474,1.052,1.025,1.364,1.642c0.272,0.526,0.427,1.098,0.427,1.716
	c0,0.736,0.135,1.965,0.226,3.311l2.524,0.389v12.44l-3.177-0.486L317.147,142.45z M315.637,126.458l-4.189-0.592l-1.29-0.184v3.256
	l1.29,0.2l4.189,0.641V126.458z M344.518,115.313l-0.521-0.072c-1.774-0.259-3.177-0.538-4.303-0.875
	c-1.701-0.513-2.746-1.158-3.379-2.072c-1.17-1.671-0.978-4.249-0.978-8.556c0-1.079,0.362-1.903,0.978-2.498
	c0.804-0.787,2.027-1.176,3.379-1.23c1.419-0.055,2.965,0.268,4.303,0.89c1.94,0.896,3.443,2.422,3.443,4.362
	C347.44,107.775,349.1,115.953,344.518,115.313z M344.138,104.708l-0.142-0.019l-4.303-0.61l-1.045-0.15v6.945l1.045,0.146
	l4.303,0.608l0.142,0.021V104.708z M336.315,90.899l0.982,0.155v-7.298l-0.982-0.151l-3.937-0.605l-2.171-0.333l-0.209-0.03v7.297
	l0.209,0.029l2.171,0.334L336.315,90.899z M317.147,57.609c-0.424,0.614-0.898,1.089-1.402,1.417
	c-1.318,0.854-2.857,0.77-4.297-0.099c-1.788-1.084-3.398-3.396-4.154-6.633c-0.289-1.244-0.454-2.624-0.454-4.124
	c0-0.719,0.165-1.321,0.454-1.822c0.756-1.306,2.366-1.896,4.154-1.911c1.439-0.01,2.979,0.348,4.297,1.003
	c0.504,0.256,0.979,0.552,1.402,0.89c0.574,0.471,1.052,1.022,1.364,1.639c0.272,0.524,0.427,1.098,0.427,1.716
	c0,1.718-0.154,3.192-0.427,4.439C318.199,55.594,317.721,56.745,317.147,57.609z M315.637,49.132l-4.189-0.59l-1.29-0.185v6.934
	l1.29,0.183l4.189,0.591V49.132z M307.293,97.888c0.756-1.31,2.366-1.896,4.154-1.906c1.439-0.008,2.979,0.35,4.297,1.007
	c0.504,0.252,0.979,0.55,1.402,0.89c0.574,0.474,1.052,1.023,1.364,1.642c0.272,0.529,0.427,1.101,0.427,1.719
	c0,2.047,0.861,6.771-0.427,8.949c-0.313,0.533-0.753,0.915-1.364,1.064c-0.33,0.079-0.703,0.091-1.127,0.03l-0.275-0.039
	c-1.748-0.252-3.163-0.518-4.297-0.837c-2.46-0.694-3.61-1.636-4.154-3.197c-0.572-1.65-0.451-4.004-0.451-7.499h-0.003
	C306.839,98.993,307.004,98.387,307.293,97.888z M310.158,106.849l1.29,0.182l4.189,0.59v-6.937l-4.189-0.586l-1.29-0.185V106.849z
	 M318.511,84.386c-0.313,0.543-0.753,0.933-1.364,1.089c-0.33,0.079-0.703,0.096-1.127,0.033l-0.275-0.039
	c-1.755-0.253-3.163-0.522-4.297-0.844c-2.453-0.692-3.61-1.63-4.154-3.194c-0.572-1.654-0.454-4.002-0.454-7.491
	c0-0.721,0.165-1.327,0.454-1.826c0.756-1.308,2.366-1.895,4.154-1.908c1.439-0.009,2.979,0.35,4.297,1.007
	c0.504,0.254,0.979,0.551,1.402,0.889c0.574,0.471,1.052,1.023,1.364,1.644c0.272,0.527,0.427,1.098,0.427,1.716h-0.006
	C318.932,77.288,319.812,82.145,318.511,84.386z M315.637,74.904l-4.189-0.588l-1.29-0.183v6.937l1.29,0.185l4.189,0.59V74.904z
	 M330.274,61.748l-0.066-0.008c-0.603-0.087-1.164-0.171-1.695-0.262c-3.704-0.636-5.566-1.419-6.508-2.857
	c-1.083-1.669-0.914-4.219-0.914-8.441c0-1.049,0.339-1.849,0.914-2.441c1.389-1.422,4.102-1.6,6.508-0.871
	c0.592,0.18,1.164,0.412,1.695,0.697c0.88,0.471,1.644,1.079,2.171,1.8c0.505,0.686,0.808,1.466,0.808,2.335
	c0,1.985,1.031,7.539-0.808,9.44C331.901,61.638,331.215,61.884,330.274,61.748z M329.887,51.146l-1.375-0.193l-4.111-0.582v6.934
	l4.111,0.586l1.375,0.195V51.146z"/>
<path fill-rule="evenodd" clip-rule="evenodd" fill="#221F1F" d="M82.491,132.76l7.988,75.487L37.127,247.22l-13.171-30.473
	l27.573-19.223c0,0-7.974-7.382-1.755-11.209c6.212-3.828,21.818,8.646,21.818,8.646s-15.081-6.971-9.621-21.716
	c5.453-14.745,4.753-28.328,4.753-28.328L82.491,132.76z"/>
<g>
	<defs>
		<path id="SVGID_8_" d="M82.491,132.76l7.988,75.487L37.127,247.22l-13.171-30.473l27.573-19.223c0,0-7.974-7.382-1.755-11.209
			c6.212-3.828,21.818,8.646,21.818,8.646s-15.081-6.971-9.621-21.716c5.453-14.745,4.753-28.328,4.753-28.328L82.491,132.76z"/>
	</defs>
	<clipPath id="SVGID_9_">
		<use xlink:href="#SVGID_8_"  overflow="visible"/>
	</clipPath>
	<g clip-path="url(#SVGID_9_)">
		<path fill-rule="evenodd" clip-rule="evenodd" fill="#221F1F" d="M65.528,136.951l18.285,66.417l-53.348,38.978L17.29,211.873
			l27.583-19.228c0,0-7.974-7.379-1.762-11.207c6.212-3.833,21.821,8.646,21.821,8.646s-15.084-6.969-9.628-21.715
			c5.456-14.743-10.176-22.201-10.176-22.201L65.528,136.951z"/>
	</g>
</g>
<linearGradient id="SVGID_10_" gradientUnits="userSpaceOnUse" x1="764.729" y1="274.8052" x2="722.8909" y2="93.5845" gradientTransform="matrix(-1 0 0 1 798.3096 0)">
	<stop  offset="0" style="stop-color:#221F1F"/>
	<stop  offset="1" style="stop-color:#FFFFFF"/>
</linearGradient>
<polygon fill-rule="evenodd" clip-rule="evenodd" fill="url(#SVGID_10_)" points="72.581,267.839 0,206.554 48.315,131.882 
	103.785,184.422 "/>
<path fill-rule="evenodd" clip-rule="evenodd" fill="#6D6E71" d="M88.785,494.346c0,0,1.19-5.06,0.79-7.578
	c-0.39-2.524-0.467-6.794-0.467-6.794h-2.051c0,0-0.474,6.001-0.793,9.474c-0.31,3.473-0.625,4.74-0.625,4.74L88.785,494.346z"/>
<path fill-rule="evenodd" clip-rule="evenodd" fill="#221F1F" stroke="#221F1F" stroke-width="0.216" stroke-miterlimit="2.6131" d="
	M93.989,471.919c0,0-0.632,6.791-0.948,12.479c-0.313,5.682,0.155,7.897,0.155,7.897l-4.411,2.051c0,0,0.79-10.305,0.161-12.95
	c-0.628-2.649-4.256-3.156-4.256-3.156l3.14-7.978L93.989,471.919z"/>
<path fill-rule="evenodd" clip-rule="evenodd" fill="#221F1F" stroke="#221F1F" stroke-width="0.216" stroke-miterlimit="2.6131" d="
	M87.668,469.708c0,0,4.421,12.989-7.218,24.635c-11.642,11.646-40.334,14.55-40.334,14.55s0.414-10.392,4.575-14.133
	c4.155-3.745,16.214-11.646,18.711-16.218c2.491-4.578,7.006-13.686,7.006-13.686l15.447,3.708L87.668,469.708z"/>
<path fill-rule="evenodd" clip-rule="evenodd" fill="#6D6E71" d="M146.002,500.672c0,0-1.294-5.55-0.864-8.323
	c0.43-2.764,0.521-7.45,0.521-7.45h2.246c0,0,0.518,6.589,0.86,10.398c0.35,3.813,0.693,5.2,0.693,5.2L146.002,500.672z"/>
<path fill-rule="evenodd" clip-rule="evenodd" fill="#221F1F" stroke="#221F1F" stroke-width="0.216" stroke-miterlimit="2.6131" d="
	M140.3,476.064c0,0,0.686,7.45,1.036,13.692c0.343,6.233-0.175,8.66-0.175,8.66l4.841,2.256c0,0-0.861-11.309-0.168-14.213
	c0.686-2.901,4.659-3.463,4.659-3.463l-3.436-8.751L140.3,476.064z"/>
<path fill-rule="evenodd" clip-rule="evenodd" fill="#221F1F" stroke="#221F1F" stroke-width="0.216" stroke-miterlimit="2.6131" d="
	M147.232,473.637c0,0-4.854,14.254,7.917,27.028c12.781,12.778,44.261,15.969,44.261,15.969s-0.461-11.406-5.022-15.508
	c-4.559-4.108-17.794-12.778-20.531-17.797c-2.743-5.02-7.691-15.015-7.691-15.015l-16.947,4.068L147.232,473.637z"/>
<path fill-rule="evenodd" clip-rule="evenodd" fill="#FFFFFF" d="M57.426,201.87c-3.55-3.557-3.725-9.143-0.383-12.474
	c0.575-0.575,1.224-1.047,1.917-1.416v15.142C58.417,202.767,57.91,202.347,57.426,201.87L57.426,201.87z M58.959,205.293
	c-1.425-1.18-2.938-2.445-2.938-2.445s-0.534,4.56,2.676,6.438l0.262,0.151V205.293z M58.959,203.122V187.98
	c3.294-1.742,7.618-1.109,10.549,1.831c3.557,3.555,3.731,9.137,0.396,12.471C67.014,205.161,62.442,205.417,58.959,203.122
	L58.959,203.122z M58.959,209.437l2.955,1.728c0,0,0.272-3.219-1.2-4.428l-1.755-1.444V209.437z"/>
<path fill-rule="evenodd" clip-rule="evenodd" fill="#221F1F" d="M97.66,471.764c-13.575,6.556-28.941,11.417-39.064-0.145
	l8.821-212.114l7.853,0.487c8.001-9.097,21.475-15.076,36.751-15.076c15.195,0,28.615,5.923,36.63,14.955l5.896-0.366
	l18.503,214.478c-6.757,9.867-24.302,11.35-38.109,4.795c-2.542-19.438-5.487-164.966-22.921-164.966
	C97.142,313.812,100.803,451.553,97.66,471.764z"/>
<g>
	<defs>
		<path id="SVGID_7_" d="M97.66,471.764c-13.575,6.556-28.941,11.417-39.064-0.145l8.821-212.114l7.853,0.487
			c8.001-9.097,21.475-15.076,36.751-15.076c15.195,0,28.615,5.923,36.63,14.955l5.896-0.366l18.503,214.478
			c-6.757,9.867-24.302,11.35-38.109,4.795c-2.542-19.438-5.487-164.966-22.921-164.966
			C97.142,313.812,100.803,451.553,97.66,471.764z"/>
	</defs>
	<clipPath id="SVGID_11_">
		<use xlink:href="#SVGID_7_"  overflow="visible"/>
	</clipPath>
	<g clip-path="url(#SVGID_11_)">
		<defs>
			<filter id="Adobe_OpacityMaskFilter" filterUnits="userSpaceOnUse" x="63.726" y="245.894" width="114.028" height="236.781">
				<feFlood  style="flood-color:white;flood-opacity:1" result="back"/>
				<feBlend  in="SourceGraphic" in2="back" mode="normal"/>
			</filter>
		</defs>
		<mask maskUnits="userSpaceOnUse" x="63.726" y="245.894" width="114.028" height="236.781" id="SVGID_12_">
			<g filter="url(#Adobe_OpacityMaskFilter)">
				<defs>
					
						<filter id="Adobe_OpacityMaskFilter_1_" filterUnits="userSpaceOnUse" x="63.726" y="245.894" width="114.028" height="236.781">
						<feFlood  style="flood-color:white;flood-opacity:1" result="back"/>
						<feBlend  in="SourceGraphic" in2="back" mode="normal"/>
					</filter>
				</defs>
				<mask maskUnits="userSpaceOnUse" x="63.726" y="245.894" width="114.028" height="236.781" id="SVGID_12_">
					<g filter="url(#Adobe_OpacityMaskFilter_1_)">
					</g>
				</mask>
				
					<radialGradient id="SVGID_13_" cx="679.1782" cy="443.937" r="131.6922" gradientTransform="matrix(-1 0 0 1 798.3096 0)" gradientUnits="userSpaceOnUse">
					<stop  offset="0" style="stop-color:#FFFFFF"/>
					<stop  offset="0.7212" style="stop-color:#BFBFBF"/>
					<stop  offset="1" style="stop-color:#FFFFFF"/>
				</radialGradient>
				<path mask="url(#SVGID_12_)" fill-rule="evenodd" clip-rule="evenodd" fill="url(#SVGID_13_)" d="M105.257,472.74
					c-13.568,6.556-32.011,4.356-41.531-4.484l11.299-207.769l7.846,0.481c8.001-9.101,21.475-15.074,36.744-15.074
					c15.208,0,28.625,5.927,36.637,14.953l5.893-0.36l15.609,203.784c-3.442,17.852-21.398,22.037-35.208,15.481
					c-2.548-19.435-5.486-164.969-22.931-164.969C104.74,314.784,108.404,452.536,105.257,472.74z"/>
			</g>
		</mask>
		
			<radialGradient id="SVGID_14_" cx="679.1782" cy="443.937" r="131.6922" gradientTransform="matrix(-1 0 0 1 798.3096 0)" gradientUnits="userSpaceOnUse">
			<stop  offset="0" style="stop-color:#6D6E71"/>
			<stop  offset="0.7212" style="stop-color:#221F1F"/>
			<stop  offset="1" style="stop-color:#221F1F"/>
		</radialGradient>
		<path fill-rule="evenodd" clip-rule="evenodd" fill="url(#SVGID_14_)" d="M105.257,472.74
			c-13.568,6.556-32.011,4.356-41.531-4.484l11.299-207.769l7.846,0.481c8.001-9.101,21.475-15.074,36.744-15.074
			c15.208,0,28.625,5.927,36.637,14.953l5.893-0.36l15.609,203.784c-3.442,17.852-21.398,22.037-35.208,15.481
			c-2.548-19.435-5.486-164.969-22.931-164.969C104.74,314.784,108.404,452.536,105.257,472.74z"/>
	</g>
</g>
<path fill="#221F1F" d="M71.905,256.688c-1.438,4.383-2.185,6.667-2.098,6.753c0.864,0.857,5.436,1.113,14.926,1.634
	c6.774,0.37,15.844,0.878,28.014,2.031c2.811,0.262,5.439,0.47,7.9,0.611v7.288c-2.689-0.134-5.547-0.35-8.586-0.632
	c-11.833-1.123-20.937-1.627-27.728-2.003c-11.507-0.633-20.063-0.519-20.954-8.184v-2.918c0.185-1.909,0.696-4.161,1.57-6.844
	c1.634-4.968,3.953-12.035,5.755-21.956l0.081-0.387c3.056-10.317,0.154-15.995-2.649-21.48c-4.565-8.917-8.925-17.441,3.483-37.887
	c8.835-17.478,16.184-27.746,24.138-33.066c7.564-5.061,15.306-5.673,24.891-3.604v7.505c-8.384-2.03-14.869-1.827-20.823,2.163
	c-6.838,4.569-13.464,14.024-21.741,30.414l-0.145,0.261c-10.388,17.056-6.925,23.825-3.315,30.896
	c3.459,6.749,7.026,13.724,3.214,26.731C75.926,244.419,73.569,251.614,71.905,256.688z M120.647,136.046
	c1.133,0.246,2.299,0.525,3.489,0.844l0.021,0.013l0.013,0.005v-0.005c5.204,1.368,12.849-0.35,20.393-2.042
	c8.163-1.837,16.23-3.644,22.668-1.992c6.535,1.683,10.956,6.361,11.4,16.78v3.691c-0.195,5.214-1.214,11.615-3.234,19.47h0.006
	l-0.013,0.057l-0.014,0.027c-2.178,8.403-7.658,17.728-12.946,26.736c-6.556,11.154-12.805,21.784-11.01,27.269
	c6.152,18.787,8.25,31.434,2.555,39.42c-4.962,6.959-15.293,9.595-33.329,8.687v-7.288c15.458,0.867,23.956-0.841,27.378-5.634
	c3.967-5.566,1.862-16.36-3.557-32.927c-2.81-8.591,4.25-20.608,11.672-33.225c5.019-8.556,10.23-17.424,12.156-24.835v-0.005
	l0.01-0.057l0.017-0.009c5.665-22.026,3.106-29.543-2.898-31.088c-4.74-1.217-11.955,0.402-19.263,2.047
	c-8.411,1.886-16.943,3.804-23.855,1.985l-0.027-0.013l-0.034-0.01v0.01c-0.538-0.143-1.069-0.279-1.6-0.407V136.046z"/>
<path fill-rule="evenodd" clip-rule="evenodd" fill="#424143" d="M74.298,233.112c7.995-26.994-19.693-25.425,0.521-58.631
	c17.138-33.942,27.987-39.504,48.373-34.058c8.929,2.385,24.457-8.275,35.382-9.754c4.613-0.62,2.673,7.29,5.587,9.586
	c5.957,4.707,13.488,9.154,7.692,31.669c-4.78,18.62-27.923,43.852-23.909,56.104c11.571,35.357,8.432,46.875-35.541,42.709
	C50.07,264.831,66.482,276.089,74.298,233.112z"/>
<g>
	<defs>
		<path id="SVGID_6_" d="M74.298,233.112c7.995-26.994-19.693-25.425,0.521-58.631c17.138-33.942,27.987-39.504,48.373-34.058
			c8.929,2.385,24.457-8.275,35.382-9.754c4.613-0.62,2.673,7.29,5.587,9.586c5.957,4.707,13.488,9.154,7.692,31.669
			c-4.78,18.62-27.923,43.852-23.909,56.104c11.571,35.357,8.432,46.875-35.541,42.709C50.07,264.831,66.482,276.089,74.298,233.112
			z"/>
	</defs>
	<clipPath id="SVGID_15_">
		<use xlink:href="#SVGID_6_"  overflow="visible"/>
	</clipPath>
	<g clip-path="url(#SVGID_15_)">
		<path fill-rule="evenodd" clip-rule="evenodd" fill="#221F1F" d="M65.127,230.203c7.998-26.99-13.524-22.516,6.687-55.722
			c17.145-33.942,27.98-39.504,48.379-34.058c20.389,5.447,22.165,5.447,31.029,41.526c8.872,36.078,12.959,112.155-47.293,109.704
			C43.676,289.2,57.315,273.185,65.127,230.203z"/>
		<path fill-rule="evenodd" clip-rule="evenodd" fill="#424143" d="M79.714,235.793c2.743-9.279,7.571-25.131,1.002-25.979
			C60.579,207.2,68.943,182.76,90.734,160.52c12.704-12.973,13.346-31.749,35.285-28.582c13.77,1.987,25.281,26.224,31.13,50.012
			c8.865,36.078,25.334,91.061-34.922,88.609C61.971,268.105,71.902,278.772,79.714,235.793z"/>
	</g>
</g>
<path fill-rule="evenodd" clip-rule="evenodd" fill="#221F1F" d="M131.304,119.138c0,0-12.734,2.314-34.7-6.47
	c-21.959-8.788-40.63-28.55-40.63-28.55s21.966,32.942,29.651,45.021c7.685,12.077,7.685,12.077,7.685,12.077l38.438-8.085
	L131.304,119.138z"/>
<path fill-rule="evenodd" clip-rule="evenodd" fill="#221F1F" stroke="#221F1F" stroke-width="0.216" stroke-miterlimit="2.6131" d="
	M89.013,135.564c0,0,4.787-6.71,9.894-9.615c5.106-2.902,10.862-5.016,10.862-5.016s3.194,2.976,1.621,5.033
	c-1.587,2.056-11.373,6.971-11.202,13.343l-5.55,2.644C94.637,141.953,88.596,139.658,89.013,135.564z"/>
<path fill-rule="evenodd" clip-rule="evenodd" fill="#221F1F" d="M27.903,242.221c-6.071-2.742-6.192-7.411-7.856-11.847
	c-1.577-4.239-3.634-7.986-5.887-10.28c-2.252-2.284,3.358-0.698,3.638-0.523c5.164,3.26,3.778,7.263,5.799,8.99
	c0.054,0.041,0.104,0.085,0.151,0.134c2.098-4.116,5.429-10.909,6.276-14.103c1.264-4.749,1.264-4.749,1.264-4.749
	s3.332,4.54,2.303,8.141c-0.84,2.923-5.839,9.418-5.439,13.103c2.824-3.574,7.208-8.558,8.707-11.617
	c2.172-4.407,2.172-4.407,2.172-4.407s2.676,5.382,0.961,8.714c-1.604,3.114-10.119,11.167-7.208,13.045
	c2.387-3.021,6.528-8.411,7.813-11.015c1.842-3.74,1.842-3.74,1.842-3.74s2.242,4.786,0.8,7.609
	c-1.129,2.181-7.726,8.807-6.092,10.043c2.327-2.039,6.784-6.061,8.263-8.08c2.044-2.775,2.044-2.77,2.044-2.77
	s1.244,4.47-0.168,6.309c-1.405,1.844-5.422,5.999-7.315,8.006c0.712,1.313,1.815-0.008-1.143,3.7
	C35.877,250.595,35.373,245.6,27.903,242.221z"/>
<path fill-rule="evenodd" clip-rule="evenodd" fill="#59595C" d="M35.225,242.396c0.387-0.797,1.257-1.279,2.071-1.1
	c0.921,0.208,1.436,1.18,1.15,2.177c-0.107,0.363-0.306,0.679-0.565,0.925c0.054-0.111,0.101-0.222,0.131-0.336
	c0.292-1-0.225-1.972-1.143-2.171C36.28,241.759,35.668,241.967,35.225,242.396z"/>
<path fill-rule="evenodd" clip-rule="evenodd" fill="#59595C" d="M31.846,239.441c0.434-0.884,1.388-1.412,2.286-1.212
	c1.025,0.225,1.59,1.303,1.274,2.402c-0.121,0.4-0.343,0.756-0.619,1.024c0.061-0.114,0.107-0.241,0.145-0.368
	c0.319-1.104-0.249-2.18-1.274-2.405C33.009,238.738,32.34,238.968,31.846,239.441z"/>
<path fill-rule="evenodd" clip-rule="evenodd" fill="#59595C" d="M26.067,235.169c0.591-1.227,1.919-1.958,3.163-1.686
	c1.419,0.317,2.209,1.81,1.765,3.328c-0.161,0.556-0.467,1.044-0.854,1.42c0.081-0.165,0.148-0.334,0.192-0.515
	c0.447-1.528-0.34-3.014-1.751-3.333C27.681,234.188,26.746,234.514,26.067,235.169z"/>
<path fill-rule="evenodd" clip-rule="evenodd" fill="#59595C" d="M21.771,233.018c0.148-1.219,1.049-2.234,2.192-2.37
	c1.297-0.151,2.407,0.877,2.488,2.31c0.023,0.521-0.088,1.022-0.306,1.456c0.017-0.16,0.023-0.33,0.017-0.498
	c-0.081-1.425-1.187-2.454-2.488-2.304C22.854,231.707,22.154,232.262,21.771,233.018z"/>
<polygon fill-rule="evenodd" clip-rule="evenodd" fill="#F8A770" points="129.59,90.731 136.438,138.416 110.084,176.836 
	99.825,145.714 107.032,91.803 "/>
<g>
	<defs>
		<polygon id="SVGID_5_" points="129.59,90.731 136.438,138.416 110.084,176.836 99.825,145.714 107.032,91.803 		"/>
	</defs>
	<clipPath id="SVGID_16_">
		<use xlink:href="#SVGID_5_"  overflow="visible"/>
	</clipPath>
	<g clip-path="url(#SVGID_16_)">
		<polygon fill-rule="evenodd" clip-rule="evenodd" fill="#FDCF9D" points="127.764,90.731 133.449,137.023 112.606,168.959 
			104.612,132.518 110.246,91.704 		"/>
	</g>
</g>
<path fill-rule="evenodd" clip-rule="evenodd" fill="#221F1F" d="M143.343,207.147c-14.674,0.58-18.843-3.383-26.965-8.063
	c-1.916-1.113-2.37-2.486-3.691-3.977c-2.521-2.842-0.632-0.783,0.925,2.378c2.548,5.14,6.431,9.437,11.608,12.425
	C129.509,212.39,140.132,215.47,143.343,207.147z"/>
<path fill="#221F1F" d="M166.643,137.556l41.813,52.687l-21.717,55.279l-21.199-14.415c19.532-46.667,10.939-45.075-7.9-0.062
	l-1.143,2.728l2.478,1.689l30.051,18.091l27.005-62.605l0.771-1.948l-1.312-1.654l-47.186-59.459l-4.064-5.117l-2.229,6.148
	C161.002,135.875,163.934,147.364,166.643,137.556z"/>
<polygon fill-rule="evenodd" clip-rule="evenodd" fill="#59595C" points="48.315,131.882 43.901,128.588 0,206.554 "/>
<polygon fill-rule="evenodd" clip-rule="evenodd" fill="#59595C" points="38.697,125.848 43.589,128.395 0,206.547 "/>
<path fill-rule="evenodd" clip-rule="evenodd" fill="#424143" d="M165.315,131.212l47.189,59.458l-24.158,61.492l-27.456-18.668
	l12.987-31.016c0,0-2.569-0.739,0.625-7.305c3.201-6.561,14.94-5.602,14.94-5.602s-16.473,2.195-19.768-13.178
	c-3.294-15.374-11.158-26.466-11.158-26.466L165.315,131.212z"/>
<g>
	<defs>
		<path id="SVGID_4_" d="M165.315,131.212l47.189,59.458l-24.158,61.492l-27.456-18.668l12.987-31.016c0,0-2.569-0.739,0.625-7.305
			c3.201-6.561,14.94-5.602,14.94-5.602s-16.473,2.195-19.768-13.178c-3.294-15.374-11.158-26.466-11.158-26.466L165.315,131.212z"
			/>
	</defs>
	<clipPath id="SVGID_17_">
		<use xlink:href="#SVGID_4_"  overflow="visible"/>
	</clipPath>
	<g clip-path="url(#SVGID_17_)">
		<path fill-rule="evenodd" clip-rule="evenodd" fill="#221F1F" d="M153.23,143.84l51.031,46.283l-24.154,61.49l-27.452-18.673
			l12.986-31.009c0,0-10.693-1.953-7.49-8.519c3.194-6.561,23.055-4.394,23.055-4.394s-16.466,2.199-19.764-13.173
			c-3.291-15.374-20.49-13.292-20.49-13.292L153.23,143.84z"/>
	</g>
</g>
<path fill-rule="evenodd" clip-rule="evenodd" fill="#361710" d="M113.514,23.582c-2.481-33.245,42.049-32.912,59.221,24.825
	c17.172,57.742-9.948,94.92-2.559,110.444c7.379,15.528,17.784,10.558,17.784,10.558c-13.293,20.581-37.854,11.654-52.729-22.693
	C124.402,121.728,151.885,34.196,113.514,23.582z"/>
<path fill-rule="evenodd" clip-rule="evenodd" fill="#F8A770" d="M116.075,17.263c23.005,0,41.669,23.249,41.669,51.917
	c0,28.665-12.805,52.462-37.48,61.116c-22.591-7.742-45.861-32.451-45.861-61.116C74.403,40.511,93.061,17.263,116.075,17.263z"/>
<g>
	<defs>
		<path id="SVGID_3_" d="M116.075,17.263c23.005,0,41.669,23.249,41.669,51.917c0,28.665-12.805,52.462-37.48,61.116
			c-22.591-7.742-45.861-32.451-45.861-61.116C74.403,40.511,93.061,17.263,116.075,17.263z"/>
	</defs>
	<clipPath id="SVGID_18_">
		<use xlink:href="#SVGID_3_"  overflow="visible"/>
	</clipPath>
	<g clip-path="url(#SVGID_18_)">
		<path fill-rule="evenodd" clip-rule="evenodd" fill="#FDCF9D" d="M104.323,17.263c23.004,0,43.652,22.178,46.097,49.529
			c2.44,27.348-8.331,50.048-32.27,58.305c-23.253-7.384-48.628-30.957-51.075-58.305C64.627,39.44,81.314,17.263,104.323,17.263z"
			/>
		<path fill-rule="evenodd" clip-rule="evenodd" fill="#F8A770" d="M97.727,18.967c0,0,6.25,22.205,22.752,36.553
			c35.406,30.767,26.551,85.543,23.821,85.905c0,0,31.386-56.965,15.286-102.682C143.48-6.974,128.79-0.358,116.499,1.304
			C104.198,2.965,98.625,15.718,97.727,18.967z"/>
	</g>
</g>
<path fill-rule="evenodd" clip-rule="evenodd" fill="#361710" d="M116.899,36.739c0.958-33.241-46.446-46.07-60.966,11.667
	c-14.523,57.742,14.305,94.92,7.638,110.444c-6.67,15.528-17.3,10.558-17.3,10.558c10.583,15.298,32.458,17.7,43.206-8.962
	C103.711,125.159,61.958,42.779,116.899,36.739z"/>
<g>
	<defs>
		<path id="SVGID_2_" d="M116.899,36.739c0.958-33.241-46.446-46.07-60.966,11.667c-14.523,57.742,14.305,94.92,7.638,110.444
			c-6.67,15.528-17.3,10.558-17.3,10.558c10.583,15.298,32.458,17.7,43.206-8.962C103.711,125.159,61.958,42.779,116.899,36.739z"/>
	</defs>
	<clipPath id="SVGID_19_">
		<use xlink:href="#SVGID_2_"  overflow="visible"/>
	</clipPath>
	<g clip-path="url(#SVGID_19_)">
		<path fill-rule="evenodd" clip-rule="evenodd" fill="#663528" d="M122.816,42.204c0.961-33.241-46.443-46.071-60.959,11.671
			c-14.52,57.738,14.308,94.918,7.638,110.44c-6.676,15.523-17.307,10.553-17.307,10.553c10.583,15.303,32.458,17.705,43.212-8.957
			C109.631,130.625,67.881,48.245,122.816,42.204z"/>
	</g>
</g>
<path fill-rule="evenodd" clip-rule="evenodd" fill="#F8A770" d="M119.165,92.972c2.575,0.218,3.385,3.436,5.913,3.188
	c0.544-0.055,1.587-0.524,2.098-0.911c0.625-0.471,1.177-0.511,1.533-0.911c0.403-0.461,0.33-0.974,1.143-1.367
	c0.074-0.039,1.6-0.367,0.76-0.456c-2.286-0.245-3.597,1.594-5.534,1.594c-1.022,0-1.775-0.683-2.864-0.683
	C121.707,93.427,119.921,93.308,119.165,92.972z"/>
<path fill-rule="evenodd" clip-rule="evenodd" fill="#F48366" d="M123.542,105.644c-2.992-1.397-3.442-2.434-6.727-2.034
	c-0.8,0.096-1.54,0.226-2.336,0.279c-0.78,0.052-1.637,0.008-2.659-0.316c-2.199-0.699-0.861,0.711,1.782,2.503
	c2.572,1.752,6.448,3.641,9.211,4.154c0.659,0.064,3.846-0.277,6.132-1.97c2.935-2.175,4.912-5.231,4.417-5.892
	c-0.135-0.185-1.284,0.459-2.605,0.968c-1.204,0.462-2.568,0.751-2.908,0.728C124.944,103.859,124.779,105.392,123.542,105.644z"/>
<path fill-rule="evenodd" clip-rule="evenodd" fill="#59595C" d="M161.21,61.9c-1.291-0.724-8.781-0.613-18.493,0.747
	c-9.726,1.358-15.965,5.669-15.965,5.669s4.38,10.726,9.81,11.672c5.429,0.946,13.602-0.419,18.292-4.583
	C159.543,71.246,161.21,61.9,161.21,61.9z"/>
<path fill="#221F1F" d="M144.025,63.458l-1.176,0.156c-7.631,1.069-13.034,3.979-14.859,5.08c1.072,2.38,4.652,9.614,8.733,10.324
	h0.007c0.713,0.128,1.486,0.208,2.303,0.247c0.824,0.041,1.671,0.032,2.539-0.015c0.807-0.052,1.627-0.134,2.454-0.262v1.985
	c-0.79,0.114-1.563,0.188-2.339,0.235c-0.941,0.055-1.869,0.062-2.75,0.02c-0.881-0.041-1.731-0.135-2.545-0.277l0,0
	c-5.964-1.037-10.533-12.225-10.542-12.257l-0.303-0.738l0.662-0.447c0.014-0.012,6.425-4.44,16.369-5.833l1.449-0.197V63.458z
	 M162.293,61.391l-0.121,0.691c-0.013,0.025-1.721,9.67-6.669,14.061c-2.985,2.652-7.302,4.231-11.478,4.831v-1.985
	c3.752-0.578,7.558-1.987,10.18-4.315c3.597-3.192,5.325-9.712,5.853-12.072c-0.37-0.056-0.82-0.099-1.355-0.123
	c-2.968-0.153-8.273,0.136-14.678,0.98V61.48c6.411-0.835,11.746-1.112,14.775-0.959c0.676,0.032,1.23,0.087,1.664,0.156
	c0.531,0.087,0.935,0.212,1.22,0.373l0,0L162.293,61.391z"/>
<path fill-rule="evenodd" clip-rule="evenodd" d="M132.333,71.315c4.824-4.396,6.468-6.024,12.563-5.528
	c5.248,0.434,6.868,3.404,10.028,2.811c-2.787,5.609-9.145,7.754-14.664,7.944c7.759-2.881,9.104-3.594,10.832-6.958
	c-1.977-1.16-3.752-1.813-5.433-2.079c0.672,0.77,1.035,1.804,0.928,2.901c-0.219,2.091-2.084,3.617-4.182,3.407
	c-2.098-0.213-3.624-2.084-3.409-4.181c0.054-0.543,0.215-1.049,0.474-1.492C137.288,68.851,135.002,69.994,132.333,71.315z"/>
<path fill-rule="evenodd" clip-rule="evenodd" fill="#361710" d="M102.756,25.103c0,0,10.132,20.727,28.945,31.881
	c40.345,23.922,41.448,79.4,38.835,80.246c0,0,20.662-61.668-3.382-103.758C143.124-8.621,129.859,0.521,118.059,4.36
	C106.262,8.203,103.059,21.741,102.756,25.103z"/>
<g>
	<defs>
		<path id="SVGID_1_" d="M102.756,25.103c0,0,10.132,20.727,28.945,31.881c40.345,23.922,41.448,79.4,38.835,80.246
			c0,0,20.662-61.668-3.382-103.758C143.124-8.621,129.859,0.521,118.059,4.36C106.262,8.203,103.059,21.741,102.756,25.103z"/>
	</defs>
	<clipPath id="SVGID_20_">
		<use xlink:href="#SVGID_1_"  overflow="visible"/>
	</clipPath>
	<g clip-path="url(#SVGID_20_)">
		<path fill-rule="evenodd" clip-rule="evenodd" fill="#663528" d="M100.628,33.645c0,0,10.123,20.725,28.941,31.881
			c40.341,23.923,41.448,79.398,38.832,80.248c0,0,20.665-61.673-3.372-103.763c-24.037-42.087-37.296-32.947-49.096-29.106
			C104.134,16.742,100.938,30.285,100.628,33.645z"/>
	</g>
</g>
<path fill-rule="evenodd" clip-rule="evenodd" fill="#59595C" d="M79.953,62.512c1.375-0.817,9.477-0.882,20.029,0.348
	c10.54,1.234,17.397,5.747,17.397,5.747s-4.471,11.706-10.321,12.861c-5.853,1.16-14.725-0.113-19.905-4.5
	C81.984,72.579,79.953,62.512,79.953,62.512z"/>
<path fill="#221F1F" d="M78.76,61.984l0.155,0.745c0.006,0.029,2.098,10.423,7.557,15.047c3.214,2.721,7.739,4.307,12.163,4.893
	v-2.138c-3.967-0.564-7.974-1.985-10.791-4.378c-3.97-3.36-6.004-10.371-6.633-12.913c0.4-0.069,0.897-0.126,1.462-0.168
	c3.227-0.235,8.982-0.055,15.961,0.708v-2.133c-7.009-0.758-12.822-0.931-16.109-0.689c-0.723,0.054-1.328,0.126-1.799,0.213
	c-0.568,0.106-1.012,0.249-1.314,0.429v0.001L78.76,61.984z M98.634,63.78l1.224,0.134c8.28,0.966,14.194,3.98,16.201,5.13
	c-1.106,2.599-4.801,10.512-9.205,11.386l0,0c-0.763,0.149-1.597,0.259-2.481,0.319c-0.891,0.064-1.812,0.077-2.747,0.043
	c-0.981-0.035-1.99-0.121-2.992-0.262v2.138c0.982,0.135,1.95,0.212,2.905,0.246c1.029,0.039,2.031,0.025,2.972-0.044
	c0.955-0.065,1.883-0.187,2.757-0.36l0,0c6.428-1.271,11.087-13.485,11.104-13.521l0.313-0.806l-0.726-0.469
	c-0.02-0.015-7.066-4.647-17.851-5.907l-1.473-0.163V63.78z"/>
<path fill-rule="evenodd" clip-rule="evenodd" d="M111.628,70.718c-5.806-3.782-7.803-5.212-14.106-3.651
	c-5.433,1.348-6.62,4.742-10.039,4.66c3.879,5.402,10.916,6.565,16.731,5.822c-8.633-1.697-10.159-2.213-12.539-5.446
	c1.869-1.55,3.617-2.54,5.338-3.104c-0.575,0.919-0.78,2.066-0.478,3.193c0.585,2.164,2.804,3.441,4.965,2.861
	c2.155-0.58,3.436-2.802,2.861-4.962c-0.154-0.56-0.417-1.059-0.76-1.484C106.017,68.979,108.605,69.787,111.628,70.718z"/>
<path fill-rule="evenodd" clip-rule="evenodd" fill="#221F1F" d="M71.861,206.887c9.521-0.35,21.401-4.295,29.476-8.956
	c1.909-1.106,2.353-2.474,3.674-3.957c2.508-2.822,0.635-0.784-0.924,2.37c-2.532,5.115-8.858,9.231-14.019,12.21
	c-2.737,1.582-5.386,3.467-8.29,3.876C79.667,212.723,71.861,207.921,71.861,206.887z"/>
<path fill-rule="evenodd" clip-rule="evenodd" fill="#221F1F" d="M115.403,72.848c0,0,3.12-0.679,6.223-0.679
	c3.117,0,6.962,0.319,6.962,0.319l-2.279-4.523c0,0-2.434,0.045-4.333-0.128c-1.899-0.175-4.017-0.118-4.017-0.118L115.403,72.848z"
	/>
<path fill-rule="evenodd" clip-rule="evenodd" fill="#221F1F" d="M65.393,249.14c7.046,2.135,14.066,4.012,21.149,5.182
	c7.013,1.171,14.096,1.624,21.146,1.853c0,3.503,0,7.006,0,10.505c0,3.497,0,7.003,0,10.499c-7.05-0.255-14.133-0.773-21.146-1.97
	c-7.083-1.21-15.111,1.392-21.458-2.266C59.043,269.466,61.063,256.995,65.393,249.14z"/>
<path fill-rule="evenodd" clip-rule="evenodd" fill="#221F1F" d="M157.586,249.14c-7.046,2.135-14.062,4.012-21.139,5.182
	c-7.026,1.171-14.103,1.624-21.156,1.853c0,3.503,0,7.006,0,10.505c0,3.497,0,7.003,0,10.499c7.053-0.255,14.129-0.77,21.156-1.97
	c7.073-1.21,14.093-3.046,21.139-5.056c0-3.504,0-7.007,0-10.506C157.586,256.146,157.586,252.643,157.586,249.14z"/>
<linearGradient id="SVGID_21_" gradientUnits="userSpaceOnUse" x1="691.7134" y1="279.4741" x2="655.0701" y2="184.015" gradientTransform="matrix(-1 0 0 1 798.3096 0)">
	<stop  offset="0" style="stop-color:#221F1F"/>
	<stop  offset="1" style="stop-color:#FFFFFF"/>
</linearGradient>
<path fill-rule="evenodd" clip-rule="evenodd" fill="url(#SVGID_21_)" d="M100.645,253.871v22.803h18.086v-3.188h-14.896v-16.43
	h14.896v-3.186H100.645L100.645,253.871z M113.998,267.077v-3.607h4.733v3.607H113.998z M118.731,253.871v3.186h1.537v5.33h3.184
	v-8.515H118.731L118.731,253.871z M118.731,273.487v3.188h4.72v-8.512h-3.184v5.324H118.731L118.731,273.487z M126.144,263.469
	v3.607h-7.413v-3.607H126.144z"/>
<path fill-rule="evenodd" clip-rule="evenodd" fill="#221F1F" d="M169.652,224.908l-24.659,8.247l-3.12,3.469l0.888,4.323
	l4.962,0.292l-4.104,2.728l0.393,3.347l4.915,0.95l-3.775,2.039l0.242,3.426l2.407,0.619l-2.021,1.703l1.419,3.546
	c6.148-0.154,13.84,4.808,18.442-0.464l11.35-10.69L169.652,224.908z"/>
<path fill-rule="evenodd" clip-rule="evenodd" fill="#F48120" d="M104.484,20.629c-33.208-2.63-36.872,27.785-35.07,59.517
	c1.58,27.619,24.299,94.742-22.181,89.596c80.42,23.341-9.221-139.172,54.185-144.586C103.059,21.452,100.766,20.673,104.484,20.629
	z"/>
</svg>
