<!DOCTYPE svg PUBLIC "-//W3C//DTD SVG 1.1//EN" "http://www.w3.org/Graphics/SVG/1.1/DTD/svg11.dtd" [
	<!ENTITY ns_flows "http://ns.adobe.com/Flows/1.0/">
]><svg xmlns="http://www.w3.org/2000/svg" width="200" height="200" viewBox="3.396 0.017 200 200" enable-background="new 3.396 0.017 200 200"><path fill="#58585C" d="M67.304 127.164v-10.411c0-1.617-1.048-2.629-2.44-3.203-11.82-4.889-23.639-9.774-35.458-14.661 12.084-5.673 24.168-11.345 36.252-17.019 1.032-.484 1.646-1.781 1.646-2.87v-11.372c0-2.645-2.791-3.975-5.002-2.87-19 9.49-38 18.982-57 28.471-1.027.515-1.646 1.76-1.646 2.871v7.062c0 1.068.61 2.414 1.646 2.871 19 8.362 38.001 16.721 57 25.083.308.136.61.209.909.259 1.758.361 3.802-.539 4.05-2.698.144-.505.173-1.024.043-1.513zM127.975 53.3c-.522-.47-1.227-.779-2.134-.779h-12.894c-1.578 0-2.681 1.036-3.205 2.44-10.599 28.432-21.198 56.865-31.797 85.296-.767 2.057 1.189 4.207 3.206 4.207h12.952c1.577 0 2.682-1.036 3.206-2.441l31.738-85.293c.577-1.554-.029-2.759-1.072-3.43zM201.749 93.23c-19.001-9.489-38-18.981-57.001-28.471-2.212-1.104-5.002.225-5.002 2.87v11.372c0 1.088.613 2.386 1.646 2.87 12.085 5.673 24.169 11.345 36.255 17.019-11.821 4.886-23.641 9.772-35.462 14.661-.168.068-.312.158-.458.243-1.109.431-1.981 1.412-1.981 2.96v11.495c0 2.736 2.773 3.85 5.002 2.869l57.001-25.083c1.036-.457 1.647-1.803 1.647-2.871v-7.062c0-1.112-.62-2.357-1.647-2.872z"/></svg>