<!DOCTYPE svg PUBLIC "-//W3C//DTD SVG 1.1//EN" "http://www.w3.org/Graphics/SVG/1.1/DTD/svg11.dtd" [
	<!ENTITY ns_flows "http://ns.adobe.com/Flows/1.0/">
]><svg xmlns="http://www.w3.org/2000/svg" width="250" height="55" viewBox="0.032 -0.762 250 55" enable-background="new 0.032 -0.762 250 55"><path fill="#57585B" d="M7.728.01h8.689v7.787h-8.689zM40.232 35.814h-6.656c-2.173 0-3.62-.344-4.346-1.041-.722-.705-1.09-2.096-1.09-4.188v-19.213h-8.25v19.878c0 4.009 1.021 6.925 3.061 8.749 2.043 1.813 5.369 2.727 9.964 2.727h15.6v-31.354h-8.283v24.442zM7.728 40.751c0 2.419-.312 4.133-.942 5.118-.627.984-1.686 1.479-3.155 1.479h-3.631v6.596h5.343c3.824 0 6.622-1.037 8.397-3.105 1.785-2.074 2.677-5.348 2.677-9.8v-29.982h-8.689v29.694zM52.381 0h8.629v42.726h-8.629zM111.458 23.582h-7.5c-1.351 0-2.341-.227-2.978-.684-.623-.454-.941-1.171-.941-2.143 0-1.063.358-1.804 1.072-2.223.724-.416 2.272-.624 4.654-.624h14.623v-6.537h-17.788c-3.782 0-6.568.792-8.372 2.38-1.802 1.585-2.7 4.066-2.7 7.438 0 3.316.745 5.625 2.229 6.926 1.502 1.299 4.371 1.946 8.602 1.946h7.157c1.526 0 2.646.246 3.373.741.713.488 1.067 1.271 1.067 2.329 0 1.075-.354 1.853-1.059 2.338-.708.481-1.835.723-3.382.723h-29.808000000000003c-3.124 0-5.172-.417-6.124-1.24-.963-.824-1.473-2.354-1.553-4.605h18.685v-6.536h-18.684c.08-2.231.63-3.771 1.662-4.622 1.044-.854 3.07-1.28 6.065-1.28h10.958v-6.537h-12.086c-5.172 0-9.103 1.33-11.779 3.975-2.669 2.659-4.007 6.557-4.007 11.72 0 5.148 1.326 9.054 4 11.693 2.665 2.65 6.596 3.967 11.787 3.967h34.805c2.52 0 4.587-.914 6.181-2.728 1.592-1.819 2.397-4.186 2.397-7.09 0-3.019-.902-5.33-2.71-6.925-1.796-1.6-4.414-2.402-7.846-2.402M215.607 26.909c.898-.656 1.615-1.407 2.141-2.251.785-1.273 1.185-2.828 1.185-4.615 0-1.502-.32-2.87-.95-4.078-.637-1.214-1.57-2.212-2.771-2.975-.843-.53-1.92-.911-3.201-1.134-1.231-.222-2.831-.334-4.747-.334h-15.479v7.14h15.599c1.122 0 1.961.201 2.412.579.406.342.612.948.612 1.804 0 .852-.199 1.434-.612 1.784-.465.394-1.275.592-2.412.592h-15.599v7.063h15.695c1.119 0 1.945.206 2.395.599.414.355.616.968.616 1.864 0 .881-.197 1.481-.612 1.841-.444.384-1.271.582-2.398.582h-15.695v7.063h16.54c3.541 0 6.224-.723 7.963-2.142 1.811-1.462 2.727-3.728 2.727-6.733 0-1.806-.418-3.35-1.236-4.574-.537-.793-1.263-1.494-2.173-2.075M142.448 39.322c.691.898 1.482 1.614 2.372 2.14 1.342.786 2.98 1.185 4.863 1.185 1.583 0 3.023-.32 4.296-.949 1.28-.638 2.332-1.57 3.136-2.771.559-.843.96-1.92 1.194-3.201.234-1.231.352-2.832.352-4.748v-19.751h-7.522v19.868c0 1.122-.213 1.961-.61 2.413-.36.405-.999.612-1.901.612-.896 0-1.51-.199-1.879-.612-.416-.466-.625-1.276-.625-2.413v-19.868h-7.442v19.965c0 1.119-.217 1.945-.631 2.396-.374.414-1.02.615-1.964.615-.928 0-1.562-.197-1.94-.612-.403-.443-.613-1.271-.613-2.398v-19.966h-7.443v20.811c0 3.54.762 6.223 2.256 7.962 1.541 1.811 3.93 2.727 7.098 2.727 1.902 0 3.529-.417 4.82-1.235.833-.534 1.571-1.262 2.183-2.17M166.267 15.494c-2.375 2.612-3.579 6.646-3.579 11.996 0 2.754.395 5.163 1.179 7.166.807 2.054 2.032 3.743 3.638 5.02 1.219.988 2.562 1.71 3.99 2.137 1.386.408 3.283.62 5.63.62h10.707v-6.983h-10.41c-2.18 0-3.725-.457-4.579-1.358-.746-.775-1.188-2.051-1.308-3.802h16.297v-6.982l-16.198-.017c.204-1.498.7-2.642 1.476-3.41.928-.912 2.379-1.377 4.313-1.377h10.41v-6.982h-10.527c-4.921 0-8.637 1.336-11.039 3.972M248.762 28.983c-.534-.792-1.266-1.493-2.172-2.074.897-.656 1.614-1.407 2.141-2.251.786-1.271 1.187-2.825 1.187-4.615 0-1.508-.32-2.88-.953-4.078-.639-1.215-1.563-2.212-2.768-2.976-.838-.527-1.913-.91-3.193-1.133-1.238-.222-2.844-.333-4.757-.333h-15.843v7.139h15.965c1.123 0 1.96.198 2.416.579.408.342.611.948.611 1.804 0 .849-.201 1.434-.615 1.786-.459.387-1.289.59-2.412.59h-15.965v7.063h16.061c1.123 0 1.946.206 2.393.595.409.357.621.984.621 1.869 0 .879-.202 1.48-.612 1.84-.313.267-.98.582-2.401.582h-16.061v7.063h16.907c3.59 0 6.195-.702 7.963-2.142 1.805-1.458 2.727-3.727 2.727-6.733-.002-1.813-.426-3.351-1.24-4.575"/></svg>