<!DOCTYPE svg PUBLIC "-//W3C//DTD SVG 1.1//EN" "http://www.w3.org/Graphics/SVG/1.1/DTD/svg11.dtd" [
	<!ENTITY ns_flows "http://ns.adobe.com/Flows/1.0/">
]><svg xmlns="http://www.w3.org/2000/svg" width="712" height="398" viewBox="0 0 712 398"><path fill="#fff" d="M101.551 325.438v-6.56h-20.149c.806-.778 1.307-1.833 1.307-2.999v-2.933h.007c8.24-1.595 9.464-18.469 8.297-28.738-1.233-10.886-7.488-36.418-18.938-45.864-2.971-2.446-9.145-4.014-16.297-4.169-.384-.009-.771-.015-1.167-.015s-.784.006-1.168.015c-7.153.155-13.329 1.723-16.296 4.169-11.452 9.446-17.706 34.979-18.94 45.864-1.166 10.27.06 27.144 8.299 28.738.409.078.875.16 1.375.235v2.697c0 1.166.503 2.221 1.31 2.999h-22.826v6.56h10.262v65.673h-10.262v6.559h95.187v-6.559h-3.608v-65.673h3.607zm-50.316-6.56h-15.296c.807-.778 1.31-1.833 1.31-2.999v-1.588c4.567.413 9.115.686 12.68.753v.835c0 1.166.501 2.221 1.306 2.999zm23.414 0h-16.665c.805-.778 1.31-1.833 1.31-2.999v-.835c3.935-.08 9.087-.399 14.049-.882v1.717c0 1.166.504 2.221 1.306 2.999zm-45.519-2.999v-3.677l-.522-.077c-.679-.107-1.317-.212-1.848-.313-7.038-1.361-8.514-16.887-7.312-27.479 1.218-10.739 7.35-35.899 18.528-45.12 1.439-1.189 3.728-2.153 6.564-2.824.249 1.128 4.653 2.027 10.071 2.027-3.53 0-6.389-.604-6.389-1.347 0-.745 2.858-1.346 6.389-1.346 3.53 0 6.387.601 6.387 1.346 0 .743-2.857 1.347-6.387 1.347 5.417 0 9.822-.899 10.071-2.027 2.833.672 5.125 1.635 6.562 2.824 11.177 9.221 17.31 34.381 18.528 45.12 1.201 10.592-.272 26.117-7.31 27.479l-1.002.181v3.887c0 1.393-.969 2.565-2.31 2.999h-2.249c-1.339-.434-2.309-1.606-2.309-2.999v-3.006l-.693.069c-5.396.538-11.094.897-15.237.947l-.619.012v1.978c0 1.393-.967 2.565-2.307 2.999h-2.25c-1.338-.434-2.31-1.606-2.31-2.999v-1.978l-.615-.012c-3.786-.048-8.842-.345-13.874-.813l-.689-.065v2.867c0 1.393-.969 2.565-2.309 2.999h-2.249c-1.339-.433-2.31-1.606-2.31-2.999zm62.258 75.232h-5.598v-45.837l-23.813-1.201-30.851 2.069v44.969h-7.944v-65.673h68.207v65.673zM30.22 306.895l.318 1.117c.445-.107 10.97-2.787 15.398-12.211 5.542-11.772 8.316-34.683-1.471-50.166 2.171-2.346 4.007-3.963 5.1-5.093-3.897.413-5.364-1.043-5.364-1.043s-1.082.609-2.722 2.098c-.536-.605-1.138-.673-1.557-.628-2.32.262-4.926 5.259-5.425 6.256 0 0 2.945-5.105 5.577-5.105.122 0 .253.003.435.21l.085.103c-6.299 6.221-18.297 23.606-14.513 63.726-.625-34.341 10.055-51.169 17.535-59.586 9.313 15.108 6.57 37.313 1.176 48.769-4.182 8.897-14.467 11.527-14.572 11.553zM79.232 308.012l.319-1.117c-.105-.026-10.388-2.656-14.575-11.555-5.921-12.586-8.655-38.14 4.285-53.011.182-.21.309-.21.436-.21 2.408 0 5.576 5.105 5.576 5.105-.499-.997-3.104-5.994-5.422-6.256-.419-.045-1.027.022-1.561.633-13.263 15.247-10.499 41.357-4.458 54.199 4.435 9.425 14.954 12.105 15.4 12.212z"/><ellipse transform="matrix(-.13 .992 -.992 -.13 403.928 15.892)" fill="#fff" cx="194.989" cy="185.219" rx="8.198" ry="5.058"/><path fill="#fff" d="M637.111 144.317c2.77.364 5.492-2.98 6.079-7.469.586-4.492-1.184-8.425-3.953-8.785-2.77-.364-5.49 2.98-6.077 7.472-.586 4.49 1.181 8.423 3.951 8.782z"/><ellipse transform="matrix(-.13 .992 -.992 -.13 897.337 -417.195)" fill="#fff" cx="631.764" cy="185.219" rx="8.198" ry="5.059"/><path fill="#fff" d="M197.333 167.283c2.77.36 5.493-2.984 6.079-7.473.587-4.493-1.183-8.425-3.953-8.785-2.77-.364-5.49 2.984-6.076 7.473-.587 4.489 1.181 8.421 3.95 8.785zM634.108 167.283c2.77.36 5.493-2.984 6.079-7.473.586-4.493-1.184-8.425-3.953-8.785-2.77-.364-5.489 2.984-6.077 7.473-.586 4.489 1.181 8.421 3.951 8.785zM200.336 144.317c2.77.364 5.493-2.98 6.079-7.469.587-4.492-1.183-8.425-3.953-8.785-2.77-.364-5.49 2.98-6.077 7.472-.587 4.49 1.182 8.423 3.951 8.782zM545.749 184.526c-.81-1.813-1.829-3.501-3.086-5.045-2.073-2.544-4.655-4.588-7.524-6.236l5.324 11.281h5.286zM703.145 211.036h-17.513v-29.856h-4.09l2.162-10.949-4.361-.862-2.335 11.812h-2.132l1.311-7.405-.914-6.847-3.208 6.117-1.44 8.135h-1.44l-2.031-8.103-3.632-5.876-.43 6.894 1.777 7.084h-1.885v29.856h-16.603c.429-.649.682-1.427.682-2.265v-.553c0-2.276-1.848-4.123-4.127-4.123h-4.153c.931-1.415 1.599-3.026 1.83-4.796l9.677-74.023c.399-3.045-.412-6.07-2.286-8.507s-4.585-3.998-7.635-4.398l-1.386-.18c-6.354-.83-12.096 3.716-12.904 9.921l-9.681 74.023c-.369 2.833.347 5.621 1.948 7.96h-4.851c-2.28 0-4.127 1.847-4.127 4.123v.553c0 .838.254 1.615.681 2.265h-54.733l-.067.233-1.5-.466c4.506-14.468 3.215-26.331-3.832-35.258-10.431-13.208-30.586-16.998-42.843-18.059-5.436-.318-10.756-.227-15.608.207l-.38.069c-.146-3.973 1.763-6.814 5.29-7.043 3.217-.206 6.996 1.821 10.08 5.044 6.13.499 13.971 1.699 21.683 4.217l-2.943-7.808 3.826 8.107c8.458 2.879 16.658 7.368 22.128 14.295 2.377 3.011 4.122 6.334 5.253 9.952h37.968c4.988 0 9.144-3.498 10.193-8.166l.017.004c4.611-15.601 6.496-25.259 6.496-56.418 0-31.158-3.472-46.161-6.511-57.672l-.016.025c-1.068-4.646-5.209-8.123-10.18-8.123h-202.324c-5.78 0-10.466 4.689-10.466 10.465v109.42c0 5.776 4.686 10.465 10.466 10.465h69.813c9.94-.041 7.09-32.354 7.09-32.354l6.567 35.017c3.348 11.908 4.818 21.521.84 21.521h-38.787s-1.351 1.206-1.877 2.326h-226.085c.427-.649.681-1.427.681-2.265v-.553c0-2.276-1.848-4.123-4.126-4.123h-4.153c.93-1.415 1.598-3.026 1.829-4.796l9.678-74.023c.399-3.045-.413-6.07-2.287-8.507-1.875-2.437-4.585-3.998-7.634-4.398l-1.386-.18c-6.355-.83-12.096 3.716-12.906 9.921l-9.68 74.023c-.368 2.833.348 5.621 1.948 7.96h-1.134l-24.75-118.942c1.309-2.812 2.118-6.127 2.281-9.7l77.783-48.748 3.012 3.156 4.069 34.028c-.046.266-.041.486.074.609v.004l.002-.004c1.269 1.32 12.09-6.966 24.172-18.51s20.85-21.973 19.591-23.301h-.002c-.114-.123-.335-.135-.603-.102l-33.807-5.617-12.83-13.429c-3.561-3.728-9.468-3.862-13.196-.302-3.652 3.491-3.831 9.222-.487 12.954l-75.088 40.368c-1.964-1.513-4.212-2.372-6.6-2.372-7.708 0-13.954 8.928-13.954 19.945 0 5.069 1.333 9.68 3.511 13.2l15.011 123.704h-52.413v9.64l9.684.001v17.426h.707v157.426h11.008v-157.427h19.268v157.426h11.009v-157.426h493.185v157.426h11.009v-157.426h20.613v157.426h11.009v-157.426h13.788v-17.234l5.652.001v-9.833zm-114.707-43.226c2.408 0 4.358 2.461 4.358 5.494s-1.95 5.49-4.358 5.49c-2.405 0-4.357-2.457-4.357-5.49 0-3.033 1.952-5.494 4.357-5.494zm30.036 28.595l.713-5.45c.718 1.325 1.737 2.229 2.979 2.392.703.09 1.4-.057 2.062-.4-2.086-1.149-3.311-4.554-2.81-8.385.439-3.352 2.066-6.062 4.016-7.072-.359-.196-.735-.348-1.142-.4-1.241-.164-2.46.445-3.493 1.541l1.796-13.739c.718 1.325 1.737 2.228 2.979 2.392.703.09 1.4-.062 2.062-.405-2.086-1.148-3.308-4.549-2.808-8.38.438-3.352 2.066-6.063 4.015-7.072-.359-.197-.736-.348-1.143-.401-1.238-.164-2.46.446-3.491 1.541l1.39-10.637c.718 1.325 1.737 2.228 2.979 2.388.701.094 1.399-.058 2.063-.401-2.087-1.148-3.311-4.55-2.81-8.38.438-3.352 2.066-6.062 4.016-7.072-.361-.201-.736-.348-1.144-.4-1.237-.164-2.458.445-3.49 1.537l.944-7.22c.608-4.672 4.619-8.196 9.324-8.196.407 0 .819.024 1.234.077l1.386.185c2.493.327 4.712 1.603 6.244 3.597 1.533 1.995 2.197 4.468 1.87 6.962l-9.679 74.023c-.252 1.946-1.111 3.688-2.354 5.066h-15.154c-.229-.242-.474-.463-.681-.729-1.534-1.995-2.2-4.469-1.873-6.962zm-117.494-31.225c9.504-.396 32.182.158 42.896 13.306 6.397 7.851 7.356 18.882 2.853 32.791l-.745-.241h-1.094c.181-.18.327-.376.452-.587.15-.472.29-.938.427-1.403.297-3.258-2.747-9.602-8.579-24.52h.196l-4.737-12.573c-6.475-3.066-14.012-4.404-20.497-4.934.535 4.499-1.359 7.827-5.181 8.072-4.581.294-10.307-3.92-13.527-9.701 2.504-.173 5.02-.228 7.536-.21zm-7.772-97.486c2.525-2.617 6.237-1.701 6.237-1.701s.654 2.747-2.783 4.317c-3.438 1.569-5.369.699-5.369.699s-.613-.699 1.915-3.315zm-.763 5.343c5.191-.324 9.743 4.868 10.164 11.597.422 6.729-3.444 12.447-8.636 12.774-5.19.323-9.744-4.869-10.165-11.597-.42-6.728 3.444-12.447 8.637-12.774zm-310.746 123.368l.714-5.45c.717 1.325 1.737 2.229 2.978 2.392.703.09 1.4-.057 2.063-.4-2.086-1.149-3.312-4.554-2.811-8.385.44-3.352 2.069-6.062 4.017-7.072-.36-.196-.736-.348-1.143-.4-1.241-.164-2.459.445-3.493 1.541l1.797-13.739c.717 1.325 1.737 2.228 2.978 2.392.703.09 1.4-.062 2.063-.405-2.086-1.148-3.309-4.549-2.808-8.38.438-3.352 2.066-6.063 4.014-7.072-.36-.197-.736-.348-1.143-.401-1.241-.164-2.459.446-3.491 1.541l1.39-10.637c.718 1.325 1.74 2.228 2.978 2.388.704.094 1.4-.058 2.063-.401-2.086-1.148-3.309-4.55-2.808-8.38.438-3.352 2.066-6.062 4.014-7.072-.36-.201-.736-.348-1.143-.4-1.239-.164-2.459.445-3.491 1.537l.944-7.22c.609-4.672 4.619-8.196 9.324-8.196.407 0 .82.024 1.235.077l1.386.185c2.493.327 4.711 1.603 6.244 3.597 1.533 1.995 2.197 4.468 1.87 6.962l-9.678 74.023c-.253 1.946-1.112 3.688-2.354 5.066h-15.154c-.229-.242-.476-.463-.681-.729-1.534-1.995-2.2-4.469-1.874-6.962zm48.05-175.979l2.054 2.15-75.174 42.935c-.464-1.377-1.026-2.677-1.69-3.859l74.81-41.226zm-85.74 73.647l.049.004c1.312 0 2.577-.278 3.781-.76l19.922 117.719h-5.016l-18.736-116.963z"/><path fill="#E53840" d="M399.144 175.308c-1.156 0-2.092-.937-2.092-2.093s.936-2.093 2.092-2.093c1.158 0 2.094.936 2.094 2.093s-.936 2.093-2.094 2.093zm7.414.834h-3.14v-7.326h3.14v7.326zm5.756 0h-3.14v-7.326h3.14v7.326zm5.756 0h-3.141v-7.326h3.141v7.326zM394.958 119.32c0-23.753-2.246-45.125-5.827-60.017 2.424 16.505 3.873 37.343 3.873 60.017 0 22.671-1.449 43.507-3.873 60.016 3.581-14.896 5.827-36.266 5.827-60.016zM387.574 128.894c0 .407-.484.738-1.081.738-.595 0-1.079-.331-1.079-.738v-48.219c0-.407.484-.738 1.079-.738.597 0 1.081.331 1.081.738v48.219zM387.574 151.091c0 .597-.484 1.081-1.081 1.081-.595 0-1.079-.484-1.079-1.081v-15.072c0-.595.484-1.079 1.079-1.079.597 0 1.081.484 1.081 1.079v15.072z"/></svg>