<?xml version="1.0" encoding="utf-8"?>
<!-- Generator: Adobe Illustrator 15.1.0, SVG Export Plug-In  -->
<!DOCTYPE svg PUBLIC "-//W3C//DTD SVG 1.1//EN" "http://www.w3.org/Graphics/SVG/1.1/DTD/svg11.dtd" [
	<!ENTITY ns_flows "http://ns.adobe.com/Flows/1.0/">
]>
<svg version="1.1"
	 xmlns="http://www.w3.org/2000/svg" xmlns:xlink="http://www.w3.org/1999/xlink" xmlns:a="http://ns.adobe.com/AdobeSVGViewerExtensions/3.0/"
	 x="0px" y="0px" width="271px" height="364px" viewBox="171.424 0 271 364" enable-background="new 171.424 0 271 364"
	 xml:space="preserve">
<defs>
</defs>
<rect y="80.607" display="none" fill="#E53840" width="564.195" height="201"/>
<path fill="#FFFFFF" d="M418.237,124.487c-2.481-10.283-8.396-21.036-19.117-28.431c-24.207-16.7-44.558-7.673-44.558-7.673
	s-58.595,13.016-62.443,32.836c-2.171,11.193,4.809,22.943,4.809,22.943l-2.419,42.332l82.113,33.073l0.79,27.848h-92.974
	c-7.562,0-13.686,5.189-13.686,11.599v3.093c0,6.416,6.124,11.609,13.686,11.609h68.621v56.377v2.389l-28.214,9.428
	c-0.202-0.036-0.395-0.11-0.597-0.11h-0.008l0,0h-11.993c-3.313,0-5.992,4.931-5.992,11.016c0,6.09,2.679,11.026,5.992,11.026
	h11.993l0,0h0.004c3.306,0,5.989-4.937,5.989-11.026c0-2.776-0.575-5.289-1.5-7.227l23.092-6.117l-4.074,4.557h-9.906
	c-3.008,0-5.457,4.486-5.457,10.014c0,5.531,2.449,10.014,5.457,10.014h10.884v-0.004c0.004,0,0.004,0.004,0.008,0.004
	c3.011,0,5.445-4.482,5.445-10.014c0-3.555-1.013-6.658-2.531-8.436l7.035-6.867l27.044,7.166c-1.272,1.831-2.026,4.042-2.026,6.438
	c0,6.249,5.069,11.308,11.318,11.308s11.312-5.059,11.312-11.308s-5.063-11.314-11.312-11.314c-1.742,0-3.373,0.423-4.845,1.127
	l-29.963-9.736v-58.702h40.083c7.561,0,13.686-5.193,13.686-11.609v-3.093c0-5.449-4.43-10.003-10.401-11.251
	c3.942-0.031,10.437-1.66,13.764-11.258c12.064-34.856,20.333-85.148,24.869-110.866
	C443.848,116.363,435.659,114.638,418.237,124.487z"/>
<path fill="#F2F2F2" d="M242.058,222.72c0,0-56.354,38.657-69.675,2.176c-5.826-16.54,16.829-23.276,16.829-23.276l44.051,2.261
	L242.058,222.72z"/>
<path fill="#333332" d="M247.681,220.044c0,0-38.281,16.924-53.501,16.742c-4.536-0.054-13.312-4.439-16.559-11.055
	c-5.041-10.27,2.389-25.729,15.865-24.211c22.741,2.556,29.275-0.047,29.275-0.047s16.94-7.493,22.24-8.897
	c5.302-1.404,13.468,15.356,13.468,15.356L247.681,220.044z"/>
<path fill="#F2F2F2" d="M191.113,202.558c0,0,7.274,2.343,10.986,11.773c3.966,10.088,2.993,18.051,2.993,18.051
	s-4.533,2.527-8.732,1.728c-4.206-0.796-15.799-4.447-17.604-13.689C175.737,204.968,191.113,202.558,191.113,202.558z"/>
<path fill="#F2F2F2" d="M205.584,207.854c4.528,4.454,5.99,10.408,5.887,16.597c-0.032,2.111,3.239,2.111,3.275,0
	c0.114-7.042-1.722-13.877-6.848-18.918C206.393,204.055,204.078,206.365,205.584,207.854L205.584,207.854z"/>
<path fill="#F2F2F2" d="M211.97,207.176c4.379,3.874,5.999,9.149,5.89,14.883c-0.042,2.115,3.231,2.104,3.272,0
	c0.125-6.537-1.858-12.782-6.848-17.197C212.711,203.465,210.388,205.771,211.97,207.176L211.97,207.176z"/>
<path fill="#F2F2F2" d="M218.356,206.212c4.317,3.669,6,8.663,5.888,14.229c-0.041,2.108,3.23,2.104,3.274,0
	c0.127-6.355-1.919-12.359-6.848-16.547C219.071,202.537,216.746,204.844,218.356,206.212L218.356,206.212z"/>
<path fill="#231F20" d="M278.867,100.729c1.779,3.982,7.479,5.305,12.741,2.957l1.85-0.826c5.259-2.349,8.083-7.474,6.307-11.459
	l-4.291-9.611c-1.777-3.978-7.482-5.304-12.74-2.956l-1.851,0.826c-5.26,2.348-8.083,7.479-6.306,11.457L278.867,100.729z"/>
<path fill="#FCD09E" d="M280.181,96.723c1.777,3.978,6.45,5.765,10.43,3.985l1.4-0.626c3.979-1.774,5.768-6.444,3.99-10.426
	l-4.291-9.61c-1.777-3.978-6.447-5.765-10.426-3.987l-1.401,0.623c-3.98,1.779-5.77,6.447-3.993,10.425L280.181,96.723z"/>
<path fill="#231F20" d="M369.171,60.413c1.777,3.987-0.007,8.65-3.992,10.428l-1.4,0.625c-3.984,1.777-8.648-0.004-10.426-3.991
	l-4.29-9.608c-1.777-3.981,0.01-8.65,3.988-10.422l1.403-0.629c3.981-1.777,8.649,0.008,10.427,3.99L369.171,60.413z"/>
<path fill="#FCD09E" d="M365.304,58.718c1.777,3.982-0.011,8.646-3.985,10.423l-1.404,0.625c-3.984,1.781-8.651-0.004-10.426-3.987
	l-4.294-9.612c-1.773-3.982,0.007-8.648,3.992-10.428l1.404-0.625c3.978-1.776,8.645,0.008,10.426,3.99L365.304,58.718z"/>
<g>
	<defs>
		<path id="XMLID_1_" d="M279.178,74.392l35.091-15.666l35.085-15.664c0,0,34.385,35.164-17.201,81.824
			C293.975,114.627,279.178,74.392,279.178,74.392z"/>
	</defs>
	<use xlink:href="#XMLID_1_"  overflow="visible" fill="#FCD09E"/>
	<clipPath id="XMLID_2_">
		<use xlink:href="#XMLID_1_"  overflow="visible"/>
	</clipPath>
	<path clip-path="url(#XMLID_2_)" fill="#C2B59B" d="M321.296,127.495c1.237,2.783,6.513,3.131,11.78,0.778
		c5.262-2.349,8.524-6.508,7.284-9.291c-1.248-2.783-6.523-3.135-11.784-0.782C323.309,120.552,320.052,124.708,321.296,127.495z"/>
</g>
<path fill="#231F20" d="M311.678,52.929c-14.898,6.651-27.298,16.291-36.54,27.539l-8.942-20.032
	c-9.149-20.494,0.045-44.524,20.541-53.676l7.212-3.219c20.494-9.151,44.534,0.044,53.681,20.538l8.939,20.035
	C342.032,43.48,326.572,46.277,311.678,52.929z"/>
<path fill="#231F20" d="M287.695,40.608c16.108-6.942,50.856-14.922,66.596-11.665c0.05,0.009,0.096,0.017,0.146,0.028
	c0.004,0,0.011,0,0.015,0c1.18,0.251,1.717,0.954,1.788,1.766c4.439,9.939,7.617,17.059,12.054,27.004
	c0.981,2.191-1.656,3.719-4.12,3.858c-67.436,3.924-81.131,23.888-81.085,36.198c0.011,2.472-4.649,2.69-5.628,0.495
	c-2.675-5.992-4.083-9.148-6.758-15.139c-1.499-3.357-2.997-6.716-4.495-10.071C264.588,69.452,272.28,47.249,287.695,40.608z"/>
<path fill="#231F20" d="M315.446,80.538l-3.967-8.88c-0.893-2.003,0.362-4.52,2.797-5.604l15.029-6.714
	c2.432-1.083,5.137-0.335,6.032,1.668l3.968,8.88c0.889,1.999-0.363,4.515-2.794,5.599l-15.029,6.71
	C319.054,83.286,316.338,82.537,315.446,80.538z M315.208,68.151c-1.148,0.515-1.777,1.624-1.4,2.468l3.964,8.881
	c0.38,0.842,1.624,1.115,2.775,0.604l15.029-6.71c1.159-0.516,1.781-1.625,1.404-2.47l-3.963-8.88
	c-0.377-0.842-1.621-1.118-2.773-0.604L315.208,68.151z"/>
<path fill="#231F20" d="M285.518,93.898l-3.962-8.881c-0.895-1.998,0.357-4.515,2.789-5.601l15.032-6.712
	c2.433-1.083,5.142-0.337,6.034,1.664l3.968,8.878c0.889,2.001-0.359,4.518-2.795,5.606L291.55,95.56
	C289.121,96.645,286.413,95.901,285.518,93.898z M285.279,81.511c-1.149,0.514-1.777,1.625-1.398,2.471l3.961,8.877
	c0.378,0.845,1.623,1.12,2.773,0.608l15.034-6.714c1.151-0.512,1.781-1.621,1.404-2.47l-3.963-8.877
	c-0.377-0.847-1.625-1.122-2.779-0.604L285.279,81.511z"/>
<path fill="#231F20" d="M316.864,70.382c0.349,0.778,1.148,1.181,1.788,0.893l13.931-6.219c0.641-0.284,0.879-1.15,0.53-1.926l0,0
	c-0.345-0.777-1.148-1.173-1.784-0.893l-13.935,6.222C316.757,68.746,316.519,69.61,316.864,70.382L316.864,70.382z"/>
<path fill="#231F20" d="M327.738,67.219L327.738,67.219c1.038,2.329,0.327,4.92-1.596,5.778c-1.923,0.858-4.326-0.336-5.368-2.666
	l0,0L327.738,67.219z"/>
<path fill="#231F20" d="M300.244,77.805c0.349,0.78,0.111,1.642-0.531,1.93l-13.933,6.214c-0.636,0.288-1.44-0.111-1.788-0.892l0,0
	c-0.345-0.772-0.106-1.638,0.532-1.921l13.93-6.22C299.099,76.629,299.898,77.032,300.244,77.805L300.244,77.805z"/>
<path fill="#231F20" d="M290.627,83.789L290.627,83.789c1.039,2.33,3.447,3.528,5.369,2.666c1.919-0.857,2.636-3.444,1.595-5.773
	l0,0L290.627,83.789z"/>
<rect x="304.111" y="73.075" transform="matrix(0.9132 -0.4075 0.4075 0.9132 -3.44 132.3834)" fill="#231F20" width="9.844" height="2.382"/>
<path fill="#FCD09E" d="M385.313,144.868l-0.807,28.572l-27.872-2.813l9.011,18.523l39.084,3.893l7.287-43.337
	c0,0,3.121-5.502-9.04-9.83C387.474,134.358,385.313,144.868,385.313,144.868z"/>
<path fill="#F2F2F2" d="M260.141,201.619l-27.822-53.922c0,0-5.78-8.741,0-10.842c5.781-2.103,101.999-22.675,101.999-22.675
	s8.9-2.867,12.86,6.75c3.957,9.61,17.266,58.125,17.266,58.125l25.949,12.558l-39.663-2.73L260.141,201.619z"/>
<path fill="#231F20" d="M363.818,180.565c-1.305-0.737-2.374-1.269-3.106-1.51c-25.384-8.35-87.49,15.491-115.158,16.557
	c-8.444,0.319-14.689,6.945-15.803,19.935c-0.463,5.396,8.063,2.982,18.23,2.634c2.307-0.078,5.498,0.054,9.354,0.345
	c-2.306,3.537-4.134,7.682-4.649,12.396c-1.757,16.074-9.701,99.15-9.701,99.15l38.165,0.288l5.152-81.938l46.395,7.18l34.342-0.12
	c0,0,15.616-2.88,35.721-25.385C420.127,210.652,376.107,186.715,363.818,180.565z"/>
<polygon fill="#CACBD0" points="252.047,326.698 248.739,330.246 247.063,322.493 245.069,322.38 246.758,337.764 254.288,327.171 
	"/>
<path fill="#333332" d="M279.848,354.72l3.143-6.683l1.32-7.099v-6.52l10.555-13.27l-32.048-6.59l-5.005,13.628
	c0.082-0.156,0.129-0.245,0.129-0.245l-0.331,0.182l-4.618-1.465l-5.642,7.237c0.75-3.149,0.867-7.521-2.283-11.517
	c1.375,8.531-9.741,15.281-9.741,15.281c-15.58,2.495-35.62,7.084-35.349,14.158c0.448,11.553,3.057,10.863,3.057,10.863h77.142
	l-0.766-8.087L279.848,354.72z"/>
<path fill="#FFFFFF" d="M219.919,340.689c0,0,16.277,1.053,20.265,4.479c3.995,3.43,4.028,7.912,4.028,7.912l-43.981,0.075
	c0,0-2.807-7.074,5.867-9.133C211.439,342.755,219.919,340.689,219.919,340.689z"/>
<path fill="#FFFFFF" d="M283.579,361.09c0,1.358-1.005,2.464-2.245,2.464h-80.736c-1.242,0-2.247-1.105-2.247-2.464v-5.545
	c0-1.361,1.004-2.464,2.247-2.464h80.736c1.24,0,2.245,1.103,2.245,2.464V361.09z"/>
<rect x="226.979" y="356.302" fill="#CACBD0" width="53.571" height="0.967"/>
<rect x="199.815" y="352.118" fill="#333332" width="81.351" height="0.963"/>
<rect x="226.979" y="359.793" fill="#CACBD0" width="53.571" height="0.963"/>
<path fill="#CACBD0" d="M228.902,340.273c5.996-1.695,11.713,0.388,15.937,4.23c1.384,1.258,3.567-0.661,2.186-1.916
	c-4.96-4.515-11.946-6.903-18.948-4.927C226.185,338.194,226.995,340.814,228.902,340.273L228.902,340.273z"/>
<path fill="#CACBD0" d="M235.836,337.625c2.797-0.692,5.305-0.562,8.076,0.149c2.331,0.598,4.006,2.094,5.912,3.327
	c1.601,1.038,3.143-1.312,1.557-2.335c-2.217-1.439-4.012-2.772-6.644-3.604c-3.157-0.992-6.541-0.935-9.722-0.146
	C233.1,335.492,233.913,338.105,235.836,337.625L235.836,337.625z"/>
<path fill="#CACBD0" d="M239.913,334.874c3.933-1.685,10.245-0.319,12.929,2.73c1.194,1.368,3.879,0.021,2.664-1.365
	c-3.772-4.294-11.546-6.107-17.155-3.704C236.56,333.303,238.133,335.635,239.913,334.874L239.913,334.874z"/>
<path fill="#FFFFFF" d="M280.676,330.413c-1.402,3.139-4.352,4.87-6.594,3.864c-2.239-1.003-2.919-4.358-1.517-7.49
	c1.399-3.139,4.354-4.866,6.597-3.864C281.396,323.922,282.081,327.274,280.676,330.413z"/>
<path fill="#FCD09E" d="M356.57,67.81c0,0,11.934,16.214,11.934,23.453c0,8.543-5.681,19.986-20.131,28.118
	c-5.801-4.558-5.829-16.817-5.829-16.817L356.57,67.81z"/>
<path fill="#E53840" d="M303.32,156.914c2.685,5.81,1.233,12.202-3.25,14.275c-4.484,2.073-10.296-0.958-12.985-6.765
	c-2.687-5.815-1.234-12.203,3.248-14.275C294.817,148.072,300.63,151.1,303.32,156.914z"/>
<path fill="#E53840" d="M294.104,141.507c0,0-3.599,0.463-4.935,3.644c-1.336,3.187-0.554,3.597-0.554,3.597
	s2.007,0.102,4.511-2.468C295.629,143.71,294.104,141.507,294.104,141.507z"/>
</svg>
