<!DOCTYPE svg PUBLIC "-//W3C//DTD SVG 1.1//EN" "http://www.w3.org/Graphics/SVG/1.1/DTD/svg11.dtd" [
	<!ENTITY ns_flows "http://ns.adobe.com/Flows/1.0/">
]><svg xmlns="http://www.w3.org/2000/svg" width="128" height="128" viewBox="0 0 128 128"><path fill="none" d="M0 0h128v128h-128z"/><path fill="#7F8C8D" d="M56.082 55.133c0 25.464-12.801 39.898-35.508 44.487v-13.175c15.803-4.867 20.006-17.388 19.271-24.721h-16.9c-1.657 0-3-1.343-3-3v-27.344c0-1.657 1.343-3 3-3h30.137c1.657 0 3 1.343 3 3v23.753zm51.973 0c0 25.123-12.125 39.898-35.492 44.487v-13.175c14.199-4.454 19.943-14.462 19.27-24.721h-16.915c-1.656 0-3-1.343-3-3v-27.344c0-1.657 1.344-3 3-3h30.137c1.657 0 3 1.343 3 3v23.753z"/></svg>