<?xml version="1.0" encoding="utf-8"?>
<!-- Generator: Adobe Illustrator 15.1.0, SVG Export Plug-In  -->
<!DOCTYPE svg PUBLIC "-//W3C//DTD SVG 1.1//EN" "http://www.w3.org/Graphics/SVG/1.1/DTD/svg11.dtd" [
	<!ENTITY ns_flows "http://ns.adobe.com/Flows/1.0/">
]>
<svg version="1.1"
	 xmlns="http://www.w3.org/2000/svg" xmlns:xlink="http://www.w3.org/1999/xlink" xmlns:a="http://ns.adobe.com/AdobeSVGViewerExtensions/3.0/"
	 x="0px" y="0px" width="200px" height="200px" viewBox="3.396 0.068 200 200" enable-background="new 3.396 0.068 200 200"
	 xml:space="preserve">
<defs>
</defs>
<rect x="3.774" display="none" fill="#FFFFFF" width="200" height="200"/>
<path id="XMLID_26_" display="none" fill="#E7E7E7" d="M174.9,67.448c-19.618-11.325-39.234-22.652-58.851-33.977
	c-8.438-4.871-15.167-0.085-22.083,3.908c-6.315,3.646-12.631,7.293-18.947,10.938C64.114,54.615,53.207,60.912,42.3,67.208
	c-0.137,0.081-0.276,0.16-0.415,0.24c-2.524,1.457-4.455,3.59-5.717,6.05c-1.118,2.099-1.759,4.477-1.759,6.983
	c0,22.652,0,45.305,0,67.957c0,0.014,0,0.028,0,0.042c0,5.299,2.878,10.38,7.476,13.036c19.616,11.325,39.234,22.649,58.85,33.977
	c8.438,4.871,15.167,0.083,22.083-3.908c6.315-3.646,12.632-7.293,18.947-10.939c10.906-6.296,21.813-12.595,32.72-18.89
	c0.137-0.081,0.276-0.161,0.415-0.239c4.598-2.656,7.476-7.737,7.476-13.036c0-22.651,0-45.304,0-67.955c0-0.013,0-0.028,0-0.044
	C182.376,75.185,179.498,70.102,174.9,67.448z"/>
<g display="none">
	<defs>
		<path id="XMLID_25_" d="M168.774,63.301c-19.9-11.488-39.797-22.977-59.696-34.465c-8.558-4.94-15.383-0.085-22.399,3.964
			c-6.406,3.698-12.813,7.397-19.219,11.096c-11.063,6.388-22.126,12.776-33.189,19.161c-0.141,0.082-0.281,0.162-0.42,0.244
			c-2.561,1.478-4.519,3.642-5.799,6.137c-1.135,2.128-1.785,4.541-1.785,7.083c0,22.977,0,45.956,0,68.931c0,0.017,0,0.031,0,0.045
			c0,5.372,2.92,10.528,7.584,13.223c19.897,11.488,39.798,22.976,59.695,34.464c8.557,4.939,15.385,0.085,22.398-3.966
			c6.407-3.698,12.813-7.396,19.22-11.096c11.063-6.385,22.126-12.773,33.189-19.161c0.14-0.08,0.281-0.16,0.421-0.241
			c4.664-2.694,7.584-7.851,7.584-13.223c0-22.976,0-45.954,0-68.931c0-0.014,0-0.028,0-0.045
			C176.358,71.149,173.438,65.994,168.774,63.301z"/>
	</defs>
	<use xlink:href="#XMLID_25_"  overflow="visible" fill="#FCDC07"/>
	<clipPath id="XMLID_27_" display="inline">
		<use xlink:href="#XMLID_25_"  display="none" overflow="visible"/>
	</clipPath>
	<path clip-path="url(#XMLID_27_)" fill="#C3B46E" d="M79.008,113.137c-1.078-0.378-2.309-0.624-3.719-0.711
		c-0.663-0.045-1.351-0.066-2.099-0.033l-0.464,0.063l0.167-0.172l-9.841-9.456l-1.471,1.531l1.711-1.784
		C58.105,93.181,39.551,72.17,25.67,58.834C8.391,42.236,4.923,43.835,1.88,47c-3.042,3.167-4.502,6.7,12.776,23.299
		c13.88,13.334,35.617,31.034,45.21,35.842l0.246-0.253l9.838,9.453l1.894-1.969l-1.71,1.78
		c-0.725,13.974,14.489,22.63,26.384,21.976C85.858,132.368,89.284,116.758,79.008,113.137z"/>
</g>
<g display="none">
	<defs>
		<path id="XMLID_24_" d="M101.057,60.619c-27.9,0.065-50.497,22.7-50.497,50.614c0,27.915,22.597,50.548,50.497,50.614V60.619z"/>
	</defs>
	<use xlink:href="#XMLID_24_"  overflow="visible" fill="#29ABE2"/>
	<clipPath id="XMLID_28_" display="inline">
		<use xlink:href="#XMLID_24_"  display="none" overflow="visible"/>
	</clipPath>
	<path clip-path="url(#XMLID_28_)" fill="#1D76BB" d="M79.008,113.137c-1.078-0.378-2.309-0.624-3.719-0.711
		c-0.663-0.045-1.351-0.066-2.099-0.033l-0.464,0.063l0.167-0.172l-9.841-9.456l-1.471,1.531l1.711-1.784
		C58.105,93.181,39.551,72.17,25.67,58.834C8.391,42.236,4.923,43.835,1.88,47c-3.042,3.167-4.502,6.7,12.776,23.299
		c13.88,13.334,35.617,31.034,45.21,35.842l0.246-0.253l9.838,9.453l1.894-1.969l-1.71,1.78
		c-0.725,13.974,14.489,22.63,26.384,21.976C85.858,132.368,89.284,116.758,79.008,113.137z"/>
</g>
<path display="none" fill="#808184" d="M106.345,60.865v3.501c5.628,0.706,10.957,2.386,15.793,4.9v19.479
	c-4.867-1.099-10.18-1.825-15.793-2.128v3.483c5.603,0.331,10.938,1.114,15.793,2.28v17.077h-15.793v3.427h15.793v17.08
	c-4.855,1.165-10.19,1.947-15.793,2.278v3.485c5.613-0.305,10.926-1.03,15.793-2.129v19.478c-4.836,2.515-10.165,4.195-15.793,4.899
	v3.502c25.17-2.933,44.774-24.36,44.774-50.307C151.119,85.227,131.515,63.799,106.345,60.865z M125.563,71.233
	c10.4,6.563,18.064,17.07,20.889,29.408c-4.416-4.689-11.729-8.538-20.889-11.042V71.233z M125.563,93.289
	c12.138,3.523,20.658,9.459,21.913,16.168h-21.913V93.289z M125.563,151.111v-18.367c9.159-2.501,16.473-6.353,20.889-11.039
	C143.628,134.041,135.964,144.547,125.563,151.111z M125.563,129.054v-16.17h21.913
	C146.222,119.594,137.701,125.533,125.563,129.054z"/>
<rect x="106.345" y="61.726" display="none" fill="#E53840" width="43.671" height="0.994"/>
<rect x="106.345" y="159.274" display="none" fill="#E53840" width="43.671" height="0.994"/>
<rect x="149.52" y="62.224" display="none" fill="#E53840" width="0.994" height="97.417"/>
<circle display="none" fill="#E53840" cx="150.016" cy="62.224" r="2.049"/>
<circle display="none" fill="#E53840" cx="106.345" cy="62.224" r="2.047"/>
<path display="none" fill="#E53840" d="M152.064,110.999c0,1.13-0.918,2.047-2.049,2.047c-1.132,0-2.049-0.917-2.049-2.047
	c0-1.134,0.917-2.051,2.049-2.051C151.146,108.948,152.064,109.865,152.064,110.999z"/>
<path display="none" fill="#E53840" d="M152.064,159.64c0,1.129-0.918,2.046-2.049,2.046c-1.132,0-2.049-0.917-2.049-2.046
	c0-1.133,0.917-2.05,2.049-2.05C151.146,157.59,152.064,158.507,152.064,159.64z"/>
<path display="none" fill="#E53840" d="M108.393,159.64c0,1.129-0.916,2.046-2.048,2.046c-1.13,0-2.046-0.917-2.046-2.046
	c0-1.133,0.917-2.05,2.046-2.05C107.477,157.59,108.393,158.507,108.393,159.64z"/>
<g display="none">
	<defs>
		<path id="XMLID_23_" d="M76.289,111.694l-0.211-0.203l-2.9,2.901c-1.004,13.955,14.033,22.915,25.939,22.499
			C86.925,131.153,93.794,111.332,76.289,111.694z"/>
	</defs>
	<use xlink:href="#XMLID_23_"  overflow="visible" fill="#231F20"/>
	<clipPath id="XMLID_29_" display="inline">
		<use xlink:href="#XMLID_23_"  display="none" overflow="visible"/>
	</clipPath>
</g>
<rect x="67.571" y="101.334" transform="matrix(0.7073 -0.7069 0.7069 0.7073 -56.059 80.9283)" display="none" fill="#A6A8AC" width="4.245" height="13.645"/>
<path display="none" fill="#E53840" d="M66.456,101.746c-5-9.498-23.129-30.876-36.741-44.486
	C12.772,40.318,9.27,41.847,6.166,44.952c-3.104,3.105-4.636,6.609,12.307,23.55c13.611,13.609,34.988,31.741,44.486,36.742
	L66.456,101.746z"/>
<path id="XMLID_20_" display="none" fill="#E7E7E7" d="M174.795,67.448c-19.617-11.325-39.232-22.652-58.851-33.977
	c-8.436-4.871-15.166-0.085-22.082,3.908c-6.316,3.646-12.632,7.293-18.948,10.938c-10.907,6.298-21.813,12.595-32.72,18.891
	c-0.137,0.081-0.277,0.16-0.415,0.24c-2.524,1.457-4.455,3.59-5.717,6.05c-1.118,2.099-1.759,4.477-1.759,6.983
	c0,22.652,0,45.305,0,67.957c0,0.014,0,0.028,0,0.042c0,5.299,2.878,10.38,7.476,13.036c19.617,11.325,39.234,22.649,58.85,33.977
	c8.438,4.871,15.168,0.083,22.083-3.908c6.317-3.646,12.632-7.293,18.949-10.939c10.906-6.296,21.813-12.595,32.719-18.89
	c0.138-0.081,0.277-0.161,0.414-0.239c4.599-2.656,7.478-7.737,7.478-13.036c0-22.651,0-45.304,0-67.955c0-0.013,0-0.028,0-0.044
	C182.272,75.185,179.394,70.102,174.795,67.448z"/>
<g display="none">
	<defs>
		<path id="XMLID_19_" d="M168.669,63.301c-19.898-11.488-39.795-22.977-59.695-34.465c-8.559-4.94-15.385-0.085-22.4,3.964
			c-6.406,3.698-12.813,7.397-19.22,11.096c-11.063,6.388-22.126,12.776-33.188,19.161c-0.141,0.082-0.281,0.162-0.421,0.244
			c-2.561,1.478-4.519,3.642-5.799,6.137c-1.134,2.128-1.784,4.541-1.784,7.083c0,22.977,0,45.956,0,68.931c0,0.017,0,0.031,0,0.045
			c0,5.372,2.92,10.528,7.583,13.223c19.898,11.488,39.798,22.976,59.695,34.464c8.558,4.939,15.385,0.085,22.401-3.966
			c6.406-3.698,12.811-7.396,19.218-11.096c11.063-6.385,22.128-12.773,33.19-19.161c0.139-0.08,0.281-0.16,0.42-0.241
			c4.665-2.694,7.584-7.851,7.584-13.223c0-22.976,0-45.954,0-68.931c0-0.014,0-0.028,0-0.045
			C176.253,71.149,173.334,65.994,168.669,63.301z"/>
	</defs>
	<use xlink:href="#XMLID_19_"  overflow="visible" fill="#FCDC07"/>
	<clipPath id="XMLID_30_" display="inline">
		<use xlink:href="#XMLID_19_"  display="none" overflow="visible"/>
	</clipPath>
</g>
<path display="none" fill="#808184" d="M53.963,118.854l15.304-4.906c-0.136-1.305-0.208-2.63-0.208-3.97
	c0-20.947,16.98-37.924,37.922-37.924c2.715,0,5.359,0.291,7.911,0.832l4.273-8.309c-1.744-2.037-3.061-4.394-3.896-6.991
	c-1.188-3.703-1.25-7.496-0.413-11.032c-5.564,0-11.13,0-16.695,0c-1.265,0-1.985,0.975-2.125,2.124
	c-0.31,2.601-0.619,5.202-0.929,7.802c-6.333,1.4-12.255,3.894-17.559,7.277c-2.059-1.622-4.12-3.243-6.177-4.864
	c-0.909-0.714-2.109-0.89-3.002,0c-4.156,4.159-8.314,8.316-12.474,12.476c-0.891,0.889-0.713,2.092,0,3
	c1.623,2.06,3.243,4.118,4.864,6.176c-3.382,5.303-5.876,11.224-7.276,17.559c-2.602,0.311-5.202,0.619-7.801,0.929
	c-1.15,0.137-2.122,0.861-2.122,2.123c0,4.344,0,8.688,0,13.031C47.484,114.487,51.167,116.167,53.963,118.854z"/>
<path display="none" fill="#808184" d="M141.279,70.966c-2.56,0.823-5.264,1.124-7.948,0.889l-3.893,7.567
	c9.378,6.903,15.466,18.017,15.466,30.556c0,4.239-0.707,8.312-1.99,12.118l11.523,5.93c1.47-0.737,3.072-1.184,4.729-1.337
	c0.509-1.584,0.948-3.198,1.31-4.841c2.604-0.31,5.204-0.621,7.806-0.929c1.149-0.137,2.123-0.862,2.123-2.124
	c0-5.878,0-11.76,0-17.64c0-1.262-0.974-1.986-2.123-2.123c-2.602-0.31-5.201-0.618-7.806-0.929
	c-1.398-6.335-3.893-12.256-7.274-17.559c1.622-2.059,3.243-4.117,4.864-6.176c0.714-0.909,0.891-2.112,0-3
	c-2.356-2.356-4.71-4.71-7.064-7.066C148.556,67.321,145.247,69.693,141.279,70.966z"/>
<path display="none" fill="#808184" d="M147.151,142.187l-12.409-6.386c-6.925,7.439-16.796,12.098-27.761,12.098
	c-13.974,0-26.174-7.564-32.752-18.816l-15.401,4.939c-0.092,0.489-0.214,0.971-0.349,1.448c0.709,1.348,1.469,2.661,2.283,3.938
	c-1.621,2.059-3.241,4.117-4.864,6.175c-0.713,0.908-0.891,2.111,0,3.002c4.16,4.159,8.318,8.316,12.474,12.476
	c0.894,0.889,2.094,0.714,3.002,0c2.057-1.621,4.118-3.242,6.177-4.863c5.303,3.382,11.226,5.875,17.559,7.276
	c0.31,2.602,0.619,5.201,0.929,7.801c0.139,1.148,0.86,2.125,2.125,2.125c5.879,0,11.758,0,17.64,0c1.262,0,1.987-0.977,2.122-2.125
	c0.31-2.6,0.619-5.199,0.929-7.801c6.334-1.401,12.259-3.895,17.56-7.276c2.059,1.621,4.119,3.242,6.175,4.863
	c0.91,0.714,2.11,0.889,3.004,0c2.984-2.987,5.972-5.972,8.959-8.959C150.691,150.227,147.863,146.559,147.151,142.187z"/>
<path display="none" fill="#E53840" d="M160.391,133.122c-2.15,0-4.048,1.002-5.315,2.545l-21.193-10.904
	c3.845-7.068,4.932-15.623,2.28-23.893c-2.651-8.271-8.51-14.601-15.751-18.113l9.432-18.332c2.926,1.142,6.225,1.384,9.451,0.35
	c7.456-2.392,11.565-10.376,9.174-17.833c-2.392-7.455-10.377-11.563-17.831-9.171c-7.453,2.392-11.565,10.376-9.172,17.831
	c1.033,3.226,3.146,5.769,5.781,7.485l-9.526,18.519c-6.189-2.301-13.155-2.645-19.926-0.473
	c-15.574,4.99-24.316,21.32-20.113,36.946l-26.104,8.371c-2.211-4.542-7.444-6.915-12.393-5.331
	c-5.427,1.744-8.417,7.555-6.679,12.981c1.738,5.428,7.552,8.418,12.98,6.679c4.954-1.591,7.83-6.565,6.981-11.548l26.109-8.37
	c5.663,15.163,22.273,23.365,37.848,18.372c6.773-2.172,12.24-6.502,15.934-11.97l21.381,11.001
	c-0.151,0.567-0.258,1.15-0.258,1.765c0,3.817,3.094,6.911,6.91,6.911s6.91-3.094,6.91-6.911
	C167.301,136.215,164.207,133.122,160.391,133.122z"/>
<path id="XMLID_18_" display="none" fill="#E7E7E7" d="M174.795,67.266c-19.617-11.325-39.235-22.652-58.851-33.977
	c-8.437-4.871-15.166-0.085-22.083,3.908c-6.316,3.647-12.632,7.293-18.947,10.938c-10.907,6.298-21.813,12.595-32.72,18.891
	c-0.137,0.08-0.277,0.16-0.415,0.24c-2.524,1.457-4.455,3.59-5.717,6.05c-1.118,2.098-1.759,4.477-1.759,6.983
	c0,22.652,0,45.303,0,67.955c0,0.015,0,0.028,0,0.043c0,5.298,2.878,10.379,7.476,13.036c19.617,11.324,39.234,22.649,58.851,33.977
	c8.437,4.871,15.166,0.085,22.083-3.909c6.314-3.646,12.632-7.293,18.946-10.939c10.906-6.296,21.813-12.594,32.72-18.89
	c0.137-0.08,0.276-0.161,0.416-0.238c4.597-2.657,7.475-7.738,7.475-13.036c0-22.649,0-45.302,0-67.954c0-0.013,0-0.028,0-0.043
	C182.27,75.003,179.392,69.92,174.795,67.266z"/>
<g display="none">
	<defs>
		<path id="XMLID_17_" d="M168.669,63.12c-19.901-11.488-39.797-22.977-59.696-34.465c-8.557-4.94-15.384-0.085-22.399,3.964
			c-6.406,3.699-12.813,7.397-19.22,11.096c-11.063,6.388-22.126,12.776-33.188,19.162c-0.141,0.082-0.281,0.162-0.421,0.243
			c-2.561,1.479-4.519,3.642-5.799,6.138c-1.134,2.128-1.784,4.541-1.784,7.083c0,22.977,0,45.955,0,68.932c0,0.015,0,0.028,0,0.045
			c0,5.372,2.92,10.526,7.583,13.221c19.898,11.487,39.798,22.976,59.695,34.464c8.558,4.941,15.385,0.087,22.398-3.964
			c6.407-3.698,12.813-7.396,19.221-11.096c11.063-6.388,22.125-12.775,33.19-19.161c0.139-0.083,0.281-0.163,0.42-0.243
			c4.663-2.694,7.584-7.849,7.584-13.221c0-22.978,0-45.955,0-68.932c0-0.014,0-0.028,0-0.045
			C176.253,70.968,173.332,65.813,168.669,63.12z"/>
	</defs>
	<use xlink:href="#XMLID_17_"  overflow="visible" fill="#FCDC07"/>
	<clipPath id="XMLID_31_" display="inline">
		<use xlink:href="#XMLID_17_"  display="none" overflow="visible"/>
	</clipPath>
</g>
<circle display="none" fill="#FCEE21" cx="119.819" cy="112.865" r="44.094"/>
<polygon display="none" fill="#FAAF42" points="134.815,68.591 134.815,68.591 134.82,68.596 "/>
<circle display="none" fill="#FFFFFF" cx="81.992" cy="81.923" r="0.997"/>
<circle display="none" fill="#231F20" cx="81.992" cy="136.771" r="2.277"/>
<path display="none" fill="#929497" d="M45.587,100.469h25.328c0.751-2.464,1.724-4.874,2.914-7.2H45.587V100.469z"/>
<circle display="none" fill="#7AC143" cx="60.958" cy="96.932" r="1.829"/>
<circle display="none" fill="#FEDD10" cx="55.207" cy="96.932" r="1.829"/>
<circle display="none" fill="#E53840" cx="49.455" cy="96.932" r="1.829"/>
<path display="none" fill="#A6A8AC" d="M81.94,144.688c-0.695-0.694-1.352-1.414-1.992-2.143l-2.057-1.813h0.552
	c-3.119-3.958-5.472-8.323-7.046-12.898h-28.81v-36.81h32.467c1.035-1.76,2.208-3.459,3.505-5.093H41.075
	c-1.386,0-2.511,1.123-2.511,2.509v49.783c0,1.387,1.125,2.51,2.511,2.51h33.931l-1.939,9.766h-5.483v1.468h5.157h17.152h1.647
	C88.104,150.032,84.866,147.613,81.94,144.688z"/>
<path display="none" fill="#A6A8AC" d="M45.587,125.589h25.108c-2.188-7.663-2.266-15.794-0.236-23.49H45.587V125.589z"/>
<path display="none" fill="#929497" d="M133.038,141.923V82.582c0-1.653-1.34-2.992-2.992-2.992h-27.302
	c-3.034,1.597-5.856,3.636-8.393,6.071h33.889v43.879H87.204c1.689,3.223,3.886,6.245,6.591,8.95
	c2.584,2.584,5.485,4.735,8.612,6.425h27.64C131.698,144.916,133.038,143.577,133.038,141.923z"/>
<path display="none" fill="#58585C" d="M124.666,96.919v-8.581h-32.84c-2.263,2.647-4.098,5.536-5.491,8.581H124.666z"/>
<path display="none" fill="#E53840" d="M124.666,98.864H85.517c-3.507,8.996-3.363,19.094,0.429,28.001h38.72V98.864z"/>
<path display="none" fill="#808184" d="M189.618,169.401l-22.598-22.598c-1.561-1.561-3.732-2.131-5.745-1.724
	c16.438-20.701,15.099-50.887-4.043-70.027c-20.593-20.596-53.985-20.596-74.578,0c-20.595,20.595-20.595,53.984,0,74.579
	c20.28,20.281,52.962,20.574,73.619,0.911c-0.22,1.861,0.357,3.798,1.785,5.225l22.596,22.597c2.476,2.476,6.488,2.476,8.964-0.001
	C192.093,175.888,192.093,171.875,189.618,169.401z M119.943,151.273c-10.397,0-20.174-4.05-27.528-11.403
	c-15.178-15.178-15.178-39.876-0.001-55.056c7.352-7.353,17.129-11.401,27.529-11.401c10.398,0,20.175,4.048,27.527,11.401
	c7.354,7.354,11.402,17.131,11.402,27.529c0,10.397-4.049,20.174-11.402,27.526C140.118,147.223,130.342,151.273,119.943,151.273z"
	/>
<path id="XMLID_14_" display="none" fill="#E7E7E7" d="M174.795,67.335c-19.617-11.325-39.235-22.652-58.851-33.977
	c-8.437-4.871-15.167-0.085-22.083,3.908c-6.317,3.646-12.632,7.293-18.949,10.938C64.007,54.503,53.1,60.8,42.193,67.095
	c-0.137,0.081-0.276,0.16-0.414,0.24c-2.524,1.457-4.455,3.59-5.717,6.05c-1.118,2.099-1.76,4.477-1.76,6.983
	c0,22.651,0,45.304,0,67.956c0,0.014,0,0.028,0,0.042c0,5.299,2.878,10.38,7.477,13.036c19.615,11.325,39.233,22.649,58.851,33.977
	c8.437,4.871,15.166,0.085,22.083-3.908c6.314-3.646,12.632-7.294,18.946-10.94c10.906-6.295,21.813-12.594,32.72-18.89
	c0.137-0.08,0.276-0.16,0.416-0.238c4.597-2.656,7.475-7.737,7.475-13.036c0-22.649,0-45.302,0-67.954c0-0.013,0-0.028,0-0.044
	C182.27,75.073,179.392,69.989,174.795,67.335z"/>
<g display="none">
	<defs>
		<path id="XMLID_13_" d="M168.669,63.189c-19.901-11.488-39.797-22.977-59.696-34.465c-8.557-4.94-15.385-0.085-22.399,3.964
			c-6.407,3.698-12.814,7.397-19.221,11.096C56.291,50.172,45.228,56.56,34.166,62.945c-0.142,0.082-0.281,0.162-0.421,0.244
			c-2.562,1.478-4.519,3.642-5.799,6.137c-1.134,2.128-1.784,4.541-1.784,7.083c0,22.977,0,45.955,0,68.933c0,0.014,0,0.028,0,0.045
			c0,5.371,2.918,10.525,7.583,13.22c19.896,11.488,39.798,22.976,59.694,34.464c8.558,4.941,15.385,0.087,22.399-3.963
			c6.407-3.699,12.813-7.397,19.221-11.096c11.063-6.389,22.125-12.776,33.19-19.162c0.139-0.082,0.281-0.163,0.42-0.243
			c4.663-2.694,7.584-7.849,7.584-13.22c0-22.979,0-45.956,0-68.933c0-0.014,0-0.028,0-0.045
			C176.253,71.038,173.332,65.882,168.669,63.189z"/>
	</defs>
	<use xlink:href="#XMLID_13_"  overflow="visible" fill="#FCDC07"/>
	<clipPath id="XMLID_32_" display="inline">
		<use xlink:href="#XMLID_13_"  display="none" overflow="visible"/>
	</clipPath>
</g>
<path display="none" fill="#E53840" d="M152.778,87.172l0.046-0.032l-2.353-4.848l-29.873,22.68
	c-1.478-0.832-3.333-2.212-5.297-3.964l8.677-7.141l9.616-7.912l12.286-10.11c-1.396-1.778-2.899-3.496-4.539-5.138
	c-1.692-1.694-3.476-3.24-5.315-4.676l-10.11,12.287l-7.912,9.613l-7.21,8.768l0.097-0.12c-1.63-1.843-2.91-3.572-3.725-4.984
	l22.704-29.905l-3.064-1.486l0.004-0.004c-0.496-0.251-0.998-0.487-1.502-0.723l-0.286-0.139v0
	c-20.976-9.698-46.643-5.923-63.935,11.369c-22.163,22.163-22.163,58.092,0,80.254c22.163,22.161,58.094,22.161,80.255,0.003
	C158.597,133.706,162.395,108.119,152.778,87.172z M112.056,99.994c3.304,3.3,6.582,5.754,8.632,6.598l-11.478,3.395
	c-0.607,0.605-2.702-0.502-4.673-2.472c-1.972-1.976-3.081-4.068-2.472-4.676l3.392-11.479
	C106.298,93.411,108.752,96.69,112.056,99.994z M106.374,110.923l-7.448,2.197l2.203-7.444c0.436,0.872,1.228,1.94,2.268,2.977
	C104.434,109.693,105.502,110.484,106.374,110.923z M106.449,90.11c0.505,1.053,0.655,1.364,0.696,1.45
	C106.836,91.02,106.608,90.539,106.449,90.11z M130.096,139.717c-15.948,15.95-41.811,15.947-57.762,0
	c-15.951-15.952-15.95-41.813,0.001-57.765c11.741-11.739,28.835-14.795,43.411-9.249l-7.397,10.661
	c-9.417-2.438-19.835,0.014-27.212,7.393c-11.088,11.085-11.088,29.063,0,40.157c11.091,11.083,29.066,11.086,40.157,0
	c7.332-7.339,9.799-17.678,7.433-27.053l10.676-7.408C144.871,110.994,141.796,128.012,130.096,139.717z"/>
<path id="XMLID_12_" fill="#E7E7E7" d="M174.795,67.335c-19.617-11.325-39.235-22.652-58.851-33.977
	c-8.436-4.871-15.166-0.085-22.083,3.908c-6.316,3.646-12.632,7.293-18.947,10.938C64.008,54.503,53.101,60.8,42.195,67.095
	c-0.137,0.081-0.277,0.16-0.415,0.24c-2.524,1.457-4.455,3.59-5.717,6.05c-1.118,2.099-1.759,4.477-1.759,6.983
	c0,22.651,0,45.304,0,67.956c0,0.014,0,0.028,0,0.042c0,5.299,2.878,10.38,7.476,13.036c19.617,11.325,39.234,22.649,58.851,33.977
	c8.438,4.871,15.166,0.085,22.083-3.908c6.314-3.646,12.632-7.294,18.946-10.94c10.906-6.295,21.813-12.594,32.72-18.89
	c0.137-0.08,0.276-0.16,0.416-0.238c4.597-2.656,7.475-7.737,7.475-13.036c0-22.649,0-45.302,0-67.954c0-0.013,0-0.028,0-0.044
	C182.27,75.073,179.392,69.989,174.795,67.335z"/>
<g>
	<defs>
		<path id="XMLID_11_" d="M168.669,63.189c-19.901-11.488-39.797-22.977-59.695-34.465c-8.558-4.94-15.385-0.085-22.4,3.964
			c-6.406,3.698-12.813,7.397-19.22,11.096C56.292,50.172,45.228,56.56,34.166,62.945c-0.141,0.082-0.281,0.162-0.421,0.244
			c-2.561,1.478-4.519,3.642-5.799,6.137c-1.134,2.128-1.784,4.541-1.784,7.083c0,22.977,0,45.955,0,68.933c0,0.014,0,0.028,0,0.045
			c0,5.371,2.92,10.525,7.583,13.22c19.898,11.488,39.798,22.976,59.695,34.464c8.558,4.941,15.385,0.087,22.398-3.963
			c6.407-3.699,12.813-7.397,19.221-11.096c11.063-6.389,22.125-12.776,33.19-19.162c0.139-0.082,0.281-0.163,0.42-0.243
			c4.663-2.694,7.584-7.849,7.584-13.22c0-22.979,0-45.956,0-68.933c0-0.014,0-0.028,0-0.045
			C176.253,71.038,173.332,65.882,168.669,63.189z"/>
	</defs>
	<use xlink:href="#XMLID_11_"  overflow="visible" fill="#FCDC07"/>
	<clipPath id="XMLID_33_">
		<use xlink:href="#XMLID_11_"  overflow="visible"/>
	</clipPath>
</g>
<path fill="#E53840" d="M84.57,151.267c-5.427,0-9.827,4.402-9.827,9.831c0,5.428,4.399,9.831,9.827,9.831
	c5.433,0,9.834-4.403,9.834-9.831C94.404,155.669,90.003,151.267,84.57,151.267z"/>
<path fill="#E53840" d="M124.956,151.267c-5.429,0-9.829,4.402-9.829,9.831c0,5.428,4.4,9.831,9.829,9.831
	c5.433,0,9.836-4.403,9.836-9.831C134.792,155.669,130.389,151.267,124.956,151.267z"/>
<path fill="#29ABE2" d="M105.041,74.441v12.417H90.477c0.199-4.386,0.751-8.577,1.593-12.417H105.041z"/>
<path fill="#29ABE2" d="M108.983,86.858V74.441h12.971c0.842,3.84,1.396,8.031,1.596,12.417H108.983z"/>
<path fill="#29ABE2" d="M108.983,70.17V53.516c4.897,1.365,9.213,7.717,11.869,16.655H108.983z"/>
<path fill="#29ABE2" d="M89.18,70.17H75.572c5.24-9.156,13.781-15.849,23.822-18.128C95.019,55.522,91.426,61.941,89.18,70.17z"/>
<path fill="#29ABE2" d="M125.854,74.441h14.735c1.64,3.847,2.739,8.022,3.186,12.417h-16.46
	C127.132,82.472,126.634,78.299,125.854,74.441z"/>
<path fill="#29ABE2" d="M105.041,53.516V70.17H93.172C95.829,61.233,100.144,54.88,105.041,53.516z"/>
<path fill="#29ABE2" d="M88.168,74.441c-0.777,3.858-1.276,8.031-1.456,12.417h-16.46c0.447-4.395,1.543-8.57,3.187-12.417H88.168z"
	/>
<path fill="#29ABE2" d="M124.845,70.17c-2.248-8.229-5.84-14.648-10.217-18.128c10.047,2.279,18.587,8.972,23.824,18.128H124.845z"
	/>
<path fill="#29ABE2" d="M108.983,102.379V89.963h14.566c-0.199,4.385-0.754,8.577-1.596,12.417H108.983z"/>
<path fill="#29ABE2" d="M105.041,89.963v12.417H92.073c-0.845-3.839-1.397-8.032-1.596-12.417H105.041z"/>
<path fill="#29ABE2" d="M105.041,106.653v16.656c-4.897-1.366-9.211-7.721-11.869-16.656H105.041z"/>
<path fill="#29ABE2" d="M124.845,106.653h13.607c-5.237,9.152-13.777,15.848-23.821,18.126
	C119.007,121.298,122.597,114.881,124.845,106.653z"/>
<path fill="#29ABE2" d="M88.168,102.379H73.438c-1.644-3.846-2.74-8.023-3.187-12.417h16.46
	C86.892,94.348,87.391,98.521,88.168,102.379z"/>
<path fill="#29ABE2" d="M108.983,123.309v-16.656h11.869C118.196,115.588,113.881,121.943,108.983,123.309z"/>
<path fill="#29ABE2" d="M125.856,102.379c0.777-3.859,1.275-8.032,1.458-12.417h16.46c-0.446,4.393-1.546,8.57-3.186,12.417H125.856
	z"/>
<path fill="#29ABE2" d="M89.18,106.653c2.246,8.229,5.838,14.646,10.216,18.126c-10.043-2.278-18.584-8.974-23.824-18.126H89.18z"/>
<path fill="#808184" d="M163.354,89.313h-0.655h-6.376h-0.555l-21.234,40.72H73.471L61.716,89.324l-1.009-0.012H41.433v0.03
	c-0.181-0.018-0.361-0.03-0.544-0.03c-3.254,0-5.894,2.636-5.894,5.896c0,3.251,2.64,5.883,5.894,5.883
	c2.784,0,5.111-1.931,5.721-4.531h10.903l10.788,37.356l0,0l-2.558,14.095h69.048v-0.009c1.626-0.05,2.926-1.373,2.926-3.009
	c0-1.633-1.3-2.957-2.926-3.006v-0.021H72.019l1.253-5.89h64.927l20.702-39.516h4.453c1.904,0,3.45-1.621,3.45-3.623
	C166.805,90.935,165.259,89.313,163.354,89.313z"/>
<path id="XMLID_5_" display="none" fill="#E7E7E7" d="M176.19,67.462c-19.617-11.325-39.234-22.652-58.851-33.977
	c-8.437-4.871-15.166-0.085-22.083,3.908c-6.316,3.646-12.632,7.293-18.947,10.938c-10.907,6.298-21.813,12.595-32.72,18.891
	c-0.137,0.081-0.277,0.16-0.415,0.24c-2.524,1.457-4.455,3.59-5.717,6.05c-1.118,2.099-1.759,4.477-1.759,6.983
	c0,22.653,0,45.305,0,67.957c0,0.015,0,0.028,0,0.043c0,5.299,2.878,10.38,7.476,13.036c19.617,11.324,39.234,22.649,58.851,33.977
	c8.437,4.871,15.167,0.083,22.083-3.909c6.315-3.646,12.632-7.293,18.947-10.939c10.907-6.296,21.813-12.594,32.72-18.89
	c0.138-0.08,0.276-0.161,0.415-0.238c4.598-2.656,7.477-7.737,7.477-13.036c0-22.652,0-45.305,0-67.956c0-0.013,0-0.028,0-0.044
	C183.667,75.199,180.788,70.116,176.19,67.462z"/>
<g display="none">
	<defs>
		<path id="XMLID_4_" d="M170.064,62.894c-19.899-11.488-39.796-22.977-59.696-34.465c-8.557-4.94-15.384-0.085-22.399,3.964
			c-6.406,3.698-12.813,7.397-19.22,11.096C57.687,49.876,46.624,56.265,35.561,62.65c-0.141,0.082-0.281,0.162-0.421,0.244
			c-2.561,1.478-4.519,3.642-5.799,6.137c-1.134,2.128-1.784,4.541-1.784,7.083c0,22.977,0,45.954,0,68.933c0,0.015,0,0.028,0,0.045
			c0,5.372,2.92,10.526,7.583,13.221c19.898,11.487,39.798,22.976,59.695,34.463c8.558,4.942,15.385,0.088,22.399-3.963
			c6.407-3.698,12.813-7.397,19.22-11.096c11.063-6.388,22.126-12.775,33.19-19.161c0.139-0.083,0.281-0.163,0.42-0.243
			c4.664-2.694,7.584-7.849,7.584-13.221c0-22.979,0-45.956,0-68.933c0-0.014,0-0.028,0-0.045
			C177.648,70.742,174.729,65.586,170.064,62.894z"/>
	</defs>
	<use xlink:href="#XMLID_4_"  overflow="visible" fill="#FCDC07"/>
	<clipPath id="XMLID_34_" display="inline">
		<use xlink:href="#XMLID_4_"  display="none" overflow="visible"/>
	</clipPath>
	<g clip-path="url(#XMLID_34_)">
		<path fill="#E53840" d="M70.23,139.167v67.535h24.678V127.13C86.329,132.03,77.982,135.981,70.23,139.167z"/>
		<path fill="#E53840" d="M26.161,151.76v32.089h24.678v-37.766C35.958,150.595,26.161,151.76,26.161,151.76z"/>
		<path fill="#E53840" d="M113.002,115.503v91.198h24.68V94.375C129.695,102.494,121.361,109.484,113.002,115.503z"/>
	</g>
	<polygon clip-path="url(#XMLID_34_)" fill="#C3B46E" points="200.364,6.086 105.338,47.574 136.907,63.744 137.349,87.169 
		151.206,69.338 188.728,90.339 	"/>
</g>
<polygon id="XMLID_3_" display="none" fill="#E7E7E7" points="202.785,3.688 105.929,40.702 136.709,58.327 "/>
<polygon id="XMLID_2_" display="none" fill="#D1D2D3" points="202.785,3.688 153.935,66.013 186.933,83.829 "/>
<polygon id="XMLID_1_" display="none" fill="#808184" points="136.709,58.327 137.349,87.169 202.785,3.688 "/>
<path display="none" fill="#FFFFFF" d="M137.038,73.093c-55.719,40.978-110.877,42.216-110.877,42.216v28.937
	c0,0,62.14-7.962,111.188-57.077L137.038,73.093z"/>
</svg>
