<?xml version="1.0" encoding="utf-8"?>
<!-- Generator: Adobe Illustrator 15.1.0, SVG Export Plug-In  -->
<!DOCTYPE svg PUBLIC "-//W3C//DTD SVG 1.1//EN" "http://www.w3.org/Graphics/SVG/1.1/DTD/svg11.dtd" [
	<!ENTITY ns_flows "http://ns.adobe.com/Flows/1.0/">
]>
<svg version="1.1"
	 xmlns="http://www.w3.org/2000/svg" xmlns:xlink="http://www.w3.org/1999/xlink" xmlns:a="http://ns.adobe.com/AdobeSVGViewerExtensions/3.0/"
	 x="0px" y="0px" width="410px" height="372px" viewBox="344.854 10.668 410 372" enable-background="new 344.854 10.668 410 372"
	 xml:space="preserve">
<defs>
</defs>
<rect display="none" fill="#F49022" width="1100.18" height="392.414"/>
<path fill="#F49022" d="M752.792,81.209c-2.385-5.107-7.211-8.442-14.345-9.91c-1.073-0.221-2.373-0.329-3.973-0.329
	c-6.521,0-16.82,1.786-31.791,4.51c-21.985,4-52.097,9.479-81.344,9.479c-14.627,0-38.774-4.609-62.126-9.067l-2.415-0.461
	c-19.811-3.785-38.522-7.359-50.431-7.716l-0.714-0.021l0.36,1.08c0.276,0.811,0.563,1.649,0.562,2.486l0,0.477l1.315,0.064
	c11.128,0.464,27.119,3.528,45.635,7.076l4.954,0.948c23.528,4.491,47.857,9.135,62.86,9.135c29.607,0,59.93-5.518,82.071-9.546
	c13.691-2.491,24.506-4.458,30.939-4.458c1.338,0,2.445,0.088,3.292,0.263c5.826,1.199,9.703,3.785,11.524,7.685
	c2.187,4.678,1.295,11.346-2.446,18.293c-5.06,9.4-38.481,179.498-58.013,280.369H406.876l-24.822-104.343l-0.225-0.947
	l-1.901,0.396c-0.089,0.018-2.213,0.436-4.863,0.436c-5.035,0-11.155-1.448-11.716-8.35c-0.068-0.83-0.141-1.657-0.213-2.479
	c-0.647-7.339-1.259-14.271,2.547-18.426c1.322-1.442,3.213-2.589,5.622-3.408l0.454-0.154l-0.136-0.46
	c-0.203-0.691-0.29-1.515-0.153-1.736l1.129-2.202l-1.426,0.411c-3.611,1.045-6.451,2.675-8.44,4.847
	c-4.994,5.454-4.307,13.244-3.58,21.494l0.019,0.215c0.065,0.737,0.13,1.48,0.19,2.225c0.632,7.753,6.208,12.023,15.703,12.023
	c1.48,0,2.797-0.111,3.749-0.223l24.719,103.911l0.183,0.77h288.292l0.313-1.62c15.746-81.343,52.911-271.544,57.923-280.854
	C754.652,94.9,755.557,87.129,752.792,81.209z"/>
<g>
	<defs>
		<polygon id="XMLID_12_" points="403.338,222.929 388.022,224.597 375.069,233.136 370.621,242.899 417.916,244.712 		"/>
	</defs>
	<use xlink:href="#XMLID_12_"  overflow="visible" fill="#FDCF9C"/>
	<clipPath id="XMLID_13_">
		<use xlink:href="#XMLID_12_"  overflow="visible"/>
	</clipPath>
	<path clip-path="url(#XMLID_13_)" fill="#F8A771" d="M383.151,236.222c0,0,2.123,3.42,4.952,3.736
		c6.404,0.709,11.504-5.605,11.504-5.605s-1.335,2.047-1.157,2.67c0.177,0.623,0.022,2.666,1.879,2.936
		c1.857,0.266,6.809,3.021,6.809,3.021l-32.605-1.287l3.062-3.025l-0.849-1.912c0,0,0.891,1.154,2.58,0.979
		C381.017,237.554,383.151,236.222,383.151,236.222z"/>
</g>
<polygon fill="#231F20" points="465.257,142.424 491.348,142.424 547.328,164.82 584.332,200.337 577.693,309.989 521.182,309.989 
	493.246,247.942 458.658,156.045 458.031,154.383 "/>
<polygon fill-rule="evenodd" clip-rule="evenodd" fill="#F8A771" points="422.629,117.856 455.445,160.136 493.22,163.19 
	485.77,148.649 475.771,101.805 "/>
<path fill-rule="evenodd" clip-rule="evenodd" fill="#351812" d="M430.092,33.898c-7.052-33.796-51.27-20.706-51.813,41.662
	c-0.544,62.375,54.617,89.757,23.509,116.045c19.879,2.187,63.362,24.845,52.41-31.912
	C448.856,132.013,394.958,55.447,430.092,33.898z"/>
<path fill-rule="evenodd" clip-rule="evenodd" fill="#F8A771" d="M425.734,28.339c-22.892,6.591-34.803,35.071-26.589,63.596
	c8.213,28.521,27.771,48.535,54.804,50.079c20.262-14.179,36.334-45.433,28.128-73.957
	C473.862,39.535,448.632,21.749,425.734,28.339z"/>
<g>
	<defs>
		<path id="SVGID_3_" d="M425.734,28.339c-22.892,6.591-34.803,35.071-26.589,63.596c8.213,28.521,27.771,48.535,54.804,50.079
			c20.262-14.179,36.334-45.433,28.128-73.957C473.862,39.535,448.632,21.749,425.734,28.339z"/>
	</defs>
	<clipPath id="SVGID_4_">
		<use xlink:href="#SVGID_3_"  overflow="visible"/>
	</clipPath>
	<g clip-path="url(#SVGID_4_)">
		<path fill-rule="evenodd" clip-rule="evenodd" fill="#FDCF9C" d="M437.427,24.974c-22.888,6.589-37.082,34.573-31.678,62.488
			c5.41,27.909,22.627,47.411,48.812,48.771c21.026-14.012,39.521-44.736,34.117-72.651
			C483.277,35.667,460.324,18.382,437.427,24.974z"/>
		<path fill-rule="evenodd" clip-rule="evenodd" fill="#F8A771" d="M444.48,24.78c0,0,0.143,23.883-12.17,42.89
			c-26.411,40.754-1.914,92.722,0.908,92.301c0,0-47.547-47.689-44.625-97.795c2.929-50.102,19.438-47.726,32.145-49.594
			C433.457,10.713,442.656,21.806,444.48,24.78z"/>
	</g>
</g>
<path fill="#231F20" d="M473.725,177.421l-7.391-46.841c0,0,19.185,5.093,32.288,1.917c14.84-3.595,15.543-12.536,15.543-12.536
	s-3.019,34.283,7.255,45.732C511.441,168.722,473.725,177.421,473.725,177.421z"/>
<path fill-rule="evenodd" clip-rule="evenodd" fill="#351812" d="M430.493,47.957c-10.474-32.803,33.02-59.147,64.002-5.857
	c30.998,53.293,12.961,98.543,24.042,112.083c11.089,13.54,20.238,5.547,20.238,5.547c-6.145,18.252-27.224,26.91-45.556,3.46
	C468.949,132.158,486.894,38.225,430.493,47.957z"/>
<path fill-rule="evenodd" clip-rule="evenodd" fill="#F48266" d="M443.626,118.422c2.574-2.247,2.729-3.411,6.106-3.951
	c0.827-0.137,1.6-0.221,2.405-0.395c0.792-0.167,1.634-0.459,2.56-1.076c1.986-1.324,1.055,0.461-1.061,3.003
	c-2.055,2.479-5.372,5.467-7.976,6.768c-0.634,0.253-3.903,0.828-6.665-0.202c-3.54-1.323-6.383-3.797-6.08-4.597
	c0.076-0.223,1.411,0.089,2.866,0.215c1.331,0.118,2.774,0.016,3.105-0.106C441.722,117.043,442.319,118.521,443.626,118.422z"/>
<path fill-rule="evenodd" clip-rule="evenodd" fill="#5A5A5D" d="M394.311,89.749c1.063-1.017,8.036-2.552,17.306-3.312
	c9.283-0.768,15.892,2.222,15.892,2.222s-2.03,11.813-6.894,13.96c-4.861,2.154-12.706,2.569-17.846-0.607
	C397.629,98.833,394.311,89.749,394.311,89.749z"/>
<path fill-rule="evenodd" clip-rule="evenodd" fill="#5A5A5D" d="M469.85,72.494c-1.432-0.518-8.969,1.194-18.523,4.761
	c-9.552,3.565-15.063,9.636-15.063,9.636s6.366,10.856,12.013,10.742c5.653-0.118,13.647-3.357,17.628-8.931
	C469.869,83.124,469.85,72.494,469.85,72.494z"/>
<path fill-rule="evenodd" clip-rule="evenodd" fill="#211F1F" d="M470.855,72.488v-0.783l-0.677-0.25l-0.003-0.001
	c-0.313-0.118-0.749-0.162-1.297-0.145c-0.455,0.017-1.028,0.078-1.709,0.181c-3.098,0.476-8.462,1.935-14.822,4.241l-1.339,0.485
	c-9.773,3.649-15.433,9.882-15.45,9.902l-0.001,0.002c-0.01,0.002-1.979,0.412-3.708,1.006c-1.131,0.384-2.487,0.729-3.293,0.917
	l0.002-0.013l-0.7-0.309c-0.01-0.009-6.803-3.075-16.294-2.294l-1.38,0.118c-6.109,0.563-11.113,1.453-13.899,2.275
	c-0.619,0.181-1.124,0.358-1.515,0.525c-0.476,0.206-0.826,0.421-1.061,0.646l-0.504,0.479l0.243,0.67
	c0.021,0.025,3.428,9.403,8.857,12.755c3.27,2.026,7.575,2.674,11.566,2.361c0.754-0.057,1.485-0.154,2.215-0.278
	c0.889-0.15,1.748-0.349,2.556-0.583c0.811-0.234,1.584-0.514,2.31-0.842c3.306-1.461,5.372-6.73,6.475-10.546
	c1.205-0.385,3.528-1.101,5.568-1.583c1.727-0.41,3.494-0.571,4.639-0.636c2.47,3.346,6.645,8.021,10.645,7.941
	c0.85-0.019,1.731-0.101,2.627-0.242c0.893-0.141,1.82-0.349,2.771-0.611c0.878-0.246,1.763-0.537,2.648-0.889
	c3.993-1.563,7.897-4.163,10.363-7.617C470.88,83.49,470.854,72.515,470.855,72.488z M420.279,101.677l-0.008,0.002
	c-0.634,0.282-1.337,0.535-2.087,0.754c-0.76,0.223-1.547,0.404-2.363,0.542c-0.754,0.126-1.535,0.221-2.323,0.276
	c-3.594,0.24-7.391-0.349-10.267-2.127c-3.943-2.438-6.781-8.649-7.718-10.921c0.333-0.135,0.74-0.28,1.234-0.423
	c2.727-0.806,7.704-1.682,13.81-2.235l1.123-0.103c7.28-0.596,12.851,1.16,14.751,1.872
	C425.887,91.958,423.932,100.063,420.279,101.677z M465.108,88.027c-2.164,3.042-5.616,5.359-9.188,6.802
	c-0.904,0.364-1.822,0.668-2.729,0.924c-0.861,0.242-1.714,0.424-2.56,0.562c-0.829,0.133-1.623,0.202-2.359,0.221
	c-4.255,0.084-9.181-7.104-10.702-9.489c1.652-1.605,6.565-5.955,14.068-8.754l1.11-0.403c6.334-2.31,11.643-3.755,14.681-4.229
	c0.537-0.078,1.005-0.131,1.392-0.148C468.717,76.217,468.157,83.754,465.108,88.027z"/>
<path fill-rule="evenodd" clip-rule="evenodd" d="M425.042,86.782c-6.06-2.996-8.162-4.142-14.085-1.904
	c-5.098,1.935-5.859,5.354-9.169,5.671c4.374,4.78,11.315,5.096,16.862,3.702c-8.548-0.644-10.089-0.965-12.768-3.818
	c1.634-1.718,3.212-2.877,4.812-3.624c-0.449,0.958-0.52,2.093-0.097,3.154c0.816,2.019,3.113,3.003,5.138,2.188
	c2.028-0.81,3.013-3.112,2.193-5.134c-0.209-0.525-0.512-0.98-0.898-1.348C419.407,85.746,422.008,86.23,425.042,86.782z"/>
<path fill-rule="evenodd" clip-rule="evenodd" fill="#351812" d="M441.232,32.323c0,0-4.143,23.53-19.666,40.017
	c-33.291,35.363-18.077,83.943-15.238,84.039c0,0-38.642-48.508-26.778-97.275c11.854-48.769,27.673-43.473,40.516-43.033
	C432.902,16.516,439.968,29.066,441.232,32.323z"/>
<g>
	<defs>
		<path id="SVGID_2_" d="M441.232,32.323c0,0-4.143,23.53-19.666,40.017c-33.291,35.363-15.513,88.331-12.675,88.426
			c0,0-41.205-52.896-29.342-101.663c11.854-48.769,27.673-43.473,40.516-43.033C432.902,16.516,439.968,29.066,441.232,32.323z"/>
	</defs>
	<clipPath id="SVGID_5_">
		<use xlink:href="#SVGID_2_"  overflow="visible"/>
	</clipPath>
	<g clip-path="url(#SVGID_5_)">
		<path fill-rule="evenodd" clip-rule="evenodd" fill="#673629" d="M445.799,40.22c0,0-4.139,23.516-19.664,40.009
			c-33.289,35.361-18.496,90.875-15.651,90.972c0,0-38.23-55.444-26.373-104.213c11.862-48.765,27.674-43.465,40.511-43.026
			C437.462,24.403,444.526,36.96,445.799,40.22z"/>
	</g>
</g>
<path fill-rule="evenodd" clip-rule="evenodd" d="M445.475,80.254c4.687-5.425,6.271-7.419,12.987-7.674
	c5.793-0.209,7.945,2.826,11.325,1.764c-2.313,6.484-8.982,9.659-14.983,10.586c8.106-4.163,9.478-5.111,10.918-9.011
	c-2.303-1.005-4.325-1.491-6.203-1.56c0.838,0.749,1.367,1.832,1.393,3.041c0.038,2.32-1.806,4.226-4.119,4.27
	c-2.313,0.04-4.22-1.805-4.27-4.115c-0.008-0.604,0.112-1.177,0.329-1.697C450.56,76.916,448.213,78.466,445.475,80.254z"/>
<path fill-rule="evenodd" clip-rule="evenodd" fill="#F8A771" d="M427.696,93.283c-0.587,5.399-3.698,13.288-3.698,13.288
	l10.478,1.162l-7.463-3.435C427.013,104.298,430.248,98.29,427.696,93.283z"/>
<g>
	<defs>
		<path id="SVGID_1_" d="M430.493,47.957c-10.474-32.803,33.02-59.147,64.002-5.857c30.998,53.293,12.961,98.543,24.042,112.083
			c11.089,13.54,20.238,5.547,20.238,5.547c-6.145,18.252-27.224,26.91-45.556,3.46C468.949,132.158,486.894,38.225,430.493,47.957z
			"/>
	</defs>
	<clipPath id="SVGID_6_">
		<use xlink:href="#SVGID_1_"  overflow="visible"/>
	</clipPath>
	<g clip-path="url(#SVGID_6_)">
		<path fill-rule="evenodd" clip-rule="evenodd" fill="#673629" d="M426.171,55.091c-10.476-32.802,33.011-59.147,64-5.856
			c30.986,53.296,12.96,98.545,24.041,112.082c11.091,13.532,20.241,5.542,20.241,5.542c-6.146,18.254-27.226,26.917-45.561,3.468
			C464.624,139.293,482.563,45.36,426.171,55.091z"/>
	</g>
</g>
<path fill-rule="evenodd" clip-rule="evenodd" fill="#F48020" d="M438.23,28.372c32.29-12.132,44.65,17.08,51.947,49.173
	c6.34,27.934,19.169,98.404,63.939,79.969c-73.331,46.263-46.895-138.295-111.535-125.516
	C439.886,28.781,441.944,27.349,438.23,28.372z"/>
<polygon fill="#231F20" points="420.151,204.13 475.195,235.835 476.725,207.665 417.748,172.426 "/>
<g>
	<defs>
		<path id="XMLID_11_" d="M416.257,196.205c0,0,0.132,7.407,3.895,7.925s11.063-21.745,11.063-21.745l-4.79,1.499L416.257,196.205z"
			/>
	</defs>
	<use xlink:href="#XMLID_11_"  overflow="visible"/>
	<clipPath id="XMLID_14_">
		<use xlink:href="#XMLID_11_"  overflow="visible"/>
	</clipPath>
	<polygon clip-path="url(#XMLID_14_)" fill="#F8A771" points="414.631,194.171 423.735,200.372 432.202,181.599 420.151,179.896 	
		"/>
</g>
<path fill="#FDCF9C" d="M396.161,195.738c0,0,2.153-1.385,7.303,2.739c5.492,4.4,12.229,2.5,16.882-0.705
	c3.706-2.55,5.843-13.433,5.843-13.433l-14.861-13.01l-13.386,1.659L396.161,195.738z"/>
<g>
	<defs>
		<path id="XMLID_10_" d="M423.143,168.96l-12.24-1.965l-5.484-3.1c0,0-5.308,3.317-0.391,8.375
			c4.635,4.769,9.794,4.344,9.794,4.344s-1.731,5.448,3.117,8.836c4.853,3.39,8.91,0.686,9.878,0.686
			c0.975,0,3.397-2.713,3.397-6.103S423.143,168.96,423.143,168.96z"/>
	</defs>
	<use xlink:href="#XMLID_10_"  overflow="visible" fill="#FDCF9C"/>
	<clipPath id="XMLID_15_">
		<use xlink:href="#XMLID_10_"  overflow="visible"/>
	</clipPath>
	<path clip-path="url(#XMLID_15_)" fill="#F8A771" d="M401.78,167.201c0,0,3.997-0.688,4.971,0.933
		c2.546,4.241,9.192,6.339,9.192,6.339s0.921,3.587,2.859,5.966c1.979,2.426,9.014,5.696,9.014,5.696s-5.075,2.742-10.742-0.686
		c-3.371-2.04-11.868-11.109-12.047-11.319c-0.177-0.206-2.612-3.929-2.612-3.929L401.78,167.201z"/>
</g>
<path id="XMLID_9_" fill="#FDCF9C" d="M389.894,198.931l4.56-3.444l9.642,1.422c0,0,0.997,2.003-0.298,3.479
	c-1.293,1.479-5.15,1.014-5.15,1.014L389.894,198.931z"/>
<path fill="#F8A771" d="M406.519,197.289l-6.909-1.084l4.073,0.982c0,0,1.479,0.812-0.114,2.554c-1.584,1.744-4.08,1.137-4.08,1.137
	l-7.629-1.494l9.514,2.945c0,0,6.469-0.752,7.575-3.035C410.055,197.012,406.519,197.289,406.519,197.289z"/>
<path id="XMLID_8_" fill="#FDCF9C" d="M391.23,194.704l4.407-4.029l10.165,0.546c0,0,1.233,1.988,0.032,3.649
	c-1.203,1.664-5.262,1.552-5.262,1.552L391.23,194.704z"/>
<path fill="#F8A771" d="M408.365,191.379l-7.291-0.457l4.332,0.627c0,0,1.615,0.705,0.13,2.67c-1.483,1.965-4.137,1.576-4.137,1.576
	l-8.083-0.811l10.186,2.139c0,0,6.113,1.212,7.042-1.271C411.472,193.369,408.365,191.379,408.365,191.379z"/>
<path id="XMLID_7_" fill="#FDCF9C" d="M393.762,188.578l4.648-3.744l10.109,1.175c0,0,1.106,2.063-0.193,3.647
	c-1.305,1.584-5.348,1.219-5.348,1.219L393.762,188.578z"/>
<path fill="#F8A771" d="M411.071,186.331l-7.251-0.912l4.284,0.895c0,0,1.565,0.803-0.036,2.674
	c-1.604,1.869-4.228,1.314-4.228,1.314l-8.017-1.313l10.033,2.769c0,0,6.023,1.592,7.105-0.826
	C414.046,188.512,411.071,186.331,411.071,186.331z"/>
<path fill="#FFFFFF" d="M402.698,165.197c-0.012,0.124-0.019,0.247-0.044,0.371c-0.4,1.95-1.296,3.713-2.33,5.394
	c0.845,1.163,1.41,2.77,1.556,4.966c0.962,14.5-19.904,11.129-19.904,11.129l-1.285,3.771c0,0,25.038,5.833,25.038-14.899
	C405.729,170.527,404.504,167.191,402.698,165.197z"/>
<path fill="#F8A771" d="M399.206,174.951c0,0,12.41,2.879,11.091,7.042c-1.421,4.478-12.554,1.472-12.554,1.472L399.206,174.951z"/>
<path fill="#FDCF9C" d="M397.589,174.473c0,0,12.106,2.851,10.818,6.977c-1.386,4.432-12.246,1.455-12.246,1.455L397.589,174.473z"
	/>
<path fill="#59595C" d="M426.188,204.956c0,0,0.792-0.162,1.858-3.072c1.066-2.908,2.365-7.794,2.365-7.794l-0.976,9.065
	l2.114-1.271l1.285,3.082l1.64,0.67l1.624,1.951l2.438,0.902l1.84,2.836l1.682-0.607l1.028-0.369l4.875,4.875l0.896-0.975
	l6.228,6.986l-6.228-5.523c0,0,0.078,2.439-1.059,1.301s-4.226-4.227-4.226-4.227l-3.197,0.814l-3.001-3.9l-3.875-0.164l0.811-1.873
	l-1.476-1.053l-2.424,0.326l-0.162-1.98l-1.463,0.01l-0.74-0.934L426.188,204.956z"/>
<path fill="#231F20" d="M450.312,138.131c-12.612,5.995-18.028,13.791-13.284,26.123c4.743,12.338,27.515,63.354,27.515,63.354
	s-54.083-9.039-59.775-5.834c-5.694,3.207-2.125,13.557,0,17.439c2.125,3.881,107.715,34.746,107.715,34.746
	s17.532-7.23,18.481-11.973c0.95-4.744-55.109-118.23-55.109-118.23S462.922,132.137,450.312,138.131z"/>
<path fill="#59595C" d="M463.848,150.631h-13.778l-5.756,10.504h13.718l-5.941,12.818l8.258,1.001c0,0-2.778,10.386-2.316,11.631
	c0.463,1.246,5.816,6.582,5.816,6.582l16.453,40.653l-9.708-1.713l3.813,6.604l-20.182-8.184l0.711,6.049l-37.821-6.404
	l43.378,14.539l0.638-6.355l19.171,6.355v-8.135l8.52-0.391l-10.714-21.586l6.863-1.508l-21.122-28.177l2.486-14.164l-6.672-2.847
	l4.186-7.918l-9.267-3.822L463.848,150.631z"/>
<polygon fill="#59595C" points="487.704,179.826 492.296,170.04 490.001,178.948 500.362,184.916 492.648,184.916 500.362,200.337 
	487.704,186.586 "/>
<path fill="#FFFFFF" d="M738.044,73.258c-13.207-2.717-65.469,13.701-116.705,13.701c-30.379,0-100.523-19.481-121.452-17.078
	c-29.415,3.376-6.521,45.202-6.521,45.202s48.27,178.011,43.526,182.519c-49.341-42.934-74.959-45.781-129.755-54.623
	c-51.117-8.248-47.236,8.088-45.781,25.939c1.095,13.447,18.978,9.709,18.978,9.709l24.962,104.936h285.061
	c16.607-85.791,53.023-271.946,58.125-281.421C755.123,89.808,754.179,76.579,738.044,73.258z"/>
<path fill="#F49022" d="M413.652,365.628l-20.793-83.572c0,0,60.108-1.824,145.916,52.613
	c-66.231-35.977-116.92-43.891-135.787-44.119C397.414,290.481,413.652,365.628,413.652,365.628z"/>
<path fill="#FFFFFF" d="M375.924,159.021c-16.43,0-29.873,2.514-29.574,3.456s12.1,38.071,12.1,38.071
	c-0.012,0.035-0.04,0.072-0.04,0.107c0,1.41,8.112,2.551,18.115,2.551c10.002,0,18.11-1.141,18.114-2.549l10.788-37.887
	C405.428,161.695,392.349,159.021,375.924,159.021z"/>
<path fill="#F6921E" d="M376.525,204.206c-5.748,0-19.115-0.346-19.115-3.551v-0.078l-12.013-37.798
	c-0.109-0.343-0.045-0.712,0.175-1.013c1.332-1.82,16.933-3.746,30.352-3.746c9.772,0,17.39,0.929,21.061,1.483
	c9.443,1.425,9.443,2.533,9.443,3.267l-0.038,0.274l-10.769,37.82C395.054,203.875,382.145,204.206,376.525,204.206z
	 M359.461,200.427c1.18,0.681,6.866,1.779,17.064,1.779c10.501,0,16.218-1.164,17.157-1.838l10.601-37.228
	c-2.352-0.982-13.449-3.12-28.359-3.12c-14.523,0-25.859,1.947-28.401,2.845L359.461,200.427z"/>
<ellipse fill="#F49022" cx="375.924" cy="164.521" rx="21.857" ry="2.668"/>
<path fill="#FFFFFF" d="M382.126,140.586c-0.853-0.244-1.921-0.478-3.239-0.657c-1.917-0.202-3.707-0.294-5.391-0.322
	c-0.457-1.433-0.815-2.453-0.842-2.803c-0.036-0.691-0.024-1.373,0.16-1.973c0.181-0.598,0.493-1.129,0.968-1.569
	c1.923-2.413,7.337-2.268,8.889-0.398c0.44,0.544,0.651,1.183,0.686,1.775c0.023,0.596-0.139,1.154-0.429,1.645
	c-0.303,0.486-0.738,0.899-1.264,1.227c-0.136,0.076-0.256,0.148-0.398,0.225l-0.24,0.108l-0.12,0.055
	c-0.011,0.006-0.059,0.025-0.039,0.019l-0.056,0.021c-0.301,0.124-0.617,0.215-0.935,0.292c-0.643,0.133-1.332,0.158-1.946,0.013
	c-0.615-0.139-1.116-0.445-1.411-0.826c-0.299-0.379-0.413-0.796-0.419-1.167c-0.01-0.372,0.059-0.708,0.163-1
	c0.212-0.581,0.511-1.001,0.72-1.276c0.218-0.278,0.347-0.422,0.347-0.422s-1.394,0.859-1.716,1.451
	c-0.157,0.295-0.293,0.647-0.339,1.07c-0.04,0.419,0.016,0.928,0.393,1.499c0.188,0.282,0.477,0.577,0.854,0.83
	c0.373,0.253,0.832,0.457,1.299,0.592c0.944,0.269,1.879,0.274,2.719,0.16c0.415-0.064,0.823-0.154,1.202-0.274l0.072-0.021
	l0.083-0.03l0.128-0.046l0.259-0.093c0.18-0.072,0.37-0.16,0.553-0.244c0.688-0.345,1.297-0.8,1.752-1.368
	c0.447-0.567,0.738-1.247,0.786-2.019c0.034-0.773-0.137-1.639-0.768-2.555c-0.319-0.452-0.76-0.918-1.352-1.331
	c-5.879-3.445-11.251-0.149-12.003,0.449c-0.773,0.575-1.313,1.304-1.644,2.074c-0.569,1.563,0.425,3.472,1.7,5.917
	c-1.476,0.035-2.849,0.121-4.104,0.249c-3.323-4.373-6.667-7.66-7.145-8.468c-0.477-0.859-0.892-1.737-1.028-2.617
	c-0.145-0.878-0.078-1.748,0.253-2.609c0.942-4.281,7.943-7.486,11.093-6.065c0.898,0.417,1.571,1.099,1.982,1.834
	c0.405,0.744,0.547,1.562,0.483,2.369c-0.082,0.808-0.379,1.607-0.844,2.355c-0.123,0.181-0.234,0.347-0.369,0.533l-0.236,0.29
	l-0.12,0.145c-0.009,0.013-0.057,0.07-0.04,0.051l-0.057,0.063c-0.305,0.343-0.649,0.659-1.012,0.954
	c-0.734,0.571-1.6,1.034-2.474,1.234c-0.87,0.206-1.704,0.131-2.315-0.169c-0.62-0.297-1.028-0.762-1.267-1.229
	c-0.245-0.468-0.367-0.94-0.415-1.378c-0.097-0.875,0.025-1.598,0.116-2.078c0.105-0.492,0.178-0.756,0.18-0.756
	c0,0-1.242,1.965-1.28,2.923c-0.017,0.478,0.03,1.009,0.234,1.577c0.212,0.56,0.602,1.179,1.439,1.668
	c0.417,0.242,0.968,0.44,1.607,0.526c0.638,0.087,1.349,0.063,2.03-0.059c1.373-0.246,2.568-0.825,3.568-1.495
	c0.489-0.343,0.952-0.71,1.359-1.103l0.082-0.072l0.088-0.091l0.135-0.139l0.272-0.28c0.181-0.204,0.37-0.434,0.549-0.653
	c0.664-0.87,1.154-1.833,1.383-2.841c0.215-1.005,0.161-2.055-0.26-3.069c-0.439-1.007-1.203-2.005-2.58-2.778
	c-0.688-0.381-1.542-0.697-2.558-0.859c-9.652-0.714-14.447,6.854-15.03,8.083c-0.627,1.221-0.861,2.489-0.802,3.677
	c0.373,3.487,5.484,6.062,10.542,10.84c-4.166,0.65-6.671,1.644-7.208,1.917c-1.043,0.493-1.574,1.055-1.71,1.609
	c-0.227,2.923,16.735,4.49,18.377,13.161c0.274-3.673-1.146-7.561-3.169-11.178c0.021,0.002,0.036,0.006,0.056,0.009
	c0.824,0.106,1.771,0.166,2.694,0.185c0.078,0.001,0.143-0.006,0.221-0.005c0.928,3.048,1.331,6.651,0.198,10.99
	c1.79-3.053,1.614-7.244,0.9-11.021c1.329-0.039,2.586-0.131,3.67-0.285c0.708-0.106,1.386-0.229,1.995-0.364l0.118-0.028
	l0.134-0.031l0.2-0.047l0.415-0.103c0.273-0.076,0.562-0.162,0.842-0.246c1.033-0.329,1.854-0.724,2.33-1.166
	c0.467-0.439,0.581-0.927,0.206-1.438C384.635,141.626,383.806,141.089,382.126,140.586z M373.37,153.552
	c-2.432-5.035-9.302-7.554-10.167-8.299c-0.485-0.445-0.87-0.893-0.9-1.314c-0.03-0.417,0.209-0.813,0.8-1.171
	c0.535-0.498,1.634-0.914,3.017-1.242c0.552,0.572,1.093,1.177,1.626,1.813c-0.143,0.099-0.259,0.195-0.301,0.278
	c-0.106,0.217-0.137,0.468,0.03,0.749c0.181,0.28,0.585,0.602,1.607,0.918c0.055,0.017,0.137,0.032,0.196,0.048
	C370.908,147.628,372.35,150.31,373.37,153.552z M373.557,145.37c-1.091,0.006-2.085-0.101-2.829-0.273
	c-0.465-0.797-0.946-1.582-1.455-2.344c0.004-0.005,0.012-0.014,0.016-0.019c0.223-0.217,0.373-0.329,0.373-0.329
	s-0.206,0.082-0.484,0.2c-0.337-0.5-0.682-0.985-1.028-1.466c1.19-0.182,2.473-0.309,3.754-0.378
	c0.695,1.365,1.409,2.891,1.973,4.594C373.769,145.356,373.664,145.37,373.557,145.37z M381.374,143.315
	c-0.255,0.362-0.784,0.699-1.536,0.994c-0.198,0.07-0.37,0.139-0.581,0.209l-0.368,0.108l-0.187,0.055
	c-0.013,0.004-0.085,0.025-0.059,0.015l-0.084,0.025c-0.465,0.127-0.98,0.236-1.508,0.337c-0.635,0.111-1.326,0.187-2.028,0.24
	c-0.343-1.682-0.779-3.266-1.187-4.604c1.975-0.016,3.792,0.12,5.023,0.427c1.118,0.288,1.882,0.67,2.295,1.047
	C381.555,142.559,381.599,142.945,381.374,143.315z"/>
</svg>
