<!DOCTYPE svg PUBLIC "-//W3C//DTD SVG 1.1//EN" "http://www.w3.org/Graphics/SVG/1.1/DTD/svg11.dtd" [
	<!ENTITY ns_flows "http://ns.adobe.com/Flows/1.0/">
]><svg xmlns="http://www.w3.org/2000/svg" xmlns:xlink="http://www.w3.org/1999/xlink" width="355" height="344" viewBox="-0.22 -1.824 355 344" enable-background="new -0.22 -1.824 355 344"><path fill-rule="evenodd" clip-rule="evenodd" fill="#FED09E" d="M294.87 157.385l-13.732-16.021-16.593 2.291-.285 20.884s10.297-1.717 10.297-6.009l-2.003-6.295s3.436 1.145 7.011.718l3.576-.432s-10.438 11.603-7.011 14.751c3.435 3.149 17.883-.159 17.883-.159l.857-9.728z"/><defs><path id="a" d="M294.87 157.385l-13.732-16.021-16.593 2.291-.285 20.884s10.297-1.717 10.297-6.009l-2.003-6.295s3.436 1.145 7.011.718l3.576-.432s-10.438 11.603-7.011 14.751c3.435 3.149 17.883-.159 17.883-.159l.857-9.728z"/></defs><clipPath id="b"><use xlink:href="#a" overflow="visible"/></clipPath><path fill-rule="evenodd" clip-rule="evenodd" fill="#F9A870" d="M297.285 161.017l-13.732-16.021-16.592 2.287c-.212 15.436 5.914 35.702 7.448 37.109 3.431 3.149 22.02-13.647 22.02-13.647l.856-9.728z" clip-path="url(#b)"/><radialGradient id="c" cx="193.353" cy="181.279" r="190.315" gradientUnits="userSpaceOnUse"><stop offset="0" stop-color="#A6CE39"/><stop offset=".53" stop-color="#0A5838"/><stop offset="1"/></radialGradient><path fill-rule="evenodd" clip-rule="evenodd" fill="url(#c)" d="M193.355 46.705c74.308 0 134.572 60.265 134.572 134.575 0 74.307-60.265 134.575-134.572 134.575-74.312 0-134.576-60.269-134.576-134.575 0-74.31 60.264-134.575 134.576-134.575z"/><path fill-rule="evenodd" clip-rule="evenodd" fill="#78BE42" d="M193.355 20.522c88.766 0 160.753 71.989 160.753 160.757 0 88.77-71.987 160.753-160.753 160.753v-31.072c71.609 0 129.685-58.071 129.685-129.681 0-71.61-58.075-129.683-129.685-129.683v-31.074zm0 321.51c-88.77 0-160.753-71.983-160.753-160.753 0-88.769 71.983-160.757 160.753-160.757v31.074c-71.614 0-129.687 58.073-129.687 129.683 0 71.609 58.073 129.681 129.687 129.681v31.072z"/><path fill="#37160E" d="M281.884 52.229c2.116 2.968 4.169 6.263 6.137 9.918 20.982 38.998 23.155 73.892 24.806 100.36 1.876 30.124 4.271 53.765 42.174 49.146-6.951 8.725-21.266 14.702-31.862 17.537-11.828 3.167-22.323 2.532-31.164-.702-3.66-1.344-7.028-3.135-10.09-5.275v-3.506c3.287 2.55 6.982 4.642 11.06 6.133 8.319 3.047 18.239 3.629 29.468.628 7.624-2.038 15.855-5.734 24.583-11.426-33.688.381-34.951-19.717-36.982-52.373-1.629-26.195-3.78-60.732-24.474-99.186-1.192-2.211-2.409-4.283-3.654-6.228v-5.026zm-66.802 18.428c-2.959-11.273.077-21.963 6.612-29.542 3.498-4.057 7.991-7.224 13.104-9.107 5.117-1.885 10.848-2.488 16.793-1.43 10.094 1.8 20.828 8.386 30.293 21.651v5.027c-9.528-14.88-20.538-22.076-30.772-23.901-5.452-.968-10.682-.419-15.34 1.3-4.662 1.715-8.76 4.602-11.948 8.3-5.713 6.631-8.495 15.89-6.319 25.731 24.926-4.059 34.415 9.287 38.087 29.337 2.158 11.757 2.257 25.816 2.358 39.957.155 21.522.314 43.243 7.763 56.717l.007.021.127.307c1.48 5.536 3.914 10.798 7.208 15.439 2.469 3.477 5.431 6.604 8.83 9.242v3.506c-4.354-3.062-8.086-6.842-11.122-11.123-3.463-4.87-6.03-10.386-7.593-16.172-7.713-14.093-7.875-36.11-8.03-57.927-.099-14.009-.201-27.937-2.313-39.46-3.445-18.793-12.399-31.199-36.129-26.848l-1.284.233-.332-1.258z"/><path fill-rule="evenodd" clip-rule="evenodd" fill="#37160E" d="M216.447 70.297c-9.05-34.442 40.378-63.155 70.333-7.483 47.185 87.696-1.39 154.802 65.05 150.641-46.204 32.811-79.579 10.96-87.345-18.06-20.892-37.758 14.265-136.52-48.038-125.098z"/><defs><path id="d" d="M216.447 70.297c-9.05-34.442 40.378-63.155 70.333-7.483 47.185 87.696-1.39 154.802 65.05 150.641-46.204 32.811-79.579 10.96-87.345-18.06-20.892-37.758 14.265-136.52-48.038-125.098z"/></defs><clipPath id="e"><use xlink:href="#d" overflow="visible"/></clipPath><path fill-rule="evenodd" clip-rule="evenodd" fill="#663427" d="M210.126 89.935c-9.042-34.441 40.383-63.158 70.341-7.479 29.954 55.673 6.954 103.85 18.069 117.924 11.116 14.077 21.702 5.448 21.702 5.448-8.047 19.41-31.71 28.984-50.02 4.581-24.241-32.294 2.219-131.895-60.092-120.474z" clip-path="url(#e)"/><path fill="#F58345" d="M299.598 150.538l1.545.869-1.545-8.056v-12.935l6.154-9.619 1.09-1.709 1.237 1.605 23.924 31.139.324.864-.077.328-5.473 22.834-.227.941-.952.142-.028.003h-.007c-10.713 1.56-19.466-2.75-25.966-7.92v-3.721c6.034 5.265 14.392 10.086 24.647 8.939l5.085-21.215-22.28-28.999-6.355 9.938 3.823 19.915.578 3.008-2.673-1.501-2.825-1.588v-3.262zm-32.158-21.08c.004-.016 2.257-6.433 12.202-.494 8.026 4.789 16.243 18.004 17.601 20.249l2.355 1.324v3.262l-4.08-2.292-.529-.515c-.027-.042-8.671-14.734-16.807-19.59-6.323-3.779-7.808-1.518-8.026-1.07-.17.869-1.048 6.083 1.27 7.848 2.355 1.799 8.738 7.057 13.612 11.624.945.887 1.841 1.756 2.651 2.576.779.793 1.481 1.55 2.067 2.241l.007.009.035.044c.381.455.677.82 1.016 1.234 1.837 2.268 4.81 5.926 8.784 9.395v3.721c-5.085-4.045-8.795-8.617-10.988-11.32-.396-.488-.748-.926-.945-1.16l-.004.001-.007-.007-.035-.046c-.511-.606-1.178-1.33-1.961-2.118-.762-.776-1.636-1.622-2.57-2.497-4.796-4.5-11.077-9.67-13.391-11.437-3.975-3.033-2.32-10.767-2.313-10.788l.056-.194zm32.158 13.893v-12.935l-1.604 2.503-.201 1.032 1.805 9.4z"/><path fill-rule="evenodd" clip-rule="evenodd" fill="#FED09E" d="M268.78 129.931s1.679-4.794 10.132.252l17.298 20.085 6.912 3.879-3.933-20.464 7.759-12.126 23.924 31.139-5.477 22.838c-19.749 2.889-32.74-15.254-36.683-19.946-3.943-4.69-14.903-13.798-18.155-16.277-3.248-2.48-1.777-9.38-1.777-9.38z"/><defs><path id="f" d="M268.78 129.931s1.679-4.794 10.132.252l17.298 20.085 6.912 3.879-3.933-20.464 7.759-12.126 23.924 31.139-5.477 22.838c-19.749 2.889-32.74-15.254-36.683-19.946-3.943-4.69-14.903-13.798-18.155-16.277-3.248-2.48-1.777-9.38-1.777-9.38z"/></defs><clipPath id="g"><use xlink:href="#f" overflow="visible"/></clipPath><ellipse transform="matrix(-.781 -.625 .625 -.781 410.714 416.735)" fill-rule="evenodd" clip-rule="evenodd" fill="#F9A870" cx="278.497" cy="136.284" rx="11.265" ry="6.253" clip-path="url(#g)"/><path fill-rule="evenodd" clip-rule="evenodd" d="M183.777 46.051c3.844-51.421-65.046-50.911-91.607 38.406-26.562 89.314 3.419 128.576-8.002 152.583-11.419 24.016-15.543 34.585-15.543 34.585 44.938-22.93 58.556 18.031 81.567-35.1 16.742-38.654-25.758-174.055 33.585-190.474z"/><path fill="#F58345" d="M266.523 120.092c0-.023-1.121-8.273-3.752-17.795-.138-.495-.317-1.183-.515-1.952-2.871-11.191-10.333-40.273-53.392-30.351l-.12.028c-5.706 1.312-11.331 2.442-16.829 3.433v-2.89c5.297-.959 10.714-2.054 16.19-3.315l.116-.028c45.761-10.544 53.724 20.484 56.784 32.423.177.668.328 1.271.501 1.896 2.581 9.336 3.745 17.52 3.83 18.142l3.005 17.896-.036.612c-6.523 23.51-19.001 51.405-28.335 70.279-1.781 3.604-3.484 6.939-5.025 9.885-1.552 2.969-2.878 5.42-3.918 7.268h-.004v.011c-4.754 8.464-23.204 7.607-43.108 3.093v-2.885c19.022 4.465 36.528 5.692 40.626-1.598l.004-.01c1.1-1.961 2.422-4.397 3.882-7.191 1.475-2.817 3.16-6.122 4.994-9.831 9.243-18.684 21.568-46.242 28.063-69.475l-2.955-17.594-.006-.051zm-74.607-46.637c-10.756 1.935-21.002 3.354-30.266 4.638-24.583 3.407-42.133 5.843-43.32 13.978l-3.987 27.339c.06 1.393.651 14.036 3.297 36.318 1.388 11.678 3.643 23.217 8.776 33.193 5.083 9.892 13.038 18.303 25.849 23.875l.018.007.009.007c3.663 1.587 7.748 3.209 12.084 4.785 4.316 1.569 8.917 3.093 13.625 4.511 4.613 1.383 9.31 2.652 13.916 3.734v2.885c-4.881-1.104-9.853-2.426-14.727-3.89-4.708-1.418-9.361-2.962-13.782-4.57-4.394-1.591-8.532-3.233-12.239-4.849v.007l-.018-.011-.011-.004c-13.501-5.868-21.887-14.744-27.254-25.183-5.329-10.364-7.656-22.207-9.074-34.163-2.811-23.647-3.315-36.635-3.315-36.674l.009-.254 4.006-27.464c1.497-10.259 19.927-12.814 45.748-16.395 9.38-1.303 19.766-2.735 30.656-4.709v2.889z"/><radialGradient id="h" cx="203.561" cy="153.351" r="101.337" gradientUnits="userSpaceOnUse"><stop offset="0" stop-color="#fff"/><stop offset=".34" stop-color="#FFF6ED"/><stop offset=".59" stop-color="#FED09E"/><stop offset="1" stop-color="#F9A870"/></radialGradient><path fill-rule="evenodd" clip-rule="evenodd" fill="url(#h)" d="M267.93 119.907s-1.132-8.377-3.791-17.989-8.439-44.179-55.596-33.308c-47.157 10.867-89.535 8.952-91.623 23.259l-4.004 27.464s.502 12.927 3.308 36.563c2.809 23.633 9.166 46.764 35.482 58.207 26.322 11.444 74.431 24.442 82.076 10.83 7.646-13.605 28.128-54.604 37.155-87.123l-3.007-17.903z"/><defs><path id="i" d="M267.93 119.907s-1.132-8.377-3.791-17.989-8.439-44.179-55.596-33.308c-47.157 10.867-89.535 8.952-91.623 23.259l-4.004 27.464s.502 12.927 3.308 36.563c2.809 23.633 9.166 46.764 35.482 58.207 26.322 11.444 74.431 24.442 82.076 10.83 7.646-13.605 28.128-54.604 37.155-87.123l-3.007-17.903z"/></defs><clipPath id="j"><use xlink:href="#i" overflow="visible"/></clipPath><path fill-rule="evenodd" clip-rule="evenodd" fill="#F9A870" d="M249.56 45.241c5.678 101.312-141.845 90.967-152.45 126.445-20.78 69.519-18.904 60.579-14.862 61.888 0 0-31.959-95.396 5.221-160.507 34.02-59.571 110.449-82.416 162.091-27.826z" clip-path="url(#j)"/><path fill-rule="evenodd" clip-rule="evenodd" d="M75.886 274.958l20.385 1.125 1.686 14.127z"/><path d="M273.089 130.569c-6.017 2.449-19.022 7.61-31.823 11.81v-2.969c16.899-5.623 34.087-12.851 34.172-12.886l1.834 1.913c-.053.12-18.627 40.347-36.006 48.235v-3.156c13.111-6.999 27.154-33.535 31.823-42.947zm-31.823 11.81c-11.518 3.782-22.866 6.783-28.805 6.344-1.51-.111-2.384.233-2.736.889-.536 1.001-.304 2.748.5 4.874.896 2.37 2.501 5.094 4.581 7.785 5.957 7.691 15.7 14.959 23.737 12.41.899-.282 1.813-.677 2.723-1.164v3.156c-.621.282-1.248.533-1.865.727-9.377 2.974-20.303-4.94-26.848-13.394-2.243-2.904-3.992-5.886-4.986-8.52-1.087-2.876-1.114-3.017-.166-4.791.187-.348.589-2.751.847-3.028 5.906-.458 13.816-1.336 18.433-2.84 4.62-1.508 8.937-2.596 8.937-2.596l-1.302-.606c2.278-.693 4.616-1.439 6.951-2.215v2.969z"/><radialGradient id="k" cx="267.639" cy="137.888" r="61.444" gradientUnits="userSpaceOnUse"><stop offset="0" stop-color="#A6CE39"/><stop offset=".53" stop-color="#0A5838"/><stop offset="1"/></radialGradient><path fill-rule="evenodd" clip-rule="evenodd" fill="url(#k)" d="M275.989 127.834s-48.864 20.551-63.429 19.468c-14.564-1.081 9.13 34.22 26.414 28.735 17.283-5.482 37.015-48.203 37.015-48.203z"/><defs><path id="l" d="M275.989 127.834s-48.864 20.551-63.429 19.468c-14.564-1.081 9.13 34.22 26.414 28.735 17.283-5.482 37.015-48.203 37.015-48.203z"/></defs><clipPath id="m"><use xlink:href="#l" overflow="visible"/></clipPath><path fill-rule="evenodd" clip-rule="evenodd" fill="#A6CE39" d="M255.294 188.117v-3.689l.558-.088v3.777h-.558zm0-7.596v-.677h1.34v-2.434h-1.34v-.635h1.27c.332 0 .558.061.678.188.119.119.183.353.183.698v1.975c0 .338-.063.574-.183.698-.12.127-.346.187-.678.187h-1.27zm0-7.596v-.678h1.34v-2.433h-1.34v-.642h1.27c.332 0 .558.063.678.19.119.124.183.356.183.698v1.975c0 .338-.063.578-.183.698-.12.127-.346.19-.678.19h-1.27v.002zm0-7.6v-3.692l.558-.083v3.775h-.558zm0-7.596v-.675h1.34v-2.433h-1.34v-.64h1.27c.332 0 .558.063.678.187.119.124.183.356.183.698v1.977c0 .344-.063.577-.183.7s-.346.187-.678.187h-1.27v-.001zm0-7.6v-.671h1.34v-2.437h-1.34v-.635h1.27c.332 0 .558.058.678.185.119.12.183.356.183.696v1.977c0 .342-.063.576-.183.698-.12.125-.346.187-.678.187h-1.27zm0-7.598v-3.687l.558-.086v3.773h-.558zm0-7.596v-3.69l.558-.083v3.773h-.558zm5.375 37.99v-3.037h-.798v-.497l1.587-.244v3.777h-.789v.001zm0 7.596v-3.032h-.798v-.501l1.587-.243v3.776h-.789zm0 7.596v-3.033h-.798v-.501l1.587-.243v3.777h-.789zm-5.375-56.872v3.69h-.232v-3.036h-.797v-.498l1.029-.156zm0 7.599v3.687h-.232v-3.033h-.797v-.498l1.029-.156zm0 7.542v.635h-1.34v2.437h1.34v.671h-1.266c-.332 0-.558-.062-.674-.187-.12-.122-.184-.356-.184-.698v-1.977c0-.34.063-.576.184-.696.116-.127.342-.185.674-.185h1.266zm0 7.594v.64h-1.34v2.433h1.34v.675h-1.266c-.332 0-.558-.063-.674-.187-.12-.124-.184-.356-.184-.7v-1.977c0-.342.063-.575.184-.698.116-.124.342-.187.674-.187h1.266v.001zm0 7.653v3.692h-.232v-3.036h-.797v-.499l1.029-.157zm0 7.539v.642h-1.34v2.433h1.34v.678h-1.266c-.332 0-.558-.063-.674-.19-.12-.12-.184-.36-.184-.698v-1.975c0-.342.063-.575.184-.698.116-.127.342-.19.674-.19h1.266v-.002zm0 7.603v.635h-1.34v2.434h1.34v.677h-1.266c-.332 0-.558-.06-.674-.187-.12-.124-.184-.36-.184-.698v-1.975c0-.346.063-.579.184-.698.116-.127.342-.188.674-.188h1.266zm0 7.653v3.689h-.232v-3.033h-.797v-.501l1.029-.155zm-12.518-2.613v-3.692l.557-.085v3.777h-.557zm0-7.6v-.673h1.34v-2.438h-1.34v-.634h1.27c.331 0 .557.063.677.183.12.127.176.36.176.698v1.975c0 .346-.056.579-.176.698-.12.127-.346.19-.677.19h-1.27v.001zm0-7.596v-.673h1.34v-2.437h-1.34v-.635h1.27c.331 0 .557.06.677.183.12.127.176.36.176.702v1.971c0 .346-.056.578-.176.702s-.346.187-.677.187h-1.27zm0-7.599v-3.689l.557-.084v3.773h-.557zm0-7.597v-.675h1.34v-2.434h-1.34v-.638h1.27c.331 0 .557.062.677.189.12.12.176.356.176.696v1.975c0 .344-.056.578-.176.7-.12.125-.346.187-.677.187h-1.27zm0-7.599v-.674h1.34v-2.433h-1.34v-.637h1.27c.331 0 .557.06.677.187.12.122.176.356.176.698v1.973c0 .344-.056.579-.176.7-.12.127-.346.185-.677.185h-1.27v.001zm0-7.596v-3.689l.557-.086v3.775h-.557zm0-7.597v-3.69l.557-.084v3.775h-.557v-.001zm5.374 37.988v-3.033h-.797v-.501l1.587-.247v3.78h-.79v.001zm0 7.596v-3.032h-.797v-.501l1.587-.24v3.773h-.79zm0 7.6v-3.033h-.797v-.501l1.587-.243v3.777h-.79zm-14.297-36.258l.558-.083v3.773h-.558v-3.69zm8.923-20.616v3.69h-.233v-3.033h-.801v-.501l1.034-.156zm0 7.598v3.689h-.233v-3.035h-.801v-.497l1.034-.157zm0 7.541v.637h-1.341v2.433h1.341v.674h-1.267c-.335 0-.554-.058-.674-.185-.119-.122-.18-.356-.18-.7v-1.973c0-.342.061-.577.18-.698.12-.127.339-.187.674-.187h1.267v-.001zm0 7.596v.638h-1.341v2.434h1.341v.675h-1.267c-.335 0-.554-.062-.674-.187-.119-.122-.18-.356-.18-.7v-1.975c0-.34.061-.577.18-.696.12-.127.339-.189.674-.189h1.267zm0 7.655v3.689h-.233v-3.033h-.801v-.501l1.034-.155zm0 7.543v.635h-1.341v2.437h1.341v.673h-1.267c-.335 0-.554-.063-.674-.187-.119-.124-.18-.356-.18-.702v-1.971c0-.342.061-.575.18-.702.12-.123.339-.183.674-.183h1.267zm0 7.596v.634h-1.341v2.438h1.341v.673h-1.267c-.335 0-.554-.063-.674-.19-.119-.119-.18-.353-.18-.698v-1.975c0-.338.061-.571.18-.698.12-.12.339-.183.674-.183h1.267v-.001zm0 7.653v3.692h-.233v-3.033h-.801v-.501l1.034-.158zm-8.923 24.305v-3.692l.558-.078v3.771h-.558v-.001zm0-7.597v-.673h1.341v-2.438h-1.341v-.638h1.27c.335 0 .561.063.678.187.119.123.18.356.18.698v1.979c0 .342-.061.575-.18.694-.117.127-.343.19-.678.19h-1.27v.001zm0-7.6v-.67h1.341v-2.437h-1.341v-.639h1.27c.335 0 .561.061.678.188.119.123.18.355.18.698v1.975c0 .346-.061.578-.18.698-.117.127-.343.187-.678.187h-1.27zm0-7.595v-3.688l.558-.085v3.773h-.558zm0-7.6v-.67h1.341v-2.441h-1.341v-.635h1.27c.335 0 .561.063.678.19.119.12.18.353.18.698v1.971c0 .343-.061.579-.18.702-.117.127-.343.184-.678.184h-1.27v.001zm0-7.596v-.674h1.341v-2.433h-1.341v-.637h1.27c.335 0 .561.06.678.184.119.123.18.356.18.7v1.975c0 .342-.061.575-.18.702-.117.12-.343.184-.678.184h-1.27v-.001zm0-7.596v-3.689l.558-.086v3.775h-.558zm5.382 30.387v-3.032h-.801v-.501l1.587-.24v3.773h-.786zm0 7.6v-3.032h-.801v-.501l1.587-.243v3.776h-.786zm0 7.597v-3.033h-.801v-.501l1.587-.236v3.771h-.786zm-5.614-53.18v-3.033h-.797v-.501l1.029-.157v3.69h-.232v.001zm.232 3.907v3.689h-.232v-3.035h-.797v-.499l1.029-.155zm0 7.541v.637h-1.333v2.433h1.333v.674h-1.263c-.331 0-.557-.063-.677-.184-.12-.127-.176-.36-.176-.702v-1.975c0-.344.056-.577.176-.7.12-.124.346-.184.677-.184h1.263v.001zm0 7.595v.635h-1.333v2.441h1.333v.67h-1.263c-.331 0-.557-.057-.677-.184-.12-.123-.176-.359-.176-.702v-1.971c0-.345.056-.578.176-.698.12-.127.346-.19.677-.19h1.263v-.001zm0 7.656v3.688h-.232v-3.033h-.797v-.501l1.029-.154zm0 7.539v.639h-1.333v2.437h1.333v.67h-1.263c-.331 0-.557-.06-.677-.187-.12-.12-.176-.353-.176-.698v-1.975c0-.343.056-.575.176-.698.12-.127.346-.188.677-.188h1.263zm0 7.597v.638h-1.333v2.438h1.333v.673h-1.263c-.331 0-.557-.063-.677-.19-.12-.119-.176-.353-.176-.694v-1.979c0-.342.056-.575.176-.698s.346-.187.677-.187h1.263v-.001zm0 7.652v3.692h-.232v-3.033h-.797v-.501l1.029-.158zm-10.601-10.068v-3.688l.558-.085v3.773h-.558zm0-7.596v-.674h1.34v-2.434h-1.34v-.639h1.27c.332 0 .558.061.677.188.12.12.177.353.177.698v1.972c0 .342-.057.574-.177.701-.119.127-.345.188-.677.188h-1.27zm0-7.596v-.677h1.34v-2.434h-1.34v-.638h1.27c.332 0 .558.063.677.187.12.123.177.356.177.698v1.975c0 .346-.057.578-.177.698-.119.127-.345.19-.677.19h-1.27v.001zm0-7.603v-3.689l.558-.084v3.773h-.558zm0-7.595v-.672h1.34v-2.437h-1.34v-.637h1.27c.332 0 .558.062.677.187.12.124.177.356.177.697v1.977c0 .344-.057.577-.177.7-.119.124-.345.186-.677.186h-1.27v-.001zm0-7.598v-.672h1.34v-2.437h-1.34v-.637h1.27c.332 0 .558.063.677.185.12.125.177.358.177.7v1.977c0 .344-.057.573-.177.7-.119.123-.345.183-.677.183h-1.27v.001zm0-7.596v-3.69l.558-.083v3.773h-.558zm0-7.598v-3.691l.558-.083v3.773h-.558v.001zm5.375 37.99v-3.033h-.798v-.504l1.587-.24v3.777h-.789zm0 7.596v-3.033h-.798v-.501l1.587-.243v3.777h-.789zm0 7.596v-3.033h-.798v-.5l1.587-.24v3.773h-.789zm-5.375-56.873v3.691h-.232v-3.033h-.797v-.5l1.029-.158zm0 7.599v3.69h-.232v-3.033h-.797v-.501l1.029-.156zm0 7.541v.637h-1.337v2.437h1.337v.672h-1.266c-.332 0-.554-.06-.674-.183-.123-.127-.184-.356-.184-.7v-1.977c0-.342.061-.575.184-.7.12-.122.342-.185.674-.185h1.266v-.001zm0 7.598v.637h-1.337v2.437h1.337v.672h-1.266c-.332 0-.554-.062-.674-.186-.123-.123-.184-.356-.184-.7v-1.977c0-.34.061-.573.184-.697.12-.125.342-.187.674-.187h1.266v.001zm0 7.651v3.689h-.232v-3.033h-.797v-.498l1.029-.158zm0 7.543v.638h-1.337v2.434h1.337v.677h-1.266c-.332 0-.554-.063-.674-.19-.123-.12-.184-.353-.184-.698v-1.975c0-.342.061-.575.184-.698.12-.124.342-.187.674-.187h1.266v-.001zm0 7.599v.639h-1.337v2.434h1.337v.674h-1.266c-.332 0-.554-.061-.674-.188-.123-.127-.184-.359-.184-.701v-1.972c0-.346.061-.578.184-.698.12-.127.342-.188.674-.188h1.266zm0 7.654v3.688h-.232v-3.033h-.797v-.5l1.029-.155z" clip-path="url(#m)"/><path fill-rule="evenodd" clip-rule="evenodd" d="M275.989 127.834l-6.652-8.151 1.707 10.179z"/><path fill-rule="evenodd" clip-rule="evenodd" fill="#BCBEC0" d="M135.686 133.821s6.866-6.6 11.875-4.879c5.007 1.721 18.027 8.894 18.027 8.894l4.8 3.375s-8.672 2.691-17.679.785c-9.003-1.908-13.734-3.442-13.734-3.442l-3.289-4.733z"/><defs><path id="n" d="M135.686 133.821s6.866-6.6 11.875-4.879c5.007 1.721 18.027 8.894 18.027 8.894l4.8 3.375s-8.672 2.691-17.679.785c-9.003-1.908-13.734-3.442-13.734-3.442l-3.289-4.733z"/></defs><clipPath id="o"><use xlink:href="#n" overflow="visible"/></clipPath><path fill-rule="evenodd" clip-rule="evenodd" fill="#fff" d="M130.706 142.99s5.836-9.658 12.09-9.224c6.258.436 23.356 4.648 23.356 4.648l6.526 2.389s-9.097 5.739-19.985 6.318c-10.887.578-16.771.273-16.771.273l-5.216-4.404z" clip-path="url(#o)"/><path fill-rule="evenodd" clip-rule="evenodd" fill="#BCBEC0" d="M255.944 135.02s-6.866-6.596-11.874-4.875c-5.012 1.723-18.027 8.893-18.027 8.893l-4.8 3.376s8.672 2.691 17.675.783c9.007-1.908 13.735-3.442 13.735-3.442l3.291-4.735z"/><defs><path id="p" d="M255.944 135.02s-6.866-6.596-11.874-4.875c-5.012 1.723-18.027 8.893-18.027 8.893l-4.8 3.376s8.672 2.691 17.675.783c9.007-1.908 13.735-3.442 13.735-3.442l3.291-4.735z"/></defs><clipPath id="q"><use xlink:href="#p" overflow="visible"/></clipPath><path fill-rule="evenodd" clip-rule="evenodd" fill="#fff" d="M254.018 138.402s-6.866-6.597-11.877-4.875c-5.008 1.721-18.028 8.894-18.028 8.894l-4.796 3.375s8.668 2.694 17.675.783c9.004-1.906 13.736-3.442 13.736-3.442l3.29-4.735z" clip-path="url(#q)"/><path fill-rule="evenodd" clip-rule="evenodd" fill="#F9A870" d="M108.625 123.624c-4.29-7.723-17.453-15.16-20.311-7.434-2.862 7.723 11.729 51.208 20.311 47.777 8.583-3.437 8.869-11.733 8.583-19.456-.287-7.724-8.583-20.887-8.583-20.887z"/><defs><path id="r" d="M108.625 123.624c-4.29-7.723-17.453-15.16-20.311-7.434-2.862 7.723 11.729 51.208 20.311 47.777 8.583-3.437 8.869-11.733 8.583-19.456-.287-7.724-8.583-20.887-8.583-20.887z"/></defs><clipPath id="s"><use xlink:href="#r" overflow="visible"/></clipPath><path fill-rule="evenodd" clip-rule="evenodd" fill="#FED09E" d="M104.482 125.355c-4.288-7.725-17.451-15.165-20.311-7.439-2.86 7.725 11.731 51.214 20.311 47.779 8.583-3.435 8.871-11.733 8.583-19.456-.283-7.723-8.583-20.884-8.583-20.884z" clip-path="url(#s)"/><path fill-rule="evenodd" clip-rule="evenodd" d="M129.152 135.649s4.697-16.453 20.628-12.569c16.319 3.981 25.402 20.68 40.506 9.224-4.231 1.721-10.707 1.313-14.002-.762-11.635-7.326-39.16-31.093-47.132 4.107z"/><path fill="#F58345" d="M319.223 122.906l-21.134-13.902-2.028.111v-2.846l2.342-.128.854.232 25.193 16.577-.72 2.606-20.207.889-.705-.151-6.757-3.426v-3.189l7.713 3.911 15.449-.684zm-23.162-13.79l-13.697.749-9.465 17.471c1.827.55 4.979 1.102 7.116-.769 3.237-2.844 6.384-6.048 7.237-6.928l.652-2.213.482-1.642 1.523.772 6.15 3.121v3.189l-5.91-3.001-.268.91-.325.57c-.011.009-3.763 3.927-7.674 7.36-4.556 3.996-11.592.702-11.609.691l-1.396-.635.727-1.338 10.637-19.613.377-.7.801-.041 14.642-.801v2.848z"/><path fill-rule="evenodd" clip-rule="evenodd" fill="#FED09E" d="M323.667 124.135l-25.189-16.575-16.983.931-10.633 19.609s6.234 2.917 10.086-.465c3.857-3.382 7.567-7.261 7.567-7.261l.755-2.548 14.19 7.199 20.207-.89z"/><defs><path id="t" d="M323.667 124.135l-25.189-16.575-16.983.931-10.633 19.609s6.234 2.917 10.086-.465c3.857-3.382 7.567-7.261 7.567-7.261l.755-2.548 14.19 7.199 20.207-.89z"/></defs><clipPath id="u"><use xlink:href="#t" overflow="visible"/></clipPath><path fill-rule="evenodd" clip-rule="evenodd" fill="#F9A870" d="M326.704 125.163l-27.846-12.951-16.98.929-10.636 19.609s6.234 2.917 10.093-.464c3.851-3.382 7.568-7.259 7.568-7.259l.747-2.55 14.194 7.198 22.86-4.512z" clip-path="url(#u)"/><path fill="#F9A870" d="M321.943 124.916l-17.164-7.557v-3.075l.085.005 19.036 8.375.804.356.039.893.828 19.38.046 1-.941.374c-.042.016-13.188 5.316-19.896 4.206v-2.844c4.119 1.365 14.698-2.419 17.908-3.638l-.745-17.475zm-17.164 3.005v2.962l.212-.063.67-.192c-.282.504-.578 1.054-.882 1.638v6.189c1.954-4.503 5.106-9.368 5.12-9.391l-1.572-2.151-3.548 1.008zm0-10.562l-.585-.254-17.326 5.253 3.121 21.564c2.938-1.166 8.845-3.888 8.386-6.787-.705-4.438-2.92-6.053-2.927-6.055l.994-2.573c.015 0 3.964.654 7.77-.425h.007l.561-.162v2.962c-1.918.515-3.837.657-5.382.659.727 1.252 1.433 2.946 1.781 5.149.987 6.208-11.863 10.509-11.898 10.518l-1.611.54-.244-1.684-3.551-24.508-.169-1.206 1.167-.353 19.005-5.766.902.051v3.077h-.001zm0 21.096v-6.189c-2.758 5.247-6.101 13.275-2.32 15.777.62.413 1.414.677 2.32.829v-2.844c-.282-.095-.536-.213-.748-.358-1.439-.947-.653-3.987.748-7.215z"/><path fill-rule="evenodd" clip-rule="evenodd" fill="#FED09E" d="M323.322 123.968l-19.033-8.377-19.004 5.764 3.547 24.511s11.744-3.925 10.943-8.952c-.794-5.024-3.517-6.995-3.517-6.995s4.232.7 8.344-.469l4.105-1.164s-10.072 15.524-5.466 18.573c4.605 3.045 20.912-3.511 20.912-3.511l-.831-19.38z"/><defs><path id="v" d="M323.322 123.968l-19.033-8.377-19.004 5.764 3.547 24.511s11.744-3.925 10.943-8.952c-.794-5.024-3.517-6.995-3.517-6.995s4.232.7 8.344-.469l4.105-1.164s-10.072 15.524-5.466 18.573c4.605 3.045 20.912-3.511 20.912-3.511l-.831-19.38z"/></defs><clipPath id="w"><use xlink:href="#v" overflow="visible"/></clipPath><path fill-rule="evenodd" clip-rule="evenodd" fill="#F9A870" d="M324.154 143.348l-7.875-14.522-9.102-7.7-18.388 4.036c2.624 18.114 13.563 40.703 15.623 42.068 4.598 3.043 20.354-18.872 20.354-18.872l-.612-5.01z" clip-path="url(#w)"/><path fill="#F58345" d="M321.946 136.686l-16.688-8.083v-3.16l18.465 8.945.536.261.19.568 3.675 10.979.328.977-.829.615c-.042.03-14.748 10.879-20.669 8.848-.709-.245-1.263-.679-1.696-1.266v-14.667c.148-.617.289-1.201.434-1.739l-.434.252v-3.293l2.074-1.211 2.066 1.68c-.018.044-5.421 16.208-1.517 17.546 3.848 1.324 14.201-5.701 17.217-7.834l-3.152-9.418zm-16.688-8.083l-4.592-2.227-15.241 9.303 8.429 20.089c2.55-1.869 7.582-5.981 6.411-8.667-1.803-4.135-4.433-5.161-4.44-5.167l.49-2.713c.011 0 3.929-.353 7.332-2.351l1.611-.947v3.293l-.173.106c-1.771 1.037-3.664 1.689-5.223 2.098 1.009 1.021 2.116 2.486 3.008 4.542 2.515 5.768-8.848 13.147-8.876 13.166l-1.432.928-.663-1.566-9.578-22.834-.473-1.129 1.048-.638 16.952-10.347.663-.406.694.339 4.052 1.966v3.162h.001zm0 12.102c-1.136 4.822-2.193 11.678 0 14.667v-14.667z"/><path fill-rule="evenodd" clip-rule="evenodd" fill="#FED09E" d="M323.103 135.667l-22.514-10.91-16.952 10.347 9.582 22.836s10.382-6.743 8.347-11.408c-2.031-4.666-5.159-5.893-5.159-5.893s4.274-.383 7.963-2.542l3.682-2.158s-5.854 17.557-.635 19.352c5.223 1.793 19.361-8.644 19.361-8.644l-3.675-10.98z"/><defs><path id="x" d="M323.103 135.667l-22.514-10.91-16.952 10.347 9.582 22.836s10.382-6.743 8.347-11.408c-2.031-4.666-5.159-5.893-5.159-5.893s4.274-.383 7.963-2.542l3.682-2.158s-5.854 17.557-.635 19.352c5.223 1.793 19.361-8.644 19.361-8.644l-3.675-10.98z"/></defs><clipPath id="y"><use xlink:href="#x" overflow="visible"/></clipPath><path fill-rule="evenodd" clip-rule="evenodd" fill="#F9A870" d="M326.778 146.646l-21.646-15.852-17.149 7.115c7.081 16.876 23.342 36.002 25.673 36.806 5.223 1.795 17.467-25.268 17.467-25.268l-4.345-2.801z" clip-path="url(#y)"/><path fill="#F58345" d="M324.947 143.342l-16.105-5.67v-3.016l17.618 6.202.568.201.25.54 4.885 10.497.13.763-.465.889c-.035.036-13.391 12.463-19.526 11.098-1.904-.419-2.945-2.239-3.46-4.653v-11.186c.067-.55.134-1.079.205-1.564l-.205.152v-3.546l1.368-1.022 2.239 1.413c-.007.047-3.522 16.752.462 17.64 3.95.875 13.447-7.254 16.229-9.731l-4.193-9.007zm-16.106-5.67l-6.192-2.18-14.106 10.962 10.637 19.008c2.327-2.137 6.862-6.794 5.398-9.331v-.007c-2.243-3.884-4.898-4.6-4.905-4.6l.07-2.777c.008-.003 3.894-.799 7.046-3.162l2.053-1.538v3.546l-.349.263c-1.647 1.236-3.46 2.1-4.959 2.682 1.125.905 2.388 2.236 3.502 4.168l.004-.003c3.146 5.452-7.311 14.06-7.346 14.085l-1.309 1.083-.832-1.488-12.086-21.614-.6-1.067.967-.75 15.679-12.186.613-.478.734.261 5.98 2.107v3.016h.001zm0 11.334c-.423 3.41-.712 7.855 0 11.186v-11.186z"/><path fill-rule="evenodd" clip-rule="evenodd" fill="#FED09E" d="M325.988 142.2l-23.6-8.309-15.683 12.186 12.089 21.614s9.561-7.868 7.015-12.276c-2.547-4.405-5.791-5.274-5.791-5.274s4.203-.859 7.624-3.419l3.418-2.561s-3.845 18.105 1.548 19.297c5.389 1.199 13.15 10.565 13.15 10.565l5.032-20.977-4.802-10.846z"/><defs><path id="z" d="M325.988 142.2l-23.6-8.309-15.683 12.186 12.089 21.614s9.561-7.868 7.015-12.276c-2.547-4.405-5.791-5.274-5.791-5.274s4.203-.859 7.624-3.419l3.418-2.561s-3.845 18.105 1.548 19.297c5.389 1.199 13.15 10.565 13.15 10.565l5.032-20.977-4.802-10.846z"/></defs><clipPath id="A"><use xlink:href="#z" overflow="visible"/></clipPath><path fill-rule="evenodd" clip-rule="evenodd" fill="#F9A870" d="M330.622 144.497l-23.6-8.308-15.683 12.186c8.933 15.974 27.242 33.155 29.647 33.687 5.389 1.199 14.522-27.067 14.522-27.067l-4.886-10.498z" clip-path="url(#A)"/><path fill-rule="evenodd" clip-rule="evenodd" d="M138.438 133.255c11.246-5.884 22.36 2.549 32.398 8.495 0 0-6.18-7.984-18.726-13.633-12.546-5.65-12.775 6.626-19.442 3.588.206 9.286 16.266 11.312 21.785 11.312-10.077-2.078-12.887-2.288-16.015-9.762z"/><circle fill-rule="evenodd" clip-rule="evenodd" stroke="#000" stroke-width=".648" stroke-miterlimit="2.613" cx="152.297" cy="134.554" r="5.485"/><path fill-rule="evenodd" clip-rule="evenodd" fill="#FED09E" d="M186.806 173.15l15.393-20.663 1.411 17.771z"/><path fill-rule="evenodd" clip-rule="evenodd" d="M264.023 132.563s-7.254-11.211-20.708-5.214c-13.454 6-19.921 18.308-24.499 15.623l-4.573-2.688s1.343 1.06 4.573.397c11.226-2.299 29.115-42.302 45.207-8.118zM252.107 134.221c-10.576-5.526-21.025 2.402-30.47 7.993 0 0 11.327-10.705 19.495-14.129 8.164-3.424 10.128 7.54 16.398 4.683-.194 8.73-15.295 10.638-20.486 10.638 9.477-1.956 12.118-2.153 15.063-9.185z"/><circle fill-rule="evenodd" clip-rule="evenodd" stroke="#000" stroke-width=".648" stroke-miterlimit="2.613" cx="237.123" cy="136.544" r="4.67"/><path fill="#F9A870" d="M102.124 132.953h.003c.5-.028 1.199.228 1.645.439.519.244 1.019.583 1.495 1.012 2.351 2.114 4.137 6.452 4.465 11.893l.312 1.64c-1.003-1.635-3.474-3.574-5.709-2.282-2.752 1.589-1.555 4.835.455 6.002-3.648-.688-4.688-4.204-3.324-7.196.277-.612.693-1.109 1.243-1.428 1.039-.601 2.521-.545 4.417.638.604.374 1.101.793 1.492 1.174-.528-4.553-1.72-8.475-6.494-11.892z"/><path fill-rule="evenodd" clip-rule="evenodd" fill="#F9A870" d="M102.206 152.753s3.291 4.304 6.295 3.012c3.003-1.289 3.051-6.33 2.717-12.191-.332-5.859-6.651-19.221-10.086-22.448-3.435-3.227-8.658-3.371-8.658-3.371s8.159-1.097 13.022 6.169c4.859 7.263 10.271 20.503 9.442 26.104-.829 5.604-4.006 7.603-6.581 7.462-2.575-.146-6.151-4.737-6.151-4.737z"/><radialGradient id="B" cx="244.387" cy="139.705" r="14.569" gradientUnits="userSpaceOnUse"><stop offset="0" stop-color="#D1D3D4"/><stop offset="1"/></radialGradient><path fill-rule="evenodd" clip-rule="evenodd" fill="url(#B)" d="M276.2 130.684c-5.706 4.484-54.802 20.69-56.699 20.78-1.894.084-6.267.859-6.267.859l-2.232-4.734s5.833-.893 8.943-.893c3.114 0 57.828-19.609 57.828-19.609l-1.573 3.597z"/><defs><path id="C" d="M276.2 130.684c-5.706 4.484-54.802 20.69-56.699 20.78-1.894.084-6.267.859-6.267.859l-2.232-4.734s5.833-.893 8.943-.893c3.114 0 57.828-19.609 57.828-19.609l-1.573 3.597z"/></defs><clipPath id="D"><use xlink:href="#C" overflow="visible"/></clipPath><path fill-rule="evenodd" clip-rule="evenodd" d="M274.845 132.212c-6.234 5.313-53.691 20.734-55.585 20.817-1.897.088-6.27.862-6.27.862l-2.229-4.734s5.833-.893 8.943-.893l56.044-18.858-.903 2.806z" clip-path="url(#D)"/><path fill="#37160E" d="M255.157 32.299l.046 1.12v8.714c-2.726 57.045-59.337 74.997-103.151 88.879-5.21 1.65-10.227 3.246-14.949 4.835v-3.003c4.48-1.499 9.204-3.003 14.092-4.549 45.199-14.325 104.301-33.061 101.145-95.333-7.342-7.691-15.192-13.805-23.346-18.458-18.959-10.826-39.575-13.743-59.357-10.264-11.269 1.982-22.263 6.041-32.534 11.895v-3.253c10.153-5.598 20.969-9.5 32.044-11.449 20.406-3.588 41.682-.577 61.25 10.599 8.517 4.863 16.716 11.278 24.369 19.369l.391.898zm-118.054 103.548c-19.229 6.478-33.391 12.911-34.405 23.115-2.039 20.491-7.392 34.681-14.501 44.281-5.844 7.889-12.872 12.692-20.234 15.341-7.335 2.638-14.977 3.131-22.092 2.426-12.495-1.245-23.444-6.225-28.21-9.758l-2.363-1.749 2.841-.762c34.567-9.353 40.273-37.812 47.324-72.998 4.734-23.598 10.061-50.175 24.945-76.242 6.3-11.029 14.044-20.821 22.815-29.117 7.326-6.93 15.37-12.814 23.88-17.502v3.253c-7.797 4.443-15.176 9.917-21.932 16.308-8.561 8.097-16.126 17.668-22.291 28.463-14.649 25.652-19.93 51.997-24.622 75.394-7.038 35.122-12.775 63.716-46.386 74.31 5.249 3.064 14.208 6.566 24.278 7.567 6.744.674 13.965.212 20.854-2.271 6.864-2.466 13.431-6.958 18.913-14.36 6.822-9.215 11.969-22.933 13.953-42.861 1.193-11.989 16.573-18.923 37.233-25.841v3.003z"/><path fill-rule="evenodd" clip-rule="evenodd" fill="#37160E" d="M253.736 32.378c5.678 101.31-148.786 89.597-152.452 126.443-8.162 82.017-69.665 61.002-82.778 51.293 58.766-15.897 35.958-84.802 73.138-149.911 34.021-59.571 110.442-82.415 162.092-27.825z"/><defs><path id="E" d="M253.736 32.378c5.678 101.31-148.786 89.597-152.452 126.443-8.162 82.017-69.665 61.002-82.778 51.293 58.766-15.897 35.958-84.802 73.138-149.911 34.021-59.571 110.442-82.415 162.092-27.825z"/></defs><clipPath id="F"><use xlink:href="#E" overflow="visible"/></clipPath><path fill-rule="evenodd" clip-rule="evenodd" fill="#663427" d="M262.404 51.644c5.678 101.31-141.844 90.967-152.45 126.444-20.777 69.521-87.19 33.636-83.26 32.027 29.383-12.047 37.921-24.777 60.616-100.781 25.619-85.797 123.451-112.281 175.094-57.69z" clip-path="url(#F)"/><path d="M162.725 142.757c16.259 2.918 32.922 5.595 40.493 5.83l1.88.058-.571 1.793c-.646 2.021-5.509 9.009-12.978 15.085-5.477 4.447-12.399 8.495-20.181 9.931-2.788.512-5.674.681-8.644.423v-2.846c2.794.269 5.516.105 8.13-.374 7.244-1.333 13.736-5.142 18.895-9.338 5.509-4.474 9.451-9.291 11.169-12.011-8.313-.589-23.399-3.024-38.194-5.672v-2.879zm-40.52-7.781c.103.02 19.988 4.094 40.52 7.781v2.878c-16.109-2.883-31.876-6.022-38.196-7.293 7.6 14.564 15.407 23.658 23.012 28.884l-.003.003c5.202 3.573 10.312 5.329 15.187 5.801v2.846c-5.396-.465-11.052-2.366-16.793-6.312h-.009c-8.419-5.791-17.031-15.995-25.278-32.564l-1.298-2.617 2.858.593z"/><radialGradient id="G" cx="192.248" cy="151.836" r="58.462" gradientUnits="userSpaceOnUse"><stop offset="0" stop-color="#A6CE39"/><stop offset=".672" stop-color="#0A5838"/><stop offset="1"/></radialGradient><path fill-rule="evenodd" clip-rule="evenodd" fill="url(#G)" d="M121.921 136.367s64.007 13.1 81.251 13.641c-1.911 5.991-44.746 59.698-81.251-13.641z"/><defs><path id="H" d="M121.921 136.367s64.007 13.1 81.251 13.641c-1.911 5.991-44.746 59.698-81.251-13.641z"/></defs><clipPath id="I"><use xlink:href="#H" overflow="visible"/></clipPath><g clip-path="url(#I)" fill-rule="evenodd" clip-rule="evenodd" fill="#A6CE39"><path d="M155.421 146.525l.556-.083v3.773h-.556v-3.69zm0 56.872v-3.688l.556-.089v3.777h-.556zm0-7.596v-.673h1.34v-2.438h-1.34v-.635h1.266c.337 0 .561.061.681.188.118.12.178.353.178.694v1.972c0 .346-.06.578-.178.705-.12.127-.344.187-.681.187h-1.266zm0-7.6v-.677h1.34v-2.43h-1.34v-.639h1.266c.337 0 .561.063.681.184.118.127.178.359.178.702v1.971c0 .346-.06.579-.178.702-.12.127-.344.187-.681.187h-1.266zm0-7.596v-3.688l.556-.089v3.777h-.556zm0-7.599v-.674h1.34v-2.433h-1.34v-.638h1.266c.337 0 .561.063.681.187.118.124.178.356.178.698v1.975c0 .346-.06.579-.178.702-.12.123-.344.184-.681.184h-1.266v-.001zm0-7.596v-.674h1.34v-2.433h-1.34v-.638h1.266c.337 0 .561.06.681.183.118.124.178.36.178.702v1.975c0 .342-.06.578-.178.698-.12.127-.344.187-.681.187h-1.266zm0-7.598v-3.69l.556-.083v3.773h-.556zm5.377 30.389v-3.036h-.798v-.493l1.585-.244v3.773h-.787zm0 7.6v-3.032h-.798v-.501l1.585-.243v3.776h-.787zm0 7.596v-3.033h-.798v-.501l1.585-.243v3.777h-.787zm-5.611-53.182v-3.033h-.797v-.5l1.031-.157v3.69h-.234zm.234 3.906v3.69h-.234v-3.033h-.797v-.501l1.031-.156zm0 7.544v.638h-1.34v2.433h1.34v.674h-1.266c-.333 0-.558-.06-.676-.187-.122-.12-.18-.356-.18-.698v-1.975c0-.342.058-.578.18-.702.118-.124.342-.183.676-.183h1.266zm0 7.596v.638h-1.34v2.433h1.34v.674h-1.266c-.333 0-.558-.061-.676-.184-.122-.123-.18-.356-.18-.702v-1.975c0-.342.058-.575.18-.698.118-.123.342-.187.676-.187h1.266v.001zm0 7.656v3.688h-.234v-3.036h-.797v-.498l1.031-.154zm0 7.539v.639h-1.34v2.43h1.34v.677h-1.266c-.333 0-.558-.06-.676-.187-.122-.123-.18-.356-.18-.702v-1.971c0-.343.058-.575.18-.702.118-.12.342-.184.676-.184h1.266zm0 7.6v.635h-1.34v2.438h1.34v.673h-1.266c-.333 0-.558-.06-.676-.187-.122-.127-.18-.359-.18-.705v-1.972c0-.342.058-.574.18-.694.118-.127.342-.188.676-.188h1.266zm0 7.653v3.688h-.234v-3.033h-.797v-.501l1.031-.154zM164.34 125.909l.555-.083v3.773h-.555v-3.69zm0 56.868v-3.688l.555-.081v3.77h-.555v-.001zm0-7.595v-.67h1.34v-2.434h-1.34v-.642h1.27c.333 0 .557.063.677.187.122.124.18.356.18.702v1.975c0 .339-.058.575-.18.698-.12.124-.344.184-.677.184h-1.27zm0-7.597v-.67h1.34v-2.437h-1.34v-.638h1.27c.333 0 .557.063.677.187.122.123.18.356.18.702v1.971c0 .342-.058.575-.18.698-.12.124-.344.187-.677.187h-1.27zm0-7.598v-3.688l.555-.084v3.773h-.555v-.001zm0-7.595v-.674h1.34v-2.435h-1.34v-.638h1.27c.333 0 .557.063.677.187.122.125.18.358.18.698v1.977c0 .344-.058.577-.18.7-.12.124-.344.186-.677.186h-1.27v-.001zm0-7.599v-.672h1.34v-2.437h-1.34v-.637h1.27c.333 0 .557.06.677.187.122.123.18.356.18.698v1.975c0 .342-.058.577-.18.7-.12.125-.344.185-.677.185h-1.27v.001zm0-7.598v-3.688l.555-.083v3.771h-.555zm5.376 30.39v-3.033h-.797v-.501l1.587-.24v3.773h-.79v.001zm0 7.597v-3.033h-.797v-.5l1.587-.24v3.773h-.79zm0 7.595v-3.032h-.797v-.497l1.587-.24v3.77h-.79zm-5.611-53.177v-3.033h-.797v-.5l1.032-.157v3.691h-.235v-.001zm.235 3.907v3.688h-.235v-3.031h-.797v-.501l1.032-.156zm0 7.541v.637h-1.337v2.437h1.337v.672h-1.266c-.332 0-.556-.06-.675-.185-.118-.124-.176-.358-.176-.7v-1.975c0-.342.058-.575.176-.698.12-.127.344-.187.675-.187h1.266v-.001zm0 7.597v.638h-1.337v2.435h1.337v.674h-1.266c-.332 0-.556-.062-.675-.186-.118-.123-.176-.356-.176-.7v-1.977c0-.34.058-.573.176-.698.12-.124.344-.187.675-.187h1.266v.001zm0 7.654v3.688h-.235v-3.033h-.797v-.5l1.032-.155zm0 7.541v.638h-1.337v2.437h1.337v.67h-1.266c-.332 0-.556-.063-.675-.187-.118-.124-.176-.356-.176-.698v-1.971c0-.346.058-.579.176-.702.12-.124.344-.187.675-.187h1.266zm0 7.597v.642h-1.337v2.434h1.337v.67h-1.266c-.332 0-.556-.06-.675-.184-.118-.123-.176-.359-.176-.698v-1.975c0-.346.058-.578.176-.702.12-.123.344-.187.675-.187h1.266zm0 7.652v3.688h-.235v-3.032h-.797v-.497l1.032-.159zM144.819 132.766l.554-.086v3.777h-.554v-3.691zm0 56.875v-3.692l.554-.085v3.777h-.554zm0-7.6v-.678h1.337v-2.43h-1.337v-.642h1.266c.333 0 .561.06.681.187.118.127.176.356.176.702v1.972c0 .342-.058.574-.176.701-.12.124-.347.188-.681.188h-1.266zm0-7.6v-.674h1.337v-2.437h-1.337v-.635h1.266c.333 0 .561.063.681.184.118.127.176.36.176.702v1.972c0 .345-.058.578-.176.705-.12.12-.347.184-.681.184h-1.266v-.001zm0-7.596v-3.688l.554-.088v3.777h-.554v-.001zm0-7.6v-.672h1.337v-2.437h-1.337v-.636h1.266c.333 0 .561.062.681.187.118.124.176.356.176.7v1.973c0 .344-.058.577-.176.7-.12.124-.347.185-.681.185h-1.266zm0-7.594v-.675h1.337v-2.437h-1.337v-.637h1.266c.333 0 .561.063.681.187.118.124.176.356.176.698v1.977c0 .342-.058.575-.176.7-.12.124-.347.187-.681.187h-1.266zm0-7.598v-3.69l.554-.084v3.775h-.554v-.001zm5.373 30.388v-3.033h-.795v-.501l1.587-.24v3.774h-.792zm0 7.6v-3.037h-.795v-.497l1.587-.239v3.773h-.792zm0 7.6v-3.04h-.795v-.494l1.587-.243v3.777h-.792zm-5.608-53.184v-3.036h-.797v-.497l1.031-.157v3.69h-.234zm.235 3.905v3.69h-.234v-3.034h-.797v-.499l1.031-.157zm0 7.54v.637h-1.34v2.437h1.34v.675h-1.266c-.332 0-.559-.063-.676-.187-.12-.125-.178-.358-.178-.7v-1.977c0-.342.058-.575.178-.698.117-.124.344-.187.676-.187h1.266zm0 7.598v.637h-1.34v2.437h1.34v.672h-1.266c-.332 0-.559-.062-.676-.185-.12-.124-.178-.356-.178-.7v-1.973c0-.344.058-.576.178-.7.117-.125.344-.187.676-.187h1.266v-.001zm0 7.656v3.688h-.234v-3.033h-.797v-.501l1.031-.154zm0 7.54v.635h-1.34v2.437h1.34v.674h-1.266c-.332 0-.559-.063-.676-.184-.12-.127-.178-.36-.178-.705v-1.972c0-.342.058-.575.178-.702.117-.12.344-.184.676-.184h1.266v.001zm0 7.596v.642h-1.34v2.43h1.34v.678h-1.266c-.332 0-.559-.063-.676-.188-.12-.127-.178-.359-.178-.701v-1.972c0-.346.058-.575.178-.702.117-.127.344-.187.676-.187h1.266zm0 7.656v3.692h-.234v-3.04h-.797v-.494l1.031-.158zM176.861 132.212l.554-.083v3.773h-.554v-3.69zm0 56.875v-3.692l.554-.081v3.773h-.554zm0-7.6v-.674h1.337v-2.437h-1.337v-.639h1.266c.332 0 .561.067.677.187.123.127.184.36.184.698v1.979c0 .343-.061.575-.184.702-.116.12-.346.184-.677.184h-1.266zm0-7.596v-.677h1.337v-2.434h-1.337v-.635h1.266c.332 0 .561.06.677.184.123.127.184.36.184.698v1.975c0 .346-.061.578-.184.702-.116.127-.346.187-.677.187h-1.266zm0-7.596v-3.689l.554-.084v3.773h-.554zm0-7.598v-.675h1.337v-2.433h-1.337v-.637h1.266c.332 0 .561.06.677.187.123.12.184.356.184.696v1.975c0 .344-.061.575-.184.7-.116.124-.346.187-.677.187h-1.266zm0-7.598v-.674h1.337v-2.435h-1.337v-.638h1.266c.332 0 .561.062.677.187.123.123.184.358.184.7v1.973c0 .344-.061.577-.184.7-.116.127-.346.187-.677.187h-1.266zm0-7.596v-3.692l.554-.084v3.777h-.554v-.001zm5.378 30.388v-3.033h-.8v-.5l1.59-.24v3.773h-.79zm0 7.596v-3.029h-.8v-.501l1.59-.243v3.773h-.79zm0 7.6v-3.036h-.8v-.498l1.59-.239v3.773h-.79zm-5.613-53.184v-3.033h-.799v-.5l1.033-.157v3.691h-.234v-.001zm.235 3.908v3.692h-.234v-3.037h-.799v-.5l1.033-.155zm0 7.541v.638h-1.336v2.435h1.336v.674h-1.266c-.333 0-.559-.06-.675-.187-.122-.124-.18-.356-.18-.7v-1.973c0-.342.058-.577.18-.7.116-.125.342-.187.675-.187h1.266zm0 7.6v.637h-1.336v2.433h1.336v.675h-1.266c-.333 0-.559-.063-.675-.187-.122-.125-.18-.356-.18-.7v-1.975c0-.34.058-.577.18-.696.116-.127.342-.187.675-.187h1.266zm0 7.654v3.689h-.234v-3.037h-.799v-.497l1.033-.155zm0 7.54v.635h-1.336v2.434h1.336v.677h-1.266c-.333 0-.559-.06-.675-.187-.122-.124-.18-.356-.18-.702v-1.975c0-.338.058-.571.18-.698.116-.124.342-.184.675-.184h1.266zm0 7.592v.639h-1.336v2.437h1.336v.674h-1.266c-.333 0-.559-.063-.675-.184-.122-.127-.18-.359-.18-.702v-1.979c0-.338.058-.571.18-.698.116-.119.342-.187.675-.187h1.266zm0 7.657v3.692h-.234v-3.036h-.799v-.498l1.033-.158z"/></g><radialGradient id="J" cx="166.855" cy="143.671" r="34.094" gradientUnits="userSpaceOnUse"><stop offset="0" stop-color="#D1D3D4"/><stop offset="1"/></radialGradient><path fill-rule="evenodd" clip-rule="evenodd" fill="url(#J)" d="M123.722 139.867c12.692 1.987 76.785 11.932 79.783 12.743 2.997.811 9.729-.287 9.729-.287l-.97-4.782s-4.469.192-9.19.192c-4.719 0-82.598-13.299-82.598-13.299l3.246 5.433z"/><defs><path id="K" d="M123.722 139.867c12.692 1.987 76.785 11.932 79.783 12.743 2.997.811 9.729-.287 9.729-.287l-.97-4.782s-4.469.192-9.19.192c-4.719 0-82.598-13.299-82.598-13.299l3.246 5.433z"/></defs><clipPath id="L"><use xlink:href="#K" overflow="visible"/></clipPath><path fill-rule="evenodd" clip-rule="evenodd" d="M124.695 141.632c12.688 1.984 76.781 11.927 79.779 12.738 2.997.811 9.729-.286 9.729-.286l-.967-4.782s-4.468.192-9.189.192c-4.719 0-82.601-13.298-82.601-13.298l3.249 5.436z" clip-path="url(#L)"/><path fill-rule="evenodd" clip-rule="evenodd" d="M105.761 185.712s-100.039 54.957-105.05 78.762c-5.015 23.8 17.795 33.572 27.992 26.9 10.201-6.673 68.237-30.321 72.56-24.076 4.327 6.249 33.379 20.229 33.379 20.229l18.89 5.297-9.333-61.735-47.852 13.499-16.694 1.495 46.859-31.104-20.751-29.267z"/><path fill-rule="evenodd" clip-rule="evenodd" fill="#808285" d="M83.776 245.716s-34.581-5.332-51.477.515c-3.9 1.351-18.454 19.305-14.305 22.598 4.15 3.301 6.013-14.772 19.17-20.023 13.156-5.248 46.612-3.09 46.612-3.09z"/><path fill="#F58345" d="M93.942 240.938c1.723.25 3.045 1.071 4.688 2.088 2.112 1.305 4.849 3.004 10.44 3.914l.878.141.256.854c3.345 11.137 4.188 18.952 3.313 24.267-.762 4.647-2.823 7.486-5.701 9.003-2.795 1.478-6.3 1.629-10.084.941-1.24-.222-2.506-.547-3.791-.931v-2.973c1.465.476 2.9.856 4.292 1.107 3.192.581 6.078.489 8.259-.663 2.1-1.104 3.618-3.291 4.22-6.94.786-4.778.021-11.913-2.983-22.157-5.551-1.026-8.381-2.782-10.59-4.147-1.12-.691-2.045-1.266-3.197-1.509v-2.995zm-18.927 30.148v-.011h-.004c.051-.434-.105-1.503-.309-2.878-.947-6.422-2.784-18.878 8.818-24.418 5.225-2.493 8.166-3.159 10.421-2.842v2.994c-1.876-.392-4.35.105-9.195 2.419-9.705 4.638-8.069 15.721-7.224 21.438.159 1.068.292 1.972.333 2.694 4.72 2.867 10.576 5.984 16.086 7.759v2.973c-6.316-1.894-13.054-5.52-18.268-8.729l-.786-.49.128-.909z"/><path fill-rule="evenodd" clip-rule="evenodd" fill="#F9A870" d="M76.422 271.276c.425-3.093-5.593-19.858 7.714-26.21 14.138-6.753 9.939.871 24.707 3.273 13.977 46.599-16.425 32.79-32.421 22.937z"/><defs><path id="M" d="M76.422 271.276c.425-3.093-5.593-19.858 7.714-26.21 14.138-6.753 9.939.871 24.707 3.273 13.977 46.599-16.425 32.79-32.421 22.937z"/></defs><clipPath id="N"><use xlink:href="#M" overflow="visible"/></clipPath><path fill-rule="evenodd" clip-rule="evenodd" fill="#FED09E" d="M80.784 275.86c.425-3.089-2.904-18.605 7.686-28.861 12.454-12.064 8.587-3.984 23.354-1.576 13.98 46.593-15.045 40.294-31.04 30.437z" clip-path="url(#N)"/><path d="M209.069 164.87l25.081-.649 36.788-.956.089-.208.92-.021 40.181-1.036c1.861-.051 3.583.194 5.142.691 2.807.896 5.063 2.603 6.637 4.895 1.552 2.257 2.434 5.075 2.518 8.231.057 2.253-.292 4.68-1.1 7.201-.389 1.234-1.143 3.604-2.578 8.143-.931 2.938-1.773 5.621-2.521 8.013l-.007.018-.004.018c-.702 2.25-1.777 5.625-2.828 8.936-.529 1.658-.974 3.055-2.147 6.793l-.007.018-.008.014c-.938 2.998-1.671 5.311-2.387 7.561-.875 2.762-1.753 5.541-2.359 7.473v.004l-.008.015c-1.375 4.383-2.511 7.963-3.604 11.426l-1.03 3.244-.021.039-.004.018-.003.014c-2.116 5.794-5.393 11.01-9.568 15.693-4.144 4.655-9.187 8.795-14.85 12.466-20.108 13.01-48.187 20.063-72.322 23.152v-2.867c23.698-3.058 51.148-9.974 70.771-22.665 5.452-3.53 10.298-7.512 14.275-11.977 3.939-4.422 7.024-9.32 9.007-14.727v-.007l1.022-3.244c1.291-4.073 2.574-8.122 3.611-11.412v-.007l.003-.021.004.007c.941-3.012 1.644-5.223 2.359-7.476.871-2.751 1.731-5.47 2.381-7.537l.007-.014.003-.021 2.169-6.82c.822-2.592 1.644-5.17 2.811-8.904l.004-.018.007-.018c.91-2.924 1.749-5.593 2.525-8.044l2.592-8.136c.709-2.215 1.012-4.334.963-6.28-.063-2.6-.769-4.892-2.011-6.697-1.22-1.771-2.973-3.093-5.155-3.788-1.263-.402-2.673-.6-4.222-.564l-39.268 1.019-.085.201-.917.028-37.709.974-25.147.656v-2.847zm-88.206 2.285l57.786-1.499 30.42-.786v2.842l-30.356.783-57.784 1.502c-10.07.261-18.89 6.421-23.229 15.005-.857 1.692-1.539 3.478-2.019 5.321-.479 1.852-.765 3.767-.823 5.724l-.012.586-.055 7.296c-.035 4.821-.071 9.606-.117 14.314l-.007.804c-.042 4.447-.06 8.858-.078 13.229l-.012 2.397c-.009 2.07-.021 4.126-.034 6.168-.018 3.054.094 7.328.207 11.606.041 1.562.084 3.124.12 4.68l.02.962.003.025.007.338.051 2.359-.028-.021.035 2.99v.024l-.005.575.012.031c.046 3.044.111 6.771.203 10.195.086 3.336.199 6.362.345 8.101.051.628 3.014.882 7.191.917 4.868.046 11.174-.455 16.933-1.068l.779.141c7.254 3.611 15.067 6.38 23.33 8.379 1.627.392 3.259.755 4.882 1.086 10.125 2.042 20.879 3.002 32.077 3.002v-.004h.028c8.023 0 17.81-.604 28.336-1.957v2.867c-10.526 1.347-20.306 1.939-28.336 1.939h-.028v-.004c-11.378 0-22.321-.98-32.63-3.064-1.698-.339-3.366-.709-4.996-1.101-8.351-2.017-16.241-4.803-23.563-8.414-5.715.6-11.939 1.083-16.835 1.037-5.704-.05-9.795-.991-10.008-3.523-.141-1.679-.254-4.792-.346-8.27-.088-3.386-.157-7.145-.203-10.224h.005l-.014-.042.001-.621c-.051-3.564-.076-5.667-.076-5.67v-.339l-.012-.593c-.034-1.474-.076-3.071-.12-4.669-.113-4.288-.228-8.569-.205-11.684.013-2.045.023-4.104.034-6.164l.011-2.408c.018-4.377.037-8.796.077-13.231l.007-.805c.046-4.743.081-9.504.116-14.304l.057-7.311v-.021l.01-.6v-.021c.067-2.172.381-4.306.914-6.354.534-2.053 1.287-4.027 2.23-5.893 4.792-9.472 14.55-16.271 25.704-16.56z"/><radialGradient id="O" cx="271.676" cy="184.72" r="103.405" gradientUnits="userSpaceOnUse"><stop offset="0" stop-color="#fff"/><stop offset="1" stop-color="#BCBEC0"/></radialGradient><path fill-rule="evenodd" clip-rule="evenodd" fill="url(#O)" d="M120.898 168.576c19.505-.508 38.776-1.005 57.783-1.499 18.739-.487 37.268-.966 55.504-1.439l37.705-.98.092-.204 40.182-1.037c9.938-.257 15.221 8.492 11.811 19.174-1.739 5.459-3.453 10.858-5.117 16.176-1.657 5.318-3.351 10.569-4.986 15.761l-4.754 15.048c-1.556 4.954-3.11 9.856-4.642 14.684-14.6 40.068-87.246 52.327-123.742 52.327-22.587 0-43.41-3.879-60.952-12.611-11.583 1.224-25.425 2.018-25.688-1.149-.286-3.421-.458-12.272-.548-18.395l-.012-.014.003-.621c-.047-3.312-.067-5.681-.067-5.681-.124-5.851-.374-12.819-.344-17.276.046-7.163.051-14.438.122-21.802.072-7.366.118-14.847.178-22.421.116-14.869 12.469-27.653 27.472-28.041z"/><defs><path id="P" d="M120.898 168.576c19.505-.508 38.776-1.005 57.783-1.499 18.739-.487 37.268-.966 55.504-1.439l37.705-.98.092-.204 40.182-1.037c9.938-.257 15.221 8.492 11.811 19.174-1.739 5.459-3.453 10.858-5.117 16.176-1.657 5.318-3.351 10.569-4.986 15.761l-4.754 15.048c-1.556 4.954-3.11 9.856-4.642 14.684-14.6 40.068-87.246 52.327-123.742 52.327-22.587 0-43.41-3.879-60.952-12.611-11.583 1.224-25.425 2.018-25.688-1.149-.286-3.421-.458-12.272-.548-18.395l-.012-.014.003-.621c-.047-3.312-.067-5.681-.067-5.681-.124-5.851-.374-12.819-.344-17.276.046-7.163.051-14.438.122-21.802.072-7.366.118-14.847.178-22.421.116-14.869 12.469-27.653 27.472-28.041z"/></defs><clipPath id="Q"><use xlink:href="#P" overflow="visible"/></clipPath><g clip-path="url(#Q)"><linearGradient id="R" gradientUnits="userSpaceOnUse" x1="155.995" y1="285.042" x2="250.175" y2="176.701"><stop offset="0" stop-color="#fff"/><stop offset="1" stop-color="#BCBEC0"/></linearGradient><path fill-rule="evenodd" clip-rule="evenodd" fill="url(#R)" d="M125.31 177.734c16.083-.458 31.982-.92 47.709-1.368l46.157-1.322c15.037-.43 29.919-.856 44.628-1.28 14.533-.416 28.978-.832 43.218-1.241 10.657-.303 16.187 10.58 12.392 23.769-1.929 6.69-3.822 13.277-5.656 19.738-1.83 6.426-3.64 12.73-5.42 18.955-1.729 6.052-3.453 12.019-5.117 17.862-1.657 5.818-3.312 11.56-4.931 17.202-2.485 8.665-9.701 16.247-17.343 19.001l-176.302 4.584c-1.936-2.976-3.049-6.644-3.005-10.706.063-5.949.129-12.029.217-18.187.086-6.196.169-12.526.256-18.941.088-6.615.13-13.358.233-20.217.099-6.895.16-13.93.257-21.089.192-14.152 10.416-26.41 22.707-26.76z"/><path fill-rule="evenodd" clip-rule="evenodd" d="M92.951 287.967l217.936-5.124v-3.124l-217.936 5.124z"/></g><path fill-rule="evenodd" clip-rule="evenodd" fill="#A6CE39" d="M150.599 132.611c.972 0 1.761.769 1.761 1.719 0 .949-.79 1.719-1.761 1.719-.97 0-1.756-.771-1.756-1.719 0-.95.786-1.719 1.756-1.719zm3.258 3.313c.688 0 1.245.545 1.245 1.213 0 .674-.557 1.217-1.245 1.217-.686 0-1.241-.543-1.241-1.217 0-.668.555-1.213 1.241-1.213z"/><path fill-rule="evenodd" clip-rule="evenodd" fill="#BCBEC0" d="M212.849 219.249c9.797 0 17.153 7.945 16.427 17.735-.727 9.796-9.261 17.738-19.054 17.738s-17.149-7.942-16.423-17.738c.727-9.79 9.257-17.735 19.05-17.735z"/><defs><path id="S" d="M212.849 219.249c9.797 0 17.153 7.945 16.427 17.735-.727 9.796-9.261 17.738-19.054 17.738s-17.149-7.942-16.423-17.738c.727-9.79 9.257-17.735 19.05-17.735z"/></defs><clipPath id="T"><use xlink:href="#S" overflow="visible"/></clipPath><g clip-path="url(#T)"><radialGradient id="U" cx="225.406" cy="223.389" r="30.199" gradientUnits="userSpaceOnUse"><stop offset="0" stop-color="#fff"/><stop offset=".56" stop-color="#E6E7E8"/><stop offset="1" stop-color="#BCBEC0"/></radialGradient><path fill-rule="evenodd" clip-rule="evenodd" fill="url(#U)" d="M213.47 219.68c9.31 0 16.3 7.55 15.608 16.856-.685 9.31-8.795 16.86-18.105 16.86s-16.3-7.551-15.608-16.86c.691-9.307 8.795-16.856 18.105-16.856z"/></g><path fill-rule="evenodd" clip-rule="evenodd" fill="#BCBEC0" d="M211.704 217.461s5.652-7.987 13.425-6.369l7.77 1.623s-4.165 5.473-8.221 5.278c-4.056-.19-12.974-.532-12.974-.532z"/><defs><path id="V" d="M211.704 217.461s5.652-7.987 13.425-6.369l7.77 1.623s-4.165 5.473-8.221 5.278c-4.056-.19-12.974-.532-12.974-.532z"/></defs><clipPath id="W"><use xlink:href="#V" overflow="visible"/></clipPath><g clip-path="url(#W)"><radialGradient id="X" cx="230.006" cy="214.576" r="16.329" gradientUnits="userSpaceOnUse"><stop offset="0" stop-color="#fff"/><stop offset=".43" stop-color="#E6E7E8"/><stop offset="1" stop-color="#BCBEC0"/></radialGradient><path fill-rule="evenodd" clip-rule="evenodd" fill="url(#X)" d="M210.261 218.844s5.656-7.98 13.425-6.362c7.77 1.615 10.414.772 10.414.772s-4.045 6.926-10.865 6.126c-6.824-.797-12.974-.536-12.974-.536z"/></g><path fill-rule="evenodd" clip-rule="evenodd" fill="#F58220" d="M245.657 49.955c-17.926 38.143-90.708 44.714-126.308 65.59-43.544 25.536-55.211 86.975-99.342 94.832 37.841 17.644 49.403-38.107 102.819-78.437 32.848-24.803 127.034-35.166 122.831-81.985z"/><path fill-rule="evenodd" clip-rule="evenodd" fill="#A6CE39" d="M235.257 134.184c.881 0 1.604.705 1.604 1.571 0 .868-.724 1.571-1.604 1.571-.889 0-1.608-.704-1.608-1.571 0-.866.72-1.571 1.608-1.571zm2.973 3.027c.624 0 1.139.496 1.139 1.109 0 .616-.515 1.111-1.139 1.111-.628 0-1.136-.495-1.136-1.111 0-.613.508-1.109 1.136-1.109z"/><path fill-rule="evenodd" clip-rule="evenodd" fill="#939598" d="M87.626 239.957c4.061-3.633 5.041-9.311 5.133-15.602.104-7.271-2.081-11.813-4.435-13.524-1.018-.737-1.793-1.576-2.576-2.08-.222-.142 7.011 4.104 4.292 21.223-.552 3.469-3.941 7.437-2.414 9.983zM86.862 240.704c1.421-2.927.681-6.277-.689-9.769-1.582-4.037-3.817-6.055-5.503-6.464-.727-.184-1.344-.465-1.892-.571-.155-.028 4.799.681 7.162 10.749.48 2.039-.495 4.994.922 6.055z"/><path fill-rule="evenodd" clip-rule="evenodd" fill="#808285" d="M82.137 205.302c-3.906 3.255-10.814 15.467-12.645 16.324-3.387 1.587-6.836 1.368-9.442 3.435-2.434 1.926-2.299 3.53-3.147 6.577-.884 3.185-25.208 10.756-29.181 12.015-3.634 1.153-6.878 5.89-10.301 8.584-5.168 4.073 5.314-9.948 8.298-12.297 5.643-4.451 13.096-4.43 18.883-9.444 6.459-5.597 15.367-11.014 22.314-16.307 3.172-2.417 16.022-14.978 15.221-8.887z"/><path d="M173.795 283.725l82.23-1.111 1.058 1.993c-1.725 1.005-4.447 1.975-5.77 2.359-2.014.582-4.284 1.209-6.742 1.852-12.706 3.328-30.818 7.261-45.362 8.322h-.057l-25.357.821v-2.846l25.212-.814c14.356-1.048 32.275-4.938 44.848-8.234l1.77-.47-71.83.971v-2.843zm-73.257.991l73.257-.991v2.843l-71.821.97-.013 9.892 71.834-2.313v2.846l-73.211 2.356-.908-.29-.555-1.132.014-12.759.003-1.4 1.4-.022z"/><path fill-rule="evenodd" clip-rule="evenodd" fill="#414042" d="M100.556 286.137l158.689-3.703-3.202 1.602c-9.847 3.23-36.831 10.22-56.933 11.687l-98.572 3.174.018-12.76z"/><defs><path id="Y" d="M100.556 286.137l158.689-3.703-3.202 1.602c-9.847 3.23-36.831 10.22-56.933 11.687l-98.572 3.174.018-12.76z"/></defs><clipPath id="Z"><use xlink:href="#Y" overflow="visible"/></clipPath><g fill-rule="evenodd" clip-rule="evenodd" clip-path="url(#Z)"><path d="M218.185 285.823c.564-.025 1.029.473 1.029 1.104v5.148c0 .639-.465 1.168-1.029 1.195-.568.025-1.026-.465-1.026-1.104v-5.148c0-.634.458-1.17 1.026-1.195zm16.994-.741c.564-.021 1.026.473 1.026 1.104v5.152c0 .631-.462 1.167-1.026 1.191-.571.024-1.029-.469-1.029-1.101v-5.155c0-.63.458-1.166 1.029-1.191zm-3.132.134c.564-.018 1.03.477 1.03 1.107v5.152c0 .632-.466 1.168-1.03 1.192-.563.024-1.025-.469-1.025-1.107v-5.148c0-.635.462-1.171 1.025-1.196zm-3.011.135c.564-.021 1.03.469 1.03 1.104v5.152c0 .631-.466 1.167-1.03 1.191-.567.025-1.029-.469-1.029-1.1v-5.156c-.001-.631.461-1.167 1.029-1.191zm-3.417.151c.561-.028 1.026.469 1.026 1.101v5.152c0 .635-.466 1.167-1.026 1.191-.567.024-1.026-.469-1.026-1.104v-5.148c-.001-.631.458-1.168 1.026-1.192zm-3.481.151c.567-.028 1.033.47 1.033 1.101v5.152c0 .631-.466 1.167-1.033 1.191-.564.025-1.022-.469-1.022-1.104v-5.148c0-.631.458-1.166 1.022-1.192zM183.911 287.036c.6-.024 1.086.497 1.086 1.164v5.416c0 .663-.486 1.231-1.086 1.256-.593.024-1.079-.497-1.079-1.164v-5.413c0-.666.486-1.234 1.079-1.259zm17.872-.776c.6-.027 1.087.494 1.087 1.157v5.417c0 .67-.487 1.23-1.087 1.259-.592.024-1.079-.494-1.079-1.16v-5.421c0-.663.487-1.227 1.079-1.252zm-3.286.141c.592-.024 1.082.493 1.082 1.16v5.42c0 .667-.49 1.228-1.082 1.252-.6.025-1.079-.493-1.079-1.16v-5.413c-.001-.67.479-1.23 1.079-1.259zm-3.171.141c.597-.024 1.083.49 1.083 1.157v5.42c0 .667-.486 1.228-1.083 1.252-.596.032-1.079-.49-1.079-1.156v-5.421c0-.666.483-1.227 1.079-1.252zm-3.593.155c.592-.024 1.079.49 1.079 1.157v5.42c0 .667-.487 1.228-1.079 1.252-.6.031-1.079-.49-1.079-1.156v-5.417c0-.667.479-1.231 1.079-1.256zm-3.657.159c.592-.025 1.082.493 1.082 1.16v5.42c0 .663-.49 1.228-1.082 1.252-.597.024-1.083-.493-1.083-1.16v-5.42c0-.663.486-1.223 1.083-1.252z"/></g><path d="M99.676 300.027l-23.411-17.861-.578-.441.019-.73.122-4.101.058-1.936 1.825.631 24.211 8.947.036 14.36-.29 1.188z"/><path fill-rule="evenodd" clip-rule="evenodd" fill="#414042" d="M100.538 298.896l-23.83-18.102v-4.049l23.79 8.961z"/><path fill-rule="evenodd" clip-rule="evenodd" d="M101.922 287.438l144.07-4.698 1.326-1.445-145.396 3.241z"/><path fill-rule="evenodd" clip-rule="evenodd" fill="#F58345" d="M308.637 147.71c1.576-1.571 2.32-3.137 3.146-5.368.247-.67 1.428-3.602 1.019-1.603-.229 1.12-.962 5.327-1.152 5.605-.784 1.145-2.001 1.406-3.013 1.366zm-3.724 4.792c-1.668-1.457-3.448-1.947-6.023-2.374-.775-.128-4.146-.811-1.784-.811 1.319 0 6.302-.139 6.608.014 1.269.639 1.404 1.988 1.199 3.171z"/></svg>