<!DOCTYPE svg PUBLIC "-//W3C//DTD SVG 1.1//EN" "http://www.w3.org/Graphics/SVG/1.1/DTD/svg11.dtd" [
	<!ENTITY ns_flows "http://ns.adobe.com/Flows/1.0/">
]><svg xmlns="http://www.w3.org/2000/svg" width="21" height="21" viewBox="5.597 5.596 21 21" enable-background="new 5.597 5.596 21 21"><path fill="#444" d="M20.809 5.9c-.765.339-1.589.568-2.452.672.881-.529 1.558-1.365 1.878-2.361-.825.489-1.74.844-2.711 1.036-.779-.83-1.89-1.348-3.117-1.348-2.357 0-4.269 1.912-4.269 4.269 0 .335.039.661.11.973-3.547-.18-6.693-1.879-8.799-4.462-.367.631-.578 1.363-.578 2.147 0 1.481.754 2.788 1.899 3.554-.699-.022-1.357-.214-1.934-.534v.054c0 2.069 1.471 3.793 3.424 4.186-.358.098-.735.15-1.125.15-.275 0-.542-.027-.803-.078.543 1.695 2.121 2.93 3.988 2.965-1.461 1.145-3.302 1.826-5.302 1.826-.344 0-.684-.02-1.018-.059 1.889 1.211 4.133 1.918 6.544 1.918 7.853 0 12.146-6.505 12.146-12.146l-.014-.552c.836-.603 1.559-1.355 2.133-2.21z"/></svg>